<svg xmlns="http://www.w3.org/2000/svg" xmlns:xlink="http://www.w3.org/1999/xlink" width="900" zoomAndPan="magnify" viewBox="0 0 675 675.000002" height="900" preserveAspectRatio="xMidYMid meet" version="1.0"><defs><clipPath id="1df8d8dbc4"><path d="M 0.5 67.398438 L 674.5 67.398438 L 674.5 590.875 L 0.5 590.875 Z M 0.5 67.398438 " clip-rule="nonzero"/></clipPath></defs><path fill="#ffeec0" d="M 337.5 586.949219 C 241.398438 586.949219 160.269531 570.492188 102.890625 539.351562 C 71.648438 522.394531 47.441406 501.105469 30.945312 476.085938 C 13.351562 449.394531 4.433594 418.285156 4.433594 383.613281 C 4.433594 313.496094 40.902344 235.171875 101.984375 174.09375 C 133.339844 142.738281 168.925781 117.867188 207.753906 100.164062 C 249.691406 81.046875 293.34375 71.351562 337.5 71.351562 C 381.65625 71.351562 425.308594 81.046875 467.246094 100.164062 C 506.074219 117.867188 541.660156 142.738281 573.015625 174.09375 C 634.097656 235.171875 670.566406 313.496094 670.566406 383.613281 C 670.566406 418.285156 661.648438 449.394531 644.050781 476.085938 C 627.558594 501.105469 603.351562 522.394531 572.105469 539.351562 C 514.730469 570.492188 433.601562 586.949219 337.5 586.949219 " fill-opacity="1" fill-rule="nonzero"/><g clip-path="url(#1df8d8dbc4)"><path fill="#ffdf8f" d="M 337.5 67.417969 C 292.777344 67.417969 248.578125 77.230469 206.121094 96.589844 C 166.867188 114.484375 130.890625 139.625 99.203125 171.304688 C 37.402344 233.109375 0.5 312.472656 0.5 383.613281 C 0.5 419.066406 9.640625 450.910156 27.664062 478.25 C 44.519531 503.820312 69.199219 525.542969 101.015625 542.8125 C 158.96875 574.257812 240.742188 590.886719 337.5 590.886719 C 434.257812 590.886719 516.03125 574.257812 573.984375 542.8125 C 605.800781 525.542969 630.480469 503.820312 647.335938 478.25 C 665.359375 450.910156 674.5 419.066406 674.5 383.613281 C 674.5 312.472656 637.597656 233.109375 575.792969 171.304688 C 544.109375 139.625 508.136719 114.484375 468.878906 96.589844 C 426.421875 77.230469 382.222656 67.417969 337.5 67.417969 Z M 337.5 75.289062 C 519.273438 75.289062 666.632812 243.410156 666.632812 383.613281 C 666.632812 523.820312 519.273438 583.015625 337.5 583.015625 C 155.726562 583.015625 8.367188 523.820312 8.367188 383.613281 C 8.367188 243.410156 155.726562 75.289062 337.5 75.289062 " fill-opacity="1" fill-rule="nonzero"/></g><path fill="#ffa192" d="M 197.460938 353.53125 C 199.492188 361.40625 190 370.667969 176.265625 374.21875 C 162.523438 377.765625 149.742188 374.261719 147.710938 366.382812 C 145.679688 358.511719 155.167969 349.25 168.90625 345.695312 C 182.644531 342.144531 195.429688 345.65625 197.460938 353.53125 " fill-opacity="1" fill-rule="nonzero"/><path fill="#ffa192" d="M 477.539062 353.53125 C 475.507812 361.40625 485 370.667969 498.734375 374.21875 C 512.476562 377.765625 525.257812 374.261719 527.289062 366.382812 C 529.320312 358.511719 519.832031 349.25 506.09375 345.695312 C 492.355469 342.144531 479.570312 345.65625 477.539062 353.53125 " fill-opacity="1" fill-rule="nonzero"/><path fill="#3a3a3a" d="M 321.433594 380.617188 C 324.226562 386.679688 330.921875 390.8125 337.574219 390.742188 C 344.222656 390.667969 350.878906 386.53125 353.566406 380.386719 C 354.476562 378.292969 354.25 375.589844 351.996094 374.398438 C 350.105469 373.402344 346.992188 373.730469 346.015625 375.96875 C 345.761719 376.554688 345.476562 377.117188 345.144531 377.660156 C 345.007812 377.882812 344.84375 378.09375 344.707031 378.320312 C 344.523438 378.582031 344.59375 378.5 344.917969 378.070312 C 344.824219 378.191406 344.71875 378.320312 344.617188 378.433594 C 344.238281 378.878906 343.835938 379.292969 343.40625 379.683594 C 343.21875 379.859375 342.503906 380.546875 343.3125 379.808594 C 343.117188 379.988281 342.882812 380.125 342.664062 380.273438 C 342.179688 380.59375 341.679688 380.890625 341.160156 381.152344 C 341.015625 381.226562 340.875 381.296875 340.734375 381.359375 C 340.4375 381.492188 340.542969 381.449219 341.050781 381.234375 C 340.839844 381.402344 340.402344 381.46875 340.152344 381.550781 C 339.648438 381.707031 339.132812 381.808594 338.617188 381.933594 C 337.664062 382.164062 339.433594 381.898438 338.527344 381.949219 C 338.207031 381.96875 337.894531 381.992188 337.574219 381.996094 C 337.308594 381.996094 337.046875 381.992188 336.785156 381.976562 C 336.609375 381.964844 335.59375 381.769531 336.261719 381.9375 C 336.941406 382.117188 336.058594 381.886719 335.910156 381.855469 C 335.597656 381.785156 335.292969 381.707031 334.988281 381.617188 C 334.683594 381.527344 334.386719 381.421875 334.085938 381.316406 C 333.3125 381.046875 334.582031 381.582031 334.109375 381.328125 C 333.59375 381.054688 333.070312 380.804688 332.578125 380.496094 L 331.785156 379.964844 C 332.207031 380.296875 332.292969 380.363281 332.042969 380.164062 C 331.917969 380.0625 331.796875 379.957031 331.679688 379.851562 C 331.28125 379.503906 330.902344 379.136719 330.550781 378.746094 C 330.40625 378.589844 330.269531 378.429688 330.132812 378.265625 C 330.234375 378.398438 330.328125 378.523438 330.429688 378.65625 L 329.886719 377.871094 C 329.542969 377.339844 329.25 376.78125 328.984375 376.203125 C 328.027344 374.117188 324.851562 373.441406 323.003906 374.632812 C 320.855469 376.015625 320.40625 378.386719 321.433594 380.617188 " fill-opacity="1" fill-rule="nonzero"/><path fill="#3a3a3a" d="M 241.1875 331.441406 C 241.1875 342.320312 235.441406 351.144531 228.355469 351.144531 C 221.273438 351.144531 215.527344 342.320312 215.527344 331.441406 C 215.527344 320.5625 221.273438 311.742188 228.355469 311.742188 C 235.441406 311.742188 241.1875 320.5625 241.1875 331.441406 " fill-opacity="1" fill-rule="nonzero"/><path fill="#3a3a3a" d="M 459.472656 331.441406 C 459.472656 342.320312 453.726562 351.144531 446.644531 351.144531 C 439.558594 351.144531 433.8125 342.320312 433.8125 331.441406 C 433.8125 320.5625 439.558594 311.742188 446.644531 311.742188 C 453.726562 311.742188 459.472656 320.5625 459.472656 331.441406 " fill-opacity="1" fill-rule="nonzero"/><path fill="#fff5d9" d="M 54.570312 371.785156 C 51.710938 371.785156 49.117188 371.15625 46.84375 369.84375 C 28.15625 359.046875 38.394531 306.285156 69.722656 251.992188 C 97.246094 204.300781 131.875 171.296875 152.558594 171.296875 C 155.425781 171.296875 158.019531 171.925781 160.289062 173.246094 C 178.984375 184.039062 168.742188 236.804688 137.410156 291.09375 C 109.894531 338.785156 75.253906 371.792969 54.570312 371.785156 " fill-opacity="1" fill-rule="nonzero"/><path fill="#fff5d9" d="M 195.722656 225.769531 C 192.90625 225.769531 190.378906 225.035156 188.3125 223.480469 C 179.894531 217.113281 182.480469 199.480469 194.089844 184.085938 C 202.863281 172.464844 214.273438 165.441406 222.960938 165.441406 C 225.777344 165.441406 228.304688 166.179688 230.371094 167.734375 C 238.789062 174.097656 236.203125 191.730469 224.59375 207.125 C 215.820312 218.75 204.410156 225.769531 195.722656 225.769531 " fill-opacity="1" fill-rule="nonzero"/><path fill="#fff5d9" d="M 190.9375 165.707031 C 185.78125 165.707031 181.863281 164.28125 179.863281 161.296875 C 173.980469 152.527344 186.8125 133.597656 208.527344 119.015625 C 222.847656 109.402344 237.449219 104.074219 247.421875 104.074219 C 252.570312 104.074219 256.492188 105.496094 258.496094 108.484375 C 264.375 117.25 251.542969 136.179688 229.828125 150.765625 C 215.511719 160.378906 200.910156 165.707031 190.9375 165.707031 " fill-opacity="1" fill-rule="nonzero"/></svg>