<svg version="1.0" preserveAspectRatio="xMidYMid meet" viewBox="0 68.850000204 680.4 535.9500015880001" zoomAndPan="magnify" xmlns:xlink="http://www.w3.org/1999/xlink" xmlns="http://www.w3.org/2000/svg" style="max-height: 500px" width="680.4" height="535.9500015880001"><defs><clipPath id="12ee0e4b69"><path clip-rule="nonzero" d="M 0.5 75.402344 L 674.5 75.402344 L 674.5 598.878906 L 0.5 598.878906 Z M 0.5 75.402344"/></clipPath></defs><path fill-rule="nonzero" fill-opacity="1" d="M 337.5 594.953125 C 241.398438 594.953125 160.269531 578.496094 102.890625 547.355469 C 71.648438 530.398438 47.441406 509.109375 30.945312 484.089844 C 13.351562 457.398438 4.433594 426.289062 4.433594 391.617188 C 4.433594 321.5 40.902344 243.175781 101.984375 182.097656 C 133.339844 150.742188 168.925781 125.871094 207.753906 108.167969 C 249.691406 89.050781 293.34375 79.355469 337.5 79.355469 C 381.652344 79.355469 425.308594 89.050781 467.246094 108.167969 C 506.074219 125.871094 541.660156 150.742188 573.015625 182.097656 C 634.097656 243.175781 670.566406 321.5 670.566406 391.617188 C 670.566406 426.289062 661.648438 457.398438 644.050781 484.089844 C 627.558594 509.109375 603.351562 530.398438 572.105469 547.355469 C 514.730469 578.496094 433.601562 594.953125 337.5 594.953125" fill="#daf1c4"/><g clip-path="url(#12ee0e4b69)"><path fill-rule="nonzero" fill-opacity="1" d="M 337.5 75.421875 C 292.777344 75.421875 248.578125 85.234375 206.121094 104.59375 C 166.867188 122.488281 130.890625 147.628906 99.203125 179.308594 C 37.402344 241.113281 0.5 320.476562 0.5 391.617188 C 0.5 427.070312 9.640625 458.914062 27.664062 486.253906 C 44.519531 511.824219 69.199219 533.546875 101.015625 550.816406 C 158.96875 582.261719 240.742188 598.890625 337.5 598.890625 C 434.257812 598.890625 516.03125 582.261719 573.984375 550.816406 C 605.800781 533.546875 630.480469 511.824219 647.335938 486.253906 C 665.359375 458.914062 674.5 427.070312 674.5 391.617188 C 674.5 320.476562 637.597656 241.113281 575.792969 179.308594 C 544.109375 147.628906 508.136719 122.488281 468.878906 104.59375 C 426.421875 85.234375 382.222656 75.421875 337.5 75.421875 Z M 337.5 83.292969 C 519.273438 83.292969 666.632812 251.414062 666.632812 391.617188 C 666.632812 531.824219 519.273438 591.019531 337.5 591.019531 C 155.726562 591.019531 8.367188 531.824219 8.367188 391.617188 C 8.367188 251.414062 155.726562 83.292969 337.5 83.292969" fill="#b7e086"/></g><path fill-rule="nonzero" fill-opacity="1" d="M 197.460938 361.535156 C 199.492188 369.410156 190 378.671875 176.265625 382.222656 C 162.523438 385.769531 149.742188 382.265625 147.710938 374.386719 C 145.679688 366.515625 155.167969 357.25 168.90625 353.699219 C 182.644531 350.148438 195.429688 353.660156 197.460938 361.535156" fill="#ffa192"/><path fill-rule="nonzero" fill-opacity="1" d="M 477.539062 361.535156 C 475.507812 369.410156 485 378.671875 498.734375 382.222656 C 512.476562 385.769531 525.257812 382.265625 527.289062 374.386719 C 529.320312 366.515625 519.832031 357.25 506.09375 353.699219 C 492.355469 350.148438 479.570312 353.660156 477.539062 361.535156" fill="#ffa192"/><path fill-rule="nonzero" fill-opacity="1" d="M 321.433594 388.621094 C 324.226562 394.683594 330.921875 398.816406 337.574219 398.746094 C 344.222656 398.671875 350.878906 394.535156 353.566406 388.386719 C 354.476562 386.296875 354.25 383.59375 351.996094 382.402344 C 350.105469 381.40625 346.992188 381.734375 346.015625 383.972656 C 345.761719 384.558594 345.476562 385.121094 345.144531 385.664062 C 345.007812 385.886719 344.84375 386.097656 344.707031 386.324219 C 344.523438 386.585938 344.59375 386.503906 344.917969 386.074219 C 344.824219 386.195312 344.71875 386.324219 344.617188 386.4375 C 344.238281 386.882812 343.835938 387.296875 343.40625 387.6875 C 343.21875 387.863281 342.503906 388.550781 343.3125 387.8125 C 343.117188 387.992188 342.882812 388.128906 342.664062 388.277344 C 342.179688 388.597656 341.679688 388.894531 341.160156 389.15625 C 341.015625 389.230469 340.875 389.300781 340.734375 389.363281 C 340.4375 389.496094 340.542969 389.453125 341.050781 389.238281 C 340.839844 389.40625 340.402344 389.472656 340.152344 389.554688 C 339.648438 389.710938 339.132812 389.8125 338.617188 389.9375 C 337.664062 390.167969 339.433594 389.902344 338.527344 389.953125 C 338.207031 389.972656 337.894531 389.996094 337.574219 390 C 337.308594 390 337.046875 389.996094 336.785156 389.980469 C 336.609375 389.96875 335.59375 389.773438 336.261719 389.941406 C 336.941406 390.121094 336.058594 389.890625 335.910156 389.859375 C 335.597656 389.789062 335.292969 389.710938 334.988281 389.621094 C 334.683594 389.53125 334.386719 389.425781 334.085938 389.320312 C 333.3125 389.050781 334.582031 389.585938 334.109375 389.332031 C 333.59375 389.058594 333.070312 388.808594 332.578125 388.5 L 331.785156 387.96875 C 332.207031 388.300781 332.292969 388.367188 332.042969 388.167969 C 331.917969 388.066406 331.796875 387.960938 331.679688 387.855469 C 331.28125 387.507812 330.902344 387.140625 330.550781 386.75 C 330.40625 386.59375 330.269531 386.433594 330.132812 386.269531 C 330.234375 386.402344 330.328125 386.527344 330.429688 386.660156 L 329.886719 385.875 C 329.542969 385.34375 329.25 384.785156 328.984375 384.207031 C 328.027344 382.117188 324.851562 381.445312 323.003906 382.636719 C 320.855469 384.019531 320.40625 386.390625 321.433594 388.621094" fill="#3a3a3a"/><path fill-rule="nonzero" fill-opacity="1" d="M 249.695312 343.378906 C 246.335938 340.898438 242.855469 338.558594 239.441406 336.152344 C 235.511719 333.386719 231.582031 330.613281 227.648438 327.847656 C 225.773438 326.527344 222.710938 327.449219 221.667969 329.417969 C 220.480469 331.65625 221.234375 333.992188 223.234375 335.398438 C 229.492188 339.804688 235.746094 344.207031 241.996094 348.613281 C 242.339844 348.855469 242.683594 349.089844 243.023438 349.332031 C 242.542969 349.796875 242.066406 350.253906 241.585938 350.71875 C 238.894531 353.304688 236.199219 355.898438 233.507812 358.484375 C 230.402344 361.476562 227.296875 364.460938 224.1875 367.453125 C 222.535156 369.039062 222.472656 372.054688 224.1875 373.632812 C 225.964844 375.265625 228.605469 375.328125 230.371094 373.632812 C 236.375 367.855469 242.382812 362.078125 248.390625 356.304688 C 250.078125 354.679688 252.101562 353.101562 252.828125 350.777344 C 253.796875 347.679688 252.082031 345.140625 249.695312 343.378906" fill="#3a3a3a"/><path fill-rule="nonzero" fill-opacity="1" d="M 451.765625 335.398438 C 453.628906 334.085938 454.6875 331.515625 453.332031 329.417969 C 452.136719 327.5625 449.351562 326.441406 447.351562 327.847656 C 440.441406 332.710938 433.535156 337.578125 426.625 342.441406 C 424.476562 343.953125 422.355469 345.414062 421.980469 348.222656 C 421.585938 351.167969 423.398438 353.214844 425.367188 355.109375 C 428.367188 358 431.375 360.886719 434.378906 363.773438 C 437.792969 367.0625 441.210938 370.347656 444.628906 373.632812 C 446.28125 375.21875 449.195312 375.398438 450.8125 373.632812 C 452.386719 371.917969 452.570312 369.144531 450.8125 367.453125 C 445.371094 362.21875 439.9375 356.992188 434.5 351.761719 C 433.660156 350.949219 432.808594 350.148438 431.964844 349.34375 C 434.992188 347.210938 438.015625 345.082031 441.042969 342.949219 C 444.617188 340.433594 448.1875 337.917969 451.765625 335.398438" fill="#3a3a3a"/><path fill-rule="nonzero" fill-opacity="1" d="M 85.464844 330.277344 C 79.378906 330.277344 73.960938 328.707031 69.570312 325.386719 C 50.050781 310.648438 58.109375 267.046875 87.566406 228 C 110.394531 197.75 139.371094 179.109375 160.34375 179.109375 C 166.433594 179.109375 171.847656 180.679688 176.238281 184 C 195.757812 198.738281 187.699219 242.339844 158.242188 281.386719 C 135.414062 311.644531 106.4375 330.28125 85.464844 330.277344" fill="#e9f7dc"/><path fill-rule="nonzero" fill-opacity="1" d="M 210.382812 178.804688 C 202.714844 178.804688 196.511719 176.390625 193.242188 171.449219 C 185.792969 160.179688 196.433594 140 217.011719 126.382812 C 228.566406 118.738281 240.796875 114.78125 250.621094 114.78125 C 258.289062 114.78125 264.492188 117.195312 267.761719 122.136719 C 275.210938 133.40625 264.570312 153.582031 243.992188 167.203125 C 232.441406 174.847656 220.207031 178.804688 210.382812 178.804688" fill="#e9f7dc"/></svg>