<svg version="1.0" preserveAspectRatio="xMidYMid meet" viewBox="0 62.100000183999995 679.05 533.25000158" zoomAndPan="magnify" xmlns:xlink="http://www.w3.org/1999/xlink" xmlns="http://www.w3.org/2000/svg" style="max-height: 500px" width="679.05" height="533.25000158"><defs><clipPath id="fb93a9cc2b"><path clip-rule="nonzero" d="M 0.5 67.398438 L 674.5 67.398438 L 674.5 590.875 L 0.5 590.875 Z M 0.5 67.398438"/></clipPath></defs><path fill-rule="nonzero" fill-opacity="1" d="M 337.5 586.671875 C 241.398438 586.671875 160.269531 570.222656 102.894531 539.097656 C 71.648438 522.152344 47.441406 500.875 30.945312 475.867188 C 13.351562 449.191406 4.433594 418.097656 4.433594 383.445312 C 4.433594 313.363281 40.902344 235.082031 101.984375 174.035156 C 133.339844 142.699219 168.925781 117.839844 207.753906 100.148438 C 249.691406 81.039062 293.34375 71.351562 337.5 71.351562 C 381.65625 71.351562 425.308594 81.039062 467.246094 100.148438 C 506.074219 117.839844 541.660156 142.699219 573.015625 174.035156 C 634.097656 235.082031 670.566406 313.363281 670.566406 383.445312 C 670.566406 418.097656 661.648438 449.191406 644.050781 475.867188 C 627.558594 500.875 603.351562 522.152344 572.105469 539.097656 C 514.730469 570.222656 433.601562 586.671875 337.5 586.671875" fill="#ffd7d7"/><g clip-path="url(#fb93a9cc2b)"><path fill-rule="nonzero" fill-opacity="1" d="M 337.5 67.417969 C 292.777344 67.417969 248.578125 77.226562 206.121094 96.574219 C 166.863281 114.460938 130.890625 139.585938 99.203125 171.25 C 37.402344 233.019531 0.5 312.34375 0.5 383.445312 C 0.5 418.878906 9.640625 450.703125 27.664062 478.03125 C 44.519531 503.585938 69.199219 525.296875 101.015625 542.554688 C 158.96875 573.988281 240.742188 590.605469 337.5 590.605469 C 434.257812 590.605469 516.03125 573.988281 573.984375 542.554688 C 605.800781 525.296875 630.480469 503.585938 647.335938 478.03125 C 665.359375 450.703125 674.5 418.878906 674.5 383.445312 C 674.5 312.34375 637.597656 233.019531 575.792969 171.25 C 544.109375 139.585938 508.136719 114.460938 468.878906 96.574219 C 426.421875 77.226562 382.222656 67.417969 337.5 67.417969 Z M 337.5 75.285156 C 519.273438 75.285156 666.632812 243.316406 666.632812 383.445312 C 666.632812 523.574219 519.273438 582.738281 337.5 582.738281 C 155.726562 582.738281 8.367188 523.574219 8.367188 383.445312 C 8.367188 243.316406 155.726562 75.285156 337.5 75.285156" fill="#f2cee5"/></g><path fill-rule="nonzero" fill-opacity="1" d="M 215.527344 338.359375 C 215.621094 337.46875 215.539062 338.511719 215.488281 338.550781 L 215.601562 337.902344 C 215.679688 337.476562 215.773438 337.050781 215.886719 336.621094 C 215.949219 336.375 216.480469 334.136719 216.691406 334.136719 C 216.648438 334.136719 216.34375 334.902344 216.636719 334.273438 C 216.726562 334.078125 216.816406 333.878906 216.917969 333.683594 C 217.105469 333.289062 217.3125 332.90625 217.527344 332.527344 C 217.742188 332.148438 217.96875 331.773438 218.210938 331.40625 C 218.328125 331.21875 218.449219 331.042969 218.574219 330.863281 C 218.648438 330.757812 219.203125 330.003906 218.816406 330.515625 C 218.464844 330.984375 219.191406 330.070312 219.300781 329.941406 C 219.59375 329.613281 219.886719 329.292969 220.199219 328.980469 C 220.503906 328.671875 220.820312 328.371094 221.144531 328.078125 C 221.308594 327.933594 221.476562 327.796875 221.640625 327.648438 C 222.246094 327.101562 221.222656 327.929688 221.65625 327.628906 C 222.371094 327.125 223.089844 326.632812 223.851562 326.207031 C 224.214844 326.007812 224.582031 325.828125 224.953125 325.644531 C 225.671875 325.273438 225.042969 325.589844 224.890625 325.65625 C 225.214844 325.515625 225.550781 325.390625 225.890625 325.273438 C 226.730469 324.980469 227.589844 324.742188 228.464844 324.5625 C 228.695312 324.515625 228.933594 324.46875 229.164062 324.433594 C 229.3125 324.40625 230.070312 324.316406 229.464844 324.378906 C 228.902344 324.4375 229.507812 324.378906 229.589844 324.375 C 229.949219 324.347656 230.300781 324.316406 230.660156 324.300781 C 231.554688 324.257812 232.445312 324.28125 233.335938 324.355469 C 233.570312 324.371094 233.808594 324.402344 234.046875 324.421875 C 234.699219 324.480469 233.304688 324.269531 233.945312 324.417969 C 234.46875 324.53125 234.992188 324.613281 235.515625 324.738281 C 236.441406 324.96875 237.34375 325.269531 238.226562 325.617188 C 237.417969 325.296875 238.359375 325.695312 238.644531 325.839844 C 239.089844 326.058594 239.523438 326.300781 239.949219 326.558594 C 240.324219 326.785156 240.6875 327.023438 241.042969 327.269531 C 241.195312 327.382812 241.4375 327.519531 241.574219 327.65625 C 241.488281 327.566406 240.859375 327.054688 241.464844 327.578125 C 242.164062 328.1875 242.851562 328.808594 243.480469 329.488281 C 243.65625 329.675781 244.464844 330.367188 244.445312 330.605469 C 244.449219 330.578125 243.839844 329.761719 244.363281 330.5 C 244.519531 330.726562 244.675781 330.945312 244.828125 331.171875 C 245.378906 331.988281 245.871094 332.84375 246.304688 333.722656 C 246.398438 333.921875 246.484375 334.121094 246.582031 334.316406 C 246.851562 334.863281 246.226562 333.332031 246.582031 334.332031 C 246.753906 334.789062 246.921875 335.253906 247.0625 335.722656 C 247.203125 336.191406 247.332031 336.664062 247.441406 337.144531 C 247.488281 337.359375 247.53125 337.570312 247.574219 337.785156 C 247.625 338.050781 247.773438 339.078125 247.621094 337.917969 C 247.914062 340.175781 249.421875 342.40625 251.992188 342.289062 C 254.109375 342.195312 256.679688 340.34375 256.363281 337.917969 C 255.714844 332.96875 253.921875 328.613281 250.828125 324.679688 C 247.941406 321.015625 243.949219 318.324219 239.546875 316.8125 C 230.375 313.664062 219.511719 316.433594 213.125 323.757812 C 209.488281 327.929688 207.378906 332.878906 206.785156 338.359375 C 206.539062 340.640625 208.972656 342.832031 211.15625 342.730469 C 213.738281 342.613281 215.257812 340.804688 215.527344 338.359375" fill="#3a3a3a"/><path fill-rule="nonzero" fill-opacity="1" d="M 468.214844 338.359375 C 467.160156 328.65625 461.003906 320.355469 451.769531 316.964844 C 442.648438 313.613281 431.765625 316.253906 425.226562 323.433594 C 421.492188 327.527344 419.355469 332.453125 418.636719 337.917969 C 418.34375 340.191406 420.859375 342.382812 423.007812 342.289062 C 425.632812 342.171875 427.058594 340.355469 427.378906 337.917969 C 427.226562 339.085938 427.425781 337.765625 427.488281 337.464844 C 427.578125 337.039062 427.683594 336.613281 427.800781 336.195312 C 427.917969 335.773438 428.046875 335.355469 428.191406 334.949219 C 428.265625 334.738281 428.34375 334.539062 428.417969 334.332031 C 428.664062 333.664062 428.3125 334.410156 428.347656 334.464844 C 428.191406 334.230469 429.394531 332.40625 429.554688 332.140625 C 429.773438 331.761719 430.011719 331.398438 430.257812 331.035156 C 430.378906 330.855469 430.511719 330.683594 430.636719 330.5 C 431.113281 329.828125 430.308594 330.871094 430.65625 330.476562 C 431.207031 329.867188 431.722656 329.246094 432.316406 328.671875 C 432.628906 328.367188 432.957031 328.070312 433.289062 327.792969 C 433.425781 327.671875 433.625 327.464844 433.792969 327.371094 C 433.324219 327.632812 433.398438 327.671875 433.820312 327.367188 C 434.53125 326.859375 435.277344 326.402344 436.050781 325.996094 C 436.414062 325.800781 436.789062 325.636719 437.164062 325.453125 C 436.378906 325.84375 436.910156 325.554688 437.105469 325.484375 C 437.441406 325.363281 437.773438 325.238281 438.117188 325.128906 C 438.957031 324.855469 439.828125 324.636719 440.703125 324.476562 C 440.847656 324.449219 441.601562 324.3125 441 324.410156 C 440.40625 324.515625 441.160156 324.394531 441.308594 324.386719 C 441.839844 324.332031 442.375 324.296875 442.90625 324.285156 C 443.808594 324.265625 444.6875 324.347656 445.582031 324.394531 C 446.234375 324.425781 444.839844 324.253906 445.480469 324.375 C 445.714844 324.417969 445.949219 324.453125 446.1875 324.496094 C 446.710938 324.597656 447.230469 324.710938 447.746094 324.855469 C 448.210938 324.980469 448.664062 325.117188 449.109375 325.273438 C 449.398438 325.375 450.578125 325.933594 449.726562 325.492188 C 450.539062 325.914062 451.355469 326.296875 452.132812 326.792969 C 452.5 327.027344 452.855469 327.277344 453.210938 327.527344 C 453.875 327.996094 453.207031 327.492188 453.105469 327.445312 C 453.265625 327.519531 453.492188 327.761719 453.605469 327.867188 C 454.3125 328.472656 454.972656 329.125 455.585938 329.820312 C 455.699219 329.941406 455.804688 330.066406 455.910156 330.1875 C 456.054688 330.367188 456.789062 331.042969 456.039062 330.332031 C 456.371094 330.644531 456.636719 331.164062 456.878906 331.542969 C 457.410156 332.375 457.882812 333.230469 458.292969 334.125 C 458.363281 334.261719 458.613281 334.921875 458.402344 334.351562 C 458.171875 333.726562 458.53125 334.722656 458.542969 334.75 C 458.703125 335.210938 458.855469 335.679688 458.988281 336.148438 C 459.121094 336.621094 459.234375 337.101562 459.335938 337.582031 C 459.378906 337.796875 459.414062 338.007812 459.457031 338.222656 C 459.632812 339.140625 459.363281 337.347656 459.472656 338.359375 C 459.71875 340.628906 461.304688 342.847656 463.84375 342.730469 C 465.996094 342.636719 468.476562 340.796875 468.214844 338.359375" fill="#3a3a3a"/><path fill-rule="nonzero" fill-opacity="1" d="M 197.460938 353.378906 C 199.492188 361.25 190 370.507812 176.265625 374.054688 C 162.523438 377.601562 149.742188 374.097656 147.707031 366.222656 C 145.679688 358.355469 155.167969 349.097656 168.90625 345.546875 C 182.644531 342 195.429688 345.503906 197.460938 353.378906" fill="#ffa192"/><path fill-rule="nonzero" fill-opacity="1" d="M 477.539062 353.378906 C 475.507812 361.25 485 370.507812 498.734375 374.054688 C 512.476562 377.601562 525.257812 374.097656 527.289062 366.222656 C 529.320312 358.355469 519.832031 349.097656 506.09375 345.546875 C 492.355469 342 479.570312 345.503906 477.539062 353.378906" fill="#ffa192"/><path fill-rule="nonzero" fill-opacity="1" d="M 364.449219 374.234375 C 362.5625 373.238281 359.453125 373.566406 358.472656 375.804688 C 358.21875 376.390625 357.9375 376.953125 357.605469 377.496094 C 357.460938 377.714844 357.296875 377.925781 357.167969 378.152344 L 357.074219 378.269531 C 356.699219 378.710938 356.292969 379.125 355.859375 379.515625 L 355.5625 379.804688 C 355.414062 379.90625 355.265625 380.007812 355.125 380.105469 C 354.640625 380.425781 354.140625 380.722656 353.617188 380.984375 C 353.476562 381.058594 353.332031 381.128906 353.191406 381.191406 C 352.890625 381.324219 352.996094 381.28125 353.503906 381.066406 C 353.296875 381.234375 352.855469 381.300781 352.605469 381.378906 C 352.101562 381.539062 351.589844 381.636719 351.074219 381.765625 L 351.015625 381.78125 L 350.984375 381.78125 C 350.664062 381.800781 350.347656 381.824219 350.03125 381.828125 C 349.769531 381.828125 349.503906 381.824219 349.242188 381.808594 C 349.070312 381.796875 348.050781 381.601562 348.714844 381.769531 L 348.875 381.8125 C 348.726562 381.777344 348.441406 381.703125 348.363281 381.6875 C 348.058594 381.617188 347.746094 381.539062 347.445312 381.449219 C 347.140625 381.359375 346.847656 381.253906 346.546875 381.148438 C 346.035156 380.875 345.519531 380.632812 345.035156 380.328125 C 345.003906 380.3125 344.546875 379.996094 344.339844 379.859375 L 344.140625 379.683594 C 343.738281 379.335938 343.359375 378.96875 343.007812 378.578125 L 342.777344 378.316406 C 342.628906 378.101562 342.367188 377.742188 342.34375 377.707031 C 341.996094 377.171875 341.707031 376.613281 341.4375 376.035156 C 341.101562 375.296875 340.484375 374.742188 339.742188 374.378906 L 339.542969 374.234375 C 337.648438 373.238281 334.539062 373.566406 333.5625 375.804688 C 333.308594 376.390625 333.023438 376.953125 332.691406 377.496094 C 332.550781 377.714844 332.386719 377.925781 332.253906 378.152344 L 332.160156 378.269531 C 331.785156 378.710938 331.382812 379.125 330.949219 379.515625 L 330.644531 379.804688 C 330.5 379.90625 330.355469 380.007812 330.207031 380.105469 C 329.726562 380.425781 329.222656 380.722656 328.707031 380.984375 C 328.5625 381.058594 328.421875 381.128906 328.273438 381.191406 C 327.980469 381.324219 328.085938 381.28125 328.589844 381.066406 C 328.378906 381.234375 327.941406 381.300781 327.695312 381.378906 C 327.191406 381.539062 326.675781 381.636719 326.164062 381.765625 L 326.105469 381.78125 L 326.066406 381.78125 C 325.753906 381.800781 325.4375 381.824219 325.121094 381.828125 C 324.855469 381.828125 324.589844 381.824219 324.324219 381.808594 C 324.15625 381.796875 323.140625 381.601562 323.804688 381.769531 L 323.972656 381.816406 C 323.824219 381.777344 323.53125 381.703125 323.453125 381.6875 C 323.144531 381.617188 322.835938 381.539062 322.53125 381.449219 C 322.230469 381.359375 321.929688 381.253906 321.628906 381.148438 C 321.125 380.875 320.609375 380.632812 320.117188 380.328125 C 320.089844 380.3125 319.632812 379.996094 319.429688 379.859375 L 319.222656 379.683594 C 318.828125 379.335938 318.449219 378.96875 318.089844 378.578125 L 317.863281 378.316406 C 317.71875 378.101562 317.453125 377.742188 317.425781 377.707031 C 317.085938 377.171875 316.789062 376.613281 316.527344 376.035156 C 315.570312 373.949219 312.398438 373.277344 310.546875 374.464844 C 308.398438 375.851562 307.953125 378.222656 308.980469 380.449219 C 311.765625 386.507812 318.46875 390.636719 325.121094 390.570312 C 329.644531 390.515625 334.171875 388.582031 337.453125 385.414062 C 340.789062 388.648438 345.425781 390.617188 350.03125 390.570312 C 356.675781 390.496094 363.332031 386.363281 366.019531 380.21875 C 366.933594 378.125 366.703125 375.425781 364.449219 374.234375" fill="#3a3a3a"/><path fill-rule="nonzero" fill-opacity="1" d="M 96.871094 310.351562 C 90.820312 310.351562 85.382812 308.765625 80.949219 305.421875 C 62.84375 291.757812 68.40625 253.875 93.371094 220.804688 C 112.21875 195.832031 136.746094 180.742188 155.425781 180.742188 C 161.476562 180.742188 166.914062 182.328125 171.34375 185.671875 C 189.453125 199.34375 183.890625 237.226562 158.925781 270.296875 C 140.070312 295.273438 115.546875 310.359375 96.871094 310.351562" fill="#ffe7e7"/><path fill-rule="nonzero" fill-opacity="1" d="M 214.621094 183.964844 C 201.582031 183.964844 191.277344 179.738281 187.035156 171.386719 C 178.9375 155.457031 195.953125 130.5625 225.046875 115.769531 C 238.886719 108.738281 252.964844 105.261719 264.792969 105.261719 C 277.828125 105.261719 288.140625 109.484375 292.378906 117.835938 C 300.476562 133.765625 283.457031 158.660156 254.367188 173.449219 C 240.527344 180.484375 226.449219 183.964844 214.621094 183.964844" fill="#ffe7e7"/></svg>