<?xml version="1.0" encoding="UTF-8"?>
<!DOCTYPE svg PUBLIC "-//W3C//DTD SVG 1.1//EN" "http://www.w3.org/Graphics/SVG/1.1/DTD/svg11.dtd">
<svg xmlns="http://www.w3.org/2000/svg" version="1.1" width="128px" height="164px" style="shape-rendering:geometricPrecision; text-rendering:geometricPrecision; image-rendering:optimizeQuality; fill-rule:evenodd; clip-rule:evenodd" xmlns:xlink="http://www.w3.org/1999/xlink">
<g><path style="opacity:0.029" fill="#fefcf0" d="M 103.5,7.5 C 102.406,6.41833 101.073,5.75166 99.5,5.5C 97.5466,6.15558 95.5466,6.48891 93.5,6.5C 96.0862,3.40248 99.0862,2.90248 102.5,5C 103.252,5.67076 103.586,6.5041 103.5,7.5 Z"/></g>
<g><path style="opacity:0.999" fill="#fbdfa8" d="M 103.5,7.5 C 103.5,8.16667 103.5,8.83333 103.5,9.5C 104.529,16.7837 106.195,23.7837 108.5,30.5C 110.03,36.2701 111.697,42.1034 113.5,48C 112.944,48.3826 112.611,48.8826 112.5,49.5C 112.384,55.6828 113.051,61.6828 114.5,67.5C 114.333,69.8333 114.167,72.1667 114,74.5C 112.583,75.0779 111.75,76.0779 111.5,77.5C 109.871,79.0603 108.704,78.727 108,76.5C 106.887,77.7111 105.72,77.7111 104.5,76.5C 93.248,65.8714 81.5814,55.7048 69.5,46C 65.1667,43.1667 60.8333,40.3333 56.5,37.5C 55.5344,35.604 55.2011,33.604 55.5,31.5C 57.0627,30.0552 58.396,28.3885 59.5,26.5C 70.2109,18.8099 81.5442,12.1432 93.5,6.5C 95.5466,6.48891 97.5466,6.15558 99.5,5.5C 101.073,5.75166 102.406,6.41833 103.5,7.5 Z"/></g>
<g><path style="opacity:0.952" fill="#feefc9" d="M 103.5,9.5 C 104.966,10.347 105.8,11.6803 106,13.5C 107.64,19.0557 108.473,24.7223 108.5,30.5C 106.195,23.7837 104.529,16.7837 103.5,9.5 Z"/></g>
<g><path style="opacity:0.043" fill="#fefefc" d="M 59.5,26.5 C 58.396,28.3885 57.0627,30.0552 55.5,31.5C 55.6696,28.796 57.0029,27.1293 59.5,26.5 Z"/></g>
<g><path style="opacity:0.999" fill="#abe0de" d="M 43.5,45.5 C 46.237,46.031 48.9036,46.8644 51.5,48C 59.198,55.3636 66.5313,63.0303 73.5,71C 81,77.8333 88.5,84.6667 96,91.5C 97.6831,96.02 96.5165,99.8533 92.5,103C 89.3331,103.252 86.3331,103.418 83.5,103.5C 76.5667,102.332 69.4,100.999 62,99.5C 61.586,99.9574 61.086,100.291 60.5,100.5C 48.8781,97.7795 36.5448,95.6128 23.5,94C 21.3215,93.5581 20.6548,92.5581 21.5,91C 20.8333,89.6667 20.1667,88.3333 19.5,87C 23.4454,78.9398 27.2788,70.7731 31,62.5C 34.6122,56.3933 38.7788,50.7267 43.5,45.5 Z"/></g>
<g><path style="opacity:0.659" fill="#fef6d2" d="M 112.5,49.5 C 114.751,56.8936 116.085,64.0602 116.5,71C 116.11,74.1763 114.61,76.6763 112,78.5C 111.601,78.2716 111.435,77.9382 111.5,77.5C 111.75,76.0779 112.583,75.0779 114,74.5C 114.167,72.1667 114.333,69.8333 114.5,67.5C 113.051,61.6828 112.384,55.6828 112.5,49.5 Z"/></g>
<g><path style="opacity:0.329" fill="#fee7f5" d="M 22.5,100.5 C 20.1595,102.202 17.4928,103.535 14.5,104.5C 16.465,101.988 19.1317,100.655 22.5,100.5 Z"/></g>
<g><path style="opacity:1" fill="#fac0e1" d="M 22.5,100.5 C 40.5542,110.105 59.5542,117.438 79.5,122.5C 81.1667,124.167 82.8333,125.833 84.5,127.5C 84.5235,132.62 82.5235,136.787 78.5,140C 64.2553,143.891 50.2553,148.391 36.5,153.5C 34.6203,153.229 33.287,153.896 32.5,155.5C 29.2107,156.374 25.8774,157.041 22.5,157.5C 19.9471,156.745 17.2804,156.078 14.5,155.5C 13.6618,155.158 13.3284,154.492 13.5,153.5C 13.2937,149.605 12.6271,145.771 11.5,142C 12.0505,139.523 12.0505,137.19 11.5,135C 13.1311,133.164 13.7978,133.664 13.5,136.5C 14.8734,136.343 16.2068,136.51 17.5,137C 16.3281,138.868 16.4947,140.702 18,142.5C 18.2511,140.567 18.7511,138.734 19.5,137C 18.1487,135.383 16.482,134.216 14.5,133.5C 16.4377,129.843 15.4377,127.843 11.5,127.5C 11.3341,122.489 11.5007,117.489 12,112.5C 13,113.5 14,114.5 15,115.5C 14.9725,113.583 14.1392,111.916 12.5,110.5C 13.1717,108.47 13.8384,106.47 14.5,104.5C 17.4928,103.535 20.1595,102.202 22.5,100.5 Z"/></g>
<g><path style="opacity:0.176" fill="#fff2fc" d="M 84.5,127.5 C 82.8333,125.833 81.1667,124.167 79.5,122.5C 82.4972,122.148 84.1639,123.815 84.5,127.5 Z"/></g>
<g><path style="opacity:0.998" fill="#fbc9e6" d="M 14.5,104.5 C 13.8384,106.47 13.1717,108.47 12.5,110.5C 14.1392,111.916 14.9725,113.583 15,115.5C 14,114.5 13,113.5 12,112.5C 11.5007,117.489 11.3341,122.489 11.5,127.5C 15.4377,127.843 16.4377,129.843 14.5,133.5C 16.482,134.216 18.1487,135.383 19.5,137C 18.7511,138.734 18.2511,140.567 18,142.5C 16.4947,140.702 16.3281,138.868 17.5,137C 16.2068,136.51 14.8734,136.343 13.5,136.5C 13.7978,133.664 13.1311,133.164 11.5,135C 12.0505,137.19 12.0505,139.523 11.5,142C 12.6271,145.771 13.2937,149.605 13.5,153.5C 12.3943,150.598 11.2276,147.598 10,144.5C 8.22961,132.42 8.56294,120.754 11,109.5C 11.2195,107.027 12.3862,105.36 14.5,104.5 Z"/></g>
<g><path style="opacity:0.008" fill="#fef7fb" d="M 36.5,153.5 C 35.4863,154.674 34.153,155.34 32.5,155.5C 33.287,153.896 34.6203,153.229 36.5,153.5 Z"/></g>
<g><path style="opacity:0.439" fill="#feecf7" d="M 14.5,155.5 C 17.2804,156.078 19.9471,156.745 22.5,157.5C 21.5349,157.4 20.3683,157.734 19,158.5C 16.8155,158.302 15.3155,157.302 14.5,155.5 Z"/></g>
</svg>
