<svg version="1.0" preserveAspectRatio="xMidYMid meet" viewBox="0.675 0.67382810546875 669.6 171.82616689453127" zoomAndPan="magnify" xmlns:xlink="http://www.w3.org/1999/xlink" xmlns="http://www.w3.org/2000/svg" style="max-height: 500px" width="669.6" height="171.82616689453127"><defs><clipPath id="aa1d1c0c1d"><path clip-rule="nonzero" d="M 2 2.289062 L 668 2.289062 L 668 169.667969 L 2 169.667969 Z M 2 2.289062"/></clipPath><clipPath id="fa429d1f6e"><path clip-rule="nonzero" d="M 71.359375 20.542969 L 182 20.542969 L 182 131 L 71.359375 131 Z M 71.359375 20.542969"/></clipPath><clipPath id="d5657049ce"><path clip-rule="nonzero" d="M 126.585938 20.542969 L 237.351562 20.542969 L 237.351562 131 L 126.585938 131 Z M 126.585938 20.542969"/></clipPath><clipPath id="20668648d5"><path clip-rule="nonzero" d="M 206.441406 30.773438 L 317 30.773438 L 317 141.539062 L 206.441406 141.539062 Z M 206.441406 30.773438"/></clipPath><clipPath id="076cf511a2"><path clip-rule="nonzero" d="M 279.457031 15.429688 L 390 15.429688 L 390 126 L 279.457031 126 Z M 279.457031 15.429688"/></clipPath><clipPath id="b57bb2045c"><path clip-rule="nonzero" d="M 345.910156 20.542969 L 456.675781 20.542969 L 456.675781 131 L 345.910156 131 Z M 345.910156 20.542969"/></clipPath><clipPath id="acd6d4a068"><path clip-rule="nonzero" d="M 437.757812 20.542969 L 548.523438 20.542969 L 548.523438 131 L 437.757812 131 Z M 437.757812 20.542969"/></clipPath><clipPath id="a0d1ecb3ee"><path clip-rule="nonzero" d="M 499.492188 21.921875 L 596.71875 21.921875 L 596.71875 119.148438 L 499.492188 119.148438 Z M 499.492188 21.921875"/></clipPath><clipPath id="2767f3df54"><path clip-rule="nonzero" d="M 525.007812 72.339844 L 590.238281 72.339844 L 590.238281 137.570312 L 525.007812 137.570312 Z M 525.007812 72.339844"/></clipPath></defs><g clip-path="url(#aa1d1c0c1d)"><path fill-rule="evenodd" fill-opacity="1" d="M 2.65625 79.257812 C 2.65625 95.589844 4.699219 106.207031 12.050781 119.472656 C 28.378906 149.078125 66.761719 156.222656 100.648438 160.917969 C 121.476562 163.980469 139.441406 165.207031 159.855469 166.226562 C 180.679688 167.246094 201.300781 169.082031 222.53125 169.082031 L 291.945312 169.695312 C 308.6875 169.695312 323.585938 169.082031 339.511719 169.082031 L 386.46875 167.652344 C 394.425781 167.246094 403 168.058594 409.945312 167.246094 L 537.539062 161.9375 L 570.816406 158.671875 C 606.746094 153.769531 651.867188 141.320312 664.730469 107.019531 C 672.285156 87.21875 665.34375 68.4375 653.90625 52.714844 C 649.210938 45.976562 641.660156 40.058594 634.714844 35.972656 C 632.0625 34.339844 629.410156 33.117188 626.546875 31.6875 C 600.417969 18.621094 559.789062 11.472656 529.78125 7.390625 C 522.226562 6.167969 504.261719 4.328125 496.910156 4.328125 C 491.804688 4.328125 489.96875 3.511719 485.273438 3.714844 C 471.183594 3.714844 452.402344 2.28125 437.5 2.28125 L 344.40625 4.9375 C 339.707031 4.9375 338.078125 5.753906 329.296875 5.753906 L 276.222656 8.414062 C 273.773438 8.617188 270.710938 8.210938 268.054688 8.414062 C 264.789062 8.414062 264.382812 9.027344 260.703125 9.027344 L 222.328125 10.863281 C 212.9375 12.292969 200.894531 10.660156 191.503906 12.085938 L 97.589844 14.132812 C 93.710938 14.539062 86.972656 14.746094 82.890625 15.152344 C 61.863281 17.398438 34.507812 19.4375 17.96875 30.460938 C 10.617188 35.363281 8.167969 41.082031 6.332031 50.675781 C 4.496094 59.863281 2.65625 68.4375 2.65625 79.257812 Z M 2.65625 79.257812" fill="#f99192"/></g><path fill-rule="evenodd" fill-opacity="1" d="M 17.765625 79.664062 C 17.765625 95.996094 18.785156 104.570312 28.175781 118.859375 C 33.28125 126.414062 42.671875 132.949219 51.042969 136.824219 C 72.476562 146.421875 94.527344 148.667969 118.207031 151.933594 L 165.371094 155.816406 C 168.636719 156.019531 172.308594 155.609375 175.578125 156.019531 C 180.882812 156.425781 189.253906 156.632812 194.769531 157.242188 C 205.386719 158.058594 223.757812 157.855469 234.78125 157.855469 C 242.132812 157.855469 247.03125 158.46875 254.585938 158.46875 L 351.152344 157.855469 C 356.457031 157.855469 359.519531 157.242188 364.011719 157.242188 C 371.566406 157.242188 384.222656 157.855469 390.960938 156.835938 C 398.105469 155.816406 409.945312 156.429688 417.296875 155.816406 C 421.175781 155.609375 426.6875 155.816406 430.769531 155.816406 L 457.308594 155.199219 C 462.210938 155.199219 464.863281 154.382812 470.171875 154.382812 C 488.339844 154.585938 506.101562 152.75 522.640625 152.34375 L 572.042969 147.445312 C 590.417969 144.378906 607.972656 139.890625 623.898438 131.113281 C 625.53125 130.09375 626.753906 129.683594 628.1875 128.660156 C 629.617188 127.84375 630.839844 126.824219 632.066406 125.804688 C 634.105469 124.171875 637.785156 121.316406 639.417969 119.476562 C 640.640625 117.84375 641.253906 117.027344 642.273438 115.597656 C 649.828125 106.207031 653.09375 97.222656 651.664062 87.015625 C 650.847656 93.957031 647.582031 100.488281 642.273438 107.023438 C 641.253906 108.453125 640.640625 109.472656 639.417969 110.902344 C 637.785156 112.742188 634.109375 115.804688 632.066406 117.230469 C 630.84375 118.25 629.617188 119.269531 628.1875 120.292969 C 626.753906 121.316406 625.53125 121.726562 623.898438 122.542969 C 607.972656 131.527344 590.417969 135.8125 572.042969 138.875 L 522.640625 143.976562 C 506.105469 144.382812 488.34375 146.015625 470.171875 146.015625 C 464.863281 146.015625 462.210938 146.628906 457.308594 146.628906 L 430.769531 147.242188 C 426.6875 147.242188 421.175781 147.039062 417.296875 147.449219 C 409.945312 147.855469 398.105469 147.242188 390.960938 148.46875 C 384.222656 149.488281 371.566406 148.671875 364.011719 148.671875 C 359.519531 148.671875 356.457031 149.285156 351.152344 149.285156 L 254.585938 150.101562 C 247.03125 150.101562 242.128906 149.285156 234.78125 149.285156 C 223.757812 149.285156 205.382812 149.488281 194.769531 148.671875 C 189.257812 148.265625 180.886719 148.058594 175.578125 147.449219 C 172.308594 147.039062 168.636719 147.449219 165.371094 147.242188 L 118.207031 143.363281 C 94.527344 140.300781 72.476562 137.851562 51.042969 128.253906 C 42.671875 124.582031 33.28125 118.046875 28.175781 110.289062 C 20.007812 97.835938 18.171875 89.671875 17.765625 76.605469 C 17.765625 77.625 17.765625 78.644531 17.765625 79.664062 Z M 17.765625 79.664062" fill="#f2d5e4"/><path fill-rule="evenodd" fill-opacity="0.341" d="M 330.121094 45.976562 C 330.121094 57.617188 331.550781 72.722656 331.550781 80.070312 C 331.347656 84.972656 335.433594 110.898438 338.902344 115.59375 C 344.621094 123.351562 355.644531 118.042969 354.011719 108.449219 C 353.605469 105.183594 352.789062 103.347656 352.175781 100.078125 C 351.5625 97.222656 350.539062 94.363281 350.539062 91.707031 C 356.867188 91.09375 363.605469 89.667969 370.34375 89.667969 C 370.34375 119.269531 389.328125 110.285156 389.328125 101.914062 C 389.328125 94.160156 382.589844 63.738281 382.589844 47.40625 C 382.386719 31.078125 365.441406 34.75 365.441406 43.324219 L 366.257812 65.574219 C 366.460938 67.824219 366.871094 68.640625 366.871094 71.902344 C 361.363281 72.308594 354.011719 73.941406 348.496094 73.941406 C 348.496094 70.675781 348.089844 41.074219 347.066406 39.238281 C 343.394531 31.894531 330.121094 32.097656 330.121094 45.976562 Z M 558.164062 127.027344 C 558.164062 140.09375 577.761719 137.644531 577.761719 125.597656 C 577.761719 113.550781 558.164062 116.414062 558.164062 127.027344 Z M 174.351562 58.230469 C 174.351562 61.085938 176.390625 64.761719 177.617188 66.394531 C 183.742188 75.171875 195.785156 68.644531 193.542969 60.070312 C 190.273438 45.976562 174.351562 48.019531 174.351562 58.230469 Z M 175.578125 83.542969 C 175.578125 93.136719 177.210938 95.589844 179.660156 104.574219 C 181.089844 110.695312 181.292969 117.433594 189.253906 117.433594 C 201.503906 117.433594 197.214844 103.960938 196.195312 99.671875 C 193.339844 88.445312 193.746094 75.992188 183.742188 75.992188 C 179.453125 75.992188 175.578125 79.050781 175.578125 83.542969 Z M 575.71875 98.445312 C 575.71875 87.828125 574.289062 73.945312 573.0625 63.535156 C 572.246094 55.574219 576.738281 37.8125 564.285156 37.8125 C 555.300781 37.8125 554.894531 47.816406 555.300781 54.757812 C 556.121094 62.71875 555.914062 71.90625 556.734375 79.871094 C 557.347656 85.589844 558.164062 98.652344 560.613281 101.917969 C 565.511719 108.449219 575.71875 105.390625 575.71875 98.445312 Z M 204.972656 89.667969 C 204.972656 102.941406 214.566406 116.820312 228.042969 116.820312 C 234.367188 116.820312 244.578125 117.636719 248.867188 113.148438 C 253.566406 108.65625 251.113281 99.671875 244.171875 98.449219 L 228.042969 99.0625 C 225.183594 99.0625 222.53125 94.574219 222.53125 89.671875 C 222.53125 79.054688 234.78125 86.609375 234.78125 72.523438 C 234.78125 68.644531 230.492188 65.582031 227.226562 65.171875 C 217.226562 64.351562 204.972656 76.605469 204.972656 89.667969 Z M 144.953125 48.019531 C 144.953125 62.515625 152.914062 67.621094 146.792969 96.203125 C 145.359375 103.347656 138.21875 120.292969 152.507812 120.292969 C 161.898438 120.292969 163.738281 101.304688 165.574219 91.097656 C 167.820312 77.21875 166.390625 69.253906 163.738281 55.777344 C 162.304688 48.839844 161.898438 40.671875 153.933594 40.671875 C 149.242188 40.671875 144.953125 43.734375 144.953125 48.019531 Z M 467.519531 101.914062 C 467.519531 97.628906 466.292969 93.546875 465.679688 90.074219 C 464.863281 85.992188 464.25 82.929688 464.25 78.03125 C 466.289062 77.417969 470.578125 73.332031 478.339844 71.089844 C 480.992188 70.273438 483.644531 69.867188 485.894531 68.4375 C 493.648438 63.738281 493.035156 42.507812 460.78125 59.660156 C 458.128906 48.226562 447.101562 49.859375 444.246094 56.59375 C 442 61.496094 446.695312 83.949219 447.714844 89.054688 C 448.734375 94.773438 449.964844 105.589844 453.433594 108.449219 C 459.351562 112.941406 467.519531 108.652344 467.519531 101.914062 Z M 509.777344 73.335938 C 509.980469 69.457031 511.820312 67.621094 513.25 65.167969 C 516.71875 65.78125 518.964844 67.210938 520.597656 69.867188 C 518.148438 71.5 513.65625 72.925781 509.777344 73.335938 Z M 490.789062 78.644531 C 490.789062 87.421875 491.402344 96.203125 497.324219 102.734375 C 507.328125 113.757812 517.125 114.574219 529.785156 108.242188 C 538.152344 103.957031 538.5625 97.015625 534.886719 93.136719 C 527.945312 85.992188 522.433594 94.359375 515.902344 94.359375 C 513.046875 94.359375 511.820312 93.136719 511.203125 90.886719 C 517.328125 90.480469 524.476562 87.824219 528.761719 85.582031 C 541.21875 79.046875 541.421875 63.53125 530.804688 54.957031 C 509.367188 37.199219 490.789062 56.1875 490.789062 78.644531 Z M 411.167969 66.394531 C 416.273438 66.394531 417.496094 72.519531 414.4375 72.519531 C 410.964844 72.519531 409.945312 71.296875 406.269531 71.296875 C 407.292969 69.253906 408.3125 66.394531 411.167969 66.394531 Z M 388.714844 73.945312 C 388.714844 103.957031 422.195312 125.597656 441.589844 104.980469 C 447.507812 98.855469 442.609375 90.28125 435.667969 90.28125 C 430.359375 90.28125 427.296875 95.792969 424.644531 95.792969 C 420.558594 95.792969 414.84375 92.523438 413.210938 90.28125 C 424.035156 90.28125 433.628906 82.523438 433.628906 73.335938 C 433.628906 64.558594 433.015625 61.292969 426.890625 55.371094 C 419.746094 48.226562 409.945312 46.796875 400.757812 51.492188 C 393.613281 55.164062 388.714844 64.964844 388.714844 73.945312 Z M 245.808594 59.046875 C 245.808594 66.597656 253.566406 98.855469 255.609375 109.0625 C 257.242188 117.839844 259.078125 120.90625 266.226562 120.90625 C 274.1875 120.90625 274.1875 111.515625 272.964844 106 L 287.050781 116.410156 C 290.117188 118.042969 292.769531 118.65625 296.238281 117.023438 C 298.691406 115.800781 300.9375 112.738281 300.9375 109.265625 C 300.9375 103.144531 288.277344 95.386719 282.972656 91.300781 C 280.316406 89.261719 278.070312 87.832031 275.621094 86.199219 C 278.476562 81.910156 296.851562 70.476562 296.851562 63.742188 C 296.851562 55.984375 287.867188 51.699219 281.542969 57.414062 L 265.414062 71.296875 C 263.375 61.90625 264.597656 50.882812 254.59375 50.882812 C 248.460938 50.878906 245.808594 55.777344 245.808594 59.046875 Z M 79.011719 75.992188 C 79.011719 91.503906 80.234375 99.058594 92.488281 110.082031 C 100.855469 117.636719 113.105469 118.859375 124.539062 118.859375 C 135.15625 118.859375 141.6875 118.453125 141.6875 108.652344 C 141.6875 94.160156 112.699219 107.835938 100.855469 94.160156 C 89.628906 81.09375 99.835938 58.230469 114.332031 58.230469 C 116.78125 58.230469 119.640625 57.820312 120.050781 59.863281 C 120.664062 62.71875 115.148438 59.863281 115.148438 71.292969 C 115.148438 74.355469 119.027344 77.417969 124.539062 77.417969 C 130.867188 77.417969 137.605469 68.433594 137.605469 61.695312 C 137.605469 54.140625 137.199219 50.875 131.480469 45.769531 C 120.050781 35.5625 99.835938 41.484375 90.035156 51.691406 C 84.320312 57.410156 79.011719 67.417969 79.011719 75.992188 Z M 79.011719 75.992188" fill="#f2d5e4"/><path fill-rule="evenodd" fill-opacity="1" d="M 633.496094 81.707031 C 633.496094 91.300781 629.007812 99.671875 623.085938 106.003906 C 616.960938 112.945312 610.226562 115.804688 600.832031 117.640625 C 588.992188 120.089844 594.300781 136.015625 618.183594 122.746094 C 635.128906 113.152344 648.402344 91.710938 643.089844 72.113281 C 642.476562 69.664062 641.050781 67.417969 638.191406 67.011719 C 630.636719 66.1875 633.496094 75.789062 633.496094 81.707031 Z M 633.496094 81.707031" fill="#ffffff"/><path fill-rule="evenodd" fill-opacity="1" d="M 31.851562 56.59375 C 31.851562 49.859375 34.503906 45.164062 38.589844 42.101562 C 44.507812 37.8125 50.632812 38.425781 54.308594 36.792969 C 61.453125 33.527344 57.984375 19.644531 34.914062 32.304688 C 29.8125 34.957031 27.15625 38.222656 24.707031 43.125 C 22.667969 47.410156 20.621094 54.351562 21.441406 60.273438 C 21.847656 63.539062 21.644531 75.378906 28.789062 73.132812 C 34.710938 71.292969 31.851562 63.128906 31.851562 56.59375 Z M 31.851562 56.59375" fill="#ffffff"/><path fill-rule="evenodd" fill-opacity="1" d="M 72.683594 38.21875 C 74.523438 38.21875 79.625 36.382812 79.625 30.667969 C 79.625 25.96875 70.4375 24.949219 67.988281 31.28125 C 66.558594 34.546875 68.804688 38.21875 72.683594 38.21875 Z M 72.683594 38.21875" fill="#ffffff"/><path fill-rule="evenodd" fill-opacity="1" d="M 330.121094 41.285156 C 330.121094 52.921875 331.550781 68.03125 331.550781 75.171875 C 331.347656 80.277344 335.433594 106.207031 338.902344 110.695312 C 344.621094 118.65625 355.644531 113.351562 354.011719 103.757812 C 353.605469 100.285156 352.789062 98.652344 352.175781 95.386719 C 351.5625 92.527344 350.539062 89.464844 350.539062 86.8125 C 356.867188 86.199219 363.605469 84.773438 370.34375 84.773438 C 370.34375 114.375 389.328125 105.390625 389.328125 97.019531 C 389.328125 89.261719 382.589844 59.046875 382.589844 42.511719 C 382.386719 26.382812 365.441406 29.851562 365.441406 38.425781 L 366.257812 60.882812 C 366.460938 63.128906 366.871094 63.945312 366.871094 67.007812 C 361.363281 67.621094 354.011719 69.046875 348.496094 69.046875 C 348.496094 65.777344 348.089844 36.175781 347.066406 34.339844 C 343.394531 26.992188 330.121094 27.402344 330.121094 41.285156 Z M 330.121094 41.285156" fill="#ffffff"/><path fill-rule="evenodd" fill-opacity="1" d="M 79.011719 71.089844 C 79.011719 86.605469 80.234375 94.363281 92.488281 105.386719 C 100.855469 112.941406 113.105469 113.960938 124.539062 113.960938 C 135.15625 113.960938 141.6875 113.757812 141.6875 103.753906 C 141.6875 89.460938 112.699219 103.140625 100.855469 89.460938 C 89.628906 76.398438 99.835938 53.53125 114.332031 53.53125 C 116.78125 53.53125 119.640625 52.917969 120.050781 54.960938 C 120.664062 58.027344 115.148438 55.164062 115.148438 66.394531 C 115.148438 69.660156 119.027344 72.515625 124.539062 72.515625 C 130.867188 72.515625 137.605469 63.53125 137.605469 56.792969 C 137.605469 49.445312 137.199219 46.175781 131.480469 41.074219 C 120.050781 30.664062 99.835938 36.785156 90.035156 46.789062 C 84.320312 52.511719 79.011719 62.515625 79.011719 71.089844 Z M 79.011719 71.089844" fill="#ffffff"/><path fill-rule="evenodd" fill-opacity="1" d="M 245.808594 54.144531 C 245.808594 61.699219 253.566406 93.957031 255.609375 104.164062 C 257.242188 113.148438 259.078125 116.003906 266.226562 116.003906 C 274.1875 116.003906 274.1875 106.613281 272.964844 101.097656 L 287.050781 111.511719 C 290.117188 113.347656 292.769531 113.960938 296.238281 112.125 C 298.691406 110.898438 300.9375 107.835938 300.9375 104.570312 C 300.9375 98.242188 288.277344 90.480469 282.972656 86.402344 C 280.316406 84.566406 278.070312 82.929688 275.621094 81.296875 C 278.476562 77.214844 296.851562 65.574219 296.851562 58.84375 C 296.851562 51.289062 287.867188 47 281.542969 52.71875 L 265.414062 66.394531 C 263.375 57.003906 264.597656 45.980469 254.59375 45.980469 C 248.460938 45.976562 245.808594 50.878906 245.808594 54.144531 Z M 245.808594 54.144531" fill="#ffffff"/><path fill-rule="evenodd" fill-opacity="1" d="M 411.167969 61.699219 C 416.273438 61.699219 417.496094 67.824219 414.4375 67.824219 C 410.964844 67.824219 409.945312 66.394531 406.269531 66.394531 C 407.292969 64.554688 408.3125 61.699219 411.167969 61.699219 Z M 388.714844 69.050781 C 388.714844 99.265625 422.195312 120.703125 441.589844 100.285156 C 447.507812 94.164062 442.609375 85.382812 435.667969 85.382812 C 430.359375 85.382812 427.296875 90.890625 424.644531 90.890625 C 420.558594 90.890625 414.84375 87.828125 413.210938 85.382812 C 424.035156 85.382812 433.628906 77.625 433.628906 68.4375 C 433.628906 59.660156 433.015625 56.59375 426.890625 50.675781 C 419.746094 43.324219 409.945312 42.101562 400.757812 46.589844 C 393.613281 50.269531 388.714844 60.066406 388.714844 69.050781 Z M 388.714844 69.050781" fill="#ffffff"/><path fill-rule="evenodd" fill-opacity="1" d="M 509.777344 68.4375 C 509.980469 64.761719 511.820312 62.925781 513.25 60.269531 C 516.71875 61.085938 518.964844 62.515625 520.597656 64.964844 C 518.148438 66.804688 513.65625 68.234375 509.777344 68.4375 Z M 490.789062 73.945312 C 490.789062 82.722656 491.402344 91.296875 497.324219 97.832031 C 507.328125 109.058594 517.125 109.671875 529.785156 103.34375 C 538.152344 99.054688 538.5625 92.113281 534.886719 88.234375 C 527.945312 81.292969 522.433594 89.457031 515.902344 89.457031 C 513.046875 89.457031 511.820312 88.4375 511.203125 86.191406 C 517.328125 85.578125 524.476562 82.921875 528.761719 80.679688 C 541.21875 74.351562 541.421875 58.835938 530.804688 50.058594 C 509.367188 32.507812 490.789062 51.492188 490.789062 73.945312 Z M 490.789062 73.945312" fill="#ffffff"/><path fill-rule="evenodd" fill-opacity="1" d="M 467.519531 97.019531 C 467.519531 92.730469 466.292969 88.648438 465.679688 85.382812 C 464.863281 81.09375 464.25 78.03125 464.25 73.132812 C 466.289062 72.726562 470.578125 68.644531 478.339844 66.394531 C 480.992188 65.578125 483.644531 65.171875 485.894531 63.742188 C 493.648438 59.046875 493.035156 37.8125 460.78125 54.757812 C 458.128906 43.53125 447.101562 44.957031 444.246094 51.902344 C 442 56.800781 446.695312 79.054688 447.714844 84.359375 C 448.734375 89.871094 449.964844 100.894531 453.433594 103.554688 C 459.351562 108.246094 467.519531 103.757812 467.519531 97.019531 Z M 467.519531 97.019531" fill="#ffffff"/><path fill-rule="evenodd" fill-opacity="1" d="M 144.953125 43.324219 C 144.953125 57.820312 152.914062 62.71875 146.792969 91.503906 C 145.359375 98.648438 138.21875 115.390625 152.507812 115.390625 C 161.898438 115.390625 163.738281 96.609375 165.574219 86.199219 C 167.820312 72.519531 166.390625 64.351562 163.738281 51.085938 C 162.304688 43.941406 161.898438 35.773438 153.933594 35.773438 C 149.242188 35.769531 144.953125 39.035156 144.953125 43.324219 Z M 144.953125 43.324219" fill="#ffffff"/><path fill-rule="evenodd" fill-opacity="1" d="M 204.972656 84.769531 C 204.972656 98.242188 214.566406 111.921875 228.042969 111.921875 C 234.367188 111.921875 244.578125 112.738281 248.867188 108.449219 C 253.566406 103.753906 251.113281 94.976562 244.171875 93.753906 L 228.042969 94.367188 C 225.183594 94.367188 222.53125 89.875 222.53125 84.773438 C 222.53125 74.359375 234.78125 81.707031 234.78125 67.828125 C 234.78125 63.742188 230.492188 60.683594 227.226562 60.476562 C 217.226562 59.660156 204.972656 71.703125 204.972656 84.769531 Z M 204.972656 84.769531" fill="#ffffff"/><path fill-rule="evenodd" fill-opacity="1" d="M 575.71875 93.550781 C 575.71875 83.136719 574.289062 69.050781 573.0625 58.84375 C 572.246094 50.882812 576.738281 33.121094 564.285156 33.121094 C 555.300781 33.121094 554.894531 43.125 555.300781 50.066406 C 556.121094 57.820312 555.914062 67.011719 556.734375 75.175781 C 557.347656 80.894531 558.164062 93.753906 560.613281 97.226562 C 565.511719 103.550781 575.71875 100.488281 575.71875 93.550781 Z M 575.71875 93.550781" fill="#ffffff"/><path fill-rule="evenodd" fill-opacity="1" d="M 175.578125 78.644531 C 175.578125 88.238281 177.210938 90.6875 179.660156 99.875 C 181.089844 105.796875 181.292969 112.738281 189.253906 112.738281 C 201.503906 112.738281 197.214844 99.058594 196.195312 94.773438 C 193.339844 83.746094 193.746094 71.089844 183.742188 71.089844 C 179.453125 71.089844 175.578125 74.355469 175.578125 78.644531 Z M 175.578125 78.644531" fill="#ffffff"/><path fill-rule="evenodd" fill-opacity="1" d="M 174.351562 53.53125 C 174.351562 56.386719 176.390625 60.066406 177.617188 61.699219 C 183.742188 70.273438 195.785156 63.738281 193.542969 55.164062 C 190.273438 41.285156 174.351562 43.324219 174.351562 53.53125 Z M 174.351562 53.53125" fill="#ffffff"/><path fill-rule="evenodd" fill-opacity="1" d="M 558.164062 122.128906 C 558.164062 135.398438 577.761719 132.949219 577.761719 120.90625 C 577.761719 108.652344 558.164062 111.515625 558.164062 122.128906 Z M 558.164062 122.128906" fill="#ffffff"/><g clip-path="url(#fa429d1f6e)"><path fill-rule="nonzero" fill-opacity="1" d="M 126.578125 20.542969 C 96.085938 20.542969 71.359375 45.273438 71.359375 75.761719 C 71.359375 106.253906 96.085938 130.980469 126.578125 130.980469 C 157.066406 130.980469 181.796875 106.253906 181.796875 75.761719 C 181.796875 45.273438 157.066406 20.542969 126.578125 20.542969 Z M 126.578125 20.542969" fill="#f99193"/></g><g clip-path="url(#d5657049ce)"><path fill-rule="nonzero" fill-opacity="1" d="M 181.804688 20.542969 C 151.3125 20.542969 126.585938 45.273438 126.585938 75.761719 C 126.585938 106.253906 151.3125 130.980469 181.804688 130.980469 C 212.292969 130.980469 237.023438 106.253906 237.023438 75.761719 C 237.023438 45.273438 212.292969 20.542969 181.804688 20.542969 Z M 181.804688 20.542969" fill="#f99193"/></g><g clip-path="url(#20668648d5)"><path fill-rule="nonzero" fill-opacity="1" d="M 261.660156 30.773438 C 231.171875 30.773438 206.441406 55.5 206.441406 85.992188 C 206.441406 116.484375 231.171875 141.210938 261.660156 141.210938 C 292.152344 141.210938 316.878906 116.484375 316.878906 85.992188 C 316.878906 55.5 292.152344 30.773438 261.660156 30.773438 Z M 261.660156 30.773438" fill="#f99193"/></g><g clip-path="url(#076cf511a2)"><path fill-rule="nonzero" fill-opacity="1" d="M 334.675781 15.429688 C 304.183594 15.429688 279.457031 40.15625 279.457031 70.648438 C 279.457031 101.140625 304.183594 125.867188 334.675781 125.867188 C 365.164062 125.867188 389.894531 101.140625 389.894531 70.648438 C 389.894531 40.15625 365.164062 15.429688 334.675781 15.429688 Z M 334.675781 15.429688" fill="#f99193"/></g><g clip-path="url(#b57bb2045c)"><path fill-rule="nonzero" fill-opacity="1" d="M 401.128906 20.542969 C 370.636719 20.542969 345.910156 45.273438 345.910156 75.761719 C 345.910156 106.253906 370.636719 130.980469 401.128906 130.980469 C 431.617188 130.980469 456.347656 106.253906 456.347656 75.761719 C 456.347656 45.273438 431.617188 20.542969 401.128906 20.542969 Z M 401.128906 20.542969" fill="#f99193"/></g><g clip-path="url(#acd6d4a068)"><path fill-rule="nonzero" fill-opacity="1" d="M 492.976562 20.542969 C 462.488281 20.542969 437.757812 45.273438 437.757812 75.761719 C 437.757812 106.253906 462.488281 130.980469 492.976562 130.980469 C 523.46875 130.980469 548.195312 106.253906 548.195312 75.761719 C 548.195312 45.273438 523.46875 20.542969 492.976562 20.542969 Z M 492.976562 20.542969" fill="#f99193"/></g><g clip-path="url(#a0d1ecb3ee)"><path fill-rule="nonzero" fill-opacity="1" d="M 548.21875 21.921875 C 521.3125 21.921875 499.492188 43.742188 499.492188 70.648438 C 499.492188 97.554688 521.3125 119.378906 548.21875 119.378906 C 575.125 119.378906 596.949219 97.554688 596.949219 70.648438 C 596.949219 43.742188 575.125 21.921875 548.21875 21.921875 Z M 548.21875 21.921875" fill="#f99193"/></g><g clip-path="url(#2767f3df54)"><path fill-rule="nonzero" fill-opacity="1" d="M 557.726562 72.339844 C 539.660156 72.339844 525.007812 86.996094 525.007812 105.0625 C 525.007812 123.128906 539.660156 137.78125 557.726562 137.78125 C 575.796875 137.78125 590.449219 123.128906 590.449219 105.0625 C 590.449219 86.996094 575.796875 72.339844 557.726562 72.339844 Z M 557.726562 72.339844" fill="#f99193"/></g></svg>