<svg xmlns="http://www.w3.org/2000/svg" xmlns:xlink="http://www.w3.org/1999/xlink" width="900" zoomAndPan="magnify" viewBox="0 0 675 675.000002" height="900" preserveAspectRatio="xMidYMid meet" version="1.0"><defs><clipPath id="04ac3cf620"><path d="M 4 42.125 L 671 42.125 L 671 366 L 4 366 Z M 4 42.125 " clip-rule="nonzero"/></clipPath><clipPath id="0749a2280d"><path d="M 102 165 L 573 165 L 573 606.789062 L 102 606.789062 Z M 102 165 " clip-rule="nonzero"/></clipPath></defs><g clip-path="url(#04ac3cf620)"><path fill="#f99192" d="M 659.847656 310.15625 L 358.183594 49.742188 C 357.976562 49.574219 357.757812 49.4375 357.5625 49.261719 C 357.085938 48.878906 356.628906 48.507812 356.136719 48.15625 C 355.757812 47.882812 355.382812 47.625 355.007812 47.371094 C 354.523438 47.039062 354.042969 46.742188 353.550781 46.453125 C 353.125 46.199219 352.695312 45.960938 352.253906 45.730469 C 351.796875 45.496094 351.332031 45.261719 350.859375 45.046875 C 350.375 44.824219 349.878906 44.601562 349.386719 44.398438 C 348.957031 44.230469 348.519531 44.0625 348.074219 43.90625 C 347.539062 43.714844 347.003906 43.546875 346.464844 43.390625 C 346.042969 43.257812 345.613281 43.148438 345.183594 43.042969 C 344.621094 42.902344 344.0625 42.769531 343.503906 42.667969 C 343.066406 42.585938 342.640625 42.519531 342.195312 42.453125 C 341.640625 42.363281 341.078125 42.296875 340.519531 42.25 C 340.0625 42.207031 339.605469 42.171875 339.148438 42.152344 C 338.605469 42.128906 338.082031 42.109375 337.539062 42.109375 C 337.046875 42.109375 336.566406 42.128906 336.074219 42.152344 C 335.578125 42.171875 335.066406 42.207031 334.554688 42.261719 C 334.050781 42.296875 333.53125 42.363281 333.039062 42.433594 C 332.542969 42.511719 332.070312 42.585938 331.578125 42.679688 C 331.066406 42.785156 330.550781 42.902344 330.027344 43.03125 C 329.554688 43.144531 329.105469 43.261719 328.628906 43.402344 C 328.132812 43.550781 327.625 43.707031 327.132812 43.886719 C 326.652344 44.050781 326.179688 44.230469 325.707031 44.429688 C 325.25 44.613281 324.796875 44.808594 324.335938 45.027344 C 323.84375 45.257812 323.339844 45.503906 322.847656 45.753906 C 322.433594 45.976562 322.042969 46.199219 321.652344 46.429688 C 321.125 46.726562 320.605469 47.050781 320.125 47.390625 C 319.75 47.628906 319.40625 47.882812 319.035156 48.140625 C 318.535156 48.5 318.054688 48.882812 317.574219 49.28125 C 317.371094 49.441406 317.171875 49.582031 316.960938 49.742188 L 218.085938 135.109375 L 218.085938 100.753906 C 218.085938 91.421875 210.449219 83.773438 201.105469 83.773438 L 142.671875 83.773438 C 133.328125 83.773438 125.695312 91.421875 125.695312 100.753906 L 125.695312 214.863281 L 15.3125 310.15625 C 2.121094 321.539062 0.660156 341.472656 12.042969 354.640625 C 18.273438 361.875 27.078125 365.585938 35.941406 365.585938 C 43.230469 365.585938 50.570312 363.050781 56.523438 357.914062 L 337.570312 115.292969 L 618.621094 357.914062 C 624.578125 363.050781 631.917969 365.585938 639.226562 365.585938 C 648.078125 365.585938 656.875 361.875 663.113281 354.640625 C 674.492188 341.472656 673.027344 321.539062 659.847656 310.15625 " fill-opacity="1" fill-rule="nonzero"/></g><g clip-path="url(#0749a2280d)"><path fill="#f99192" d="M 456.851562 390.097656 C 452.847656 432.121094 360.117188 510.832031 337.570312 551.339844 C 315.027344 510.832031 222.3125 432.121094 218.300781 390.097656 C 214.304688 348.0625 241.960938 321.667969 276.164062 321.667969 C 302.316406 321.667969 327.886719 342.851562 336.976562 367.710938 C 337.214844 368.371094 337.421875 369.371094 337.570312 370.605469 C 337.746094 369.371094 337.949219 368.371094 338.183594 367.710938 C 347.273438 342.851562 372.832031 321.667969 398.984375 321.667969 C 433.191406 321.667969 460.851562 348.0625 456.851562 390.097656 M 554.550781 343.285156 L 355.953125 171.820312 C 345.839844 163.109375 329.308594 163.109375 319.214844 171.820312 L 120.597656 343.285156 C 110.503906 352.003906 102.234375 370.058594 102.234375 383.402344 L 102.234375 582.351562 C 102.234375 595.691406 113.152344 606.617188 126.492188 606.617188 L 548.652344 606.617188 C 561.992188 606.617188 572.917969 595.691406 572.917969 582.351562 L 572.917969 383.402344 C 572.917969 370.058594 564.652344 351.996094 554.550781 343.285156 " fill-opacity="1" fill-rule="nonzero"/></g></svg>