<svg xmlns="http://www.w3.org/2000/svg" enable-background="new 0 0 1000 1000" version="1.1" viewBox="0 0 1000 1000" x="0px" xml:space="preserve" y="0px" style="fill: rgb(0, 0, 0);" original_string_length="3633" xmlns:xlink="http://www.w3.org/1999/xlink" transform="matrix(-1,0,0,1,0,0)">
<g>
	<g>
		<g id="__id453_s1feh0dctg"><path d="m617.9 761v164.8l346.7-305.6-346.7-314.9-0.2 174.7c-509-4.9-322.1-405.8-322.1-405.8s-762.2 738.7 322.3 686.8z" style="fill: rgb(255, 255, 255);"></path></g>
		<g id="__id454_s1feh0dctg">
			<path d="m587.9 761v144.1 20.7c0 12 7.5 22.8 18.4 27.4 11.5 4.9 23.5 1.9 32.8-6.2 11.5-10.1 23-20.3 34.5-30.4 27.6-24.3 55.2-48.7 82.8-73 33.4-29.4 66.8-58.9 100.2-88.3 28.9-25.4 57.7-50.9 86.6-76.3 14-12.3 28.4-24.3 42-37 0.2-0.2 0.4-0.4 0.6-0.5 11.8-10.4 11.4-32 0-42.4-11.5-10.5-23.1-21-34.6-31.4-27.6-25-55.1-50.1-82.7-75.1-33.5-30.4-66.9-60.8-100.4-91.2-28.8-26.2-57.6-52.3-86.4-78.5-14-12.7-27.8-25.7-42-38.2-0.2-0.2-0.4-0.4-0.6-0.5-9.1-8.2-21.3-11.1-32.8-6.2-10.9 4.6-18.4 15.4-18.4 27.4 0 19.6-0.1 39.3-0.1 58.9 0 31.3-0.1 62.7-0.1 94v21.7l30-30c-32-0.3-63.9-2.2-95.6-6.4 2.7 0.4 5.3 0.7 8 1.1-39.6-5.3-78.9-14.3-115.9-29.7l7.2 3c-12.6-5.3-24.9-11.4-36.6-18.4-5.3-3.2-10.5-6.5-15.6-10-2.4-1.7-4.8-3.5-7.2-5.2-4.5-3.4 6.8 5.4 2.3 1.8-1.2-1-2.5-2-3.7-3-8.6-7.1-16.7-14.8-24.2-23.2-1.7-1.9-3.3-3.8-4.9-5.8-0.8-0.9-1.5-1.8-2.2-2.8-4.2-5.3 5.3 7 1.2 1.6-3.1-4.1-5.9-8.3-8.7-12.6-6-9.4-11.2-19.4-15.5-29.7l3 7.2c-7.9-18.8-13-38.6-15.7-58.7 0.4 2.7 0.7 5.3 1.1 8-2.9-21.9-3.1-44.1-1.2-66.2 0.5-5.9 1.2-11.8 2-17.7-0.4 2.7-0.7 5.3-1.1 8 2.4-18 6.1-35.9 10.9-53.5 3.5-12.9 7.6-25.6 12.3-38.2 1.6-4.3 3.3-8.5 5-12.7l-3 7.2 2.1-4.8c6.4-13.7 4.8-29-7.7-38.7-11.8-9.1-28.6-8.1-39.4 2.3-6.7 6.5-13.2 13.3-19.7 20-16.8 17.5-33 35.6-48.8 53.9-23.6 27.4-46.1 55.7-67.5 84.8-22.7 30.7-43.9 62.6-62.9 95.8-20.1 35.1-37.7 72-50.7 110.4-12 35.4-19.8 73.2-19.3 110.6 0.5 37.8 9.8 75.7 29.5 108.3 22.3 37 56.3 65.8 93.9 86.5 50.4 27.7 106.9 43.4 163.3 53.2 82.9 14.4 167.4 18 251.4 16.8 24.9-0.4 49.7-1.2 74.5-2.4 15.7-0.7 30.7-13.3 30-30-0.7-15.6-13.2-30.8-30-30-76.7 3.6-153.8 4.1-230.4-2.3-17.9-1.5-35.7-3.4-53.4-5.8 2.7 0.4 5.3 0.7 8 1.1-43.4-5.9-86.7-14.5-128.2-28.6-9.8-3.3-19.5-7-29-11l7.2 3c-23.8-10.1-46.2-22.5-67-37.9-1.3-0.9 7.5 5.9 3.9 3-0.5-0.4-1-0.8-1.4-1.1-1.2-1-2.4-1.9-3.5-2.9-2.2-1.8-4.3-3.6-6.3-5.5-4-3.6-7.9-7.4-11.6-11.3-3.5-3.7-6.9-7.6-10.1-11.5l-1.2-1.5c-2.7-3.4 3.1 4 3.2 4.1-0.7-1-1.5-2-2.3-3-1.5-2-2.9-4.1-4.3-6.1-6.1-9.1-11.3-18.7-15.6-28.8l3 7.2c-6.3-14.8-10.4-30.5-12.5-46.4 0.4 2.7 0.7 5.3 1.1 8-2.7-20.6-2.2-41.4 0.6-61.9-0.4 2.7-0.7 5.3-1.1 8 3.6-26.3 10.7-52.1 19.9-77 2.7-7.4 5.6-14.7 8.7-22l-3 7.2c13.7-32.4 30.5-63.5 48.9-93.5 18-29.3 37.7-57.6 58.5-85.1 2.5-3.3 4.9-6.5 7.4-9.7-8.1 10.6-2.6 3.4-0.7 0.9 1.2-1.6 2.5-3.1 3.7-4.7 4.8-6.1 9.6-12.1 14.5-18.1 9-11.1 18.2-22 27.6-32.8 14.3-16.5 29-32.8 44.1-48.6 6.6-7 13.6-13.6 20.2-20.6l0.3-0.3c-15.7-12.1-31.4-24.2-47.1-36.4-7.1 15.3-13 31.4-18 47.6-10.5 33.8-17.1 69.1-19.1 104.4-2.5 45 4.3 89.9 22.3 131.3 20.7 47.8 59.1 86.2 104 111.8 67.5 38.4 147.3 51.3 223.8 55 11.7 0.6 23.3 0.9 35 1 16.2 0.2 30-13.9 30-30 0-19.6 0.1-39.3 0.1-58.9 0-31.3 0.1-62.7 0.1-94v-21.7c-17.1 7.1-34.1 14.1-51.2 21.2 11.5 10.5 23.1 21 34.6 31.4 27.6 25 55.1 50.1 82.7 75.1 33.5 30.4 66.9 60.8 100.4 91.2 28.8 26.2 57.6 52.3 86.4 78.5 14 12.7 27.7 25.9 42 38.2 0.2 0.2 0.4 0.4 0.6 0.5v-42.4c-11.5 10.1-23 20.3-34.5 30.4-27.6 24.3-55.2 48.7-82.8 73-33.4 29.4-66.8 58.9-100.2 88.3-28.9 25.4-57.7 50.9-86.6 76.3-14 12.3-28.3 24.3-42 37-0.2 0.2-0.4 0.4-0.6 0.5 17.1 7.1 34.1 14.1 51.2 21.2v-144.1-20.7c0-15.7-13.8-30.7-30-30-16.9 0.7-30.7 13.2-30.7 30z" style="fill: rgb(255, 255, 255);"></path>
		</g>
	</g>
</g>
</svg>