<svg xmlns="http://www.w3.org/2000/svg" xmlns:xlink="http://www.w3.org/1999/xlink" width="300" zoomAndPan="magnify" viewBox="0 0 224.87999 187.499995" height="250" preserveAspectRatio="xMidYMid meet" version="1.0"><defs><clipPath id="32d85ee87a"><path d="M 0.238281 9.535156 L 224.519531 9.535156 L 224.519531 168.113281 L 0.238281 168.113281 Z M 0.238281 9.535156 " clip-rule="nonzero"/></clipPath></defs><g clip-path="url(#32d85ee87a)"><path fill="#ffffff" d="M 200.519531 73.542969 C 200.875 70.945312 201.144531 68.300781 201.144531 65.566406 C 201.144531 34.636719 176.042969 9.535156 145.117188 9.535156 C 124.183594 9.535156 105.941406 21.058594 96.347656 38.042969 C 90.789062 34.773438 84.335938 32.84375 77.433594 32.84375 C 57.933594 32.84375 41.933594 47.816406 40.230469 66.867188 C 17.414062 72.15625 0.382812 92.503906 0.382812 116.933594 C 0.382812 145.308594 23.375 168.300781 51.75 168.300781 L 173.128906 168.300781 C 201.503906 168.300781 224.5 145.308594 224.5 116.933594 C 224.5 98.644531 214.90625 82.644531 200.519531 73.542969 Z M 81.421875 87.261719 C 82.320312 88.15625 82.320312 89.636719 81.421875 90.578125 C 80.972656 91.027344 80.390625 91.25 79.765625 91.25 C 79.179688 91.25 78.554688 91.027344 78.105469 90.578125 L 75.101562 87.574219 L 72.097656 90.578125 C 71.652344 91.027344 71.066406 91.25 70.441406 91.25 C 69.8125 91.25 69.230469 91.027344 68.78125 90.578125 C 67.886719 89.679688 67.886719 88.203125 68.78125 87.261719 L 71.785156 84.257812 L 68.78125 81.253906 C 67.886719 80.359375 67.886719 78.878906 68.78125 77.9375 C 69.679688 77.039062 71.15625 77.039062 72.097656 77.9375 L 75.101562 80.941406 L 78.105469 77.9375 C 79 77.039062 80.480469 77.039062 81.421875 77.9375 C 82.320312 78.832031 82.320312 80.3125 81.421875 81.253906 L 78.417969 84.257812 Z M 137.628906 134.730469 C 136.824219 135.757812 135.34375 135.894531 134.359375 135.085938 C 121.496094 124.777344 103.476562 124.777344 90.566406 135.085938 C 90.117188 135.445312 89.625 135.582031 89.085938 135.582031 C 88.414062 135.582031 87.742188 135.265625 87.25 134.683594 C 86.441406 133.699219 86.621094 132.21875 87.609375 131.410156 C 102.21875 119.710938 122.613281 119.710938 137.226562 131.410156 C 138.257812 132.261719 138.394531 133.699219 137.628906 134.730469 Z M 156.097656 87.261719 C 156.996094 88.15625 156.996094 89.636719 156.097656 90.578125 C 155.648438 91.027344 155.066406 91.25 154.4375 91.25 C 153.8125 91.25 153.230469 91.027344 152.78125 90.578125 L 149.777344 87.574219 L 146.773438 90.578125 C 146.328125 91.027344 145.742188 91.25 145.117188 91.25 C 144.535156 91.25 143.90625 91.027344 143.457031 90.578125 C 142.5625 89.679688 142.5625 88.203125 143.457031 87.261719 L 146.460938 84.257812 L 143.457031 81.253906 C 142.5625 80.359375 142.5625 78.878906 143.457031 77.9375 C 144.355469 77.039062 145.832031 77.039062 146.773438 77.9375 L 149.777344 80.941406 L 152.78125 77.9375 C 153.675781 77.039062 155.15625 77.039062 156.097656 77.9375 C 156.996094 78.832031 156.996094 80.3125 156.097656 81.253906 L 153.09375 84.257812 Z M 156.097656 87.261719 " fill-opacity="1" fill-rule="nonzero"/></g></svg>