<svg version="1.0" preserveAspectRatio="xMidYMid meet" viewBox="0 51.300000151999996 673.65 573.7500017" zoomAndPan="magnify" xmlns:xlink="http://www.w3.org/1999/xlink" xmlns="http://www.w3.org/2000/svg" style="max-height: 500px" width="673.65" height="573.7500017"><defs><clipPath id="84075203e4"><path clip-rule="nonzero" d="M 57 55.773438 L 617 55.773438 L 617 618.1875 L 57 618.1875 Z M 57 55.773438"/></clipPath></defs><path fill-rule="nonzero" fill-opacity="1" d="M 336.933594 109.933594 C 212.464844 109.933594 111.433594 212.007812 111.433594 336.996094 C 111.433594 461.984375 212.464844 564.058594 336.933594 564.058594 C 461.402344 564.058594 562.433594 461.984375 562.433594 336.996094 C 562.433594 212.007812 461.402344 109.933594 336.933594 109.933594 Z M 336.933594 543.230469 C 223.921875 543.230469 132.265625 450.527344 132.265625 336.996094 C 132.265625 223.464844 223.921875 130.765625 336.933594 130.765625 C 449.941406 130.765625 541.601562 223.464844 541.601562 336.996094 C 541.601562 450.527344 449.941406 543.230469 336.933594 543.230469 Z M 336.933594 543.230469" fill="#b7e086"/><g clip-path="url(#84075203e4)"><path fill-rule="nonzero" fill-opacity="1" d="M 336.933594 55.773438 C 182.78125 55.773438 57.269531 181.804688 57.269531 336.996094 C 57.269531 492.191406 182.78125 618.222656 336.933594 618.222656 C 491.085938 618.222656 616.59375 492.191406 616.59375 336.996094 C 616.59375 181.804688 491.085938 55.773438 336.933594 55.773438 Z M 336.933594 597.390625 C 194.238281 597.390625 78.101562 480.734375 78.101562 336.996094 C 78.101562 193.261719 194.238281 76.605469 336.933594 76.605469 C 479.628906 76.605469 595.761719 193.261719 595.761719 336.996094 C 595.761719 480.734375 479.628906 597.390625 336.933594 597.390625 Z M 336.933594 597.390625" fill="#b7e086"/></g><path fill-rule="nonzero" fill-opacity="1" d="M 630.136719 177.117188 C 627.53125 171.910156 621.28125 170.347656 616.074219 172.949219 C 610.867188 175.554688 609.304688 181.804688 611.90625 187.011719 C 612.949219 188.574219 613.46875 190.136719 613.992188 191.175781 C 616.074219 194.824219 619.71875 196.90625 623.363281 196.90625 C 624.925781 196.90625 626.488281 196.386719 628.050781 195.863281 C 633.261719 193.261719 635.34375 187.011719 632.738281 181.804688 C 631.699219 180.242188 630.65625 178.679688 630.136719 177.117188 Z M 630.136719 177.117188" fill="#b7e086"/><path fill-rule="nonzero" fill-opacity="1" d="M 600.449219 525 C 595.761719 521.355469 589.515625 522.398438 585.867188 527.085938 C 584.828125 528.648438 583.785156 529.6875 582.742188 531.25 C 579.097656 535.9375 580.140625 542.1875 584.304688 545.832031 C 586.390625 547.394531 588.472656 547.914062 590.554688 547.914062 C 593.679688 547.914062 596.804688 546.351562 598.886719 543.75 C 599.929688 542.1875 600.972656 541.144531 602.011719 539.582031 C 606.179688 534.894531 605.136719 528.125 600.449219 525 Z M 600.449219 525" fill="#b7e086"/><path fill-rule="nonzero" fill-opacity="1" d="M 589.515625 134.410156 C 584.828125 138.058594 583.785156 144.304688 587.429688 148.992188 C 588.472656 150.554688 589.515625 151.597656 590.554688 153.160156 C 592.636719 155.765625 595.761719 157.328125 598.886719 157.328125 C 600.972656 157.328125 603.054688 156.804688 605.136719 155.242188 C 609.824219 152.117188 610.867188 145.347656 607.742188 140.660156 C 606.699219 139.097656 605.660156 137.535156 604.617188 136.496094 C 600.972656 131.808594 594.199219 131.285156 589.515625 134.410156 Z M 589.515625 134.410156" fill="#b7e086"/><path fill-rule="nonzero" fill-opacity="1" d="M 642.632812 271.378906 C 643.15625 272.941406 643.15625 274.503906 643.675781 276.066406 C 644.71875 281.273438 648.882812 284.398438 654.089844 284.398438 C 654.613281 284.398438 655.652344 284.398438 656.175781 284.398438 C 661.902344 283.355469 665.546875 277.628906 664.507812 272.421875 C 663.984375 270.859375 663.984375 268.773438 663.464844 267.210938 C 662.425781 261.484375 656.695312 257.839844 650.964844 259.398438 C 644.71875 259.921875 641.59375 265.648438 642.632812 271.378906 Z M 642.632812 271.378906" fill="#b7e086"/><path fill-rule="nonzero" fill-opacity="1" d="M 649.925781 220.863281 C 647.84375 215.65625 642.113281 212.53125 636.382812 214.613281 C 631.175781 216.695312 628.050781 222.425781 630.136719 228.152344 C 630.65625 229.714844 631.175781 231.277344 631.699219 232.839844 C 633.261719 237.007812 637.425781 239.609375 641.59375 239.609375 C 642.632812 239.609375 643.675781 239.609375 645.238281 239.089844 C 650.445312 237.007812 653.570312 231.277344 651.488281 226.070312 C 650.964844 223.988281 650.445312 222.425781 649.925781 220.863281 Z M 649.925781 220.863281" fill="#b7e086"/><path fill-rule="nonzero" fill-opacity="1" d="M 659.820312 351.058594 C 654.089844 350.539062 648.882812 354.703125 648.882812 360.433594 C 648.882812 361.996094 648.363281 363.558594 648.363281 365.640625 C 647.84375 371.371094 652.007812 376.578125 657.738281 377.097656 C 658.257812 377.097656 658.257812 377.097656 658.777344 377.097656 C 663.988281 377.097656 668.671875 372.933594 669.195312 367.722656 C 669.195312 366.160156 669.714844 364.078125 669.714844 362.515625 C 669.714844 356.789062 665.546875 351.578125 659.820312 351.058594 Z M 659.820312 351.058594" fill="#b7e086"/><path fill-rule="nonzero" fill-opacity="1" d="M 658.257812 304.707031 C 652.527344 305.230469 648.363281 309.917969 648.363281 315.644531 C 648.363281 317.207031 648.363281 318.769531 648.882812 320.851562 C 649.402344 326.582031 653.570312 330.746094 659.300781 330.746094 C 659.300781 330.746094 659.820312 330.746094 659.820312 330.746094 C 665.546875 330.226562 670.234375 325.539062 669.714844 319.8125 C 669.714844 318.25 669.714844 316.164062 669.195312 314.605469 C 669.195312 308.875 663.988281 304.1875 658.257812 304.707031 Z M 658.257812 304.707031" fill="#b7e086"/><path fill-rule="nonzero" fill-opacity="1" d="M 654.613281 397.410156 C 648.882812 396.367188 643.675781 399.492188 642.113281 405.21875 C 641.59375 406.78125 641.59375 408.34375 641.070312 409.90625 C 639.507812 415.636719 643.15625 421.363281 648.882812 422.40625 C 649.925781 422.40625 650.445312 422.925781 651.488281 422.925781 C 656.175781 422.925781 660.339844 419.800781 661.382812 415.117188 C 661.902344 413.554688 662.425781 411.46875 662.425781 409.90625 C 663.464844 404.179688 659.820312 398.449219 654.613281 397.410156 Z M 654.613281 397.410156" fill="#b7e086"/><path fill-rule="nonzero" fill-opacity="1" d="M 624.40625 484.902344 C 619.199219 482.296875 612.949219 483.859375 610.34375 489.066406 C 609.304688 490.628906 608.78125 492.191406 607.742188 493.234375 C 605.136719 498.441406 606.699219 504.691406 611.386719 507.292969 C 612.949219 508.335938 615.03125 508.855469 616.59375 508.855469 C 620.242188 508.855469 623.886719 506.773438 625.449219 503.648438 C 626.488281 502.085938 627.011719 500.523438 628.050781 498.960938 C 631.699219 494.273438 629.613281 488.027344 624.40625 484.902344 Z M 624.40625 484.902344" fill="#b7e086"/><path fill-rule="nonzero" fill-opacity="1" d="M 642.632812 442.195312 C 637.425781 440.113281 631.175781 442.71875 629.09375 448.445312 C 628.574219 450.007812 628.050781 451.570312 627.53125 453.132812 C 625.449219 458.339844 628.050781 464.589844 633.261719 466.671875 C 634.300781 467.195312 635.863281 467.195312 636.90625 467.195312 C 641.070312 467.195312 645.238281 464.589844 646.800781 460.421875 C 647.320312 458.859375 647.84375 457.300781 648.882812 455.214844 C 650.964844 450.007812 647.84375 444.28125 642.632812 442.195312 Z M 642.632812 442.195312" fill="#b7e086"/><path fill-rule="nonzero" fill-opacity="1" d="M 5.191406 306.269531 C 5.191406 307.832031 4.671875 309.917969 4.671875 311.480469 C 4.152344 317.207031 8.316406 322.414062 14.046875 322.414062 C 14.566406 322.414062 14.566406 322.414062 15.085938 322.414062 C 20.292969 322.414062 24.980469 318.25 25.503906 312.519531 C 25.503906 310.957031 26.023438 309.394531 26.023438 307.3125 C 26.542969 301.585938 22.378906 296.375 16.648438 295.855469 C 10.398438 296.375 5.710938 300.542969 5.191406 306.269531 Z M 5.191406 306.269531" fill="#b7e086"/><path fill-rule="nonzero" fill-opacity="1" d="M 12.484375 258.878906 C 11.960938 260.441406 11.441406 262.523438 11.441406 264.085938 C 10.398438 269.816406 14.046875 275.542969 19.253906 276.585938 C 19.773438 276.585938 20.816406 276.585938 21.335938 276.585938 C 26.023438 276.585938 30.191406 273.460938 31.753906 268.253906 C 32.273438 266.691406 32.273438 265.128906 32.792969 263.566406 C 34.355469 257.839844 30.710938 252.109375 24.980469 251.066406 C 19.773438 250.027344 14.046875 253.671875 12.484375 258.878906 Z M 12.484375 258.878906" fill="#b7e086"/><path fill-rule="nonzero" fill-opacity="1" d="M 31.230469 402.617188 C 30.710938 401.054688 30.710938 399.492188 30.191406 397.929688 C 29.148438 392.199219 23.417969 388.554688 18.210938 389.597656 C 12.484375 390.636719 8.835938 396.367188 9.878906 401.574219 C 10.398438 403.136719 10.398438 405.21875 10.921875 406.78125 C 11.960938 411.46875 16.128906 415.117188 21.335938 415.117188 C 21.855469 415.117188 22.898438 415.117188 23.417969 415.117188 C 29.148438 414.074219 32.273438 408.34375 31.230469 402.617188 Z M 31.230469 402.617188" fill="#b7e086"/><path fill-rule="nonzero" fill-opacity="1" d="M 43.730469 445.839844 C 43.210938 444.28125 42.6875 442.71875 42.167969 441.15625 C 40.085938 435.945312 34.355469 432.820312 29.148438 434.90625 C 23.941406 436.988281 20.816406 442.71875 22.898438 447.925781 C 23.417969 449.488281 23.941406 451.050781 24.460938 453.132812 C 26.023438 457.300781 30.191406 459.902344 34.355469 459.902344 C 35.398438 459.902344 36.960938 459.902344 38 459.382812 C 42.6875 457.300781 45.8125 451.570312 43.730469 445.839844 Z M 43.730469 445.839844" fill="#b7e086"/><path fill-rule="nonzero" fill-opacity="1" d="M 27.066406 213.570312 C 26.542969 215.132812 26.023438 216.695312 24.980469 218.777344 C 22.898438 223.988281 25.503906 230.234375 31.230469 232.320312 C 32.273438 232.839844 33.835938 232.839844 34.875 232.839844 C 39.042969 232.839844 43.210938 230.234375 44.773438 226.070312 C 45.292969 223.988281 45.8125 222.425781 46.335938 220.863281 C 48.417969 215.65625 45.8125 209.40625 40.605469 207.320312 C 35.398438 205.238281 29.148438 207.84375 27.066406 213.570312 Z M 27.066406 213.570312" fill="#b7e086"/><path fill-rule="nonzero" fill-opacity="1" d="M 59.875 482.816406 C 57.269531 477.609375 51.019531 475.527344 45.8125 478.128906 C 40.605469 480.734375 38.523438 486.984375 41.125 492.191406 C 42.167969 493.753906 42.6875 495.316406 43.730469 496.878906 C 45.8125 500.523438 49.457031 502.085938 53.105469 502.085938 C 54.667969 502.085938 56.230469 501.566406 57.792969 501.046875 C 63 498.441406 64.5625 492.191406 61.957031 486.984375 C 61.4375 485.421875 60.394531 483.859375 59.875 482.816406 Z M 59.875 482.816406" fill="#b7e086"/><path fill-rule="nonzero" fill-opacity="1" d="M 47.894531 170.347656 C 46.855469 171.910156 46.335938 173.46875 45.292969 175.03125 C 42.6875 180.242188 44.25 186.492188 49.457031 189.09375 C 51.019531 190.136719 52.582031 190.136719 54.667969 190.136719 C 58.3125 190.136719 61.957031 188.050781 64.039062 184.929688 C 65.082031 183.367188 65.601562 181.804688 66.644531 180.761719 C 69.25 175.554688 67.6875 169.304688 63 166.699219 C 56.75 163.574219 50.5 165.136719 47.894531 170.347656 Z M 47.894531 170.347656" fill="#b7e086"/><path fill-rule="nonzero" fill-opacity="1" d="M 15.609375 369.285156 C 21.335938 368.765625 25.503906 364.078125 25.503906 358.351562 C 25.503906 356.789062 25.503906 355.226562 24.980469 353.140625 C 24.460938 347.414062 19.773438 342.726562 14.046875 343.246094 C 8.316406 343.769531 3.628906 348.453125 4.152344 354.183594 C 4.152344 355.746094 4.152344 357.828125 4.671875 359.390625 C 5.191406 365.121094 9.359375 369.285156 15.085938 369.285156 C 15.085938 369.285156 15.085938 369.285156 15.609375 369.285156 Z M 15.609375 369.285156" fill="#b7e086"/><path fill-rule="nonzero" fill-opacity="1" d="M 83.308594 520.835938 C 80.183594 516.148438 73.414062 515.105469 68.726562 518.230469 C 64.039062 521.355469 63 528.125 66.125 532.8125 C 67.164062 534.375 68.207031 535.9375 69.25 536.980469 C 71.332031 539.582031 74.457031 541.144531 77.582031 541.144531 C 79.664062 541.144531 81.746094 540.625 83.832031 539.0625 C 88.519531 535.417969 89.558594 529.167969 85.914062 524.480469 C 85.394531 523.4375 84.351562 522.398438 83.308594 520.835938 Z M 83.308594 520.835938" fill="#b7e086"/><path fill-rule="nonzero" fill-opacity="1" d="M 73.414062 148.992188 C 75.5 150.554688 77.582031 151.078125 79.664062 151.078125 C 82.789062 151.078125 85.914062 149.515625 87.996094 146.910156 C 89.039062 145.347656 90.082031 144.304688 91.121094 142.746094 C 94.765625 138.058594 93.726562 131.808594 89.558594 128.164062 C 84.871094 124.515625 78.621094 125.558594 74.976562 129.726562 C 73.9375 131.285156 72.894531 132.328125 71.851562 133.890625 C 67.6875 139.097656 68.726562 145.867188 73.414062 148.992188 Z M 73.414062 148.992188" fill="#b7e086"/><path fill-rule="nonzero" fill-opacity="1" d="M 221.839844 330.226562 C 219.753906 328.144531 217.671875 326.582031 214.546875 325.019531 C 211.945312 323.457031 208.820312 321.894531 205.171875 320.851562 L 199.445312 318.25 C 197.363281 317.207031 195.277344 316.6875 193.714844 315.125 C 192.152344 314.082031 191.113281 312 191.113281 309.917969 C 191.113281 308.355469 191.632812 307.3125 192.152344 306.269531 C 192.675781 305.230469 193.714844 304.707031 194.238281 304.1875 C 195.277344 303.667969 196.320312 303.144531 197.363281 303.144531 C 198.402344 303.144531 199.964844 302.625 201.007812 302.625 C 205.175781 302.625 208.820312 303.144531 211.945312 304.1875 C 215.070312 305.230469 217.152344 306.269531 219.753906 307.3125 C 221.316406 304.707031 222.359375 301.585938 222.878906 298.460938 C 223.921875 295.335938 224.441406 292.210938 224.441406 289.605469 C 219.753906 288.042969 215.589844 287.003906 211.945312 285.960938 C 207.777344 284.917969 204.132812 284.917969 199.445312 284.917969 C 194.757812 284.917969 190.589844 285.441406 186.425781 286.480469 C 182.78125 287.523438 179.132812 289.605469 176.53125 291.6875 C 173.925781 294.292969 171.84375 296.898438 170.28125 300.542969 C 168.71875 304.1875 168.199219 307.832031 168.199219 312 C 168.199219 315.644531 168.71875 318.769531 169.761719 321.375 C 170.800781 323.976562 171.84375 326.582031 173.925781 328.664062 C 176.011719 330.746094 177.570312 332.308594 180.175781 333.871094 C 182.78125 335.433594 185.382812 336.476562 188.507812 337.519531 L 195.277344 340.121094 C 196.320312 340.644531 197.363281 341.164062 198.402344 341.683594 C 199.445312 342.207031 200.488281 342.726562 201.007812 343.246094 C 201.527344 343.769531 202.570312 344.808594 203.089844 345.851562 C 203.613281 346.890625 203.613281 347.933594 203.613281 349.496094 C 203.613281 352.621094 202.570312 354.703125 199.964844 356.265625 C 197.363281 357.308594 194.238281 358.351562 190.070312 358.351562 C 184.34375 358.351562 177.570312 356.789062 170.28125 353.140625 C 169.238281 356.789062 168.199219 359.910156 167.15625 363.035156 C 166.113281 366.160156 165.59375 369.285156 165.59375 372.410156 C 170.28125 373.972656 174.449219 375.535156 178.613281 376.054688 C 182.78125 377.097656 186.945312 377.097656 192.152344 377.097656 C 197.882812 377.097656 202.570312 376.578125 207.257812 375.015625 C 211.421875 373.453125 215.070312 371.890625 218.195312 369.285156 C 221.316406 366.683594 223.402344 363.558594 224.964844 360.433594 C 226.527344 357.308594 227.566406 352.621094 227.566406 347.933594 C 227.566406 343.769531 227.046875 340.644531 226.003906 337.519531 C 224.964844 334.914062 223.402344 332.308594 221.839844 330.226562 Z M 221.839844 330.226562" fill="#b7e086"/><path fill-rule="nonzero" fill-opacity="1" d="M 297.351562 295.335938 C 297.351562 293.773438 297.351562 292.210938 297.351562 290.648438 C 297.351562 289.085938 296.832031 287.523438 296.832031 285.441406 L 232.777344 285.441406 C 232.253906 289.085938 231.734375 292.210938 231.734375 294.8125 C 231.734375 297.9375 232.253906 301.0625 232.777344 304.707031 L 253.605469 304.707031 L 253.605469 374.492188 C 257.773438 375.015625 261.417969 375.535156 264.542969 375.535156 C 267.667969 375.535156 271.3125 375.015625 275.480469 374.492188 L 275.480469 305.230469 L 296.3125 305.230469 C 297.351562 301.585938 297.351562 297.9375 297.351562 295.335938 Z M 297.351562 295.335938" fill="#b7e086"/><path fill-rule="nonzero" fill-opacity="1" d="M 333.289062 285.441406 C 331.203125 285.441406 329.640625 285.441406 328.078125 285.441406 C 325.996094 285.441406 324.433594 285.441406 322.351562 285.441406 C 320.265625 285.441406 318.707031 285.960938 316.101562 285.960938 L 287.980469 375.015625 C 290.582031 375.535156 292.664062 375.535156 294.75 376.054688 C 296.832031 376.054688 298.394531 376.578125 299.957031 376.578125 C 301.519531 376.578125 303.082031 376.578125 304.644531 376.578125 C 306.207031 376.578125 307.769531 376.054688 309.851562 376.054688 L 314.539062 358.871094 C 316.621094 359.390625 318.707031 359.910156 320.789062 360.433594 C 322.871094 360.953125 324.953125 360.953125 326.515625 360.953125 C 328.601562 360.953125 330.683594 360.953125 332.765625 360.433594 C 334.847656 359.910156 336.933594 359.390625 339.535156 358.871094 L 344.222656 376.054688 C 346.308594 376.578125 347.871094 376.578125 349.429688 376.578125 C 350.992188 376.578125 352.554688 376.578125 354.640625 376.578125 C 358.285156 376.578125 362.453125 376.054688 367.136719 375.535156 L 339.535156 286.480469 C 337.453125 285.960938 335.371094 285.441406 333.289062 285.441406 Z M 331.203125 342.207031 C 329.640625 342.207031 328.601562 342.726562 327.039062 342.726562 C 325.476562 342.726562 324.433594 342.726562 323.390625 342.207031 C 322.351562 341.683594 320.789062 341.683594 319.226562 341.164062 L 327.558594 309.394531 L 335.371094 341.683594 C 334.328125 341.683594 332.765625 342.207031 331.203125 342.207031 Z M 331.203125 342.207031" fill="#b7e086"/><path fill-rule="nonzero" fill-opacity="1" d="M 428.070312 332.832031 C 429.632812 331.269531 430.675781 329.707031 431.714844 327.625 C 432.757812 325.539062 433.800781 323.457031 434.320312 320.851562 C 434.839844 318.25 435.359375 315.644531 435.359375 312.519531 C 435.359375 306.792969 434.320312 302.105469 432.238281 298.460938 C 430.152344 294.8125 427.027344 291.6875 423.382812 289.605469 C 419.738281 287.523438 415.570312 285.960938 411.40625 284.917969 C 406.71875 283.878906 402.03125 283.355469 397.863281 283.355469 C 394.21875 283.355469 390.574219 283.355469 386.929688 283.878906 C 383.28125 284.398438 379.636719 284.398438 375.472656 284.917969 L 375.472656 373.972656 C 379.636719 374.492188 383.28125 375.015625 386.40625 375.015625 C 389.011719 375.015625 392.65625 374.492188 397.34375 373.972656 L 397.34375 303.667969 C 397.34375 303.667969 397.863281 303.667969 398.386719 303.667969 C 398.90625 303.667969 399.425781 303.667969 400.46875 303.667969 C 404.113281 303.667969 406.71875 304.707031 409.320312 306.792969 C 411.925781 308.875 412.96875 311.480469 412.96875 315.644531 C 412.96875 317.726562 412.445312 319.8125 411.925781 321.894531 C 411.40625 323.976562 410.363281 325.539062 409.320312 327.101562 C 408.28125 328.664062 407.238281 330.226562 406.195312 331.269531 C 405.15625 332.308594 404.113281 333.351562 403.074219 333.871094 L 402.03125 334.394531 L 419.738281 375.015625 C 421.300781 375.535156 423.382812 375.535156 425.464844 375.535156 C 427.550781 375.535156 429.632812 375.535156 431.195312 375.535156 C 433.277344 375.535156 435.359375 375.535156 437.445312 375.535156 C 440.046875 375.535156 442.132812 375.015625 444.214844 375.015625 L 424.945312 336.476562 C 425.464844 335.433594 427.027344 334.394531 428.070312 332.832031 Z M 428.070312 332.832031" fill="#b7e086"/><path fill-rule="nonzero" fill-opacity="1" d="M 509.3125 291.167969 C 509.3125 289.605469 508.792969 288.042969 508.792969 285.960938 L 444.734375 285.960938 C 444.214844 289.605469 443.695312 292.730469 443.695312 295.335938 C 443.695312 298.460938 444.214844 301.585938 444.734375 305.230469 L 465.566406 305.230469 L 465.566406 375.015625 C 469.734375 375.535156 473.378906 376.054688 476.503906 376.054688 C 479.628906 376.054688 483.273438 375.535156 487.441406 375.015625 L 487.441406 305.230469 L 508.269531 305.230469 C 508.792969 301.585938 509.3125 297.9375 509.3125 295.335938 C 509.3125 293.773438 509.3125 292.730469 509.3125 291.167969 Z M 509.3125 291.167969" fill="#b7e086"/></svg>