<svg xmlns="http://www.w3.org/2000/svg" xmlns:xlink="http://www.w3.org/1999/xlink" width="400" zoomAndPan="magnify" viewBox="0 0 300 675.000002" height="900" preserveAspectRatio="xMidYMid meet" version="1.0"><defs><clipPath id="6c22edc2e9"><path d="M 17.585938 0 L 284.941406 0 L 284.941406 674 L 17.585938 674 Z M 17.585938 0 " clip-rule="nonzero"/></clipPath></defs><g clip-path="url(#6c22edc2e9)"><path fill="#6d6e71" d="M 152.386719 595.875 C 96.644531 595.875 52.621094 539.828125 52.621094 471.78125 C 52.621094 403.730469 96.644531 347.683594 152.386719 347.683594 C 208.128906 347.683594 252.152344 403.730469 252.152344 471.78125 C 252.152344 539.828125 208.128906 595.875 152.386719 595.875 Z M 152.386719 574.511719 C 195.042969 574.511719 230.785156 529.003906 230.785156 471.78125 C 230.785156 414.554688 195.042969 369.050781 152.386719 369.050781 C 109.730469 369.050781 73.988281 414.554688 73.988281 471.78125 C 73.988281 529.003906 109.730469 574.511719 152.386719 574.511719 Z M 191.769531 581.351562 L 171.871094 574.542969 L 189.101562 562.488281 C 214.402344 544.789062 230.785156 510.273438 230.785156 471.78125 C 230.785156 414.554688 195.042969 369.050781 152.386719 369.050781 C 109.730469 369.050781 73.988281 414.554688 73.988281 471.78125 C 73.988281 509.136719 89.410156 542.796875 113.570312 560.960938 L 130.546875 573.730469 L 110.175781 579.746094 C 70.421875 591.488281 44.292969 620.136719 44.292969 651.613281 C 44.292969 651.730469 113.730469 651.910156 252.609375 652.148438 C 252.609375 621.570312 228.824219 594.023438 191.769531 581.351562 Z M 52.621094 471.78125 C 52.621094 403.730469 96.644531 347.683594 152.386719 347.683594 C 208.128906 347.683594 252.152344 403.730469 252.152344 471.78125 C 252.152344 509.75 238.371094 544.851562 215.421875 568.082031 C 251.074219 585.707031 273.976562 616.742188 273.976562 651.613281 C 273.976562 655.972656 273.617188 660.304688 272.90625 664.582031 L 271.425781 673.511719 L 25.480469 673.511719 L 23.996094 664.582031 C 23.285156 660.304688 22.929688 655.972656 22.929688 651.613281 C 22.929688 614.914062 48.28125 582.5625 86.921875 565.539062 C 65.402344 542.300781 52.621094 508.351562 52.621094 471.78125 Z M 171.21875 276.101562 C 169 283.714844 167.976562 286.875 166.382812 290.367188 C 163.089844 297.589844 158.761719 302.28125 151.125 302.28125 C 143.652344 302.28125 140.199219 298.085938 136.597656 290.546875 C 135.011719 287.238281 133.808594 284.074219 131.324219 277.070312 C 129.035156 270.613281 128.117188 268.167969 127.027344 265.796875 C 64.042969 253.816406 17.585938 198.832031 17.585938 134.023438 C 17.585938 60.273438 77.375 0.488281 151.125 0.488281 C 224.875 0.488281 284.660156 60.273438 284.660156 134.023438 C 284.660156 195.550781 236.195312 251.09375 174.820312 265.257812 C 173.710938 267.804688 172.894531 270.339844 171.21875 276.101562 Z M 155.050781 257.132812 C 157.894531 250.585938 161.3125 246.28125 167.636719 244.960938 C 220.789062 233.867188 263.292969 185.964844 263.292969 134.023438 C 263.292969 72.074219 213.074219 21.855469 151.125 21.855469 C 89.171875 21.855469 38.953125 72.074219 38.953125 134.023438 C 38.953125 189.515625 79.511719 236.441406 133.765625 244.863281 C 140.273438 245.871094 143.171875 249.761719 146.441406 256.875 C 147.835938 259.902344 148.816406 262.492188 151.078125 268.847656 C 152.78125 263.035156 153.710938 260.214844 155.050781 257.132812 Z M 137.269531 171.234375 C 137.101562 169.757812 137.023438 168.367188 137.023438 167.058594 L 137.023438 162.632812 C 137.023438 154.445312 138.578125 147.238281 141.691406 141.011719 C 144.804688 134.789062 150.046875 129.21875 157.414062 124.304688 L 168.226562 116.933594 C 172.484375 114.148438 175.722656 110.625 177.933594 106.367188 C 180.144531 102.109375 181.25 97.605469 181.25 92.851562 C 181.25 89.25 180.632812 85.769531 179.40625 82.410156 C 178.175781 79.054688 176.375 76.0625 174 73.441406 C 171.625 70.820312 168.59375 68.734375 164.910156 67.175781 C 161.226562 65.621094 156.921875 64.84375 152.011719 64.84375 C 146.605469 64.84375 141.976562 65.742188 138.128906 67.546875 C 134.277344 69.347656 131.125 71.722656 128.667969 74.671875 C 126.210938 77.621094 124.367188 80.976562 123.140625 84.746094 C 121.910156 88.511719 121.296875 92.363281 121.296875 96.292969 C 121.296875 98.421875 121.460938 100.632812 121.789062 102.925781 C 122.117188 105.21875 122.523438 107.023438 123.015625 108.332031 L 99.183594 105.382812 C 98.199219 101.945312 97.707031 98.011719 97.707031 93.589844 C 97.707031 88.019531 98.773438 82.246094 100.902344 76.269531 C 103.03125 70.289062 106.308594 64.84375 110.730469 59.929688 C 115.15625 55.015625 120.765625 51 127.5625 47.890625 C 134.359375 44.777344 142.507812 43.21875 152.011719 43.21875 C 160.527344 43.21875 168.144531 44.613281 174.863281 47.398438 C 181.578125 50.183594 187.226562 53.867188 191.8125 58.453125 C 196.402344 63.039062 199.882812 68.324219 202.257812 74.300781 C 204.632812 80.28125 205.820312 86.382812 205.820312 92.609375 C 205.820312 102.4375 203.445312 110.832031 198.695312 117.792969 C 193.945312 124.753906 187.964844 130.609375 180.757812 135.359375 L 169.453125 142.976562 C 165.6875 145.597656 162.945312 148.996094 161.226562 153.175781 C 159.503906 157.351562 158.644531 161.816406 158.644531 166.566406 L 158.644531 168.410156 C 158.644531 168.980469 158.726562 169.921875 158.890625 171.234375 Z M 131.863281 206.371094 C 131.863281 201.949219 133.417969 198.140625 136.53125 194.945312 C 139.644531 191.75 143.410156 190.152344 147.832031 190.152344 C 152.253906 190.152344 156.0625 191.75 159.257812 194.945312 C 162.453125 198.140625 164.050781 201.949219 164.050781 206.371094 C 164.050781 210.792969 162.453125 214.558594 159.257812 217.671875 C 156.0625 220.785156 152.253906 222.339844 147.832031 222.339844 C 143.410156 222.339844 139.644531 220.785156 136.53125 217.671875 C 133.417969 214.558594 131.863281 210.792969 131.863281 206.371094 Z M 131.863281 206.371094 " fill-opacity="1" fill-rule="nonzero"/></g></svg>