<svg xmlns="http://www.w3.org/2000/svg" xmlns:xlink="http://www.w3.org/1999/xlink" width="900" zoomAndPan="magnify" viewBox="0 0 675 675.000002" height="900" preserveAspectRatio="xMidYMid meet" version="1.0"><defs><clipPath id="9ab92ed7cb"><path d="M 360 5.558594 L 628.273438 5.558594 L 628.273438 607 L 360 607 Z M 360 5.558594 " clip-rule="nonzero"/></clipPath></defs><path fill="#ffdf8f" d="M 291.242188 625.957031 L 164.054688 664.152344 C 146.65625 669.015625 128.613281 659.351562 123.046875 642.652344 C 118.183594 625.3125 127.910156 607.210938 144.605469 601.644531 L 191.824219 587.761719 C 105.648438 537.027344 47.296875 443.175781 47.296875 335.5 C 47.296875 215.285156 120.9375 111.769531 225.21875 67.246094 C 246.71875 58.222656 271.03125 74.21875 271.03125 97.125 C 271.03125 110.363281 263.414062 122.136719 251.578125 127 C 169.621094 161.800781 112.621094 241.707031 112.621094 335.5 C 112.621094 420.269531 159.894531 494.613281 229.375 532.867188 L 212.679688 476.570312 C 207.816406 459.167969 217.542969 441.125 234.238281 435.558594 C 251.578125 430.699219 269.683594 440.421875 275.246094 457.121094 L 313.445312 584.246094 C 318.304688 602.347656 308.582031 620.390625 291.242188 625.957031 " fill-opacity="1" fill-rule="nonzero"/><g clip-path="url(#9ab92ed7cb)"><path fill="#ffdf8f" d="M 530.261719 69.355469 L 482.984375 83.238281 C 569.863281 133.972656 628.214844 227.765625 628.214844 335.5 C 628.214844 455.714844 554.574219 559.230469 450.355469 603.753906 C 428.796875 612.777344 404.484375 596.78125 404.484375 573.875 C 404.484375 560.636719 412.15625 548.859375 423.933594 543.941406 C 505.949219 509.257812 562.953125 429.292969 562.953125 335.5 C 562.953125 250.730469 515.675781 176.386719 446.195312 138.132812 L 462.890625 194.429688 C 467.695312 211.828125 457.96875 229.875 441.332031 235.4375 C 423.933594 240.300781 405.890625 230.578125 400.324219 213.878906 L 362.070312 86.695312 C 357.207031 69.355469 366.988281 51.253906 384.332031 45.746094 L 511.515625 6.789062 C 528.855469 1.925781 546.957031 11.648438 552.464844 28.347656 C 557.386719 45.746094 547.601562 64.492188 530.261719 69.355469 " fill-opacity="1" fill-rule="nonzero"/></g></svg>