<svg version="1.0" preserveAspectRatio="xMidYMid meet" viewBox="0 0 674.325 255.5226033590426" zoomAndPan="magnify" xmlns:xlink="http://www.w3.org/1999/xlink" xmlns="http://www.w3.org/2000/svg" style="max-height: 500px" width="674.325" height="255.5226033590426"><path fill-rule="nonzero" fill-opacity="1" d="M 568.792969 59.039062 L 421.800781 59.039062 C 421.046875 59.039062 420.289062 59.003906 419.539062 58.929688 C 418.785156 58.855469 418.035156 58.742188 417.292969 58.597656 C 416.550781 58.449219 415.816406 58.265625 415.09375 58.042969 C 414.371094 57.824219 413.65625 57.570312 412.957031 57.28125 C 412.257812 56.992188 411.574219 56.667969 410.90625 56.3125 C 410.242188 55.953125 409.59375 55.566406 408.960938 55.144531 C 408.332031 54.722656 407.726562 54.273438 407.140625 53.792969 C 406.554688 53.3125 405.996094 52.804688 405.460938 52.269531 C 404.925781 51.734375 404.417969 51.175781 403.9375 50.589844 C 403.457031 50.003906 403.007812 49.398438 402.585938 48.769531 C 402.167969 48.140625 401.777344 47.492188 401.421875 46.824219 C 401.0625 46.15625 400.742188 45.472656 400.449219 44.773438 C 400.160156 44.074219 399.90625 43.363281 399.6875 42.636719 C 399.46875 41.914062 399.285156 41.179688 399.136719 40.4375 C 398.988281 39.695312 398.878906 38.949219 398.804688 38.195312 C 398.730469 37.441406 398.691406 36.6875 398.691406 35.929688 C 398.691406 35.171875 398.730469 34.417969 398.804688 33.664062 C 398.878906 32.910156 398.988281 32.164062 399.136719 31.421875 C 399.285156 30.679688 399.46875 29.945312 399.6875 29.21875 C 399.90625 28.496094 400.160156 27.785156 400.449219 27.085938 C 400.742188 26.386719 401.0625 25.703125 401.421875 25.035156 C 401.777344 24.367188 402.167969 23.71875 402.585938 23.089844 C 403.007812 22.460938 403.457031 21.851562 403.9375 21.269531 C 404.417969 20.683594 404.925781 20.121094 405.460938 19.585938 C 405.996094 19.050781 406.554688 18.542969 407.140625 18.0625 C 407.726562 17.585938 408.332031 17.132812 408.960938 16.714844 C 409.59375 16.292969 410.242188 15.902344 410.90625 15.546875 C 411.574219 15.191406 412.257812 14.867188 412.957031 14.578125 C 413.65625 14.289062 414.371094 14.035156 415.09375 13.8125 C 415.816406 13.59375 416.550781 13.410156 417.292969 13.261719 C 418.035156 13.113281 418.785156 13.003906 419.539062 12.929688 C 420.289062 12.855469 421.046875 12.820312 421.800781 12.820312 L 665.820312 12.820312 C 666.242188 12.824219 666.660156 12.789062 667.074219 12.710938 C 667.492188 12.636719 667.894531 12.519531 668.285156 12.359375 C 668.675781 12.203125 669.046875 12.011719 669.402344 11.777344 C 669.753906 11.546875 670.082031 11.285156 670.378906 10.988281 C 670.679688 10.691406 670.949219 10.371094 671.1875 10.019531 C 671.421875 9.671875 671.621094 9.300781 671.785156 8.914062 C 671.945312 8.523438 672.070312 8.121094 672.152344 7.707031 C 672.234375 7.296875 672.277344 6.878906 672.277344 6.457031 C 672.277344 6.03125 672.234375 5.613281 672.152344 5.195312 C 672.070312 4.78125 671.949219 4.378906 671.785156 3.984375 C 671.625 3.59375 671.425781 3.222656 671.1875 2.871094 C 670.953125 2.515625 670.6875 2.191406 670.386719 1.890625 C 670.085938 1.589844 669.761719 1.324219 669.40625 1.089844 C 669.054688 0.851562 668.683594 0.652344 668.292969 0.492188 C 667.898438 0.328125 667.496094 0.207031 667.082031 0.125 C 666.664062 0.0429688 666.246094 0 665.820312 0 L 337.78125 0 C 336.605469 0 335.429688 0.0585938 334.257812 0.171875 C 333.085938 0.285156 331.925781 0.457031 330.769531 0.6875 C 329.613281 0.917969 328.476562 1.203125 327.347656 1.542969 C 326.222656 1.886719 325.113281 2.28125 324.027344 2.730469 C 322.941406 3.179688 321.878906 3.683594 320.839844 4.238281 C 319.800781 4.792969 318.792969 5.398438 317.8125 6.050781 C 316.835938 6.703125 315.890625 7.40625 314.980469 8.152344 C 314.070312 8.898438 313.199219 9.6875 312.367188 10.519531 C 311.535156 11.351562 310.746094 12.222656 310 13.132812 C 309.25 14.042969 308.550781 14.984375 307.898438 15.964844 C 307.242188 16.941406 306.636719 17.949219 306.082031 18.988281 C 305.527344 20.027344 305.027344 21.089844 304.574219 22.175781 C 304.125 23.265625 303.730469 24.371094 303.386719 25.496094 C 303.046875 26.625 302.757812 27.765625 302.53125 28.917969 C 302.300781 30.074219 302.128906 31.234375 302.011719 32.40625 C 301.898438 33.578125 301.839844 34.753906 301.839844 35.929688 C 301.839844 37.105469 301.898438 38.28125 302.011719 39.453125 C 302.128906 40.621094 302.300781 41.785156 302.53125 42.941406 C 302.757812 44.09375 303.046875 45.234375 303.386719 46.359375 C 303.730469 47.488281 304.125 48.59375 304.574219 49.679688 C 305.027344 50.769531 305.527344 51.832031 306.082031 52.871094 C 306.636719 53.90625 307.242188 54.914062 307.898438 55.894531 C 308.550781 56.871094 309.25 57.816406 310 58.726562 C 310.746094 59.636719 311.535156 60.507812 312.367188 61.339844 C 313.199219 62.171875 314.070312 62.960938 314.980469 63.707031 C 315.890625 64.453125 316.835938 65.152344 317.8125 65.808594 C 318.792969 66.460938 319.800781 67.066406 320.839844 67.621094 C 321.878906 68.175781 322.941406 68.675781 324.027344 69.125 C 325.113281 69.578125 326.222656 69.972656 327.347656 70.3125 C 328.476562 70.65625 329.613281 70.941406 330.769531 71.171875 C 331.925781 71.398438 333.085938 71.570312 334.257812 71.6875 C 335.429688 71.800781 336.605469 71.859375 337.78125 71.859375 L 484.773438 71.859375 C 485.921875 71.796875 487.066406 71.796875 488.214844 71.851562 C 489.363281 71.910156 490.507812 72.023438 491.644531 72.195312 C 492.78125 72.367188 493.90625 72.597656 495.019531 72.882812 C 496.132812 73.167969 497.226562 73.511719 498.304688 73.910156 C 499.386719 74.308594 500.441406 74.757812 501.472656 75.265625 C 502.507812 75.769531 503.511719 76.324219 504.488281 76.933594 C 505.464844 77.539062 506.40625 78.195312 507.316406 78.894531 C 508.226562 79.597656 509.097656 80.347656 509.933594 81.136719 C 510.765625 81.929688 511.558594 82.761719 512.308594 83.632812 C 513.054688 84.503906 513.761719 85.410156 514.417969 86.355469 C 515.074219 87.296875 515.683594 88.269531 516.242188 89.277344 C 516.800781 90.28125 517.304688 91.3125 517.757812 92.367188 C 518.214844 93.421875 518.613281 94.5 518.957031 95.597656 C 519.300781 96.695312 519.589844 97.804688 519.820312 98.929688 C 520.054688 100.058594 520.226562 101.191406 520.34375 102.335938 C 520.460938 103.480469 520.519531 104.625 520.519531 105.777344 C 520.519531 106.925781 520.460938 108.070312 520.34375 109.214844 C 520.226562 110.359375 520.054688 111.496094 519.820312 112.621094 C 519.589844 113.746094 519.300781 114.859375 518.957031 115.953125 C 518.613281 117.050781 518.214844 118.128906 517.757812 119.183594 C 517.304688 120.238281 516.800781 121.269531 516.242188 122.277344 C 515.683594 123.28125 515.074219 124.253906 514.417969 125.199219 C 513.761719 126.140625 513.054688 127.046875 512.308594 127.917969 C 511.558594 128.792969 510.765625 129.621094 509.933594 130.414062 C 509.097656 131.207031 508.226562 131.953125 507.316406 132.65625 C 506.40625 133.359375 505.464844 134.011719 504.488281 134.621094 C 503.511719 135.226562 502.507812 135.78125 501.472656 136.289062 C 500.441406 136.792969 499.386719 137.242188 498.304688 137.640625 C 497.226562 138.039062 496.132812 138.382812 495.019531 138.667969 C 493.90625 138.953125 492.78125 139.183594 491.644531 139.355469 C 490.507812 139.527344 489.363281 139.644531 488.214844 139.699219 C 487.066406 139.753906 485.921875 139.753906 484.773438 139.691406 L 162.34375 139.691406 C 161.425781 139.691406 160.507812 139.738281 159.59375 139.828125 C 158.679688 139.917969 157.769531 140.054688 156.871094 140.234375 C 155.96875 140.410156 155.078125 140.636719 154.199219 140.902344 C 153.316406 141.167969 152.453125 141.476562 151.605469 141.828125 C 150.753906 142.183594 149.925781 142.574219 149.113281 143.007812 C 148.304688 143.441406 147.515625 143.914062 146.75 144.421875 C 145.988281 144.933594 145.25 145.480469 144.539062 146.066406 C 143.828125 146.648438 143.148438 147.265625 142.496094 147.914062 C 141.847656 148.566406 141.230469 149.246094 140.648438 149.957031 C 140.0625 150.667969 139.515625 151.402344 139.007812 152.167969 C 138.496094 152.933594 138.023438 153.71875 137.589844 154.53125 C 137.15625 155.339844 136.765625 156.171875 136.414062 157.019531 C 136.0625 157.871094 135.75 158.734375 135.484375 159.613281 C 135.21875 160.496094 134.996094 161.386719 134.816406 162.285156 C 134.636719 163.1875 134.5 164.097656 134.410156 165.011719 C 134.320312 165.925781 134.277344 166.84375 134.277344 167.761719 C 134.277344 168.683594 134.320312 169.597656 134.410156 170.515625 C 134.5 171.429688 134.636719 172.335938 134.816406 173.238281 C 134.996094 174.140625 135.21875 175.03125 135.484375 175.910156 C 135.75 176.789062 136.0625 177.65625 136.414062 178.503906 C 136.765625 179.355469 137.15625 180.183594 137.589844 180.996094 C 138.023438 181.804688 138.496094 182.59375 139.007812 183.359375 C 139.515625 184.121094 140.0625 184.859375 140.648438 185.570312 C 141.230469 186.28125 141.847656 186.960938 142.496094 187.609375 C 143.148438 188.261719 143.828125 188.878906 144.539062 189.460938 C 145.25 190.042969 145.988281 190.589844 146.75 191.101562 C 147.515625 191.613281 148.304688 192.085938 149.113281 192.519531 C 149.925781 192.953125 150.753906 193.34375 151.605469 193.695312 C 152.453125 194.046875 153.316406 194.355469 154.199219 194.625 C 155.078125 194.890625 155.96875 195.113281 156.871094 195.292969 C 157.769531 195.472656 158.679688 195.605469 159.59375 195.699219 C 160.507812 195.789062 161.425781 195.832031 162.34375 195.832031 L 383.160156 195.832031 C 383.832031 195.878906 384.503906 195.953125 385.171875 196.0625 C 385.835938 196.167969 386.496094 196.308594 387.148438 196.476562 C 387.804688 196.644531 388.449219 196.847656 389.082031 197.078125 C 389.71875 197.308594 390.339844 197.566406 390.949219 197.855469 C 391.558594 198.144531 392.15625 198.460938 392.734375 198.804688 C 393.316406 199.152344 393.878906 199.523438 394.425781 199.921875 C 394.96875 200.316406 395.496094 200.742188 396 201.1875 C 396.507812 201.636719 396.992188 202.105469 397.453125 202.597656 C 397.914062 203.089844 398.351562 203.605469 398.765625 204.140625 C 399.175781 204.671875 399.5625 205.226562 399.925781 205.796875 C 400.285156 206.367188 400.621094 206.953125 400.925781 207.554688 C 401.230469 208.15625 401.507812 208.769531 401.757812 209.398438 C 402.003906 210.027344 402.222656 210.664062 402.410156 211.3125 C 402.597656 211.960938 402.753906 212.617188 402.882812 213.28125 C 403.007812 213.945312 403.101562 214.613281 403.167969 215.285156 C 403.230469 215.957031 403.261719 216.628906 403.261719 217.304688 C 403.261719 217.980469 403.230469 218.65625 403.167969 219.328125 C 403.101562 220 403.007812 220.667969 402.882812 221.328125 C 402.753906 221.992188 402.597656 222.648438 402.410156 223.296875 C 402.222656 223.945312 402.003906 224.585938 401.757812 225.210938 C 401.507812 225.839844 401.230469 226.453125 400.925781 227.058594 C 400.621094 227.660156 400.285156 228.246094 399.925781 228.816406 C 399.5625 229.386719 399.175781 229.9375 398.765625 230.472656 C 398.351562 231.007812 397.914062 231.519531 397.453125 232.011719 C 396.992188 232.503906 396.507812 232.976562 396 233.421875 C 395.496094 233.871094 394.96875 234.292969 394.425781 234.691406 C 393.878906 235.089844 393.316406 235.460938 392.734375 235.804688 C 392.15625 236.148438 391.558594 236.46875 390.949219 236.757812 C 390.339844 237.046875 389.71875 237.304688 389.082031 237.535156 C 388.449219 237.765625 387.804688 237.964844 387.148438 238.136719 C 386.496094 238.304688 385.835938 238.445312 385.171875 238.550781 C 384.503906 238.660156 383.832031 238.734375 383.160156 238.777344 L 10.394531 238.777344 C 9.941406 238.722656 9.488281 238.71875 9.03125 238.757812 C 8.578125 238.800781 8.132812 238.890625 7.695312 239.023438 C 7.261719 239.160156 6.84375 239.339844 6.445312 239.566406 C 6.050781 239.789062 5.679688 240.054688 5.335938 240.355469 C 4.996094 240.660156 4.6875 240.996094 4.417969 241.363281 C 4.148438 241.730469 3.917969 242.121094 3.730469 242.539062 C 3.542969 242.957031 3.402344 243.386719 3.308594 243.832031 C 3.210938 244.28125 3.164062 244.730469 3.164062 245.1875 C 3.164062 245.644531 3.210938 246.097656 3.308594 246.542969 C 3.402344 246.988281 3.542969 247.421875 3.730469 247.835938 C 3.917969 248.253906 4.148438 248.644531 4.417969 249.015625 C 4.6875 249.382812 4.996094 249.71875 5.335938 250.019531 C 5.679688 250.324219 6.050781 250.585938 6.445312 250.8125 C 6.84375 251.035156 7.261719 251.214844 7.695312 251.351562 C 8.132812 251.488281 8.578125 251.574219 9.03125 251.617188 C 9.488281 251.660156 9.941406 251.652344 10.394531 251.597656 L 467.089844 251.597656 C 468.25 251.65625 469.410156 251.660156 470.570312 251.601562 C 471.730469 251.546875 472.886719 251.429688 474.035156 251.253906 C 475.183594 251.082031 476.320312 250.847656 477.445312 250.558594 C 478.570312 250.269531 479.679688 249.921875 480.769531 249.519531 C 481.859375 249.117188 482.925781 248.660156 483.96875 248.152344 C 485.015625 247.640625 486.027344 247.078125 487.015625 246.464844 C 488.003906 245.851562 488.957031 245.1875 489.875 244.476562 C 490.796875 243.765625 491.675781 243.011719 492.519531 242.210938 C 493.363281 241.414062 494.160156 240.570312 494.917969 239.691406 C 495.675781 238.808594 496.386719 237.890625 497.050781 236.9375 C 497.71875 235.984375 498.332031 235 498.894531 233.984375 C 499.460938 232.96875 499.972656 231.925781 500.429688 230.859375 C 500.890625 229.792969 501.292969 228.703125 501.640625 227.59375 C 501.988281 226.484375 502.28125 225.363281 502.515625 224.222656 C 502.75 223.085938 502.925781 221.9375 503.042969 220.78125 C 503.160156 219.625 503.21875 218.46875 503.21875 217.304688 C 503.21875 216.144531 503.160156 214.984375 503.042969 213.828125 C 502.925781 212.671875 502.75 211.523438 502.515625 210.386719 C 502.28125 209.25 501.988281 208.125 501.640625 207.015625 C 501.292969 205.90625 500.890625 204.820312 500.429688 203.753906 C 499.972656 202.683594 499.460938 201.644531 498.894531 200.625 C 498.332031 199.609375 497.71875 198.625 497.050781 197.671875 C 496.386719 196.71875 495.675781 195.800781 494.917969 194.921875 C 494.160156 194.039062 493.363281 193.199219 492.519531 192.398438 C 491.675781 191.597656 490.796875 190.84375 489.875 190.132812 C 488.957031 189.421875 488.003906 188.761719 487.015625 188.148438 C 486.027344 187.535156 485.015625 186.972656 483.96875 186.460938 C 482.925781 185.949219 481.859375 185.492188 480.769531 185.089844 C 479.679688 184.6875 478.570312 184.34375 477.445312 184.054688 C 476.320312 183.761719 475.183594 183.53125 474.035156 183.355469 C 472.886719 183.183594 471.730469 183.066406 470.570312 183.007812 C 469.410156 182.953125 468.25 182.953125 467.089844 183.015625 L 246.273438 183.015625 C 245.324219 182.941406 244.390625 182.777344 243.472656 182.527344 C 242.554688 182.28125 241.667969 181.949219 240.8125 181.53125 C 239.957031 181.117188 239.148438 180.628906 238.382812 180.0625 C 237.621094 179.492188 236.914062 178.863281 236.269531 178.164062 C 235.625 177.464844 235.046875 176.710938 234.542969 175.90625 C 234.039062 175.101562 233.613281 174.253906 233.265625 173.367188 C 232.917969 172.484375 232.65625 171.574219 232.480469 170.636719 C 232.304688 169.703125 232.214844 168.761719 232.214844 167.808594 C 232.214844 166.859375 232.304688 165.914062 232.480469 164.980469 C 232.65625 164.046875 232.917969 163.136719 233.265625 162.25 C 233.613281 161.363281 234.039062 160.519531 234.542969 159.710938 C 235.046875 158.90625 235.625 158.15625 236.269531 157.457031 C 236.914062 156.757812 237.621094 156.125 238.382812 155.558594 C 239.148438 154.992188 239.957031 154.5 240.8125 154.085938 C 241.667969 153.671875 242.554688 153.339844 243.472656 153.089844 C 244.390625 152.839844 245.324219 152.679688 246.273438 152.605469 L 568.792969 152.605469 C 570.324219 152.605469 571.855469 152.53125 573.378906 152.378906 C 574.902344 152.230469 576.417969 152.003906 577.921875 151.707031 C 579.421875 151.40625 580.90625 151.035156 582.375 150.589844 C 583.839844 150.144531 585.28125 149.628906 586.695312 149.042969 C 588.113281 148.457031 589.496094 147.804688 590.847656 147.082031 C 592.199219 146.359375 593.511719 145.570312 594.785156 144.722656 C 596.058594 143.871094 597.289062 142.957031 598.472656 141.984375 C 599.65625 141.015625 600.789062 139.984375 601.875 138.902344 C 602.957031 137.820312 603.984375 136.6875 604.957031 135.5 C 605.929688 134.316406 606.839844 133.085938 607.691406 131.8125 C 608.542969 130.539062 609.332031 129.226562 610.050781 127.875 C 610.773438 126.523438 611.429688 125.140625 612.015625 123.726562 C 612.601562 122.308594 613.117188 120.867188 613.5625 119.402344 C 614.007812 117.9375 614.378906 116.453125 614.675781 114.949219 C 614.976562 113.445312 615.199219 111.933594 615.351562 110.40625 C 615.5 108.882812 615.578125 107.355469 615.578125 105.824219 C 615.578125 104.289062 615.5 102.761719 615.351562 101.238281 C 615.199219 99.710938 614.976562 98.199219 614.675781 96.695312 C 614.378906 95.191406 614.007812 93.707031 613.5625 92.242188 C 613.117188 90.777344 612.601562 89.335938 612.015625 87.917969 C 611.429688 86.503906 610.773438 85.121094 610.050781 83.769531 C 609.332031 82.417969 608.542969 81.105469 607.691406 79.832031 C 606.839844 78.558594 605.929688 77.328125 604.957031 76.144531 C 603.984375 74.960938 602.957031 73.824219 601.875 72.742188 C 600.789062 71.660156 599.65625 70.632812 598.472656 69.660156 C 597.289062 68.6875 596.058594 67.773438 594.785156 66.925781 C 593.511719 66.074219 592.199219 65.285156 590.847656 64.5625 C 589.496094 63.839844 588.113281 63.1875 586.695312 62.601562 C 585.28125 62.015625 583.839844 61.5 582.375 61.054688 C 580.90625 60.609375 579.421875 60.238281 577.921875 59.9375 C 576.417969 59.640625 574.902344 59.414062 573.378906 59.265625 C 571.855469 59.113281 570.324219 59.039062 568.792969 59.039062 Z M 568.792969 59.039062" fill="#ffeec0"/></svg>