<svg version="1.0" preserveAspectRatio="xMidYMid meet" viewBox="0 8.764627555851064 675 235.97074188829788" zoomAndPan="magnify" xmlns:xlink="http://www.w3.org/1999/xlink" xmlns="http://www.w3.org/2000/svg" style="max-height: 500px" width="675" height="235.97074188829788"><defs><clipPath id="3352385894"><path clip-rule="nonzero" d="M 0.664062 11.976562 L 674.335938 11.976562 L 674.335938 241 L 0.664062 241 Z M 0.664062 11.976562"/></clipPath></defs><g clip-path="url(#3352385894)"><path fill-rule="nonzero" fill-opacity="1" d="M 125.296875 240.992188 L 476.242188 240.992188 C 477.058594 240.992188 477.871094 240.953125 478.683594 240.871094 C 479.496094 240.789062 480.300781 240.671875 481.101562 240.511719 C 481.902344 240.351562 482.695312 240.152344 483.476562 239.914062 C 484.253906 239.679688 485.023438 239.402344 485.777344 239.089844 C 486.53125 238.777344 487.265625 238.429688 487.988281 238.042969 C 488.707031 237.660156 489.40625 237.238281 490.082031 236.785156 C 490.761719 236.332031 491.417969 235.847656 492.046875 235.328125 C 492.679688 234.808594 493.28125 234.261719 493.859375 233.683594 C 494.433594 233.109375 494.984375 232.503906 495.5 231.871094 C 496.019531 231.242188 496.503906 230.585938 496.957031 229.90625 C 497.410156 229.230469 497.828125 228.53125 498.214844 227.808594 C 498.597656 227.089844 498.945312 226.355469 499.257812 225.597656 C 499.570312 224.84375 499.84375 224.078125 500.082031 223.296875 C 500.320312 222.515625 500.515625 221.726562 500.675781 220.925781 C 500.835938 220.125 500.953125 219.316406 501.035156 218.503906 C 501.113281 217.695312 501.152344 216.878906 501.152344 216.0625 C 501.152344 215.246094 501.113281 214.433594 501.035156 213.621094 C 500.953125 212.808594 500.835938 212.003906 500.675781 211.203125 C 500.515625 210.402344 500.320312 209.609375 500.082031 208.828125 C 499.84375 208.046875 499.570312 207.28125 499.257812 206.527344 C 498.945312 205.773438 498.597656 205.035156 498.214844 204.316406 C 497.828125 203.597656 497.410156 202.898438 496.957031 202.21875 C 496.503906 201.539062 496.019531 200.886719 495.5 200.253906 C 494.984375 199.625 494.433594 199.019531 493.859375 198.441406 C 493.28125 197.863281 492.679688 197.316406 492.046875 196.796875 C 491.417969 196.28125 490.761719 195.792969 490.082031 195.339844 C 489.40625 194.886719 488.707031 194.46875 487.988281 194.082031 C 487.265625 193.699219 486.53125 193.347656 485.777344 193.035156 C 485.023438 192.722656 484.253906 192.449219 483.476562 192.210938 C 482.695312 191.972656 481.902344 191.777344 481.101562 191.617188 C 480.300781 191.457031 479.496094 191.335938 478.683594 191.253906 C 477.871094 191.175781 477.058594 191.132812 476.242188 191.132812 L 387.40625 191.132812 C 386.746094 191.152344 386.082031 191.136719 385.421875 191.089844 C 384.761719 191.042969 384.105469 190.960938 383.453125 190.851562 C 382.800781 190.738281 382.152344 190.589844 381.515625 190.414062 C 380.878906 190.234375 380.25 190.027344 379.632812 189.785156 C 379.015625 189.546875 378.414062 189.273438 377.820312 188.972656 C 377.230469 188.671875 376.660156 188.34375 376.101562 187.984375 C 375.542969 187.628906 375.007812 187.242188 374.488281 186.828125 C 373.96875 186.417969 373.472656 185.980469 372.996094 185.519531 C 372.523438 185.058594 372.070312 184.574219 371.644531 184.066406 C 371.21875 183.558594 370.816406 183.03125 370.445312 182.484375 C 370.070312 181.9375 369.726562 181.375 369.40625 180.792969 C 369.089844 180.210938 368.800781 179.617188 368.542969 179.007812 C 368.285156 178.394531 368.058594 177.773438 367.863281 177.140625 C 367.667969 176.507812 367.503906 175.867188 367.375 175.21875 C 367.242188 174.570312 367.144531 173.914062 367.078125 173.257812 C 367.011719 172.597656 366.976562 171.9375 366.976562 171.273438 C 366.976562 170.613281 367.011719 169.949219 367.078125 169.292969 C 367.144531 168.632812 367.242188 167.980469 367.375 167.328125 C 367.503906 166.679688 367.667969 166.039062 367.863281 165.40625 C 368.058594 164.773438 368.289062 164.152344 368.546875 163.542969 C 368.800781 162.929688 369.089844 162.335938 369.40625 161.753906 C 369.726562 161.171875 370.070312 160.609375 370.445312 160.0625 C 370.816406 159.515625 371.21875 158.988281 371.644531 158.480469 C 372.070312 157.976562 372.523438 157.492188 372.996094 157.027344 C 373.472656 156.566406 373.96875 156.128906 374.488281 155.71875 C 375.007812 155.304688 375.542969 154.921875 376.101562 154.5625 C 376.660156 154.203125 377.230469 153.875 377.820312 153.574219 C 378.414062 153.273438 379.015625 153.003906 379.632812 152.761719 C 380.25 152.519531 380.878906 152.3125 381.515625 152.132812 C 382.152344 151.957031 382.800781 151.8125 383.453125 151.699219 C 384.105469 151.585938 384.761719 151.503906 385.421875 151.457031 C 386.082031 151.410156 386.746094 151.394531 387.40625 151.414062 L 649.261719 151.414062 C 650.078125 151.414062 650.894531 151.375 651.707031 151.292969 C 652.519531 151.214844 653.324219 151.09375 654.125 150.933594 C 654.925781 150.777344 655.71875 150.578125 656.5 150.339844 C 657.28125 150.105469 658.046875 149.828125 658.800781 149.515625 C 659.554688 149.203125 660.292969 148.855469 661.011719 148.46875 C 661.734375 148.085938 662.433594 147.667969 663.113281 147.210938 C 663.789062 146.757812 664.445312 146.273438 665.078125 145.753906 C 665.707031 145.238281 666.3125 144.691406 666.890625 144.113281 C 667.46875 143.535156 668.015625 142.929688 668.53125 142.300781 C 669.050781 141.667969 669.535156 141.011719 669.988281 140.335938 C 670.445312 139.65625 670.863281 138.957031 671.246094 138.238281 C 671.632812 137.515625 671.980469 136.777344 672.292969 136.023438 C 672.605469 135.269531 672.882812 134.503906 673.117188 133.722656 C 673.355469 132.941406 673.554688 132.148438 673.710938 131.347656 C 673.871094 130.546875 673.992188 129.742188 674.070312 128.929688 C 674.152344 128.117188 674.191406 127.300781 674.191406 126.484375 C 674.191406 125.667969 674.152344 124.855469 674.070312 124.042969 C 673.992188 123.230469 673.871094 122.421875 673.710938 121.621094 C 673.554688 120.820312 673.355469 120.027344 673.117188 119.246094 C 672.882812 118.464844 672.605469 117.699219 672.292969 116.945312 C 671.980469 116.191406 671.632812 115.453125 671.246094 114.734375 C 670.863281 114.011719 670.445312 113.3125 669.988281 112.632812 C 669.535156 111.957031 669.050781 111.300781 668.53125 110.667969 C 668.015625 110.039062 667.46875 109.433594 666.890625 108.855469 C 666.3125 108.28125 665.707031 107.730469 665.078125 107.214844 C 664.445312 106.695312 663.789062 106.210938 663.113281 105.757812 C 662.433594 105.304688 661.734375 104.882812 661.011719 104.5 C 660.292969 104.113281 659.554688 103.765625 658.800781 103.453125 C 658.046875 103.140625 657.28125 102.867188 656.5 102.628906 C 655.71875 102.390625 654.925781 102.195312 654.125 102.035156 C 653.324219 101.875 652.519531 101.753906 651.707031 101.675781 C 650.894531 101.59375 650.078125 101.554688 649.261719 101.554688 L 296.988281 101.554688 C 296.328125 101.574219 295.664062 101.558594 295.003906 101.511719 C 294.34375 101.464844 293.6875 101.382812 293.035156 101.269531 C 292.382812 101.15625 291.738281 101.011719 291.097656 100.835938 C 290.460938 100.65625 289.832031 100.449219 289.214844 100.207031 C 288.597656 99.96875 287.996094 99.695312 287.40625 99.394531 C 286.816406 99.09375 286.242188 98.765625 285.683594 98.40625 C 285.125 98.046875 284.589844 97.664062 284.070312 97.25 C 283.550781 96.839844 283.054688 96.402344 282.578125 95.941406 C 282.105469 95.480469 281.652344 94.996094 281.226562 94.488281 C 280.800781 93.980469 280.402344 93.453125 280.027344 92.90625 C 279.652344 92.359375 279.308594 91.796875 278.992188 91.214844 C 278.671875 90.632812 278.386719 90.039062 278.128906 89.425781 C 277.871094 88.816406 277.644531 88.195312 277.449219 87.5625 C 277.25 86.929688 277.089844 86.289062 276.957031 85.640625 C 276.824219 84.992188 276.726562 84.335938 276.660156 83.675781 C 276.59375 83.019531 276.5625 82.359375 276.5625 81.695312 C 276.5625 81.03125 276.59375 80.371094 276.660156 79.714844 C 276.726562 79.054688 276.824219 78.398438 276.957031 77.75 C 277.089844 77.101562 277.25 76.460938 277.449219 75.828125 C 277.644531 75.195312 277.871094 74.574219 278.128906 73.964844 C 278.386719 73.351562 278.671875 72.757812 278.992188 72.175781 C 279.308594 71.59375 279.652344 71.03125 280.027344 70.484375 C 280.402344 69.9375 280.800781 69.410156 281.226562 68.902344 C 281.652344 68.394531 282.105469 67.910156 282.578125 67.449219 C 283.054688 66.988281 283.550781 66.550781 284.070312 66.140625 C 284.589844 65.726562 285.125 65.34375 285.683594 64.984375 C 286.242188 64.625 286.816406 64.296875 287.40625 63.996094 C 287.996094 63.695312 288.597656 63.421875 289.214844 63.183594 C 289.832031 62.941406 290.460938 62.734375 291.097656 62.554688 C 291.738281 62.378906 292.382812 62.234375 293.035156 62.121094 C 293.6875 62.007812 294.34375 61.925781 295.003906 61.878906 C 295.664062 61.832031 296.328125 61.816406 296.988281 61.835938 L 315.640625 61.835938 C 316.457031 61.835938 317.269531 61.796875 318.082031 61.714844 C 318.894531 61.636719 319.703125 61.515625 320.503906 61.355469 C 321.304688 61.195312 322.09375 61 322.875 60.761719 C 323.65625 60.523438 324.425781 60.25 325.179688 59.9375 C 325.933594 59.625 326.671875 59.277344 327.390625 58.890625 C 328.109375 58.507812 328.808594 58.085938 329.488281 57.632812 C 330.167969 57.179688 330.824219 56.695312 331.453125 56.175781 C 332.085938 55.660156 332.691406 55.109375 333.265625 54.535156 C 333.84375 53.957031 334.390625 53.351562 334.910156 52.722656 C 335.429688 52.089844 335.914062 51.433594 336.367188 50.757812 C 336.820312 50.078125 337.242188 49.378906 337.625 48.65625 C 338.011719 47.9375 338.359375 47.199219 338.671875 46.445312 C 338.984375 45.691406 339.257812 44.925781 339.496094 44.144531 C 339.730469 43.359375 339.929688 42.570312 340.089844 41.769531 C 340.25 40.96875 340.367188 40.160156 340.449219 39.347656 C 340.527344 38.535156 340.570312 37.722656 340.570312 36.90625 C 340.570312 36.089844 340.527344 35.273438 340.449219 34.460938 C 340.367188 33.648438 340.25 32.84375 340.089844 32.042969 C 339.929688 31.242188 339.730469 30.449219 339.496094 29.667969 C 339.257812 28.886719 338.984375 28.121094 338.671875 27.367188 C 338.359375 26.613281 338.011719 25.875 337.625 25.152344 C 337.242188 24.433594 336.820312 23.734375 336.367188 23.054688 C 335.914062 22.375 335.429688 21.722656 334.910156 21.089844 C 334.390625 20.460938 333.84375 19.855469 333.265625 19.277344 C 332.691406 18.699219 332.085938 18.152344 331.453125 17.636719 C 330.824219 17.117188 330.167969 16.632812 329.488281 16.179688 C 328.808594 15.722656 328.109375 15.304688 327.390625 14.921875 C 326.671875 14.535156 325.933594 14.1875 325.179688 13.875 C 324.425781 13.5625 323.65625 13.285156 322.875 13.050781 C 322.09375 12.8125 321.304688 12.613281 320.503906 12.457031 C 319.703125 12.296875 318.894531 12.175781 318.082031 12.097656 C 317.269531 12.015625 316.457031 11.976562 315.640625 11.976562 L 153.550781 11.976562 C 152.734375 11.976562 151.917969 12.015625 151.105469 12.097656 C 150.292969 12.175781 149.488281 12.296875 148.6875 12.457031 C 147.886719 12.613281 147.09375 12.8125 146.3125 13.050781 C 145.53125 13.285156 144.765625 13.5625 144.007812 13.875 C 143.253906 14.1875 142.519531 14.535156 141.796875 14.921875 C 141.078125 15.304688 140.378906 15.722656 139.699219 16.179688 C 139.019531 16.632812 138.367188 17.117188 137.734375 17.636719 C 137.101562 18.152344 136.5 18.699219 135.921875 19.277344 C 135.34375 19.855469 134.796875 20.460938 134.277344 21.089844 C 133.761719 21.722656 133.273438 22.375 132.820312 23.054688 C 132.367188 23.734375 131.949219 24.433594 131.5625 25.152344 C 131.179688 25.875 130.832031 26.613281 130.519531 27.367188 C 130.207031 28.121094 129.929688 28.886719 129.695312 29.667969 C 129.457031 30.449219 129.257812 31.242188 129.097656 32.042969 C 128.941406 32.84375 128.820312 33.648438 128.738281 34.460938 C 128.660156 35.273438 128.621094 36.089844 128.621094 36.90625 C 128.621094 37.722656 128.660156 38.535156 128.738281 39.347656 C 128.820312 40.160156 128.941406 40.96875 129.097656 41.769531 C 129.257812 42.570312 129.457031 43.359375 129.695312 44.144531 C 129.929688 44.925781 130.207031 45.691406 130.519531 46.445312 C 130.832031 47.199219 131.179688 47.9375 131.5625 48.65625 C 131.949219 49.378906 132.367188 50.078125 132.820312 50.757812 C 133.273438 51.433594 133.761719 52.089844 134.277344 52.722656 C 134.796875 53.351562 135.34375 53.957031 135.921875 54.535156 C 136.5 55.109375 137.101562 55.660156 137.734375 56.175781 C 138.367188 56.695312 139.019531 57.179688 139.699219 57.632812 C 140.378906 58.085938 141.078125 58.507812 141.796875 58.890625 C 142.519531 59.277344 143.253906 59.625 144.007812 59.9375 C 144.765625 60.25 145.53125 60.523438 146.3125 60.761719 C 147.09375 61 147.886719 61.195312 148.6875 61.355469 C 149.488281 61.515625 150.292969 61.636719 151.105469 61.714844 C 151.917969 61.796875 152.734375 61.835938 153.550781 61.835938 L 182.75 61.835938 C 183.414062 61.816406 184.074219 61.832031 184.734375 61.878906 C 185.394531 61.925781 186.050781 62.007812 186.703125 62.121094 C 187.355469 62.234375 188.003906 62.378906 188.640625 62.554688 C 189.277344 62.734375 189.90625 62.941406 190.523438 63.183594 C 191.140625 63.421875 191.746094 63.695312 192.335938 63.996094 C 192.925781 64.296875 193.5 64.625 194.054688 64.984375 C 194.613281 65.34375 195.152344 65.726562 195.667969 66.140625 C 196.1875 66.550781 196.683594 66.988281 197.160156 67.449219 C 197.632812 67.910156 198.085938 68.394531 198.511719 68.902344 C 198.9375 69.410156 199.339844 69.9375 199.710938 70.484375 C 200.085938 71.03125 200.433594 71.59375 200.75 72.175781 C 201.066406 72.757812 201.355469 73.351562 201.613281 73.964844 C 201.871094 74.574219 202.097656 75.195312 202.292969 75.828125 C 202.488281 76.460938 202.652344 77.101562 202.78125 77.75 C 202.914062 78.398438 203.011719 79.054688 203.078125 79.714844 C 203.144531 80.371094 203.179688 81.03125 203.179688 81.695312 C 203.179688 82.359375 203.144531 83.019531 203.078125 83.675781 C 203.011719 84.335938 202.914062 84.992188 202.78125 85.640625 C 202.652344 86.289062 202.488281 86.929688 202.292969 87.5625 C 202.097656 88.195312 201.871094 88.816406 201.613281 89.425781 C 201.355469 90.039062 201.066406 90.632812 200.75 91.214844 C 200.433594 91.796875 200.085938 92.359375 199.710938 92.90625 C 199.339844 93.453125 198.9375 93.980469 198.511719 94.488281 C 198.085938 94.996094 197.632812 95.480469 197.160156 95.941406 C 196.683594 96.402344 196.1875 96.839844 195.667969 97.25 C 195.152344 97.664062 194.613281 98.046875 194.054688 98.40625 C 193.5 98.765625 192.925781 99.09375 192.335938 99.394531 C 191.746094 99.695312 191.140625 99.96875 190.523438 100.207031 C 189.90625 100.449219 189.277344 100.65625 188.640625 100.835938 C 188.003906 101.011719 187.355469 101.15625 186.703125 101.269531 C 186.050781 101.382812 185.394531 101.464844 184.734375 101.511719 C 184.074219 101.558594 183.414062 101.574219 182.75 101.554688 L 25.785156 101.554688 C 24.96875 101.554688 24.15625 101.59375 23.34375 101.675781 C 22.53125 101.753906 21.722656 101.875 20.921875 102.035156 C 20.121094 102.195312 19.332031 102.390625 18.550781 102.628906 C 17.769531 102.867188 17 103.140625 16.246094 103.453125 C 15.492188 103.765625 14.753906 104.113281 14.035156 104.5 C 13.3125 104.882812 12.613281 105.304688 11.9375 105.757812 C 11.257812 106.210938 10.601562 106.695312 9.96875 107.214844 C 9.339844 107.730469 8.734375 108.28125 8.15625 108.855469 C 7.582031 109.433594 7.03125 110.039062 6.515625 110.667969 C 5.996094 111.300781 5.511719 111.957031 5.058594 112.632812 C 4.605469 113.3125 4.183594 114.011719 3.800781 114.734375 C 3.414062 115.453125 3.066406 116.191406 2.753906 116.945312 C 2.441406 117.699219 2.167969 118.464844 1.929688 119.246094 C 1.691406 120.027344 1.496094 120.820312 1.335938 121.621094 C 1.175781 122.421875 1.054688 123.230469 0.976562 124.042969 C 0.894531 124.855469 0.855469 125.667969 0.855469 126.484375 C 0.855469 127.300781 0.894531 128.117188 0.976562 128.929688 C 1.054688 129.742188 1.175781 130.546875 1.335938 131.347656 C 1.496094 132.148438 1.691406 132.941406 1.929688 133.722656 C 2.167969 134.503906 2.441406 135.269531 2.753906 136.023438 C 3.066406 136.777344 3.414062 137.515625 3.800781 138.238281 C 4.183594 138.957031 4.605469 139.65625 5.058594 140.335938 C 5.511719 141.011719 5.996094 141.667969 6.515625 142.300781 C 7.03125 142.929688 7.582031 143.535156 8.15625 144.113281 C 8.734375 144.691406 9.339844 145.238281 9.96875 145.753906 C 10.601562 146.273438 11.257812 146.757812 11.9375 147.210938 C 12.613281 147.667969 13.3125 148.085938 14.035156 148.46875 C 14.753906 148.855469 15.492188 149.203125 16.246094 149.515625 C 17 149.828125 17.769531 150.105469 18.550781 150.339844 C 19.332031 150.578125 20.121094 150.777344 20.921875 150.933594 C 21.722656 151.09375 22.53125 151.214844 23.34375 151.292969 C 24.15625 151.375 24.96875 151.414062 25.785156 151.414062 L 191.65625 151.414062 C 192.292969 151.433594 192.929688 151.480469 193.566406 151.558594 C 194.199219 151.640625 194.828125 151.75 195.449219 151.890625 C 196.074219 152.03125 196.691406 152.199219 197.296875 152.398438 C 197.902344 152.597656 198.5 152.828125 199.085938 153.082031 C 199.671875 153.339844 200.242188 153.625 200.800781 153.9375 C 201.355469 154.25 201.898438 154.585938 202.421875 154.953125 C 202.949219 155.316406 203.453125 155.703125 203.941406 156.117188 C 204.429688 156.53125 204.894531 156.96875 205.339844 157.425781 C 205.785156 157.882812 206.207031 158.363281 206.609375 158.859375 C 207.007812 159.359375 207.382812 159.875 207.730469 160.410156 C 208.078125 160.945312 208.402344 161.496094 208.699219 162.0625 C 208.996094 162.628906 209.261719 163.207031 209.503906 163.800781 C 209.746094 164.394531 209.957031 164.996094 210.136719 165.605469 C 210.320312 166.21875 210.472656 166.839844 210.59375 167.464844 C 210.71875 168.09375 210.808594 168.726562 210.871094 169.363281 C 210.933594 169.996094 210.964844 170.636719 210.964844 171.273438 C 210.964844 171.914062 210.933594 172.550781 210.871094 173.1875 C 210.808594 173.824219 210.71875 174.453125 210.59375 175.082031 C 210.472656 175.707031 210.320312 176.328125 210.136719 176.941406 C 209.957031 177.554688 209.746094 178.15625 209.503906 178.746094 C 209.261719 179.339844 208.996094 179.917969 208.699219 180.484375 C 208.402344 181.050781 208.078125 181.601562 207.730469 182.136719 C 207.382812 182.671875 207.007812 183.1875 206.609375 183.6875 C 206.207031 184.1875 205.785156 184.664062 205.339844 185.125 C 204.894531 185.582031 204.429688 186.015625 203.941406 186.429688 C 203.453125 186.84375 202.949219 187.230469 202.421875 187.597656 C 201.898438 187.960938 201.355469 188.296875 200.800781 188.609375 C 200.242188 188.921875 199.671875 189.207031 199.085938 189.464844 C 198.5 189.722656 197.902344 189.949219 197.296875 190.148438 C 196.691406 190.347656 196.074219 190.519531 195.449219 190.660156 C 194.828125 190.796875 194.199219 190.910156 193.566406 190.988281 C 192.929688 191.066406 192.292969 191.117188 191.65625 191.132812 L 125.21875 191.132812 C 124.402344 191.132812 123.585938 191.171875 122.773438 191.253906 C 121.960938 191.332031 121.15625 191.449219 120.351562 191.609375 C 119.550781 191.769531 118.761719 191.964844 117.980469 192.203125 C 117.195312 192.441406 116.429688 192.714844 115.671875 193.027344 C 114.917969 193.339844 114.179688 193.6875 113.460938 194.070312 C 112.738281 194.457031 112.039062 194.875 111.359375 195.328125 C 110.679688 195.78125 110.027344 196.269531 109.394531 196.785156 C 108.761719 197.304688 108.15625 197.851562 107.582031 198.429688 C 107.003906 199.007812 106.453125 199.609375 105.9375 200.242188 C 105.417969 200.875 104.929688 201.527344 104.476562 202.207031 C 104.023438 202.886719 103.605469 203.585938 103.21875 204.308594 C 102.832031 205.027344 102.484375 205.765625 102.171875 206.519531 C 101.859375 207.273438 101.585938 208.042969 101.347656 208.824219 C 101.109375 209.605469 100.910156 210.398438 100.75 211.199219 C 100.59375 212 100.472656 212.804688 100.394531 213.617188 C 100.3125 214.433594 100.273438 215.246094 100.273438 216.0625 C 100.273438 216.878906 100.3125 217.695312 100.394531 218.507812 C 100.472656 219.320312 100.59375 220.128906 100.75 220.929688 C 100.910156 221.730469 101.109375 222.523438 101.347656 223.304688 C 101.585938 224.085938 101.859375 224.851562 102.171875 225.609375 C 102.484375 226.363281 102.832031 227.097656 103.21875 227.820312 C 103.605469 228.539062 104.023438 229.238281 104.476562 229.917969 C 104.929688 230.597656 105.417969 231.253906 105.9375 231.882812 C 106.453125 232.515625 107.003906 233.121094 107.582031 233.699219 C 108.15625 234.273438 108.761719 234.824219 109.394531 235.339844 C 110.027344 235.859375 110.679688 236.34375 111.359375 236.796875 C 112.039062 237.25 112.738281 237.671875 113.460938 238.054688 C 114.179688 238.441406 114.917969 238.789062 115.671875 239.101562 C 116.429688 239.414062 117.195312 239.6875 117.980469 239.921875 C 118.761719 240.160156 119.550781 240.359375 120.351562 240.515625 C 121.15625 240.675781 121.960938 240.796875 122.773438 240.875 C 123.585938 240.953125 124.402344 240.992188 125.21875 240.992188 Z M 476.242188 196.210938 C 476.878906 196.230469 477.515625 196.277344 478.152344 196.359375 C 478.785156 196.4375 479.414062 196.546875 480.039062 196.6875 C 480.660156 196.828125 481.277344 196.996094 481.882812 197.195312 C 482.488281 197.394531 483.085938 197.625 483.671875 197.882812 C 484.257812 198.136719 484.828125 198.421875 485.386719 198.734375 C 485.941406 199.046875 486.484375 199.386719 487.007812 199.75 C 487.535156 200.113281 488.039062 200.503906 488.527344 200.914062 C 489.015625 201.328125 489.480469 201.765625 489.925781 202.222656 C 490.371094 202.679688 490.792969 203.160156 491.195312 203.65625 C 491.59375 204.15625 491.96875 204.671875 492.316406 205.207031 C 492.664062 205.742188 492.988281 206.292969 493.285156 206.859375 C 493.582031 207.425781 493.847656 208.007812 494.089844 208.597656 C 494.332031 209.191406 494.542969 209.792969 494.722656 210.40625 C 494.90625 211.015625 495.058594 211.636719 495.179688 212.265625 C 495.304688 212.890625 495.394531 213.523438 495.457031 214.160156 C 495.519531 214.792969 495.550781 215.433594 495.550781 216.070312 C 495.550781 216.710938 495.519531 217.347656 495.457031 217.984375 C 495.394531 218.621094 495.304688 219.25 495.179688 219.878906 C 495.058594 220.503906 494.90625 221.125 494.722656 221.738281 C 494.542969 222.351562 494.332031 222.953125 494.089844 223.542969 C 493.847656 224.136719 493.582031 224.714844 493.285156 225.28125 C 492.988281 225.847656 492.664062 226.398438 492.316406 226.933594 C 491.96875 227.46875 491.59375 227.984375 491.195312 228.484375 C 490.792969 228.984375 490.371094 229.460938 489.925781 229.921875 C 489.480469 230.378906 489.015625 230.8125 488.527344 231.226562 C 488.039062 231.640625 487.535156 232.027344 487.007812 232.394531 C 486.484375 232.757812 485.941406 233.097656 485.386719 233.40625 C 484.828125 233.71875 484.257812 234.003906 483.671875 234.261719 C 483.085938 234.519531 482.488281 234.746094 481.882812 234.945312 C 481.277344 235.144531 480.660156 235.316406 480.039062 235.457031 C 479.414062 235.597656 478.785156 235.707031 478.152344 235.785156 C 477.515625 235.863281 476.878906 235.914062 476.242188 235.929688 L 125.296875 235.929688 C 124.636719 235.949219 123.976562 235.933594 123.3125 235.886719 C 122.652344 235.839844 121.996094 235.761719 121.34375 235.648438 C 120.691406 235.535156 120.046875 235.386719 119.40625 235.210938 C 118.769531 235.03125 118.140625 234.824219 117.523438 234.582031 C 116.90625 234.34375 116.304688 234.074219 115.714844 233.769531 C 115.125 233.46875 114.550781 233.140625 113.992188 232.78125 C 113.4375 232.425781 112.898438 232.039062 112.378906 231.628906 C 111.859375 231.214844 111.363281 230.777344 110.890625 230.316406 C 110.414062 229.855469 109.964844 229.371094 109.535156 228.863281 C 109.109375 228.355469 108.710938 227.832031 108.335938 227.285156 C 107.960938 226.738281 107.617188 226.171875 107.300781 225.589844 C 106.980469 225.007812 106.695312 224.414062 106.4375 223.804688 C 106.179688 223.195312 105.953125 222.570312 105.757812 221.9375 C 105.5625 221.304688 105.398438 220.664062 105.265625 220.015625 C 105.132812 219.367188 105.035156 218.710938 104.96875 218.054688 C 104.902344 217.394531 104.871094 216.734375 104.871094 216.070312 C 104.871094 215.410156 104.902344 214.75 104.96875 214.089844 C 105.035156 213.429688 105.132812 212.777344 105.265625 212.125 C 105.398438 211.476562 105.5625 210.835938 105.757812 210.203125 C 105.953125 209.570312 106.179688 208.949219 106.4375 208.339844 C 106.695312 207.730469 106.980469 207.132812 107.300781 206.550781 C 107.617188 205.96875 107.960938 205.40625 108.335938 204.859375 C 108.710938 204.3125 109.109375 203.785156 109.535156 203.277344 C 109.964844 202.773438 110.414062 202.289062 110.890625 201.824219 C 111.363281 201.363281 111.859375 200.925781 112.378906 200.515625 C 112.898438 200.101562 113.4375 199.71875 113.992188 199.359375 C 114.550781 199 115.125 198.671875 115.714844 198.371094 C 116.304688 198.070312 116.90625 197.800781 117.523438 197.558594 C 118.140625 197.320312 118.769531 197.109375 119.40625 196.933594 C 120.046875 196.753906 120.691406 196.609375 121.34375 196.496094 C 121.996094 196.382812 122.652344 196.300781 123.3125 196.253906 C 123.976562 196.207031 124.636719 196.191406 125.296875 196.210938 L 191.734375 196.210938 C 192.550781 196.210938 193.367188 196.171875 194.179688 196.089844 C 194.992188 196.011719 195.796875 195.890625 196.597656 195.734375 C 197.398438 195.574219 198.191406 195.375 198.972656 195.136719 C 199.753906 194.902344 200.519531 194.625 201.273438 194.3125 C 202.027344 194 202.765625 193.652344 203.488281 193.269531 C 204.207031 192.882812 204.90625 192.464844 205.585938 192.011719 C 206.265625 191.554688 206.917969 191.070312 207.550781 190.554688 C 208.179688 190.035156 208.785156 189.488281 209.363281 188.910156 C 209.941406 188.332031 210.488281 187.726562 211.003906 187.097656 C 211.523438 186.464844 212.007812 185.8125 212.464844 185.132812 C 212.917969 184.453125 213.335938 183.753906 213.722656 183.035156 C 214.105469 182.3125 214.453125 181.578125 214.765625 180.820312 C 215.078125 180.066406 215.355469 179.300781 215.589844 178.519531 C 215.828125 177.738281 216.027344 176.945312 216.183594 176.144531 C 216.34375 175.34375 216.464844 174.539062 216.542969 173.726562 C 216.625 172.914062 216.664062 172.097656 216.664062 171.28125 C 216.664062 170.464844 216.625 169.652344 216.542969 168.839844 C 216.464844 168.027344 216.34375 167.21875 216.183594 166.417969 C 216.027344 165.617188 215.828125 164.828125 215.589844 164.046875 C 215.355469 163.265625 215.078125 162.496094 214.765625 161.742188 C 214.453125 160.988281 214.105469 160.25 213.722656 159.53125 C 213.335938 158.808594 212.917969 158.109375 212.464844 157.433594 C 212.007812 156.753906 211.523438 156.097656 211.003906 155.464844 C 210.488281 154.835938 209.941406 154.230469 209.363281 153.652344 C 208.785156 153.078125 208.179688 152.527344 207.550781 152.011719 C 206.917969 151.492188 206.265625 151.007812 205.585938 150.554688 C 204.90625 150.101562 204.207031 149.679688 203.488281 149.296875 C 202.765625 148.910156 202.027344 148.5625 201.273438 148.25 C 200.519531 147.9375 199.753906 147.664062 198.972656 147.425781 C 198.191406 147.1875 197.398438 146.992188 196.597656 146.832031 C 195.796875 146.671875 194.992188 146.550781 194.179688 146.472656 C 193.367188 146.390625 192.550781 146.351562 191.734375 146.351562 L 25.785156 146.351562 C 25.136719 146.351562 24.484375 146.320312 23.839844 146.257812 C 23.191406 146.191406 22.546875 146.097656 21.910156 145.96875 C 21.273438 145.84375 20.640625 145.6875 20.019531 145.496094 C 19.394531 145.308594 18.785156 145.089844 18.183594 144.839844 C 17.582031 144.589844 16.992188 144.3125 16.421875 144.007812 C 15.847656 143.699219 15.289062 143.367188 14.746094 143.003906 C 14.207031 142.640625 13.683594 142.253906 13.183594 141.84375 C 12.679688 141.429688 12.195312 140.992188 11.738281 140.535156 C 11.277344 140.074219 10.839844 139.589844 10.429688 139.089844 C 10.015625 138.585938 9.628906 138.0625 9.265625 137.523438 C 8.90625 136.980469 8.570312 136.425781 8.265625 135.851562 C 7.957031 135.277344 7.679688 134.6875 7.429688 134.085938 C 7.179688 133.488281 6.960938 132.875 6.773438 132.25 C 6.585938 131.628906 6.425781 131 6.300781 130.359375 C 6.171875 129.722656 6.078125 129.078125 6.011719 128.433594 C 5.949219 127.785156 5.917969 127.136719 5.917969 126.484375 C 5.917969 125.832031 5.949219 125.183594 6.011719 124.539062 C 6.078125 123.890625 6.171875 123.246094 6.300781 122.609375 C 6.425781 121.96875 6.585938 121.339844 6.773438 120.71875 C 6.960938 120.09375 7.179688 119.484375 7.429688 118.882812 C 7.679688 118.28125 7.957031 117.691406 8.265625 117.117188 C 8.570312 116.546875 8.90625 115.988281 9.265625 115.445312 C 9.628906 114.90625 10.015625 114.382812 10.429688 113.878906 C 10.839844 113.378906 11.277344 112.894531 11.738281 112.4375 C 12.195312 111.976562 12.679688 111.539062 13.183594 111.125 C 13.683594 110.714844 14.207031 110.328125 14.746094 109.964844 C 15.289062 109.605469 15.847656 109.269531 16.421875 108.960938 C 16.992188 108.65625 17.582031 108.378906 18.183594 108.128906 C 18.785156 107.878906 19.394531 107.660156 20.019531 107.472656 C 20.640625 107.285156 21.273438 107.125 21.910156 107 C 22.546875 106.871094 23.191406 106.777344 23.839844 106.710938 C 24.484375 106.648438 25.136719 106.617188 25.785156 106.617188 L 182.75 106.617188 C 183.578125 106.636719 184.40625 106.617188 185.234375 106.554688 C 186.0625 106.492188 186.882812 106.390625 187.703125 106.246094 C 188.519531 106.101562 189.328125 105.917969 190.125 105.695312 C 190.921875 105.46875 191.710938 105.207031 192.480469 104.902344 C 193.253906 104.601562 194.007812 104.257812 194.746094 103.882812 C 195.484375 103.503906 196.203125 103.089844 196.898438 102.640625 C 197.597656 102.1875 198.269531 101.707031 198.917969 101.1875 C 199.566406 100.671875 200.1875 100.121094 200.78125 99.542969 C 201.375 98.964844 201.941406 98.355469 202.472656 97.722656 C 203.007812 97.085938 203.507812 96.425781 203.972656 95.742188 C 204.441406 95.054688 204.875 94.347656 205.269531 93.621094 C 205.667969 92.890625 206.027344 92.144531 206.347656 91.378906 C 206.671875 90.617188 206.957031 89.835938 207.199219 89.042969 C 207.445312 88.25 207.648438 87.449219 207.8125 86.636719 C 207.976562 85.824219 208.101562 85.003906 208.183594 84.179688 C 208.265625 83.351562 208.308594 82.523438 208.308594 81.695312 C 208.308594 80.867188 208.265625 80.039062 208.183594 79.210938 C 208.101562 78.386719 207.976562 77.566406 207.8125 76.753906 C 207.648438 75.941406 207.445312 75.140625 207.199219 74.347656 C 206.957031 73.554688 206.671875 72.773438 206.347656 72.011719 C 206.027344 71.246094 205.667969 70.5 205.269531 69.769531 C 204.875 69.042969 204.441406 68.335938 203.972656 67.648438 C 203.507812 66.964844 203.007812 66.304688 202.472656 65.667969 C 201.941406 65.035156 201.375 64.425781 200.78125 63.847656 C 200.1875 63.269531 199.566406 62.71875 198.917969 62.203125 C 198.269531 61.683594 197.597656 61.203125 196.898438 60.75 C 196.203125 60.300781 195.484375 59.886719 194.746094 59.507812 C 194.007812 59.128906 193.253906 58.789062 192.480469 58.488281 C 191.710938 58.183594 190.921875 57.921875 190.125 57.695312 C 189.328125 57.472656 188.519531 57.289062 187.703125 57.144531 C 186.882812 57 186.0625 56.898438 185.234375 56.835938 C 184.40625 56.773438 183.578125 56.753906 182.75 56.773438 L 153.550781 56.773438 C 152.898438 56.773438 152.25 56.742188 151.601562 56.679688 C 150.953125 56.613281 150.3125 56.519531 149.671875 56.390625 C 149.035156 56.265625 148.40625 56.105469 147.78125 55.917969 C 147.160156 55.730469 146.546875 55.511719 145.945312 55.261719 C 145.34375 55.011719 144.757812 54.734375 144.183594 54.425781 C 143.609375 54.121094 143.054688 53.785156 142.511719 53.425781 C 141.972656 53.0625 141.449219 52.675781 140.945312 52.265625 C 140.441406 51.851562 139.960938 51.414062 139.5 50.953125 C 139.039062 50.496094 138.605469 50.011719 138.191406 49.511719 C 137.777344 49.007812 137.390625 48.484375 137.03125 47.945312 C 136.667969 47.402344 136.335938 46.84375 136.027344 46.273438 C 135.722656 45.699219 135.441406 45.109375 135.195312 44.507812 C 134.945312 43.90625 134.726562 43.296875 134.539062 42.671875 C 134.347656 42.050781 134.191406 41.421875 134.0625 40.78125 C 133.9375 40.144531 133.839844 39.5 133.777344 38.851562 C 133.714844 38.207031 133.683594 37.554688 133.683594 36.90625 C 133.683594 36.253906 133.714844 35.605469 133.777344 34.957031 C 133.839844 34.3125 133.9375 33.667969 134.0625 33.03125 C 134.191406 32.390625 134.347656 31.761719 134.539062 31.136719 C 134.726562 30.515625 134.945312 29.902344 135.195312 29.304688 C 135.441406 28.703125 135.722656 28.113281 136.027344 27.539062 C 136.335938 26.964844 136.667969 26.410156 137.03125 25.867188 C 137.390625 25.328125 137.777344 24.804688 138.191406 24.300781 C 138.605469 23.800781 139.039062 23.316406 139.5 22.855469 C 139.960938 22.398438 140.441406 21.960938 140.945312 21.546875 C 141.449219 21.136719 141.972656 20.746094 142.511719 20.386719 C 143.054688 20.023438 143.609375 19.691406 144.183594 19.382812 C 144.757812 19.078125 145.34375 18.800781 145.945312 18.550781 C 146.546875 18.300781 147.160156 18.082031 147.78125 17.894531 C 148.40625 17.703125 149.035156 17.546875 149.671875 17.421875 C 150.3125 17.292969 150.953125 17.199219 151.601562 17.132812 C 152.25 17.070312 152.898438 17.039062 153.550781 17.039062 L 315.640625 17.039062 C 316.289062 17.039062 316.9375 17.070312 317.585938 17.132812 C 318.234375 17.199219 318.878906 17.292969 319.515625 17.421875 C 320.152344 17.546875 320.785156 17.703125 321.40625 17.894531 C 322.027344 18.082031 322.640625 18.300781 323.242188 18.550781 C 323.84375 18.800781 324.429688 19.078125 325.003906 19.382812 C 325.578125 19.691406 326.136719 20.023438 326.675781 20.386719 C 327.21875 20.746094 327.738281 21.136719 328.242188 21.546875 C 328.746094 21.960938 329.226562 22.398438 329.6875 22.855469 C 330.148438 23.316406 330.585938 23.800781 330.996094 24.300781 C 331.410156 24.804688 331.796875 25.328125 332.160156 25.867188 C 332.519531 26.410156 332.855469 26.964844 333.160156 27.539062 C 333.46875 28.113281 333.746094 28.703125 333.996094 29.304688 C 334.242188 29.902344 334.460938 30.515625 334.652344 31.136719 C 334.839844 31.761719 335 32.390625 335.125 33.03125 C 335.253906 33.667969 335.347656 34.3125 335.410156 34.957031 C 335.476562 35.605469 335.507812 36.253906 335.507812 36.90625 C 335.507812 37.554688 335.476562 38.207031 335.410156 38.851562 C 335.347656 39.5 335.253906 40.144531 335.125 40.78125 C 335 41.421875 334.839844 42.050781 334.652344 42.671875 C 334.460938 43.296875 334.242188 43.90625 333.996094 44.507812 C 333.746094 45.109375 333.46875 45.699219 333.160156 46.273438 C 332.855469 46.84375 332.519531 47.402344 332.160156 47.945312 C 331.796875 48.484375 331.410156 49.007812 330.996094 49.511719 C 330.585938 50.011719 330.148438 50.496094 329.6875 50.953125 C 329.226562 51.414062 328.746094 51.851562 328.242188 52.265625 C 327.738281 52.675781 327.21875 53.0625 326.675781 53.425781 C 326.136719 53.785156 325.578125 54.121094 325.003906 54.425781 C 324.429688 54.734375 323.84375 55.011719 323.242188 55.261719 C 322.640625 55.511719 322.027344 55.730469 321.40625 55.917969 C 320.785156 56.105469 320.152344 56.265625 319.515625 56.390625 C 318.878906 56.519531 318.234375 56.613281 317.585938 56.679688 C 316.9375 56.742188 316.289062 56.773438 315.640625 56.773438 L 296.988281 56.773438 C 296.160156 56.753906 295.332031 56.773438 294.503906 56.835938 C 293.675781 56.898438 292.855469 57 292.039062 57.144531 C 291.222656 57.289062 290.414062 57.472656 289.613281 57.695312 C 288.816406 57.921875 288.03125 58.183594 287.257812 58.488281 C 286.484375 58.789062 285.730469 59.128906 284.992188 59.507812 C 284.253906 59.886719 283.535156 60.300781 282.839844 60.75 C 282.140625 61.203125 281.46875 61.683594 280.820312 62.203125 C 280.171875 62.71875 279.550781 63.269531 278.957031 63.847656 C 278.363281 64.425781 277.800781 65.035156 277.265625 65.667969 C 276.734375 66.304688 276.234375 66.964844 275.765625 67.648438 C 275.296875 68.335938 274.867188 69.042969 274.46875 69.769531 C 274.070312 70.5 273.710938 71.246094 273.390625 72.011719 C 273.066406 72.773438 272.785156 73.554688 272.539062 74.347656 C 272.296875 75.140625 272.089844 75.941406 271.925781 76.753906 C 271.761719 77.566406 271.636719 78.386719 271.554688 79.210938 C 271.472656 80.039062 271.433594 80.867188 271.433594 81.695312 C 271.433594 82.523438 271.472656 83.351562 271.554688 84.179688 C 271.636719 85.003906 271.761719 85.824219 271.925781 86.636719 C 272.089844 87.449219 272.296875 88.25 272.539062 89.042969 C 272.785156 89.835938 273.066406 90.617188 273.390625 91.378906 C 273.710938 92.144531 274.070312 92.890625 274.46875 93.621094 C 274.867188 94.347656 275.296875 95.054688 275.765625 95.742188 C 276.234375 96.425781 276.734375 97.085938 277.265625 97.722656 C 277.800781 98.355469 278.363281 98.964844 278.957031 99.542969 C 279.550781 100.121094 280.171875 100.671875 280.820312 101.1875 C 281.46875 101.707031 282.140625 102.1875 282.839844 102.640625 C 283.535156 103.089844 284.253906 103.503906 284.992188 103.882812 C 285.730469 104.257812 286.484375 104.601562 287.257812 104.902344 C 288.03125 105.207031 288.816406 105.46875 289.613281 105.695312 C 290.414062 105.917969 291.222656 106.101562 292.039062 106.246094 C 292.855469 106.390625 293.675781 106.492188 294.503906 106.554688 C 295.332031 106.617188 296.160156 106.636719 296.988281 106.617188 L 649.261719 106.617188 C 649.914062 106.617188 650.5625 106.648438 651.210938 106.710938 C 651.855469 106.777344 652.5 106.871094 653.136719 107 C 653.777344 107.125 654.40625 107.285156 655.027344 107.472656 C 655.652344 107.660156 656.265625 107.878906 656.863281 108.128906 C 657.464844 108.378906 658.054688 108.65625 658.628906 108.960938 C 659.203125 109.269531 659.757812 109.605469 660.300781 109.964844 C 660.839844 110.328125 661.363281 110.714844 661.867188 111.125 C 662.367188 111.539062 662.851562 111.976562 663.308594 112.4375 C 663.769531 112.894531 664.207031 113.378906 664.621094 113.878906 C 665.03125 114.382812 665.417969 114.90625 665.78125 115.445312 C 666.144531 115.988281 666.476562 116.546875 666.785156 117.117188 C 667.089844 117.691406 667.367188 118.28125 667.617188 118.882812 C 667.867188 119.484375 668.085938 120.09375 668.273438 120.71875 C 668.464844 121.339844 668.621094 121.96875 668.746094 122.609375 C 668.875 123.246094 668.96875 123.890625 669.035156 124.539062 C 669.097656 125.183594 669.128906 125.832031 669.128906 126.484375 C 669.128906 127.136719 669.097656 127.785156 669.035156 128.433594 C 668.96875 129.078125 668.875 129.722656 668.746094 130.359375 C 668.621094 131 668.464844 131.628906 668.273438 132.25 C 668.085938 132.875 667.867188 133.488281 667.617188 134.085938 C 667.367188 134.6875 667.089844 135.277344 666.785156 135.851562 C 666.476562 136.425781 666.144531 136.980469 665.78125 137.523438 C 665.417969 138.0625 665.03125 138.585938 664.621094 139.089844 C 664.207031 139.589844 663.769531 140.074219 663.308594 140.535156 C 662.851562 140.992188 662.367188 141.429688 661.867188 141.84375 C 661.363281 142.253906 660.839844 142.640625 660.300781 143.003906 C 659.757812 143.367188 659.203125 143.699219 658.628906 144.007812 C 658.054688 144.3125 657.464844 144.589844 656.863281 144.839844 C 656.265625 145.089844 655.652344 145.308594 655.027344 145.496094 C 654.40625 145.6875 653.777344 145.84375 653.136719 145.96875 C 652.5 146.097656 651.855469 146.191406 651.210938 146.257812 C 650.5625 146.320312 649.914062 146.351562 649.261719 146.351562 L 387.40625 146.351562 C 386.589844 146.351562 385.777344 146.390625 384.964844 146.472656 C 384.152344 146.550781 383.34375 146.671875 382.542969 146.832031 C 381.742188 146.992188 380.953125 147.1875 380.171875 147.425781 C 379.386719 147.664062 378.621094 147.9375 377.867188 148.25 C 377.113281 148.5625 376.375 148.910156 375.65625 149.296875 C 374.933594 149.679688 374.234375 150.101562 373.554688 150.554688 C 372.878906 151.007812 372.222656 151.492188 371.589844 152.011719 C 370.960938 152.527344 370.355469 153.078125 369.777344 153.652344 C 369.203125 154.230469 368.652344 154.835938 368.136719 155.464844 C 367.617188 156.097656 367.132812 156.753906 366.679688 157.433594 C 366.226562 158.109375 365.804688 158.808594 365.421875 159.53125 C 365.035156 160.25 364.6875 160.988281 364.375 161.742188 C 364.0625 162.496094 363.789062 163.265625 363.550781 164.046875 C 363.3125 164.828125 363.117188 165.617188 362.957031 166.417969 C 362.796875 167.21875 362.675781 168.027344 362.597656 168.839844 C 362.515625 169.652344 362.476562 170.464844 362.476562 171.28125 C 362.476562 172.097656 362.515625 172.914062 362.597656 173.726562 C 362.675781 174.539062 362.796875 175.34375 362.957031 176.144531 C 363.117188 176.945312 363.3125 177.738281 363.550781 178.519531 C 363.789062 179.300781 364.0625 180.066406 364.375 180.820312 C 364.6875 181.578125 365.035156 182.3125 365.421875 183.035156 C 365.804688 183.753906 366.226562 184.453125 366.679688 185.132812 C 367.132812 185.8125 367.617188 186.464844 368.136719 187.097656 C 368.652344 187.726562 369.203125 188.332031 369.777344 188.910156 C 370.355469 189.488281 370.960938 190.035156 371.589844 190.554688 C 372.222656 191.070312 372.878906 191.554688 373.554688 192.011719 C 374.234375 192.464844 374.933594 192.882812 375.65625 193.269531 C 376.375 193.652344 377.113281 194 377.867188 194.3125 C 378.621094 194.625 379.386719 194.902344 380.171875 195.136719 C 380.953125 195.375 381.742188 195.574219 382.542969 195.734375 C 383.34375 195.890625 384.152344 196.011719 384.964844 196.089844 C 385.777344 196.171875 386.589844 196.210938 387.40625 196.210938 Z M 476.242188 196.210938" fill="#daf1c4"/></g></svg>