<svg version="1.0" preserveAspectRatio="xMidYMid meet" viewBox="0 2.7058823529411766 675 99.44117647058823" zoomAndPan="magnify" xmlns:xlink="http://www.w3.org/1999/xlink" xmlns="http://www.w3.org/2000/svg" style="max-height: 500px" width="675" height="99.44117647058823"><defs><clipPath id="782a7df594"><path clip-rule="nonzero" d="M 44.613281 18 L 79.546875 18 L 79.546875 99.542969 L 44.613281 99.542969 Z M 44.613281 18"/></clipPath><clipPath id="d01b2da6a9"><path clip-rule="nonzero" d="M 595.453125 18 L 630.386719 18 L 630.386719 99.542969 L 595.453125 99.542969 Z M 595.453125 18"/></clipPath><clipPath id="cc18b25a37"><path clip-rule="nonzero" d="M 1.621094 4.871094 L 673.375 4.871094 L 673.375 48 L 1.621094 48 Z M 1.621094 4.871094"/></clipPath></defs><g clip-path="url(#782a7df594)"><path fill-rule="nonzero" fill-opacity="1" d="M 79.46875 92.375 L 79.46875 25.582031 C 79.46875 21.625 76.253906 18.414062 72.292969 18.414062 L 52.003906 18.414062 C 48.042969 18.414062 44.835938 21.625 44.835938 25.582031 L 44.835938 92.375 C 44.835938 96.332031 48.042969 99.542969 52.003906 99.542969 L 72.292969 99.542969 C 76.253906 99.542969 79.46875 96.332031 79.46875 92.375" fill="#ffa192"/></g><g clip-path="url(#d01b2da6a9)"><path fill-rule="nonzero" fill-opacity="1" d="M 630.164062 92.375 L 630.164062 25.582031 C 630.164062 21.625 626.957031 18.414062 622.996094 18.414062 L 602.703125 18.414062 C 598.746094 18.414062 595.53125 21.625 595.53125 25.582031 L 595.53125 92.375 C 595.53125 96.332031 598.746094 99.542969 602.703125 99.542969 L 622.996094 99.542969 C 626.957031 99.542969 630.164062 96.332031 630.164062 92.375" fill="#ffa192"/></g><g clip-path="url(#cc18b25a37)"><path fill-rule="nonzero" fill-opacity="1" d="M 666.207031 -0.339844 L 8.792969 -0.339844 C 4.835938 -0.339844 1.621094 2.867188 1.621094 6.832031 L 1.621094 40.375 C 1.621094 44.332031 4.835938 47.542969 8.792969 47.542969 L 666.207031 47.542969 C 670.164062 47.542969 673.378906 44.332031 673.378906 40.375 L 673.378906 6.832031 C 673.378906 2.867188 670.164062 -0.339844 666.207031 -0.339844" fill="#ffa192"/></g><path fill-rule="nonzero" fill-opacity="1" d="M 359.394531 10.933594 L 12.964844 10.933594 C 12.285156 10.933594 11.742188 10.386719 11.742188 9.710938 C 11.742188 9.039062 12.285156 8.492188 12.964844 8.492188 L 359.394531 8.492188 C 360.070312 8.492188 360.613281 9.039062 360.613281 9.710938 C 360.613281 10.386719 360.070312 10.933594 359.394531 10.933594" fill="#ffc7be"/><path fill-rule="nonzero" fill-opacity="1" d="M 452.863281 21.675781 L 106.433594 21.675781 C 105.761719 21.675781 105.214844 21.132812 105.214844 20.460938 C 105.214844 19.78125 105.761719 19.242188 106.433594 19.242188 L 452.863281 19.242188 C 453.539062 19.242188 454.082031 19.78125 454.082031 20.460938 C 454.082031 21.132812 453.539062 21.675781 452.863281 21.675781" fill="#ffc7be"/></svg>