<svg version="1.0" preserveAspectRatio="xMidYMid meet" viewBox="0 20.250000059999998 676.35 634.50000188" zoomAndPan="magnify" xmlns:xlink="http://www.w3.org/1999/xlink" xmlns="http://www.w3.org/2000/svg" style="max-height: 500px" width="676.35" height="634.50000188"><defs><clipPath id="1bed20c228"><path clip-rule="nonzero" d="M 6 24.855469 L 673 24.855469 L 673 514 L 6 514 Z M 6 24.855469"/></clipPath><clipPath id="f20fb0d0be"><path clip-rule="nonzero" d="M 0.5 568 L 42 568 L 42 605 L 0.5 605 Z M 0.5 568"/></clipPath><clipPath id="f82e9bb6f4"><path clip-rule="nonzero" d="M 0.5 623 L 31 623 L 31 649.429688 L 0.5 649.429688 Z M 0.5 623"/></clipPath></defs><g clip-path="url(#1bed20c228)"><path fill-rule="nonzero" fill-opacity="1" d="M 348.90625 24.851562 C 322.464844 24.871094 296.027344 32.3125 273.671875 46.554688 C 255.894531 57.875 240.820312 73.308594 229.792969 91.269531 C 214.304688 80.386719 194.148438 76.601562 175.820312 81.515625 C 156.175781 86.78125 139.578125 101.699219 132.25 120.683594 C 125.929688 137.050781 126.753906 155.804688 134.171875 171.636719 C 112.542969 170.964844 90.785156 175.980469 71.714844 186.238281 C 50.738281 197.511719 33.183594 214.953125 21.769531 235.859375 C 10.351562 256.765625 5.167969 280.964844 7.011719 304.714844 C 8.859375 328.464844 17.722656 351.570312 32.230469 370.460938 C 55.867188 401.230469 94.457031 419.5 133.179688 418.660156 C 130.113281 433.351562 132.507812 449.066406 140.027344 462.097656 C 148.375 476.558594 162.714844 487.261719 178.945312 491.148438 C 195.960938 495.222656 214.496094 491.644531 228.773438 481.527344 C 240.300781 473.359375 248.644531 461.132812 252.414062 447.570312 C 270.605469 477.324219 300.316406 499.8125 334.042969 508.851562 C 370.953125 518.746094 411.769531 512.339844 443.878906 491.609375 C 456.6875 483.335938 467.980469 472.828125 477.382812 460.820312 C 483.078125 468.984375 490.46875 475.945312 499.117188 480.890625 C 509.261719 486.691406 520.886719 489.78125 532.570312 489.78125 C 544.253906 489.78125 555.882812 486.691406 566.023438 480.890625 C 576.167969 475.089844 584.730469 466.632812 590.65625 456.5625 C 598.351562 443.496094 601.445312 427.871094 599.3125 412.855469 C 597.511719 400.167969 591.972656 388.128906 583.660156 378.414062 C 602.582031 374.804688 620.5 366.179688 635.042969 353.515625 C 651.332031 339.332031 663.234375 320.257812 668.824219 299.386719 C 674.414062 278.519531 673.636719 256.046875 666.621094 235.613281 C 659.601562 215.175781 646.40625 196.972656 629.175781 183.945312 C 613.910156 172.40625 595.59375 165.082031 576.609375 162.742188 C 579.71875 146.871094 577.039062 129.996094 568.941406 115.96875 C 560.15625 100.746094 545.308594 89.289062 528.359375 84.652344 C 508.472656 79.210938 486.472656 83.660156 470.03125 96.011719 C 451.847656 63.660156 420.441406 39.105469 384.582031 29.492188 C 372.945312 26.371094 360.925781 24.84375 348.90625 24.851562 Z M 348.914062 32.132812 C 360.3125 32.121094 371.703125 33.558594 382.703125 36.503906 C 417.902344 45.941406 448.835938 70.773438 465.671875 103.105469 C 465.796875 103.347656 465.949219 103.570312 466.128906 103.78125 C 466.304688 103.988281 466.503906 104.175781 466.722656 104.339844 C 466.941406 104.5 467.175781 104.636719 467.429688 104.75 C 467.679688 104.859375 467.9375 104.941406 468.207031 104.992188 C 468.476562 105.042969 468.75 105.0625 469.023438 105.054688 C 469.296875 105.042969 469.566406 105.003906 469.828125 104.933594 C 470.09375 104.859375 470.347656 104.761719 470.589844 104.632812 C 470.832031 104.503906 471.054688 104.351562 471.261719 104.171875 C 486.054688 91.378906 507.585938 86.496094 526.445312 91.65625 C 541.488281 95.769531 554.859375 106.089844 562.65625 119.601562 C 570.453125 133.113281 572.703125 149.859375 568.746094 164.949219 C 568.675781 165.203125 568.640625 165.464844 568.628906 165.730469 C 568.617188 165.992188 568.636719 166.257812 568.683594 166.515625 C 568.730469 166.777344 568.808594 167.027344 568.910156 167.273438 C 569.011719 167.515625 569.140625 167.746094 569.292969 167.964844 C 569.445312 168.179688 569.617188 168.375 569.8125 168.554688 C 570.007812 168.734375 570.222656 168.890625 570.453125 169.019531 C 570.679688 169.152344 570.921875 169.257812 571.175781 169.335938 C 571.425781 169.414062 571.683594 169.464844 571.949219 169.488281 C 590.980469 171.101562 609.5625 178.21875 624.800781 189.742188 C 640.855469 201.875 653.21875 218.929688 659.757812 237.96875 C 666.292969 257.007812 667.023438 278.0625 661.816406 297.507812 C 656.605469 316.953125 645.453125 334.824219 630.277344 348.039062 C 615.097656 361.257812 595.871094 369.84375 575.902344 372.324219 C 575.207031 372.410156 574.585938 372.679688 574.042969 373.125 C 573.5 373.574219 573.121094 374.128906 572.902344 374.796875 C 572.683594 375.464844 572.660156 376.140625 572.832031 376.820312 C 573.007812 377.503906 573.347656 378.085938 573.859375 378.566406 C 583.65625 387.816406 590.234375 400.53125 592.128906 413.875 C 594.023438 427.21875 591.242188 441.265625 584.40625 452.878906 C 579.128906 461.84375 571.453125 469.421875 562.425781 474.585938 C 553.394531 479.746094 542.96875 482.519531 532.574219 482.519531 C 522.171875 482.519531 511.75 479.746094 502.722656 474.585938 C 493.695312 469.421875 486.015625 461.84375 480.742188 452.878906 C 480.585938 452.617188 480.40625 452.378906 480.191406 452.167969 C 479.980469 451.953125 479.746094 451.765625 479.488281 451.609375 C 479.230469 451.457031 478.957031 451.332031 478.667969 451.246094 C 478.378906 451.160156 478.085938 451.109375 477.785156 451.09375 C 477.484375 451.078125 477.183594 451.101562 476.890625 451.160156 C 476.59375 451.222656 476.3125 451.316406 476.039062 451.449219 C 475.769531 451.578125 475.515625 451.738281 475.285156 451.933594 C 475.054688 452.125 474.851562 452.34375 474.675781 452.589844 C 465.265625 465.578125 453.417969 476.808594 439.945312 485.507812 C 409.625 505.082031 370.777344 511.179688 335.925781 501.835938 C 301.070312 492.496094 270.472656 467.777344 254 435.660156 C 253.820312 435.3125 253.59375 435 253.3125 434.726562 C 253.035156 434.453125 252.71875 434.230469 252.367188 434.058594 C 252.015625 433.886719 251.648438 433.773438 251.261719 433.71875 C 250.871094 433.667969 250.488281 433.675781 250.101562 433.75 C 249.71875 433.824219 249.355469 433.953125 249.011719 434.144531 C 248.671875 434.332031 248.367188 434.570312 248.101562 434.859375 C 247.835938 435.148438 247.625 435.46875 247.464844 435.824219 C 247.300781 436.179688 247.203125 436.554688 247.160156 436.945312 C 245.582031 452.1875 237.082031 466.742188 224.582031 475.601562 C 212.078125 484.457031 195.535156 487.652344 180.636719 484.085938 C 166.414062 480.679688 153.628906 471.136719 146.316406 458.464844 C 139.003906 445.792969 137.136719 429.941406 141.296875 415.917969 C 141.382812 415.636719 141.429688 415.351562 141.445312 415.058594 C 141.457031 414.765625 141.4375 414.476562 141.382812 414.191406 C 141.324219 413.902344 141.238281 413.628906 141.113281 413.363281 C 140.992188 413.097656 140.839844 412.847656 140.65625 412.621094 C 140.476562 412.390625 140.269531 412.1875 140.035156 412.007812 C 139.804688 411.832031 139.554688 411.683594 139.289062 411.5625 C 139.023438 411.445312 138.746094 411.359375 138.457031 411.308594 C 138.167969 411.257812 137.878906 411.242188 137.589844 411.261719 C 99.792969 413.664062 61.066406 396.078125 37.988281 366.035156 C 24.355469 348.285156 15.988281 326.472656 14.25 304.152344 C 12.515625 281.832031 17.414062 258.984375 28.140625 239.339844 C 38.871094 219.695312 55.441406 203.230469 75.152344 192.632812 C 94.859375 182.035156 117.730469 177.292969 140.027344 179.183594 C 140.707031 179.242188 141.351562 179.117188 141.960938 178.8125 C 142.570312 178.503906 143.058594 178.0625 143.417969 177.480469 C 143.777344 176.902344 143.960938 176.269531 143.964844 175.585938 C 143.96875 174.90625 143.792969 174.269531 143.441406 173.6875 C 134.449219 158.804688 132.757812 139.519531 139.019531 123.300781 C 145.476562 106.582031 160.398438 93.167969 177.703125 88.53125 C 195.003906 83.890625 214.632812 88.042969 228.578125 99.292969 C 228.78125 99.457031 229 99.597656 229.234375 99.714844 C 229.46875 99.832031 229.714844 99.921875 229.96875 99.984375 C 230.222656 100.050781 230.480469 100.085938 230.742188 100.09375 C 231.003906 100.101562 231.265625 100.082031 231.523438 100.035156 C 231.78125 99.984375 232.03125 99.910156 232.273438 99.808594 C 232.511719 99.707031 232.742188 99.578125 232.953125 99.425781 C 233.167969 99.273438 233.363281 99.101562 233.542969 98.910156 C 233.71875 98.714844 233.871094 98.503906 234 98.273438 C 244.574219 79.878906 259.679688 64.074219 277.570312 52.679688 C 298.703125 39.21875 323.835938 32.164062 348.917969 32.132812 Z M 348.914062 32.132812" fill="#000000"/></g><path fill-rule="nonzero" fill-opacity="1" d="M 82.230469 429.789062 C 60.445312 429.789062 42.371094 445.492188 42.371094 465.28125 C 42.371094 485.066406 60.445312 500.769531 82.230469 500.769531 C 104.011719 500.769531 122.089844 485.066406 122.089844 465.28125 C 122.089844 445.492188 104.015625 429.789062 82.230469 429.789062 Z M 82.230469 435.839844 C 101.132812 435.839844 116.039062 449.207031 116.039062 465.28125 C 116.039062 481.351562 101.132812 494.71875 82.230469 494.71875 C 63.324219 494.71875 48.417969 481.355469 48.417969 465.28125 C 48.417969 449.207031 63.324219 435.839844 82.230469 435.839844 Z M 82.230469 435.839844" fill="#000000"/><path fill-rule="nonzero" fill-opacity="1" d="M 36.046875 504.996094 C 21.644531 504.996094 9.636719 515.398438 9.636719 528.5625 C 9.636719 541.722656 21.644531 552.128906 36.046875 552.128906 C 50.449219 552.128906 62.460938 541.722656 62.460938 528.5625 C 62.460938 515.398438 50.449219 504.996094 36.046875 504.996094 Z M 36.046875 509.835938 C 48.148438 509.835938 57.625 518.367188 57.625 528.5625 C 57.625 538.753906 48.148438 547.285156 36.046875 547.285156 C 23.949219 547.285156 14.476562 538.753906 14.476562 528.5625 C 14.476562 518.367188 23.949219 509.835938 36.046875 509.835938 Z M 36.046875 509.835938" fill="#000000"/><g clip-path="url(#f20fb0d0be)"><path fill-rule="nonzero" fill-opacity="1" d="M 20.914062 568.015625 C 9.824219 568.015625 0.585938 576.023438 0.585938 586.152344 C 0.585938 596.277344 9.824219 604.285156 20.914062 604.285156 C 32.007812 604.285156 41.246094 596.277344 41.246094 586.152344 C 41.246094 576.023438 32.007812 568.015625 20.914062 568.015625 Z M 20.914062 571.644531 C 30.28125 571.644531 37.617188 578.25 37.617188 586.152344 C 37.617188 594.050781 30.28125 600.65625 20.914062 600.65625 C 11.554688 600.65625 4.214844 594.050781 4.214844 586.152344 C 4.214844 578.25 11.554688 571.644531 20.914062 571.644531 Z M 20.914062 571.644531" fill="#000000"/></g><g clip-path="url(#f82e9bb6f4)"><path fill-rule="nonzero" fill-opacity="1" d="M 15.625 623.140625 C 7.570312 623.140625 0.875 628.953125 0.875 636.285156 C 0.875 643.621094 7.570312 649.429688 15.625 649.429688 C 23.675781 649.429688 30.375 643.621094 30.375 636.285156 C 30.375 628.953125 23.675781 623.140625 15.625 623.140625 Z M 15.625 625.5625 C 22.527344 625.5625 27.953125 630.4375 27.953125 636.285156 C 27.953125 642.136719 22.527344 647.011719 15.625 647.011719 C 8.722656 647.011719 3.292969 642.136719 3.292969 636.285156 C 3.292969 630.4375 8.722656 625.5625 15.625 625.5625 Z M 15.625 625.5625" fill="#000000"/></g><path fill-rule="nonzero" fill-opacity="1" d="M 73.527344 205.476562 C 73.042969 205.355469 72.582031 205.421875 72.152344 205.679688 C 45.621094 221.480469 26.699219 249.339844 21.777344 279.832031 C 16.148438 314.730469 29.304688 351.976562 55.601562 375.582031 C 55.78125 375.742188 55.984375 375.863281 56.210938 375.945312 C 56.4375 376.023438 56.671875 376.058594 56.910156 376.042969 C 57.152344 376.03125 57.378906 375.972656 57.597656 375.871094 C 57.8125 375.765625 58.003906 375.625 58.164062 375.445312 C 58.324219 375.265625 58.445312 375.0625 58.523438 374.835938 C 58.605469 374.609375 58.636719 374.375 58.625 374.132812 C 58.609375 373.894531 58.550781 373.664062 58.449219 373.445312 C 58.34375 373.230469 58.203125 373.042969 58.023438 372.882812 C 32.695312 350.140625 19.9375 314.023438 25.363281 280.410156 C 30.105469 251.019531 48.441406 224.027344 74.007812 208.796875 C 74.214844 208.675781 74.390625 208.515625 74.535156 208.324219 C 74.679688 208.128906 74.78125 207.917969 74.839844 207.683594 C 74.898438 207.449219 74.910156 207.214844 74.875 206.976562 C 74.839844 206.738281 74.761719 206.515625 74.640625 206.308594 C 74.382812 205.878906 74.011719 205.601562 73.527344 205.476562 Z M 73.527344 205.476562" fill="#000000"/><path fill-rule="nonzero" fill-opacity="1" d="M 350.484375 43.589844 C 345.527344 43.519531 340.570312 43.761719 335.636719 44.320312 C 299.277344 48.453125 265.332031 69.75 245.785156 100.695312 C 245.65625 100.898438 245.570312 101.117188 245.53125 101.355469 C 245.488281 101.59375 245.496094 101.828125 245.546875 102.0625 C 245.601562 102.296875 245.695312 102.511719 245.835938 102.710938 C 245.972656 102.90625 246.144531 103.070312 246.347656 103.199219 C 246.550781 103.328125 246.773438 103.410156 247.007812 103.453125 C 247.246094 103.492188 247.480469 103.488281 247.714844 103.433594 C 247.953125 103.382812 248.167969 103.285156 248.363281 103.148438 C 248.558594 103.007812 248.722656 102.835938 248.851562 102.632812 C 267.785156 72.660156 300.828125 51.929688 336.042969 47.929688 C 374.269531 43.585938 414.324219 59.234375 439.496094 88.339844 C 439.652344 88.523438 439.839844 88.667969 440.054688 88.777344 C 440.269531 88.882812 440.496094 88.945312 440.734375 88.960938 C 440.976562 88.980469 441.210938 88.949219 441.4375 88.875 C 441.667969 88.800781 441.871094 88.683594 442.054688 88.527344 C 442.234375 88.367188 442.378906 88.183594 442.488281 87.96875 C 442.597656 87.753906 442.660156 87.523438 442.675781 87.285156 C 442.691406 87.042969 442.664062 86.808594 442.589844 86.582031 C 442.511719 86.351562 442.394531 86.148438 442.238281 85.964844 C 419.496094 59.664062 385.15625 44.074219 350.484375 43.589844 Z M 350.484375 43.589844" fill="#000000"/><path fill-rule="nonzero" fill-opacity="1" d="M 590.386719 179.46875 C 590.15625 179.40625 589.921875 179.390625 589.679688 179.417969 C 589.441406 179.449219 589.21875 179.523438 589.007812 179.640625 C 588.800781 179.757812 588.621094 179.914062 588.472656 180.105469 C 588.324219 180.292969 588.21875 180.503906 588.15625 180.738281 C 588.089844 180.96875 588.074219 181.203125 588.105469 181.445312 C 588.132812 181.683594 588.207031 181.90625 588.328125 182.117188 C 588.445312 182.324219 588.597656 182.503906 588.789062 182.652344 C 588.980469 182.800781 589.1875 182.90625 589.421875 182.96875 C 606.714844 187.746094 622.546875 197.789062 634.242188 211.394531 C 645.9375 225.003906 653.488281 242.167969 655.617188 259.992188 C 657.703125 277.417969 654.601562 295.464844 646.824219 311.199219 C 639.046875 326.933594 626.59375 340.351562 611.488281 349.277344 C 611.28125 349.398438 611.101562 349.554688 610.957031 349.746094 C 610.8125 349.941406 610.710938 350.152344 610.652344 350.386719 C 610.589844 350.621094 610.578125 350.855469 610.613281 351.09375 C 610.644531 351.332031 610.722656 351.554688 610.847656 351.761719 C 610.96875 351.96875 611.125 352.144531 611.320312 352.289062 C 611.511719 352.4375 611.722656 352.539062 611.957031 352.597656 C 612.191406 352.65625 612.425781 352.671875 612.664062 352.636719 C 612.902344 352.601562 613.125 352.523438 613.332031 352.402344 C 629.058594 343.113281 641.984375 329.1875 650.078125 312.808594 C 658.175781 296.429688 661.390625 277.703125 659.222656 259.558594 C 657.007812 241.007812 649.167969 223.195312 636.996094 209.027344 C 624.816406 194.863281 608.386719 184.441406 590.386719 179.46875 Z M 590.386719 179.46875" fill="#000000"/><path fill-rule="nonzero" fill-opacity="1" d="M 266.25 437.636719 C 265.761719 437.519531 265.304688 437.589844 264.878906 437.851562 C 264.671875 437.976562 264.5 438.136719 264.355469 438.332031 C 264.214844 438.527344 264.113281 438.742188 264.058594 438.972656 C 264.003906 439.207031 263.992188 439.445312 264.03125 439.679688 C 264.066406 439.917969 264.148438 440.140625 264.273438 440.347656 C 284.878906 474.179688 322.703125 496.726562 362.253906 498.753906 C 399.703125 500.675781 437.566406 484.246094 461.757812 455.582031 C 461.914062 455.398438 462.027344 455.191406 462.101562 454.960938 C 462.171875 454.734375 462.199219 454.5 462.179688 454.257812 C 462.160156 454.019531 462.09375 453.792969 461.984375 453.578125 C 461.875 453.363281 461.726562 453.179688 461.542969 453.023438 C 461.359375 452.871094 461.152344 452.753906 460.921875 452.683594 C 460.691406 452.609375 460.457031 452.582031 460.21875 452.605469 C 459.980469 452.625 459.753906 452.6875 459.539062 452.800781 C 459.324219 452.910156 459.140625 453.058594 458.984375 453.242188 C 435.558594 481 398.703125 496.988281 362.441406 495.128906 C 324.148438 493.167969 287.324219 471.210938 267.371094 438.457031 C 267.109375 438.027344 266.738281 437.753906 266.25 437.636719 Z M 266.25 437.636719" fill="#000000"/><path fill-rule="nonzero" fill-opacity="1" d="M 514.375 67.644531 C 505.375 67.65625 496.378906 69.257812 487.957031 72.515625 C 487.730469 72.601562 487.535156 72.726562 487.359375 72.894531 C 487.183594 73.058594 487.050781 73.253906 486.953125 73.472656 C 486.855469 73.695312 486.800781 73.925781 486.796875 74.164062 C 486.792969 74.40625 486.832031 74.636719 486.917969 74.863281 C 487.003906 75.085938 487.132812 75.285156 487.296875 75.460938 C 487.464844 75.636719 487.65625 75.769531 487.875 75.867188 C 488.097656 75.964844 488.328125 76.019531 488.566406 76.023438 C 488.808594 76.03125 489.039062 75.988281 489.265625 75.902344 C 510.554688 67.671875 535.933594 70.613281 554.78125 83.492188 C 570.59375 94.296875 581.726562 111.835938 584.777344 130.75 C 584.816406 130.988281 584.898438 131.210938 585.027344 131.417969 C 585.152344 131.621094 585.3125 131.792969 585.507812 131.933594 C 585.703125 132.074219 585.917969 132.175781 586.152344 132.230469 C 586.386719 132.285156 586.621094 132.292969 586.859375 132.253906 C 587.097656 132.21875 587.320312 132.136719 587.523438 132.007812 C 587.730469 131.882812 587.902344 131.722656 588.042969 131.527344 C 588.183594 131.328125 588.28125 131.117188 588.335938 130.882812 C 588.390625 130.648438 588.402344 130.410156 588.363281 130.171875 C 585.148438 110.238281 573.492188 91.878906 556.828125 80.492188 C 544.398438 72 529.378906 67.617188 514.375 67.640625 Z M 514.375 67.644531" fill="#000000"/><path fill-rule="nonzero" fill-opacity="1" d="M 152.207031 79.296875 C 150.832031 79.972656 149.484375 80.707031 148.171875 81.5 C 135.6875 89.074219 127.089844 101.773438 122.292969 115.351562 C 117.203125 129.769531 116.070312 145.539062 119.042969 160.535156 C 119.089844 160.769531 119.179688 160.988281 119.3125 161.191406 C 119.445312 161.390625 119.613281 161.554688 119.8125 161.691406 C 120.015625 161.824219 120.230469 161.914062 120.46875 161.960938 C 120.703125 162.007812 120.941406 162.007812 121.175781 161.960938 C 121.410156 161.914062 121.628906 161.824219 121.832031 161.691406 C 122.03125 161.558594 122.199219 161.390625 122.332031 161.191406 C 122.464844 160.992188 122.558594 160.773438 122.601562 160.535156 C 122.648438 160.300781 122.648438 160.0625 122.601562 159.828125 C 119.757812 145.480469 120.847656 130.351562 125.71875 116.5625 C 130.296875 103.597656 138.480469 91.625 150.054688 84.605469 C 151.273438 83.867188 152.523438 83.1875 153.800781 82.5625 C 154.015625 82.457031 154.207031 82.3125 154.363281 82.132812 C 154.523438 81.953125 154.640625 81.75 154.722656 81.519531 C 154.800781 81.292969 154.832031 81.058594 154.816406 80.820312 C 154.800781 80.578125 154.742188 80.351562 154.636719 80.132812 C 154.53125 79.917969 154.386719 79.730469 154.207031 79.570312 C 154.027344 79.410156 153.824219 79.292969 153.597656 79.214844 C 153.367188 79.136719 153.132812 79.101562 152.894531 79.117188 C 152.652344 79.132812 152.425781 79.191406 152.210938 79.296875 Z M 152.207031 79.296875" fill="#000000"/><path fill-rule="nonzero" fill-opacity="1" d="M 600.242188 460.804688 C 600.03125 460.695312 599.804688 460.628906 599.5625 460.609375 C 599.324219 460.585938 599.089844 460.613281 598.859375 460.6875 C 598.628906 460.757812 598.421875 460.871094 598.238281 461.027344 C 598.054688 461.183594 597.90625 461.367188 597.796875 461.578125 C 592.199219 472.351562 583.550781 481.539062 573.140625 487.769531 C 562.730469 494.003906 550.546875 497.285156 538.414062 497.128906 C 523.253906 496.929688 508.492188 491.507812 494.054688 485.75 C 493.21875 485.417969 492.386719 485.085938 491.554688 484.75 C 491.332031 484.660156 491.101562 484.617188 490.859375 484.621094 C 490.621094 484.621094 490.390625 484.671875 490.167969 484.765625 C 489.945312 484.859375 489.75 484.996094 489.582031 485.167969 C 489.414062 485.339844 489.285156 485.535156 489.195312 485.757812 C 489.105469 485.984375 489.066406 486.214844 489.066406 486.453125 C 489.070312 486.695312 489.117188 486.925781 489.210938 487.148438 C 489.308594 487.371094 489.441406 487.566406 489.613281 487.734375 C 489.785156 487.902344 489.980469 488.03125 490.203125 488.121094 C 491.039062 488.453125 491.875 488.789062 492.707031 489.121094 C 507.207031 494.90625 522.378906 500.550781 538.371094 500.757812 C 551.1875 500.925781 564.007812 497.46875 575.003906 490.886719 C 586.003906 484.300781 595.105469 474.632812 601.019531 463.253906 C 601.128906 463.039062 601.195312 462.8125 601.214844 462.574219 C 601.234375 462.335938 601.210938 462.097656 601.136719 461.871094 C 601.066406 461.640625 600.953125 461.433594 600.796875 461.25 C 600.640625 461.066406 600.457031 460.917969 600.246094 460.804688 Z M 600.242188 460.804688" fill="#000000"/><path fill-rule="nonzero" fill-opacity="1" d="M 256.371094 466.71875 C 256.15625 466.613281 255.925781 466.550781 255.6875 466.53125 C 255.445312 466.515625 255.210938 466.546875 254.984375 466.621094 C 254.757812 466.699219 254.550781 466.816406 254.367188 466.976562 C 254.1875 467.132812 254.042969 467.320312 253.933594 467.535156 C 247.117188 481.234375 235.511719 492.539062 221.632812 498.984375 C 207.757812 505.429688 191.636719 507.007812 176.773438 503.375 C 163.261719 500.070312 150.792969 492.488281 141.640625 482.007812 C 141.480469 481.828125 141.292969 481.683594 141.078125 481.578125 C 140.863281 481.472656 140.636719 481.410156 140.394531 481.394531 C 140.15625 481.375 139.921875 481.40625 139.691406 481.484375 C 139.464844 481.5625 139.261719 481.679688 139.078125 481.835938 C 138.898438 481.996094 138.753906 482.179688 138.648438 482.398438 C 138.539062 482.613281 138.476562 482.839844 138.460938 483.082031 C 138.445312 483.320312 138.476562 483.554688 138.554688 483.785156 C 138.628906 484.011719 138.75 484.214844 138.90625 484.398438 C 148.5625 495.453125 161.65625 503.417969 175.914062 506.902344 C 191.59375 510.734375 208.519531 509.078125 223.160156 502.277344 C 237.804688 495.476562 249.992188 483.609375 257.183594 469.152344 C 257.292969 468.9375 257.351562 468.707031 257.371094 468.46875 C 257.386719 468.226562 257.355469 467.992188 257.28125 467.765625 C 257.203125 467.535156 257.085938 467.332031 256.929688 467.152344 C 256.769531 466.96875 256.585938 466.824219 256.367188 466.71875 Z M 256.371094 466.71875" fill="#000000"/></svg>