<svg xmlns="http://www.w3.org/2000/svg" xmlns:xlink="http://www.w3.org/1999/xlink" width="900" zoomAndPan="magnify" viewBox="0 0 675 675.000002" height="900" preserveAspectRatio="xMidYMid meet" version="1.0"><defs><clipPath id="9c85d63854"><path d="M 0.5 0 L 674.5 0 L 674.5 674 L 0.5 674 Z M 0.5 0 " clip-rule="nonzero"/></clipPath></defs><path fill="#00f4cb" d="M 337.5 608.777344 C 283.527344 608.777344 239.660156 564.910156 239.660156 510.9375 C 239.660156 456.964844 283.527344 413.097656 337.5 413.097656 C 391.472656 413.097656 435.339844 456.964844 435.339844 510.9375 C 435.339844 564.910156 391.472656 608.777344 337.5 608.777344 " fill-opacity="1" fill-rule="nonzero"/><path fill="#00f4cb" d="M 109.210938 43.484375 L 109.210938 293.515625 L 565.789062 293.515625 L 565.789062 43.484375 L 109.210938 43.484375 " fill-opacity="1" fill-rule="nonzero"/><g clip-path="url(#9c85d63854)"><path fill="#000000" d="M 652.757812 619.648438 C 652.757812 637.652344 638.152344 652.257812 620.144531 652.257812 L 587.53125 652.257812 L 587.53125 304.386719 L 620.144531 304.386719 C 638.152344 304.386719 652.757812 318.996094 652.757812 337 Z M 455.382812 623.296875 C 462.347656 627.84375 470.414062 630.515625 478.824219 630.515625 C 502.816406 630.515625 522.308594 611.027344 522.308594 587.035156 C 522.308594 569.582031 511.648438 554.335938 496.277344 547.542969 C 498.992188 535.734375 500.566406 523.546875 500.566406 510.9375 C 500.566406 420.996094 427.398438 347.871094 337.5 347.871094 C 247.601562 347.871094 174.433594 420.996094 174.433594 510.9375 C 174.433594 571.363281 207.558594 624.0625 256.476562 652.257812 L 109.210938 652.257812 L 109.210938 304.386719 L 565.789062 304.386719 L 565.789062 652.257812 L 418.523438 652.257812 C 432.152344 644.402344 444.554688 634.636719 455.382812 623.296875 Z M 337.5 652.257812 C 259.578125 652.257812 196.175781 588.859375 196.175781 510.9375 C 196.175781 433.015625 259.578125 369.613281 337.5 369.613281 C 415.421875 369.613281 478.824219 433.015625 478.824219 510.9375 C 478.824219 588.859375 415.421875 652.257812 337.5 652.257812 Z M 489.863281 568.519531 C 496.277344 572.296875 500.566406 579.21875 500.566406 587.035156 C 500.566406 599.007812 490.796875 608.777344 478.824219 608.777344 C 475.46875 608.777344 472.285156 607.96875 469.351562 606.484375 C 477.804688 594.890625 484.683594 582.148438 489.863281 568.519531 Z M 22.242188 619.648438 L 22.242188 337 C 22.242188 318.996094 36.847656 304.386719 54.855469 304.386719 L 87.46875 304.386719 L 87.46875 652.257812 L 54.855469 652.257812 C 36.847656 652.257812 22.242188 637.652344 22.242188 619.648438 Z M 285.90625 282.644531 L 221.402344 231.941406 C 205.347656 219.375 196.175781 200.433594 196.175781 180.050781 L 196.175781 174.699219 C 196.175781 138.308594 225.773438 108.710938 262.167969 108.710938 C 279.789062 108.710938 296.394531 115.589844 308.835938 128.03125 L 337.5 156.695312 L 366.164062 128.03125 C 378.605469 115.589844 395.210938 108.710938 412.832031 108.710938 C 449.226562 108.710938 478.824219 138.308594 478.824219 174.699219 L 478.824219 180.050781 C 478.824219 200.433594 469.652344 219.375 453.597656 231.941406 L 389.09375 282.644531 Z M 87.46875 21.742188 L 587.53125 21.742188 L 587.53125 282.644531 L 424.253906 282.644531 L 467.019531 249.054688 C 488.335938 232.324219 500.566406 207.144531 500.566406 180.050781 L 500.566406 174.699219 C 500.566406 126.332031 461.199219 86.96875 412.832031 86.96875 C 389.390625 86.96875 367.351562 96.097656 350.792969 112.660156 L 337.5 125.949219 L 324.207031 112.660156 C 307.648438 96.097656 285.609375 86.96875 262.167969 86.96875 C 213.800781 86.96875 174.433594 126.332031 174.433594 174.699219 L 174.433594 180.050781 C 174.433594 207.144531 186.664062 232.324219 207.980469 249.054688 L 250.746094 282.644531 L 87.46875 282.644531 Z M 620.144531 282.644531 L 609.273438 282.644531 L 609.273438 0 L 65.726562 0 L 65.726562 282.644531 L 54.855469 282.644531 C 24.875 282.644531 0.5 307.019531 0.5 337 L 0.5 619.648438 C 0.5 649.625 24.875 674 54.855469 674 L 620.144531 674 C 650.125 674 674.5 649.625 674.5 619.648438 L 674.5 337 C 674.5 307.019531 650.125 282.644531 620.144531 282.644531 " fill-opacity="1" fill-rule="nonzero"/></g><path fill="#000000" d="M 337.5 543.550781 C 319.496094 543.550781 304.886719 528.941406 304.886719 510.9375 C 304.886719 492.929688 319.496094 478.324219 337.5 478.324219 C 355.503906 478.324219 370.113281 492.929688 370.113281 510.9375 C 370.113281 528.941406 355.503906 543.550781 337.5 543.550781 Z M 337.5 456.582031 C 307.519531 456.582031 283.144531 480.957031 283.144531 510.9375 C 283.144531 540.917969 307.519531 565.292969 337.5 565.292969 C 367.480469 565.292969 391.855469 540.917969 391.855469 510.9375 C 391.855469 480.957031 367.480469 456.582031 337.5 456.582031 " fill-opacity="1" fill-rule="nonzero"/><path fill="#000000" d="M 152.691406 369.613281 L 152.691406 347.871094 L 196.175781 347.871094 L 196.175781 369.613281 Z M 196.175781 326.128906 L 152.691406 326.128906 C 140.71875 326.128906 130.949219 335.898438 130.949219 347.871094 L 130.949219 369.613281 C 130.949219 381.589844 140.71875 391.355469 152.691406 391.355469 L 196.175781 391.355469 C 208.152344 391.355469 217.917969 381.589844 217.917969 369.613281 L 217.917969 347.871094 C 217.917969 335.898438 208.152344 326.128906 196.175781 326.128906 " fill-opacity="1" fill-rule="nonzero"/><path fill="#000000" d="M 478.824219 369.613281 L 478.824219 347.871094 L 522.308594 347.871094 L 522.308594 369.613281 Z M 522.308594 326.128906 L 478.824219 326.128906 C 466.847656 326.128906 457.082031 335.898438 457.082031 347.871094 L 457.082031 369.613281 C 457.082031 381.589844 466.847656 391.355469 478.824219 391.355469 L 522.308594 391.355469 C 534.28125 391.355469 544.046875 381.589844 544.046875 369.613281 L 544.046875 347.871094 C 544.046875 335.898438 534.28125 326.128906 522.308594 326.128906 " fill-opacity="1" fill-rule="nonzero"/><path fill="#000000" d="M 130.949219 630.515625 L 152.691406 630.515625 L 152.691406 608.777344 L 130.949219 608.777344 L 130.949219 630.515625 " fill-opacity="1" fill-rule="nonzero"/><path fill="#000000" d="M 130.949219 587.035156 L 152.691406 587.035156 L 152.691406 565.292969 L 130.949219 565.292969 L 130.949219 587.035156 " fill-opacity="1" fill-rule="nonzero"/><path fill="#000000" d="M 130.949219 543.550781 L 152.691406 543.550781 L 152.691406 521.808594 L 130.949219 521.808594 L 130.949219 543.550781 " fill-opacity="1" fill-rule="nonzero"/></svg>