<svg xmlns="http://www.w3.org/2000/svg" xmlns:xlink="http://www.w3.org/1999/xlink" width="400" zoomAndPan="magnify" viewBox="0 0 300 675.000002" height="900" preserveAspectRatio="xMidYMid meet" version="1.0"><defs><clipPath id="581f98e5db"><path d="M 237 163 L 291.765625 163 L 291.765625 370 L 237 370 Z M 237 163 " clip-rule="nonzero"/></clipPath><clipPath id="93c0217900"><path d="M 8.683594 0 L 270 0 L 270 674 L 8.683594 674 Z M 8.683594 0 " clip-rule="nonzero"/></clipPath></defs><g clip-path="url(#581f98e5db)"><path fill="#00f4cb" d="M 261.058594 163.066406 L 247.640625 163.066406 C 247.386719 165.824219 246.960938 168.585938 246.410156 171.304688 L 241.609375 195.339844 C 238.679688 210.03125 237.195312 224.980469 237.195312 239.925781 C 237.195312 261.074219 240.125 282.09375 245.941406 302.390625 L 258.9375 347.871094 L 258.9375 369.613281 L 269.804688 369.613281 C 269.804688 301.671875 287.34375 216.316406 290.867188 199.96875 C 291.335938 197.886719 291.546875 195.804688 291.546875 193.554688 C 291.546875 176.738281 277.875 163.066406 261.058594 163.066406 " fill-opacity="1" fill-rule="nonzero"/></g><path fill="#00f4cb" d="M 139.355469 578.964844 C 139.355469 576.585938 139.183594 574.25 138.84375 571.832031 L 133.28125 532.933594 C 130.097656 510.597656 128.484375 487.835938 128.484375 465.285156 C 128.484375 418.832031 140.671875 372.882812 163.730469 332.542969 C 169.121094 323.15625 171.96875 312.414062 171.96875 301.585938 C 171.96875 267.144531 143.984375 239.160156 109.542969 239.160156 L 107.292969 239.160156 C 93.367188 239.160156 80.160156 244.003906 69.542969 252.027344 L 39.902344 335.046875 C 26.566406 372.289062 19.773438 411.570312 19.773438 451.1875 C 19.773438 504.777344 32.257812 557.648438 56.25 605.589844 L 60.667969 614.507812 C 62.664062 618.414062 64.871094 622.109375 67.335938 625.632812 C 74 628.777344 81.347656 630.515625 88.949219 630.515625 C 116.722656 630.515625 139.355469 607.882812 139.355469 580.113281 L 139.355469 578.964844 " fill-opacity="1" fill-rule="nonzero"/><path fill="#000000" d="M 167.296875 602.492188 L 176.640625 622.109375 C 206.832031 607.757812 226.324219 576.882812 226.324219 543.550781 L 204.582031 543.550781 C 204.582031 568.5625 189.929688 591.703125 167.296875 602.492188 " fill-opacity="1" fill-rule="nonzero"/><path fill="#000000" d="M 204.582031 521.808594 L 226.324219 521.808594 L 226.324219 500.066406 L 204.582031 500.066406 L 204.582031 521.808594 " fill-opacity="1" fill-rule="nonzero"/><g clip-path="url(#93c0217900)"><path fill="#000000" d="M 248.066406 543.550781 C 248.066406 603.46875 199.316406 652.257812 139.355469 652.257812 C 109.96875 652.257812 83.554688 635.953125 70.390625 609.667969 L 65.976562 600.75 C 42.875 554.503906 30.644531 502.824219 30.644531 451.1875 C 30.644531 412.714844 37.183594 374.878906 50.136719 338.699219 L 80.371094 253.980469 C 83.429688 245.402344 85 236.402344 85 227.273438 C 85 222.007812 84.320312 216.867188 83.300781 211.773438 C 94.085938 215.382812 105.59375 217.417969 117.613281 217.417969 C 175.195312 217.417969 222.375 172.363281 225.984375 115.632812 C 233.246094 127.265625 237.195312 140.644531 237.195312 154.65625 C 237.195312 159.539062 236.726562 164.382812 235.75 169.136719 L 230.953125 193.214844 C 227.894531 208.542969 226.324219 224.257812 226.324219 239.925781 C 226.324219 262.09375 229.378906 284.089844 235.496094 305.363281 L 248.066406 349.402344 Z M 30.644531 108.710938 C 30.644531 60.765625 69.671875 21.742188 117.613281 21.742188 C 126.785156 21.742188 135.617188 23.1875 143.898438 25.820312 L 111.921875 65.777344 C 90.648438 68.625 74.128906 86.671875 74.128906 108.710938 C 74.128906 130.75 90.648438 148.796875 111.921875 151.640625 L 143.898438 191.601562 C 135.617188 194.234375 126.785156 195.679688 117.613281 195.679688 C 69.671875 195.679688 30.644531 156.652344 30.644531 108.710938 Z M 203.816406 97.839844 L 159.566406 97.839844 C 156.339844 85.480469 147.847656 75.289062 136.59375 69.769531 L 164.152344 35.375 C 185.472656 48.960938 200.546875 71.554688 203.816406 97.839844 Z M 117.613281 86.96875 C 129.585938 86.96875 139.355469 96.734375 139.355469 108.710938 C 139.355469 120.683594 129.585938 130.453125 117.613281 130.453125 C 105.636719 130.453125 95.871094 120.683594 95.871094 108.710938 C 95.871094 96.734375 105.636719 86.96875 117.613281 86.96875 Z M 164.152344 182.046875 L 136.59375 147.648438 C 147.847656 142.128906 156.339844 131.9375 159.566406 119.582031 L 203.816406 119.582031 C 200.546875 145.867188 185.472656 168.457031 164.152344 182.046875 Z M 256.386719 299.417969 C 250.867188 280.054688 248.066406 260.054688 248.066406 239.925781 C 248.066406 225.699219 249.464844 211.390625 252.269531 197.460938 L 257.066406 173.425781 C 258.296875 167.269531 258.9375 160.941406 258.9375 154.65625 C 258.9375 129.136719 249 105.144531 230.910156 87.09375 L 221.863281 78.136719 C 208.613281 33.039062 166.914062 0 117.613281 0 C 57.695312 0 8.902344 48.75 8.902344 108.710938 C 8.902344 145.144531 26.992188 177.375 54.59375 197.121094 C 60.199219 206.210938 63.257812 216.570312 63.257812 227.273438 C 63.257812 233.9375 62.109375 240.4375 59.902344 246.679688 L 29.667969 331.351562 C 15.867188 369.910156 8.902344 410.210938 8.902344 451.1875 C 8.902344 506.136719 21.898438 561.257812 46.484375 610.472656 L 50.941406 619.390625 C 67.800781 653.066406 101.6875 674 139.355469 674 C 211.289062 674 269.804688 615.484375 269.804688 543.550781 L 269.804688 347.871094 L 256.386719 299.417969 " fill-opacity="1" fill-rule="nonzero"/></g><path fill="#000000" d="M 204.582031 250.03125 L 182.839844 250.03125 L 182.839844 271.773438 L 204.582031 271.773438 L 204.582031 250.03125 " fill-opacity="1" fill-rule="nonzero"/></svg>