<svg xmlns="http://www.w3.org/2000/svg" xmlns:xlink="http://www.w3.org/1999/xlink" width="900" zoomAndPan="magnify" viewBox="0 0 675 675.000002" height="900" preserveAspectRatio="xMidYMid meet" version="1.0"><defs><clipPath id="a1f8e033da"><path d="M 0.5 183 L 430 183 L 430 537 L 0.5 537 Z M 0.5 183 " clip-rule="nonzero"/></clipPath><clipPath id="d836c1c90c"><path d="M 245 321 L 674.5 321 L 674.5 674 L 245 674 Z M 245 321 " clip-rule="nonzero"/></clipPath></defs><path fill="#b2edef" d="M 597.910156 15.316406 L 260.910156 15.316406 C 259.90625 15.316406 258.90625 15.367188 257.90625 15.464844 C 256.90625 15.5625 255.917969 15.710938 254.933594 15.90625 C 253.949219 16.101562 252.976562 16.347656 252.015625 16.636719 C 251.054688 16.929688 250.113281 17.265625 249.183594 17.648438 C 248.257812 18.035156 247.351562 18.460938 246.46875 18.9375 C 245.582031 19.410156 244.722656 19.925781 243.886719 20.480469 C 243.054688 21.039062 242.25 21.636719 241.472656 22.273438 C 240.699219 22.910156 239.957031 23.582031 239.246094 24.292969 C 238.535156 25 237.863281 25.742188 237.226562 26.519531 C 236.589844 27.292969 235.992188 28.101562 235.4375 28.933594 C 234.878906 29.769531 234.363281 30.628906 233.890625 31.511719 C 233.417969 32.398438 232.988281 33.304688 232.605469 34.230469 C 232.21875 35.15625 231.882812 36.101562 231.589844 37.0625 C 231.300781 38.023438 231.058594 38.992188 230.859375 39.976562 C 230.664062 40.960938 230.519531 41.953125 230.421875 42.953125 C 230.320312 43.949219 230.273438 44.953125 230.273438 45.953125 L 230.273438 245.089844 C 230.273438 246.09375 230.320312 247.097656 230.421875 248.09375 C 230.519531 249.09375 230.664062 250.085938 230.859375 251.066406 C 231.058594 252.050781 231.300781 253.023438 231.589844 253.984375 C 231.882812 254.945312 232.21875 255.886719 232.605469 256.816406 C 232.988281 257.742188 233.417969 258.648438 233.890625 259.535156 C 234.363281 260.417969 234.878906 261.277344 235.4375 262.113281 C 235.992188 262.945312 236.589844 263.75 237.226562 264.527344 C 237.863281 265.300781 238.535156 266.046875 239.246094 266.753906 C 239.957031 267.464844 240.699219 268.136719 241.472656 268.773438 C 242.25 269.410156 243.054688 270.007812 243.886719 270.566406 C 244.722656 271.121094 245.582031 271.636719 246.46875 272.109375 C 247.351562 272.582031 248.257812 273.011719 249.183594 273.394531 C 250.113281 273.78125 251.054688 274.117188 252.015625 274.410156 C 252.976562 274.699219 253.949219 274.945312 254.933594 275.140625 C 255.917969 275.335938 256.90625 275.480469 257.90625 275.582031 C 258.90625 275.679688 259.90625 275.726562 260.910156 275.726562 L 372.886719 275.726562 L 427.722656 337 L 482.410156 275.726562 L 597.910156 275.726562 C 598.914062 275.726562 599.914062 275.679688 600.914062 275.582031 C 601.910156 275.480469 602.902344 275.335938 603.886719 275.140625 C 604.871094 274.945312 605.84375 274.699219 606.804688 274.410156 C 607.761719 274.117188 608.707031 273.78125 609.632812 273.394531 C 610.5625 273.011719 611.464844 272.582031 612.351562 272.109375 C 613.238281 271.636719 614.097656 271.121094 614.929688 270.566406 C 615.765625 270.007812 616.570312 269.410156 617.34375 268.773438 C 618.121094 268.136719 618.863281 267.464844 619.574219 266.753906 C 620.28125 266.046875 620.957031 265.300781 621.59375 264.527344 C 622.226562 263.75 622.824219 262.945312 623.382812 262.113281 C 623.941406 261.277344 624.457031 260.417969 624.929688 259.535156 C 625.402344 258.648438 625.828125 257.742188 626.214844 256.816406 C 626.597656 255.886719 626.9375 254.945312 627.226562 253.984375 C 627.519531 253.023438 627.761719 252.050781 627.957031 251.066406 C 628.152344 250.085938 628.300781 249.09375 628.398438 248.09375 C 628.496094 247.097656 628.546875 246.09375 628.546875 245.089844 L 628.546875 45.953125 C 628.546875 44.953125 628.496094 43.949219 628.398438 42.953125 C 628.300781 41.953125 628.152344 40.960938 627.957031 39.976562 C 627.761719 38.992188 627.519531 38.023438 627.226562 37.0625 C 626.9375 36.101562 626.597656 35.15625 626.214844 34.230469 C 625.828125 33.304688 625.402344 32.398438 624.929688 31.511719 C 624.457031 30.628906 623.941406 29.769531 623.382812 28.933594 C 622.824219 28.101562 622.226562 27.292969 621.59375 26.519531 C 620.957031 25.742188 620.28125 25 619.574219 24.292969 C 618.863281 23.582031 618.121094 22.910156 617.34375 22.273438 C 616.570312 21.636719 615.765625 21.039062 614.929688 20.480469 C 614.097656 19.925781 613.238281 19.410156 612.351562 18.9375 C 611.464844 18.460938 610.5625 18.035156 609.632812 17.648438 C 608.707031 17.265625 607.761719 16.929688 606.804688 16.636719 C 605.84375 16.347656 604.871094 16.101562 603.886719 15.90625 C 602.902344 15.710938 601.910156 15.5625 600.914062 15.464844 C 599.914062 15.367188 598.914062 15.316406 597.910156 15.316406 Z M 597.910156 15.316406 " fill-opacity="1" fill-rule="nonzero"/><path fill="#ff909d" d="M 383.453125 199.136719 L 46.453125 199.136719 C 45.449219 199.136719 44.449219 199.1875 43.449219 199.285156 C 42.453125 199.382812 41.460938 199.53125 40.476562 199.726562 C 39.492188 199.921875 38.519531 200.164062 37.5625 200.457031 C 36.601562 200.746094 35.65625 201.085938 34.730469 201.46875 C 33.804688 201.851562 32.898438 202.28125 32.011719 202.753906 C 31.128906 203.226562 30.265625 203.742188 29.433594 204.300781 C 28.597656 204.859375 27.792969 205.453125 27.019531 206.089844 C 26.242188 206.726562 25.5 207.402344 24.789062 208.109375 C 24.082031 208.820312 23.40625 209.5625 22.773438 210.335938 C 22.136719 211.113281 21.539062 211.917969 20.980469 212.753906 C 20.421875 213.585938 19.90625 214.445312 19.433594 215.332031 C 18.960938 216.214844 18.535156 217.121094 18.148438 218.050781 C 17.765625 218.976562 17.429688 219.917969 17.136719 220.878906 C 16.84375 221.839844 16.601562 222.8125 16.40625 223.796875 C 16.210938 224.78125 16.0625 225.773438 15.964844 226.769531 C 15.867188 227.769531 15.816406 228.769531 15.816406 229.773438 L 15.816406 428.910156 C 15.816406 429.914062 15.867188 430.914062 15.964844 431.914062 C 16.0625 432.910156 16.210938 433.902344 16.40625 434.886719 C 16.601562 435.871094 16.84375 436.84375 17.136719 437.804688 C 17.429688 438.761719 17.765625 439.707031 18.148438 440.632812 C 18.535156 441.5625 18.960938 442.46875 19.433594 443.351562 C 19.90625 444.238281 20.421875 445.097656 20.980469 445.929688 C 21.539062 446.765625 22.136719 447.570312 22.773438 448.34375 C 23.40625 449.121094 24.082031 449.863281 24.789062 450.574219 C 25.5 451.28125 26.242188 451.957031 27.019531 452.59375 C 27.792969 453.230469 28.597656 453.824219 29.433594 454.382812 C 30.265625 454.941406 31.128906 455.457031 32.011719 455.929688 C 32.898438 456.402344 33.804688 456.832031 34.730469 457.214844 C 35.65625 457.597656 36.601562 457.9375 37.5625 458.226562 C 38.519531 458.519531 39.492188 458.761719 40.476562 458.957031 C 41.460938 459.152344 42.453125 459.300781 43.449219 459.398438 C 44.449219 459.496094 45.449219 459.546875 46.453125 459.546875 L 158.429688 459.546875 L 213.269531 520.820312 L 267.957031 459.546875 L 383.453125 459.546875 C 384.457031 459.546875 385.460938 459.496094 386.457031 459.398438 C 387.457031 459.300781 388.449219 459.152344 389.429688 458.957031 C 390.414062 458.761719 391.386719 458.519531 392.347656 458.226562 C 393.308594 457.9375 394.25 457.597656 395.179688 457.214844 C 396.105469 456.832031 397.011719 456.402344 397.898438 455.929688 C 398.78125 455.457031 399.640625 454.941406 400.476562 454.382812 C 401.308594 453.824219 402.113281 453.230469 402.890625 452.59375 C 403.664062 451.957031 404.410156 451.28125 405.117188 450.574219 C 405.828125 449.863281 406.5 449.121094 407.136719 448.34375 C 407.773438 447.570312 408.371094 446.765625 408.929688 445.929688 C 409.484375 445.097656 410 444.238281 410.472656 443.351562 C 410.945312 442.46875 411.375 441.5625 411.757812 440.632812 C 412.144531 439.707031 412.480469 438.761719 412.773438 437.804688 C 413.0625 436.84375 413.304688 435.871094 413.503906 434.886719 C 413.699219 433.902344 413.84375 432.910156 413.945312 431.914062 C 414.042969 430.914062 414.089844 429.914062 414.089844 428.910156 L 414.089844 229.773438 C 414.089844 228.769531 414.042969 227.769531 413.945312 226.769531 C 413.84375 225.773438 413.699219 224.78125 413.503906 223.796875 C 413.308594 222.8125 413.0625 221.839844 412.773438 220.878906 C 412.480469 219.917969 412.144531 218.976562 411.757812 218.050781 C 411.375 217.121094 410.945312 216.214844 410.472656 215.332031 C 410 214.445312 409.484375 213.585938 408.929688 212.753906 C 408.371094 211.917969 407.773438 211.113281 407.136719 210.335938 C 406.5 209.5625 405.828125 208.820312 405.117188 208.109375 C 404.410156 207.402344 403.664062 206.726562 402.890625 206.089844 C 402.113281 205.453125 401.308594 204.859375 400.476562 204.300781 C 399.640625 203.742188 398.78125 203.226562 397.898438 202.753906 C 397.011719 202.28125 396.105469 201.851562 395.179688 201.46875 C 394.25 201.085938 393.308594 200.746094 392.347656 200.457031 C 391.386719 200.164062 390.414062 199.921875 389.429688 199.726562 C 388.449219 199.53125 387.457031 199.382812 386.457031 199.285156 C 385.460938 199.1875 384.457031 199.136719 383.453125 199.136719 Z M 383.453125 199.136719 " fill-opacity="1" fill-rule="nonzero"/><path fill="#f8f6f7" d="M 214.953125 424.007812 L 150.617188 359.824219 C 86.585938 295.792969 150.617188 231.613281 214.800781 295.488281 C 279.136719 231.152344 343.320312 295.488281 278.984375 359.824219 Z M 214.953125 424.007812 " fill-opacity="1" fill-rule="nonzero"/><path fill="#231f20" d="M 468.777344 306.363281 C 466.890625 306.378906 465.058594 306.058594 463.292969 305.398438 C 461.523438 304.738281 459.929688 303.785156 458.515625 302.535156 C 458.136719 302.199219 457.773438 301.847656 457.429688 301.476562 C 457.085938 301.105469 456.761719 300.722656 456.457031 300.320312 C 456.148438 299.917969 455.863281 299.5 455.601562 299.070312 C 455.335938 298.636719 455.09375 298.195312 454.871094 297.742188 C 454.652344 297.285156 454.453125 296.820312 454.28125 296.347656 C 454.105469 295.875 453.953125 295.390625 453.828125 294.902344 C 453.699219 294.414062 453.597656 293.917969 453.519531 293.421875 C 453.441406 292.921875 453.386719 292.417969 453.359375 291.914062 C 453.332031 291.410156 453.328125 290.90625 453.347656 290.402344 C 453.371094 289.894531 453.417969 289.394531 453.488281 288.894531 C 453.558594 288.390625 453.65625 287.898438 453.777344 287.40625 C 453.894531 286.914062 454.039062 286.433594 454.207031 285.957031 C 454.378906 285.480469 454.566406 285.011719 454.78125 284.554688 C 454.996094 284.097656 455.234375 283.652344 455.492188 283.214844 C 455.75 282.78125 456.03125 282.363281 456.328125 281.957031 C 456.628906 281.546875 456.949219 281.15625 457.289062 280.78125 L 470.921875 265.464844 C 471.644531 264.660156 472.445312 263.945312 473.324219 263.308594 C 474.199219 262.675781 475.132812 262.140625 476.125 261.707031 C 477.113281 261.269531 478.140625 260.945312 479.199219 260.726562 C 480.257812 260.507812 481.328125 260.402344 482.410156 260.410156 L 597.910156 260.410156 C 598.914062 260.410156 599.910156 260.3125 600.898438 260.117188 C 601.882812 259.917969 602.84375 259.628906 603.773438 259.242188 C 604.699219 258.859375 605.582031 258.386719 606.417969 257.828125 C 607.257812 257.269531 608.03125 256.632812 608.742188 255.921875 C 609.453125 255.210938 610.085938 254.4375 610.644531 253.601562 C 611.203125 252.765625 611.675781 251.882812 612.0625 250.953125 C 612.445312 250.023438 612.738281 249.066406 612.933594 248.078125 C 613.128906 247.09375 613.226562 246.097656 613.226562 245.089844 L 613.226562 45.953125 C 613.226562 44.949219 613.128906 43.953125 612.933594 42.964844 C 612.738281 41.980469 612.445312 41.023438 612.0625 40.09375 C 611.675781 39.164062 611.203125 38.28125 610.644531 37.445312 C 610.085938 36.609375 609.453125 35.835938 608.742188 35.121094 C 608.03125 34.410156 607.257812 33.777344 606.417969 33.21875 C 605.582031 32.660156 604.699219 32.1875 603.773438 31.800781 C 602.84375 31.417969 601.882812 31.128906 600.898438 30.929688 C 599.910156 30.734375 598.914062 30.636719 597.910156 30.636719 L 260.910156 30.636719 C 259.902344 30.636719 258.90625 30.734375 257.921875 30.929688 C 256.933594 31.128906 255.976562 31.417969 255.046875 31.800781 C 254.117188 32.1875 253.234375 32.660156 252.398438 33.21875 C 251.5625 33.777344 250.789062 34.410156 250.078125 35.125 C 249.367188 35.835938 248.730469 36.609375 248.171875 37.445312 C 247.613281 38.28125 247.140625 39.164062 246.757812 40.09375 C 246.371094 41.023438 246.082031 41.980469 245.886719 42.964844 C 245.6875 43.953125 245.589844 44.949219 245.589844 45.953125 L 245.589844 153.183594 C 245.589844 154.1875 245.492188 155.183594 245.296875 156.171875 C 245.101562 157.15625 244.808594 158.113281 244.425781 159.042969 C 244.039062 159.972656 243.566406 160.855469 243.007812 161.691406 C 242.449219 162.527344 241.816406 163.300781 241.105469 164.015625 C 240.394531 164.726562 239.617188 165.359375 238.78125 165.917969 C 237.945312 166.476562 237.0625 166.949219 236.132812 167.335938 C 235.207031 167.71875 234.246094 168.011719 233.261719 168.207031 C 232.273438 168.402344 231.277344 168.5 230.273438 168.5 C 229.265625 168.5 228.269531 168.402344 227.285156 168.207031 C 226.296875 168.011719 225.339844 167.71875 224.410156 167.335938 C 223.480469 166.949219 222.597656 166.476562 221.761719 165.917969 C 220.925781 165.359375 220.152344 164.726562 219.441406 164.015625 C 218.730469 163.300781 218.09375 162.527344 217.535156 161.691406 C 216.976562 160.855469 216.503906 159.972656 216.121094 159.042969 C 215.734375 158.113281 215.445312 157.15625 215.25 156.171875 C 215.050781 155.183594 214.953125 154.1875 214.953125 153.183594 L 214.953125 45.953125 C 214.953125 44.449219 215.027344 42.949219 215.175781 41.449219 C 215.324219 39.953125 215.542969 38.464844 215.835938 36.988281 C 216.132812 35.511719 216.496094 34.054688 216.933594 32.613281 C 217.371094 31.175781 217.875 29.757812 218.453125 28.367188 C 219.027344 26.976562 219.671875 25.621094 220.378906 24.292969 C 221.089844 22.964844 221.863281 21.675781 222.699219 20.421875 C 223.535156 19.171875 224.429688 17.964844 225.386719 16.800781 C 226.339844 15.636719 227.351562 14.523438 228.414062 13.460938 C 229.476562 12.394531 230.59375 11.386719 231.753906 10.429688 C 232.917969 9.476562 234.125 8.582031 235.378906 7.746094 C 236.628906 6.910156 237.917969 6.136719 239.246094 5.425781 C 240.574219 4.71875 241.933594 4.074219 243.324219 3.5 C 244.714844 2.921875 246.128906 2.414062 247.570312 1.980469 C 249.007812 1.542969 250.46875 1.175781 251.945312 0.882812 C 253.417969 0.589844 254.90625 0.367188 256.40625 0.222656 C 257.902344 0.0742188 259.402344 0 260.910156 0 L 597.910156 0 C 599.414062 0 600.917969 0.0742188 602.414062 0.222656 C 603.910156 0.367188 605.398438 0.589844 606.875 0.882812 C 608.351562 1.175781 609.808594 1.542969 611.25 1.980469 C 612.691406 2.414062 614.105469 2.921875 615.496094 3.5 C 616.886719 4.074219 618.246094 4.71875 619.574219 5.425781 C 620.898438 6.136719 622.1875 6.910156 623.441406 7.746094 C 624.691406 8.582031 625.898438 9.476562 627.0625 10.429688 C 628.226562 11.386719 629.339844 12.394531 630.40625 13.460938 C 631.46875 14.523438 632.476562 15.636719 633.433594 16.800781 C 634.386719 17.964844 635.285156 19.171875 636.121094 20.421875 C 636.957031 21.675781 637.730469 22.964844 638.4375 24.292969 C 639.148438 25.621094 639.789062 26.976562 640.367188 28.367188 C 640.941406 29.757812 641.449219 31.175781 641.886719 32.613281 C 642.324219 34.054688 642.6875 35.511719 642.980469 36.988281 C 643.273438 38.464844 643.496094 39.953125 643.644531 41.449219 C 643.789062 42.949219 643.863281 44.449219 643.863281 45.953125 L 643.863281 245.089844 C 643.863281 246.597656 643.789062 248.097656 643.644531 249.597656 C 643.496094 251.09375 643.273438 252.582031 642.980469 254.058594 C 642.6875 255.53125 642.324219 256.992188 641.886719 258.429688 C 641.449219 259.871094 640.941406 261.285156 640.367188 262.675781 C 639.789062 264.066406 639.148438 265.425781 638.4375 266.753906 C 637.730469 268.082031 636.957031 269.371094 636.121094 270.621094 C 635.285156 271.875 634.386719 273.082031 633.433594 274.246094 C 632.476562 275.40625 631.46875 276.523438 630.40625 277.585938 C 629.339844 278.652344 628.226562 279.660156 627.0625 280.613281 C 625.898438 281.570312 624.691406 282.464844 623.441406 283.300781 C 622.1875 284.136719 620.898438 284.910156 619.574219 285.621094 C 618.246094 286.328125 616.886719 286.972656 615.496094 287.546875 C 614.105469 288.125 612.691406 288.628906 611.25 289.066406 C 609.808594 289.503906 608.351562 289.871094 606.875 290.164062 C 605.398438 290.457031 603.910156 290.675781 602.414062 290.824219 C 600.917969 290.972656 599.414062 291.046875 597.910156 291.046875 L 489.304688 291.046875 L 480.113281 301.308594 C 479.398438 302.101562 478.605469 302.8125 477.742188 303.441406 C 476.875 304.070312 475.957031 304.601562 474.980469 305.035156 C 474.003906 305.472656 472.992188 305.800781 471.949219 306.023438 C 470.902344 306.25 469.847656 306.363281 468.777344 306.363281 Z M 468.777344 306.363281 " fill-opacity="1" fill-rule="nonzero"/><g clip-path="url(#a1f8e033da)"><path fill="#231f20" d="M 213.269531 536.136719 C 212.199219 536.136719 211.144531 536.023438 210.097656 535.796875 C 209.054688 535.574219 208.042969 535.246094 207.066406 534.808594 C 206.089844 534.375 205.171875 533.84375 204.304688 533.214844 C 203.441406 532.585938 202.648438 531.875 201.933594 531.082031 L 151.535156 474.863281 L 46.453125 474.863281 C 44.949219 474.863281 43.449219 474.789062 41.949219 474.644531 C 40.453125 474.496094 38.964844 474.273438 37.488281 473.980469 C 36.011719 473.6875 34.554688 473.324219 33.113281 472.886719 C 31.671875 472.449219 30.257812 471.941406 28.867188 471.367188 C 27.476562 470.789062 26.117188 470.148438 24.792969 469.4375 C 23.464844 468.730469 22.175781 467.957031 20.921875 467.121094 C 19.671875 466.285156 18.464844 465.386719 17.300781 464.433594 C 16.136719 463.480469 15.023438 462.46875 13.960938 461.40625 C 12.894531 460.339844 11.886719 459.226562 10.929688 458.0625 C 9.976562 456.898438 9.082031 455.691406 8.242188 454.441406 C 7.40625 453.191406 6.636719 451.898438 5.925781 450.574219 C 5.214844 449.246094 4.574219 447.886719 3.996094 446.496094 C 3.421875 445.105469 2.914062 443.691406 2.476562 442.25 C 2.042969 440.808594 1.675781 439.351562 1.382812 437.875 C 1.089844 436.398438 0.867188 434.914062 0.71875 433.414062 C 0.574219 431.917969 0.5 430.414062 0.5 428.910156 L 0.5 229.773438 C 0.5 228.269531 0.574219 226.765625 0.71875 225.269531 C 0.867188 223.769531 1.089844 222.285156 1.382812 220.808594 C 1.675781 219.332031 2.042969 217.875 2.476562 216.433594 C 2.914062 214.992188 3.421875 213.578125 3.996094 212.1875 C 4.574219 210.796875 5.214844 209.4375 5.925781 208.109375 C 6.636719 206.78125 7.40625 205.492188 8.242188 204.242188 C 9.082031 202.992188 9.976562 201.785156 10.929688 200.621094 C 11.886719 199.457031 12.894531 198.34375 13.960938 197.277344 C 15.023438 196.214844 16.136719 195.203125 17.300781 194.25 C 18.464844 193.296875 19.671875 192.398438 20.921875 191.5625 C 22.175781 190.726562 23.464844 189.953125 24.792969 189.246094 C 26.117188 188.535156 27.476562 187.894531 28.867188 187.316406 C 30.257812 186.742188 31.671875 186.234375 33.113281 185.796875 C 34.554688 185.359375 36.011719 184.996094 37.488281 184.703125 C 38.964844 184.40625 40.453125 184.1875 41.949219 184.039062 C 43.449219 183.890625 44.949219 183.820312 46.453125 183.820312 L 383.453125 183.820312 C 384.960938 183.820312 386.460938 183.890625 387.960938 184.039062 C 389.457031 184.1875 390.945312 184.40625 392.417969 184.703125 C 393.894531 184.996094 395.355469 185.359375 396.792969 185.796875 C 398.234375 186.234375 399.648438 186.742188 401.039062 187.316406 C 402.429688 187.894531 403.789062 188.535156 405.117188 189.246094 C 406.445312 189.953125 407.734375 190.726562 408.984375 191.5625 C 410.238281 192.398438 411.445312 193.296875 412.609375 194.25 C 413.769531 195.203125 414.886719 196.214844 415.949219 197.277344 C 417.015625 198.34375 418.023438 199.457031 418.976562 200.621094 C 419.933594 201.785156 420.828125 202.992188 421.664062 204.242188 C 422.5 205.492188 423.273438 206.78125 423.984375 208.109375 C 424.691406 209.4375 425.335938 210.796875 425.910156 212.1875 C 426.488281 213.578125 426.992188 214.992188 427.429688 216.433594 C 427.867188 217.875 428.234375 219.332031 428.527344 220.808594 C 428.820312 222.285156 429.039062 223.769531 429.1875 225.269531 C 429.335938 226.765625 429.410156 228.269531 429.410156 229.773438 L 429.410156 291.046875 C 429.410156 292.050781 429.3125 293.046875 429.113281 294.035156 C 428.917969 295.019531 428.628906 295.980469 428.242188 296.90625 C 427.859375 297.835938 427.386719 298.71875 426.828125 299.554688 C 426.269531 300.394531 425.632812 301.167969 424.921875 301.878906 C 424.210938 302.589844 423.4375 303.222656 422.601562 303.78125 C 421.765625 304.339844 420.882812 304.8125 419.953125 305.199219 C 419.023438 305.582031 418.066406 305.875 417.078125 306.070312 C 416.09375 306.265625 415.097656 306.363281 414.089844 306.363281 C 413.085938 306.363281 412.089844 306.265625 411.101562 306.070312 C 410.117188 305.875 409.160156 305.582031 408.230469 305.199219 C 407.300781 304.8125 406.417969 304.339844 405.582031 303.78125 C 404.746094 303.222656 403.96875 302.589844 403.257812 301.878906 C 402.546875 301.167969 401.914062 300.394531 401.355469 299.554688 C 400.796875 298.71875 400.324219 297.835938 399.9375 296.90625 C 399.554688 295.980469 399.261719 295.019531 399.066406 294.035156 C 398.871094 293.046875 398.773438 292.050781 398.773438 291.046875 L 398.773438 229.773438 C 398.773438 228.765625 398.675781 227.769531 398.476562 226.785156 C 398.28125 225.796875 397.992188 224.839844 397.605469 223.910156 C 397.222656 222.980469 396.75 222.097656 396.191406 221.261719 C 395.632812 220.425781 394.996094 219.652344 394.285156 218.941406 C 393.574219 218.230469 392.800781 217.59375 391.964844 217.035156 C 391.128906 216.476562 390.246094 216.007812 389.316406 215.621094 C 388.386719 215.234375 387.429688 214.945312 386.441406 214.75 C 385.457031 214.554688 384.460938 214.453125 383.453125 214.453125 L 46.453125 214.453125 C 45.449219 214.453125 44.453125 214.554688 43.464844 214.75 C 42.480469 214.945312 41.519531 215.234375 40.59375 215.621094 C 39.664062 216.007812 38.78125 216.476562 37.945312 217.035156 C 37.105469 217.59375 36.332031 218.230469 35.621094 218.941406 C 34.910156 219.652344 34.277344 220.425781 33.71875 221.261719 C 33.160156 222.097656 32.6875 222.980469 32.300781 223.910156 C 31.917969 224.839844 31.625 225.796875 31.429688 226.785156 C 31.234375 227.769531 31.136719 228.765625 31.136719 229.773438 L 31.136719 428.910156 C 31.136719 429.914062 31.234375 430.910156 31.429688 431.898438 C 31.625 432.886719 31.917969 433.84375 32.300781 434.773438 C 32.6875 435.703125 33.160156 436.585938 33.71875 437.421875 C 34.277344 438.257812 34.910156 439.03125 35.621094 439.742188 C 36.332031 440.453125 37.105469 441.085938 37.945312 441.648438 C 38.78125 442.207031 39.664062 442.675781 40.59375 443.0625 C 41.519531 443.445312 42.480469 443.738281 43.464844 443.933594 C 44.453125 444.128906 45.449219 444.226562 46.453125 444.226562 L 158.429688 444.226562 C 159.511719 444.21875 160.582031 444.324219 161.640625 444.542969 C 162.699219 444.761719 163.726562 445.089844 164.714844 445.523438 C 165.707031 445.960938 166.640625 446.496094 167.515625 447.128906 C 168.394531 447.761719 169.195312 448.480469 169.917969 449.285156 L 224.757812 510.554688 C 225.097656 510.929688 225.417969 511.320312 225.714844 511.726562 C 226.015625 512.136719 226.296875 512.554688 226.554688 512.988281 C 226.8125 513.421875 227.050781 513.871094 227.265625 514.328125 C 227.476562 514.785156 227.667969 515.25 227.835938 515.726562 C 228.003906 516.203125 228.148438 516.6875 228.269531 517.179688 C 228.390625 517.671875 228.488281 518.164062 228.558594 518.667969 C 228.628906 519.167969 228.675781 519.667969 228.695312 520.171875 C 228.71875 520.679688 228.714844 521.183594 228.6875 521.6875 C 228.65625 522.191406 228.605469 522.695312 228.527344 523.195312 C 228.449219 523.691406 228.347656 524.1875 228.21875 524.675781 C 228.09375 525.164062 227.941406 525.648438 227.765625 526.121094 C 227.59375 526.59375 227.394531 527.058594 227.171875 527.515625 C 226.953125 527.96875 226.710938 528.410156 226.445312 528.84375 C 226.179688 529.273438 225.898438 529.6875 225.589844 530.089844 C 225.285156 530.496094 224.960938 530.878906 224.617188 531.25 C 224.273438 531.621094 223.910156 531.972656 223.53125 532.308594 C 222.117188 533.558594 220.523438 534.511719 218.753906 535.171875 C 216.984375 535.832031 215.15625 536.152344 213.269531 536.136719 Z M 213.269531 536.136719 " fill-opacity="1" fill-rule="nonzero"/></g><path fill="#231f20" d="M 506 91.910156 L 306.863281 91.910156 C 305.859375 91.910156 304.863281 91.8125 303.875 91.613281 C 302.886719 91.417969 301.929688 91.128906 301 90.742188 C 300.070312 90.359375 299.191406 89.886719 298.351562 89.328125 C 297.515625 88.769531 296.742188 88.132812 296.03125 87.421875 C 295.320312 86.710938 294.6875 85.9375 294.125 85.101562 C 293.566406 84.265625 293.097656 83.382812 292.710938 82.453125 C 292.328125 81.523438 292.035156 80.566406 291.839844 79.578125 C 291.644531 78.59375 291.546875 77.597656 291.546875 76.589844 C 291.546875 75.585938 291.644531 74.589844 291.839844 73.601562 C 292.035156 72.617188 292.328125 71.660156 292.710938 70.730469 C 293.097656 69.800781 293.566406 68.917969 294.125 68.082031 C 294.6875 67.246094 295.320312 66.46875 296.03125 65.757812 C 296.742188 65.046875 297.515625 64.414062 298.351562 63.855469 C 299.191406 63.296875 300.070312 62.824219 301 62.4375 C 301.929688 62.054688 302.886719 61.761719 303.875 61.566406 C 304.863281 61.371094 305.859375 61.273438 306.863281 61.273438 L 506 61.273438 C 507.007812 61.273438 508.003906 61.371094 508.988281 61.566406 C 509.976562 61.761719 510.933594 62.054688 511.863281 62.4375 C 512.792969 62.824219 513.675781 63.296875 514.511719 63.855469 C 515.347656 64.414062 516.121094 65.046875 516.832031 65.757812 C 517.542969 66.46875 518.179688 67.246094 518.738281 68.082031 C 519.296875 68.917969 519.765625 69.800781 520.152344 70.730469 C 520.539062 71.660156 520.828125 72.617188 521.023438 73.601562 C 521.21875 74.589844 521.320312 75.585938 521.320312 76.589844 C 521.320312 77.597656 521.21875 78.59375 521.023438 79.578125 C 520.828125 80.566406 520.539062 81.523438 520.152344 82.453125 C 519.765625 83.382812 519.296875 84.265625 518.738281 85.101562 C 518.179688 85.9375 517.542969 86.710938 516.832031 87.421875 C 516.121094 88.132812 515.347656 88.769531 514.511719 89.328125 C 513.675781 89.886719 512.792969 90.359375 511.863281 90.742188 C 510.933594 91.128906 509.976562 91.417969 508.988281 91.613281 C 508.003906 91.8125 507.007812 91.910156 506 91.910156 Z M 506 91.910156 " fill-opacity="1" fill-rule="nonzero"/><path fill="#231f20" d="M 429.410156 153.183594 L 306.863281 153.183594 C 305.859375 153.183594 304.863281 153.085938 303.875 152.886719 C 302.886719 152.691406 301.929688 152.402344 301 152.015625 C 300.070312 151.632812 299.191406 151.160156 298.351562 150.601562 C 297.515625 150.042969 296.742188 149.40625 296.03125 148.695312 C 295.320312 147.984375 294.6875 147.210938 294.125 146.375 C 293.566406 145.539062 293.097656 144.65625 292.710938 143.726562 C 292.328125 142.796875 292.035156 141.839844 291.839844 140.851562 C 291.644531 139.867188 291.546875 138.871094 291.546875 137.863281 C 291.546875 136.859375 291.644531 135.863281 291.839844 134.875 C 292.035156 133.890625 292.328125 132.929688 292.710938 132 C 293.097656 131.074219 293.566406 130.191406 294.125 129.355469 C 294.6875 128.515625 295.320312 127.742188 296.03125 127.03125 C 296.742188 126.320312 297.515625 125.6875 298.351562 125.128906 C 299.191406 124.570312 300.070312 124.097656 301 123.710938 C 301.929688 123.328125 302.886719 123.035156 303.875 122.839844 C 304.863281 122.644531 305.859375 122.546875 306.863281 122.546875 L 429.410156 122.546875 C 430.414062 122.546875 431.410156 122.644531 432.398438 122.839844 C 433.382812 123.035156 434.34375 123.328125 435.269531 123.710938 C 436.199219 124.097656 437.082031 124.570312 437.917969 125.128906 C 438.757812 125.6875 439.53125 126.320312 440.242188 127.03125 C 440.953125 127.742188 441.585938 128.515625 442.144531 129.355469 C 442.703125 130.191406 443.175781 131.074219 443.5625 132 C 443.945312 132.929688 444.238281 133.890625 444.433594 134.875 C 444.628906 135.863281 444.726562 136.859375 444.726562 137.863281 C 444.726562 138.871094 444.628906 139.867188 444.433594 140.851562 C 444.238281 141.839844 443.945312 142.796875 443.5625 143.726562 C 443.175781 144.65625 442.703125 145.539062 442.144531 146.375 C 441.585938 147.210938 440.953125 147.984375 440.242188 148.695312 C 439.53125 149.40625 438.757812 150.042969 437.917969 150.601562 C 437.082031 151.160156 436.199219 151.632812 435.269531 152.015625 C 434.34375 152.402344 433.382812 152.691406 432.398438 152.886719 C 431.410156 153.085938 430.414062 153.183594 429.410156 153.183594 Z M 429.410156 153.183594 " fill-opacity="1" fill-rule="nonzero"/><path fill="#231f20" d="M 214.953125 439.328125 C 212.917969 439.339844 210.957031 438.960938 209.074219 438.1875 C 207.1875 437.417969 205.523438 436.316406 204.078125 434.882812 L 139.742188 370.699219 C 99.300781 330.261719 103.285156 289.515625 124.421875 268.835938 C 145.5625 248.15625 178.191406 245.089844 214.953125 274.808594 C 217.125 272.828125 219.394531 270.972656 221.765625 269.246094 C 224.140625 267.515625 226.601562 265.917969 229.148438 264.457031 C 231.695312 263 234.316406 261.683594 237.007812 260.507812 C 239.699219 259.335938 242.449219 258.316406 245.253906 257.445312 C 248.058594 256.574219 250.898438 255.859375 253.78125 255.300781 C 256.664062 254.742188 259.570312 254.339844 262.496094 254.101562 C 265.425781 253.859375 268.355469 253.78125 271.289062 253.863281 C 274.226562 253.945312 277.148438 254.1875 280.058594 254.589844 C 282.109375 254.992188 284.125 255.523438 286.113281 256.179688 C 288.097656 256.835938 290.035156 257.609375 291.925781 258.507812 C 293.8125 259.402344 295.640625 260.410156 297.40625 261.535156 C 299.167969 262.65625 300.855469 263.882812 302.46875 265.214844 C 304.082031 266.546875 305.601562 267.976562 307.039062 269.496094 C 308.472656 271.015625 309.808594 272.621094 311.042969 274.308594 C 312.28125 275.996094 313.40625 277.75 314.425781 279.578125 C 315.441406 281.40625 316.34375 283.285156 317.125 285.226562 C 317.5 286.160156 317.777344 287.125 317.960938 288.113281 C 318.144531 289.105469 318.230469 290.101562 318.214844 291.109375 C 318.203125 292.117188 318.089844 293.113281 317.878906 294.097656 C 317.667969 295.082031 317.367188 296.035156 316.96875 296.960938 C 316.570312 297.886719 316.082031 298.761719 315.511719 299.59375 C 314.941406 300.421875 314.292969 301.1875 313.570312 301.886719 C 312.851562 302.589844 312.066406 303.214844 311.21875 303.761719 C 310.375 304.308594 309.484375 304.765625 308.546875 305.140625 C 307.613281 305.511719 306.652344 305.789062 305.660156 305.972656 C 304.671875 306.15625 303.671875 306.242188 302.664062 306.226562 C 301.65625 306.214844 300.660156 306.101562 299.675781 305.890625 C 298.691406 305.683594 297.738281 305.378906 296.8125 304.980469 C 295.886719 304.582031 295.011719 304.097656 294.183594 303.523438 C 293.351562 302.953125 292.585938 302.304688 291.886719 301.585938 C 291.183594 300.863281 290.558594 300.078125 290.011719 299.234375 C 289.464844 298.386719 289.007812 297.496094 288.636719 296.5625 C 287.996094 294.972656 287.167969 293.492188 286.140625 292.117188 C 285.117188 290.746094 283.933594 289.53125 282.589844 288.46875 C 281.246094 287.40625 279.789062 286.535156 278.214844 285.855469 C 276.644531 285.175781 275.011719 284.710938 273.316406 284.460938 C 271.050781 284.386719 268.789062 284.445312 266.527344 284.632812 C 264.269531 284.824219 262.027344 285.140625 259.804688 285.589844 C 257.582031 286.039062 255.394531 286.617188 253.238281 287.320312 C 251.082031 288.019531 248.972656 288.847656 246.914062 289.792969 C 244.851562 290.742188 242.855469 291.804688 240.917969 292.984375 C 238.980469 294.160156 237.117188 295.449219 235.332031 296.84375 C 233.542969 298.238281 231.84375 299.730469 230.226562 301.324219 C 228.613281 302.917969 227.097656 304.597656 225.675781 306.363281 C 224.964844 307.082031 224.191406 307.722656 223.351562 308.289062 C 222.511719 308.851562 221.625 309.328125 220.691406 309.71875 C 219.757812 310.105469 218.796875 310.398438 217.804688 310.597656 C 216.8125 310.796875 215.8125 310.894531 214.800781 310.894531 C 213.789062 310.894531 212.789062 310.796875 211.796875 310.597656 C 210.804688 310.398438 209.84375 310.105469 208.910156 309.71875 C 207.976562 309.328125 207.089844 308.851562 206.25 308.289062 C 205.414062 307.722656 204.636719 307.082031 203.925781 306.363281 C 179.570312 282.007812 156.132812 280.015625 145.5625 291.046875 C 134.992188 302.074219 136.984375 325.050781 160.882812 349.410156 L 225.675781 413.59375 C 226.394531 414.304688 227.035156 415.078125 227.601562 415.917969 C 228.164062 416.757812 228.640625 417.644531 229.03125 418.578125 C 229.417969 419.511719 229.710938 420.472656 229.910156 421.464844 C 230.109375 422.457031 230.207031 423.457031 230.207031 424.46875 C 230.207031 425.480469 230.109375 426.480469 229.910156 427.472656 C 229.710938 428.464844 229.417969 429.425781 229.03125 430.359375 C 228.640625 431.292969 228.164062 432.179688 227.601562 433.015625 C 227.035156 433.855469 226.394531 434.632812 225.675781 435.34375 C 224.214844 436.675781 222.554688 437.683594 220.703125 438.375 C 218.847656 439.0625 216.929688 439.378906 214.953125 439.328125 Z M 214.953125 439.328125 " fill-opacity="1" fill-rule="nonzero"/><path fill="#f8f6f7" d="M 628.546875 337 L 291.546875 337 C 290.542969 337 289.539062 337.050781 288.542969 337.148438 C 287.542969 337.246094 286.550781 337.394531 285.570312 337.589844 C 284.585938 337.785156 283.613281 338.027344 282.652344 338.320312 C 281.691406 338.609375 280.75 338.949219 279.820312 339.332031 C 278.894531 339.71875 277.988281 340.144531 277.101562 340.617188 C 276.21875 341.089844 275.359375 341.605469 274.523438 342.164062 C 273.691406 342.722656 272.886719 343.316406 272.109375 343.953125 C 271.335938 344.589844 270.589844 345.265625 269.882812 345.972656 C 269.171875 346.683594 268.5 347.425781 267.863281 348.203125 C 267.226562 348.976562 266.628906 349.78125 266.070312 350.617188 C 265.515625 351.449219 265 352.308594 264.527344 353.195312 C 264.054688 354.082031 263.625 354.984375 263.242188 355.914062 C 262.855469 356.839844 262.519531 357.785156 262.226562 358.742188 C 261.9375 359.703125 261.695312 360.675781 261.496094 361.660156 C 261.300781 362.644531 261.15625 363.636719 261.054688 364.632812 C 260.957031 365.632812 260.910156 366.632812 260.910156 367.636719 L 260.910156 566.773438 C 260.910156 567.777344 260.957031 568.777344 261.054688 569.777344 C 261.15625 570.777344 261.300781 571.765625 261.496094 572.75 C 261.691406 573.734375 261.9375 574.707031 262.226562 575.667969 C 262.519531 576.628906 262.855469 577.570312 263.242188 578.496094 C 263.625 579.425781 264.054688 580.332031 264.527344 581.214844 C 265 582.101562 265.515625 582.960938 266.070312 583.792969 C 266.628906 584.628906 267.226562 585.433594 267.863281 586.210938 C 268.5 586.984375 269.171875 587.726562 269.882812 588.4375 C 270.589844 589.148438 271.335938 589.820312 272.109375 590.457031 C 272.886719 591.09375 273.691406 591.691406 274.523438 592.246094 C 275.359375 592.804688 276.21875 593.320312 277.101562 593.792969 C 277.988281 594.265625 278.894531 594.695312 279.820312 595.078125 C 280.75 595.460938 281.691406 595.800781 282.652344 596.089844 C 283.613281 596.382812 284.585938 596.625 285.570312 596.820312 C 286.550781 597.015625 287.542969 597.164062 288.542969 597.261719 C 289.539062 597.359375 290.542969 597.410156 291.546875 597.410156 L 403.523438 597.410156 L 458.359375 658.683594 L 513.046875 597.410156 L 628.546875 597.410156 C 629.550781 597.410156 630.550781 597.359375 631.550781 597.261719 C 632.546875 597.164062 633.539062 597.015625 634.523438 596.820312 C 635.507812 596.625 636.480469 596.382812 637.4375 596.089844 C 638.398438 595.800781 639.34375 595.460938 640.269531 595.078125 C 641.195312 594.695312 642.101562 594.265625 642.988281 593.792969 C 643.871094 593.320312 644.734375 592.804688 645.566406 592.246094 C 646.402344 591.691406 647.207031 591.09375 647.980469 590.457031 C 648.757812 589.820312 649.5 589.148438 650.210938 588.4375 C 650.917969 587.726562 651.59375 586.984375 652.226562 586.210938 C 652.863281 585.433594 653.460938 584.628906 654.019531 583.792969 C 654.578125 582.960938 655.09375 582.101562 655.566406 581.214844 C 656.039062 580.332031 656.464844 579.425781 656.851562 578.496094 C 657.234375 577.570312 657.570312 576.628906 657.863281 575.667969 C 658.15625 574.707031 658.398438 573.734375 658.59375 572.75 C 658.789062 571.765625 658.9375 570.777344 659.035156 569.777344 C 659.132812 568.777344 659.183594 567.777344 659.183594 566.773438 L 659.183594 367.636719 C 659.183594 366.632812 659.132812 365.632812 659.035156 364.632812 C 658.9375 363.636719 658.789062 362.644531 658.59375 361.660156 C 658.398438 360.675781 658.15625 359.703125 657.863281 358.742188 C 657.570312 357.785156 657.234375 356.839844 656.851562 355.914062 C 656.464844 354.984375 656.039062 354.082031 655.566406 353.195312 C 655.09375 352.308594 654.578125 351.449219 654.019531 350.617188 C 653.460938 349.78125 652.863281 348.976562 652.226562 348.203125 C 651.59375 347.425781 650.917969 346.683594 650.210938 345.972656 C 649.5 345.265625 648.757812 344.589844 647.980469 343.953125 C 647.207031 343.316406 646.402344 342.722656 645.566406 342.164062 C 644.734375 341.605469 643.871094 341.089844 642.988281 340.617188 C 642.101562 340.144531 641.195312 339.714844 640.269531 339.332031 C 639.34375 338.949219 638.398438 338.609375 637.4375 338.320312 C 636.480469 338.027344 635.507812 337.785156 634.523438 337.589844 C 633.539062 337.394531 632.546875 337.246094 631.550781 337.148438 C 630.550781 337.050781 629.550781 337 628.546875 337 Z M 628.546875 337 " fill-opacity="1" fill-rule="nonzero"/><path fill="#ffeec0" d="M 551.953125 474.863281 C 551.953125 476.367188 551.917969 477.871094 551.84375 479.375 C 551.769531 480.875 551.660156 482.375 551.511719 483.875 C 551.363281 485.371094 551.179688 486.863281 550.960938 488.351562 C 550.738281 489.839844 550.480469 491.320312 550.1875 492.796875 C 549.894531 494.269531 549.566406 495.738281 549.199219 497.195312 C 548.835938 498.65625 548.433594 500.105469 547.996094 501.542969 C 547.5625 502.984375 547.089844 504.410156 546.582031 505.828125 C 546.074219 507.246094 545.535156 508.648438 544.957031 510.035156 C 544.382812 511.425781 543.773438 512.800781 543.128906 514.160156 C 542.488281 515.519531 541.8125 516.863281 541.101562 518.191406 C 540.394531 519.515625 539.652344 520.824219 538.878906 522.117188 C 538.105469 523.40625 537.300781 524.675781 536.464844 525.925781 C 535.628906 527.175781 534.765625 528.40625 533.867188 529.613281 C 532.972656 530.824219 532.046875 532.007812 531.09375 533.171875 C 530.136719 534.335938 529.15625 535.472656 528.144531 536.585938 C 527.136719 537.703125 526.097656 538.789062 525.035156 539.855469 C 523.972656 540.917969 522.882812 541.953125 521.769531 542.964844 C 520.652344 543.976562 519.515625 544.957031 518.351562 545.910156 C 517.191406 546.867188 516.003906 547.789062 514.796875 548.6875 C 513.585938 549.582031 512.359375 550.449219 511.109375 551.285156 C 509.855469 552.121094 508.585938 552.925781 507.296875 553.699219 C 506.007812 554.472656 504.699219 555.210938 503.371094 555.921875 C 502.042969 556.628906 500.703125 557.304688 499.34375 557.949219 C 497.980469 558.59375 496.609375 559.203125 495.21875 559.777344 C 493.828125 560.351562 492.425781 560.894531 491.007812 561.402344 C 489.59375 561.90625 488.164062 562.378906 486.726562 562.816406 C 485.285156 563.253906 483.835938 563.652344 482.378906 564.019531 C 480.917969 564.386719 479.453125 564.714844 477.976562 565.007812 C 476.5 565.300781 475.019531 565.558594 473.53125 565.777344 C 472.042969 566 470.550781 566.183594 469.054688 566.332031 C 467.558594 566.480469 466.058594 566.589844 464.554688 566.664062 C 463.054688 566.738281 461.550781 566.773438 460.046875 566.773438 C 458.542969 566.773438 457.039062 566.738281 455.535156 566.664062 C 454.035156 566.589844 452.535156 566.480469 451.035156 566.332031 C 449.539062 566.183594 448.046875 566 446.558594 565.777344 C 445.070312 565.558594 443.589844 565.300781 442.113281 565.007812 C 440.640625 564.714844 439.171875 564.386719 437.714844 564.019531 C 436.253906 563.652344 434.804688 563.253906 433.367188 562.816406 C 431.925781 562.378906 430.5 561.90625 429.082031 561.402344 C 427.667969 560.894531 426.261719 560.351562 424.875 559.777344 C 423.484375 559.203125 422.109375 558.59375 420.75 557.949219 C 419.390625 557.304688 418.046875 556.628906 416.71875 555.921875 C 415.394531 555.210938 414.085938 554.472656 412.792969 553.699219 C 411.503906 552.925781 410.234375 552.121094 408.984375 551.285156 C 407.734375 550.449219 406.503906 549.582031 405.296875 548.6875 C 404.085938 547.789062 402.902344 546.867188 401.738281 545.910156 C 400.578125 544.957031 399.4375 543.976562 398.324219 542.964844 C 397.207031 541.953125 396.121094 540.917969 395.054688 539.855469 C 393.992188 538.789062 392.957031 537.703125 391.945312 536.585938 C 390.933594 535.472656 389.953125 534.335938 389 533.171875 C 388.042969 532.007812 387.121094 530.824219 386.222656 529.613281 C 385.328125 528.40625 384.460938 527.175781 383.625 525.925781 C 382.789062 524.675781 381.984375 523.40625 381.210938 522.117188 C 380.4375 520.824219 379.699219 519.515625 378.988281 518.191406 C 378.28125 516.863281 377.605469 515.519531 376.960938 514.160156 C 376.316406 512.800781 375.707031 511.425781 375.132812 510.035156 C 374.558594 508.648438 374.015625 507.246094 373.507812 505.828125 C 373.003906 504.410156 372.53125 502.984375 372.09375 501.542969 C 371.65625 500.105469 371.257812 498.65625 370.890625 497.195312 C 370.523438 495.738281 370.195312 494.269531 369.902344 492.796875 C 369.609375 491.320312 369.351562 489.839844 369.132812 488.351562 C 368.910156 486.863281 368.726562 485.371094 368.578125 483.875 C 368.429688 482.375 368.320312 480.875 368.246094 479.375 C 368.171875 477.871094 368.136719 476.367188 368.136719 474.863281 C 368.136719 473.359375 368.171875 471.855469 368.246094 470.355469 C 368.320312 468.851562 368.429688 467.351562 368.578125 465.855469 C 368.726562 464.359375 368.910156 462.867188 369.132812 461.378906 C 369.351562 459.890625 369.609375 458.410156 369.902344 456.933594 C 370.195312 455.457031 370.523438 453.992188 370.890625 452.53125 C 371.257812 451.074219 371.65625 449.625 372.09375 448.183594 C 372.53125 446.746094 373.003906 445.316406 373.507812 443.902344 C 374.015625 442.484375 374.558594 441.082031 375.132812 439.691406 C 375.707031 438.304688 376.316406 436.929688 376.960938 435.566406 C 377.605469 434.207031 378.28125 432.867188 378.988281 431.539062 C 379.699219 430.210938 380.4375 428.902344 381.210938 427.613281 C 381.984375 426.324219 382.789062 425.054688 383.625 423.800781 C 384.460938 422.550781 385.328125 421.324219 386.222656 420.113281 C 387.121094 418.90625 388.042969 417.722656 389 416.558594 C 389.953125 415.394531 390.933594 414.257812 391.945312 413.140625 C 392.957031 412.027344 393.992188 410.9375 395.054688 409.875 C 396.121094 408.8125 397.207031 407.773438 398.324219 406.765625 C 399.4375 405.753906 400.578125 404.773438 401.738281 403.816406 C 402.902344 402.863281 404.085938 401.9375 405.296875 401.042969 C 406.503906 400.144531 407.734375 399.28125 408.984375 398.445312 C 410.234375 397.609375 411.503906 396.804688 412.792969 396.03125 C 414.085938 395.257812 415.394531 394.515625 416.71875 393.808594 C 418.046875 393.097656 419.390625 392.421875 420.75 391.78125 C 422.109375 391.136719 423.484375 390.527344 424.875 389.953125 C 426.261719 389.375 427.667969 388.835938 429.082031 388.328125 C 430.5 387.820312 431.925781 387.347656 433.367188 386.914062 C 434.804688 386.476562 436.253906 386.074219 437.714844 385.710938 C 439.171875 385.34375 440.640625 385.015625 442.113281 384.722656 C 443.589844 384.429688 445.070312 384.171875 446.558594 383.949219 C 448.046875 383.730469 449.539062 383.546875 451.035156 383.398438 C 452.535156 383.25 454.035156 383.140625 455.535156 383.066406 C 457.039062 382.992188 458.542969 382.957031 460.046875 382.957031 C 461.550781 382.957031 463.054688 382.992188 464.554688 383.066406 C 466.058594 383.140625 467.558594 383.25 469.054688 383.398438 C 470.550781 383.546875 472.042969 383.730469 473.53125 383.949219 C 475.019531 384.171875 476.5 384.429688 477.976562 384.722656 C 479.453125 385.015625 480.917969 385.34375 482.378906 385.710938 C 483.835938 386.074219 485.285156 386.476562 486.726562 386.914062 C 488.164062 387.347656 489.59375 387.820312 491.007812 388.328125 C 492.425781 388.835938 493.828125 389.375 495.21875 389.953125 C 496.609375 390.527344 497.980469 391.136719 499.34375 391.78125 C 500.703125 392.421875 502.042969 393.097656 503.371094 393.808594 C 504.699219 394.515625 506.007812 395.257812 507.296875 396.03125 C 508.585938 396.804688 509.855469 397.609375 511.109375 398.445312 C 512.359375 399.28125 513.585938 400.144531 514.796875 401.042969 C 516.003906 401.9375 517.191406 402.863281 518.351562 403.816406 C 519.515625 404.773438 520.652344 405.753906 521.769531 406.765625 C 522.882812 407.773438 523.972656 408.8125 525.035156 409.875 C 526.097656 410.9375 527.136719 412.027344 528.144531 413.140625 C 529.15625 414.257812 530.136719 415.394531 531.09375 416.558594 C 532.046875 417.722656 532.972656 418.90625 533.867188 420.113281 C 534.765625 421.324219 535.628906 422.550781 536.464844 423.800781 C 537.300781 425.054688 538.105469 426.324219 538.878906 427.613281 C 539.652344 428.902344 540.394531 430.210938 541.101562 431.539062 C 541.8125 432.867188 542.488281 434.207031 543.128906 435.566406 C 543.773438 436.929688 544.382812 438.304688 544.957031 439.691406 C 545.535156 441.082031 546.074219 442.484375 546.582031 443.902344 C 547.089844 445.316406 547.5625 446.746094 547.996094 448.183594 C 548.433594 449.625 548.835938 451.074219 549.199219 452.53125 C 549.566406 453.992188 549.894531 455.457031 550.1875 456.933594 C 550.480469 458.410156 550.738281 459.890625 550.960938 461.378906 C 551.179688 462.867188 551.363281 464.359375 551.511719 465.855469 C 551.660156 467.351562 551.769531 468.851562 551.84375 470.355469 C 551.917969 471.855469 551.953125 473.359375 551.953125 474.863281 Z M 551.953125 474.863281 " fill-opacity="1" fill-rule="nonzero"/><g clip-path="url(#d836c1c90c)"><path fill="#231f20" d="M 458.359375 674 C 457.277344 674.007812 456.207031 673.90625 455.148438 673.6875 C 454.089844 673.46875 453.066406 673.140625 452.074219 672.703125 C 451.085938 672.269531 450.152344 671.734375 449.273438 671.101562 C 448.398438 670.46875 447.597656 669.75 446.871094 668.945312 L 396.78125 612.730469 L 291.546875 612.730469 C 290.039062 612.730469 288.539062 612.65625 287.039062 612.507812 C 285.542969 612.359375 284.054688 612.140625 282.578125 611.84375 C 281.105469 611.550781 279.644531 611.1875 278.207031 610.75 C 276.765625 610.3125 275.351562 609.804688 273.960938 609.230469 C 272.570312 608.65625 271.210938 608.011719 269.882812 607.300781 C 268.554688 606.59375 267.265625 605.820312 266.015625 604.984375 C 264.761719 604.148438 263.554688 603.253906 262.390625 602.296875 C 261.230469 601.34375 260.113281 600.332031 259.050781 599.269531 C 257.984375 598.203125 256.976562 597.089844 256.023438 595.925781 C 255.066406 594.765625 254.171875 593.554688 253.335938 592.304688 C 252.5 591.054688 251.726562 589.765625 251.015625 588.4375 C 250.308594 587.109375 249.664062 585.75 249.089844 584.359375 C 248.511719 582.96875 248.007812 581.554688 247.570312 580.113281 C 247.132812 578.671875 246.765625 577.214844 246.472656 575.738281 C 246.179688 574.261719 245.960938 572.777344 245.8125 571.277344 C 245.664062 569.78125 245.589844 568.277344 245.589844 566.773438 L 245.589844 367.636719 C 245.589844 366.132812 245.664062 364.628906 245.8125 363.132812 C 245.960938 361.636719 246.179688 360.148438 246.472656 358.671875 C 246.765625 357.195312 247.132812 355.738281 247.570312 354.296875 C 248.007812 352.855469 248.511719 351.441406 249.089844 350.050781 C 249.664062 348.660156 250.308594 347.300781 251.015625 345.972656 C 251.726562 344.648438 252.5 343.359375 253.335938 342.105469 C 254.171875 340.855469 255.066406 339.648438 256.023438 338.484375 C 256.976562 337.320312 257.984375 336.207031 259.050781 335.140625 C 260.113281 334.078125 261.230469 333.070312 262.390625 332.113281 C 263.554688 331.160156 264.761719 330.261719 266.015625 329.425781 C 267.265625 328.589844 268.554688 327.816406 269.882812 327.109375 C 271.210938 326.398438 272.570312 325.757812 273.960938 325.179688 C 275.351562 324.605469 276.765625 324.097656 278.207031 323.660156 C 279.644531 323.222656 281.105469 322.859375 282.578125 322.566406 C 284.054688 322.273438 285.542969 322.050781 287.042969 321.902344 C 288.539062 321.757812 290.039062 321.683594 291.546875 321.683594 L 628.546875 321.683594 C 630.050781 321.683594 631.550781 321.757812 633.050781 321.902344 C 634.546875 322.050781 636.035156 322.273438 637.511719 322.566406 C 638.988281 322.859375 640.445312 323.222656 641.886719 323.660156 C 643.328125 324.097656 644.742188 324.605469 646.132812 325.179688 C 647.523438 325.757812 648.882812 326.398438 650.210938 327.109375 C 651.535156 327.816406 652.824219 328.589844 654.078125 329.425781 C 655.328125 330.261719 656.535156 331.160156 657.699219 332.113281 C 658.863281 333.070312 659.976562 334.078125 661.039062 335.140625 C 662.105469 336.207031 663.113281 337.320312 664.070312 338.484375 C 665.023438 339.648438 665.917969 340.855469 666.757812 342.105469 C 667.59375 343.359375 668.363281 344.648438 669.074219 345.972656 C 669.785156 347.300781 670.425781 348.660156 671.003906 350.050781 C 671.578125 351.441406 672.085938 352.855469 672.523438 354.296875 C 672.957031 355.738281 673.324219 357.195312 673.617188 358.671875 C 673.910156 360.148438 674.132812 361.636719 674.28125 363.132812 C 674.425781 364.628906 674.5 366.132812 674.5 367.636719 L 674.5 566.773438 C 674.5 568.277344 674.425781 569.78125 674.28125 571.277344 C 674.132812 572.777344 673.910156 574.261719 673.617188 575.738281 C 673.324219 577.214844 672.957031 578.671875 672.523438 580.113281 C 672.085938 581.554688 671.578125 582.96875 671.003906 584.359375 C 670.425781 585.75 669.785156 587.109375 669.074219 588.4375 C 668.363281 589.765625 667.59375 591.054688 666.757812 592.304688 C 665.917969 593.554688 665.023438 594.765625 664.070312 595.925781 C 663.113281 597.089844 662.105469 598.203125 661.039062 599.269531 C 659.976562 600.332031 658.863281 601.34375 657.699219 602.296875 C 656.535156 603.253906 655.328125 604.148438 654.078125 604.984375 C 652.824219 605.820312 651.535156 606.59375 650.207031 607.300781 C 648.882812 608.011719 647.523438 608.65625 646.132812 609.230469 C 644.742188 609.804688 643.328125 610.3125 641.886719 610.75 C 640.445312 611.1875 638.988281 611.550781 637.511719 611.84375 C 636.035156 612.140625 634.546875 612.359375 633.050781 612.507812 C 631.550781 612.65625 630.050781 612.730469 628.546875 612.730469 L 519.941406 612.730469 L 469.695312 668.945312 C 468.980469 669.738281 468.191406 670.449219 467.324219 671.078125 C 466.460938 671.707031 465.539062 672.238281 464.5625 672.671875 C 463.585938 673.109375 462.578125 673.4375 461.53125 673.660156 C 460.488281 673.886719 459.429688 674 458.359375 674 Z M 291.546875 352.320312 C 290.539062 352.320312 289.542969 352.417969 288.558594 352.613281 C 287.570312 352.808594 286.613281 353.101562 285.683594 353.484375 C 284.753906 353.871094 283.871094 354.339844 283.035156 354.902344 C 282.199219 355.460938 281.425781 356.09375 280.714844 356.804688 C 280.003906 357.515625 279.367188 358.289062 278.808594 359.125 C 278.25 359.964844 277.777344 360.847656 277.394531 361.773438 C 277.007812 362.703125 276.71875 363.664062 276.523438 364.648438 C 276.324219 365.636719 276.226562 366.632812 276.226562 367.636719 L 276.226562 566.773438 C 276.226562 567.78125 276.324219 568.777344 276.519531 569.761719 C 276.71875 570.75 277.007812 571.707031 277.394531 572.636719 C 277.777344 573.566406 278.25 574.449219 278.808594 575.285156 C 279.367188 576.121094 280.003906 576.894531 280.714844 577.605469 C 281.425781 578.316406 282.199219 578.953125 283.035156 579.511719 C 283.871094 580.070312 284.753906 580.542969 285.683594 580.925781 C 286.613281 581.3125 287.570312 581.601562 288.558594 581.796875 C 289.542969 581.992188 290.539062 582.09375 291.546875 582.09375 L 403.523438 582.09375 C 404.601562 582.082031 405.671875 582.1875 406.734375 582.40625 C 407.792969 582.625 408.816406 582.953125 409.808594 583.390625 C 410.796875 583.824219 411.730469 584.359375 412.609375 584.992188 C 413.484375 585.625 414.285156 586.34375 415.011719 587.148438 L 458.359375 635.707031 L 501.558594 587.148438 C 502.28125 586.34375 503.082031 585.625 503.960938 584.992188 C 504.835938 584.359375 505.769531 583.824219 506.761719 583.390625 C 507.75 582.953125 508.777344 582.625 509.835938 582.40625 C 510.894531 582.1875 511.964844 582.082031 513.046875 582.09375 L 628.546875 582.09375 C 629.550781 582.09375 630.546875 581.992188 631.535156 581.796875 C 632.519531 581.601562 633.480469 581.3125 634.40625 580.925781 C 635.335938 580.542969 636.21875 580.070312 637.054688 579.511719 C 637.894531 578.953125 638.667969 578.316406 639.378906 577.605469 C 640.089844 576.894531 640.722656 576.121094 641.28125 575.285156 C 641.839844 574.449219 642.3125 573.566406 642.699219 572.636719 C 643.082031 571.707031 643.375 570.75 643.570312 569.761719 C 643.765625 568.777344 643.863281 567.78125 643.863281 566.773438 L 643.863281 367.636719 C 643.863281 366.632812 643.765625 365.636719 643.570312 364.648438 C 643.375 363.664062 643.082031 362.703125 642.699219 361.773438 C 642.3125 360.847656 641.839844 359.964844 641.28125 359.125 C 640.722656 358.289062 640.089844 357.515625 639.378906 356.804688 C 638.667969 356.09375 637.894531 355.460938 637.054688 354.902344 C 636.21875 354.339844 635.335938 353.871094 634.40625 353.484375 C 633.480469 353.101562 632.519531 352.808594 631.535156 352.613281 C 630.546875 352.417969 629.550781 352.320312 628.546875 352.320312 Z M 291.546875 352.320312 " fill-opacity="1" fill-rule="nonzero"/></g><path fill="#231f20" d="M 460.046875 582.09375 C 458.289062 582.09375 456.535156 582.050781 454.785156 581.964844 C 453.03125 581.875 451.28125 581.746094 449.535156 581.574219 C 447.789062 581.402344 446.046875 581.1875 444.3125 580.929688 C 442.578125 580.675781 440.847656 580.375 439.125 580.03125 C 437.40625 579.6875 435.695312 579.304688 433.992188 578.878906 C 432.289062 578.453125 430.597656 577.984375 428.917969 577.476562 C 427.238281 576.964844 425.574219 576.414062 423.921875 575.824219 C 422.269531 575.234375 420.632812 574.601562 419.011719 573.929688 C 417.390625 573.257812 415.785156 572.546875 414.199219 571.796875 C 412.613281 571.046875 411.046875 570.257812 409.5 569.429688 C 407.953125 568.605469 406.425781 567.738281 404.917969 566.835938 C 403.414062 565.933594 401.933594 564.996094 400.472656 564.019531 C 399.015625 563.046875 397.578125 562.035156 396.171875 560.992188 C 394.761719 559.945312 393.378906 558.867188 392.019531 557.753906 C 390.664062 556.640625 389.335938 555.492188 388.035156 554.316406 C 386.734375 553.136719 385.464844 551.925781 384.222656 550.6875 C 382.984375 549.445312 381.773438 548.175781 380.59375 546.875 C 379.417969 545.574219 378.269531 544.246094 377.15625 542.890625 C 376.042969 541.53125 374.964844 540.148438 373.917969 538.738281 C 372.875 537.332031 371.863281 535.894531 370.890625 534.4375 C 369.914062 532.976562 368.976562 531.496094 368.074219 529.992188 C 367.171875 528.484375 366.308594 526.960938 365.480469 525.410156 C 364.652344 523.863281 363.863281 522.296875 363.113281 520.710938 C 362.363281 519.125 361.652344 517.519531 360.980469 515.898438 C 360.308594 514.277344 359.675781 512.640625 359.085938 510.988281 C 358.496094 509.335938 357.945312 507.671875 357.433594 505.992188 C 356.925781 504.3125 356.457031 502.621094 356.03125 500.917969 C 355.605469 499.214844 355.222656 497.503906 354.878906 495.785156 C 354.535156 494.0625 354.234375 492.335938 353.980469 490.597656 C 353.722656 488.863281 353.507812 487.121094 353.335938 485.375 C 353.164062 483.628906 353.035156 481.878906 352.949219 480.125 C 352.859375 478.375 352.816406 476.621094 352.816406 474.863281 C 352.816406 473.109375 352.859375 471.355469 352.949219 469.601562 C 353.035156 467.851562 353.164062 466.101562 353.335938 464.355469 C 353.507812 462.609375 353.722656 460.867188 353.980469 459.132812 C 354.234375 457.394531 354.535156 455.667969 354.878906 453.945312 C 355.222656 452.222656 355.605469 450.511719 356.03125 448.808594 C 356.457031 447.109375 356.925781 445.417969 357.433594 443.738281 C 357.945312 442.058594 358.496094 440.394531 359.085938 438.742188 C 359.675781 437.089844 360.308594 435.453125 360.980469 433.832031 C 361.652344 432.210938 362.363281 430.605469 363.113281 429.019531 C 363.863281 427.433594 364.652344 425.867188 365.480469 424.316406 C 366.308594 422.769531 367.171875 421.242188 368.074219 419.738281 C 368.976562 418.234375 369.914062 416.75 370.890625 415.292969 C 371.863281 413.832031 372.875 412.398438 373.917969 410.988281 C 374.964844 409.578125 376.042969 408.195312 377.15625 406.839844 C 378.269531 405.484375 379.417969 404.15625 380.59375 402.855469 C 381.773438 401.554688 382.984375 400.285156 384.222656 399.042969 C 385.464844 397.800781 386.734375 396.59375 388.035156 395.414062 C 389.335938 394.234375 390.664062 393.089844 392.019531 391.976562 C 393.378906 390.863281 394.761719 389.785156 396.171875 388.738281 C 397.578125 387.691406 399.015625 386.683594 400.472656 385.707031 C 401.933594 384.734375 403.414062 383.792969 404.917969 382.890625 C 406.425781 381.992188 407.953125 381.125 409.5 380.296875 C 411.046875 379.472656 412.613281 378.683594 414.199219 377.933594 C 415.785156 377.183594 417.390625 376.472656 419.011719 375.800781 C 420.632812 375.128906 422.269531 374.496094 423.921875 373.90625 C 425.574219 373.3125 427.238281 372.765625 428.917969 372.253906 C 430.597656 371.746094 432.289062 371.277344 433.992188 370.851562 C 435.695312 370.425781 437.40625 370.039062 439.125 369.699219 C 440.847656 369.355469 442.578125 369.054688 444.3125 368.796875 C 446.046875 368.539062 447.789062 368.324219 449.535156 368.152344 C 451.28125 367.980469 453.03125 367.851562 454.785156 367.765625 C 456.535156 367.679688 458.289062 367.636719 460.046875 367.636719 C 461.800781 367.636719 463.554688 367.679688 465.308594 367.765625 C 467.058594 367.851562 468.808594 367.980469 470.554688 368.152344 C 472.300781 368.324219 474.042969 368.539062 475.777344 368.796875 C 477.515625 369.054688 479.242188 369.355469 480.964844 369.699219 C 482.6875 370.039062 484.398438 370.425781 486.101562 370.851562 C 487.800781 371.277344 489.492188 371.746094 491.171875 372.253906 C 492.851562 372.765625 494.515625 373.3125 496.167969 373.90625 C 497.820312 374.496094 499.457031 375.128906 501.078125 375.800781 C 502.699219 376.472656 504.304688 377.183594 505.890625 377.933594 C 507.476562 378.683594 509.042969 379.472656 510.59375 380.296875 C 512.140625 381.125 513.667969 381.992188 515.171875 382.890625 C 516.675781 383.792969 518.160156 384.734375 519.617188 385.707031 C 521.078125 386.683594 522.511719 387.691406 523.921875 388.738281 C 525.332031 389.785156 526.714844 390.863281 528.070312 391.976562 C 529.425781 393.089844 530.753906 394.234375 532.054688 395.414062 C 533.355469 396.59375 534.625 397.800781 535.867188 399.042969 C 537.109375 400.285156 538.316406 401.554688 539.496094 402.855469 C 540.675781 404.15625 541.820312 405.484375 542.933594 406.839844 C 544.046875 408.195312 545.125 409.578125 546.171875 410.988281 C 547.21875 412.398438 548.226562 413.832031 549.203125 415.292969 C 550.175781 416.75 551.117188 418.234375 552.019531 419.738281 C 552.921875 421.242188 553.785156 422.769531 554.613281 424.316406 C 555.4375 425.867188 556.226562 427.433594 556.976562 429.019531 C 557.726562 430.605469 558.4375 432.210938 559.109375 433.832031 C 559.78125 435.453125 560.414062 437.089844 561.003906 438.742188 C 561.597656 440.394531 562.148438 442.058594 562.65625 443.738281 C 563.164062 445.417969 563.632812 447.109375 564.058594 448.808594 C 564.484375 450.511719 564.871094 452.222656 565.210938 453.945312 C 565.554688 455.667969 565.855469 457.394531 566.113281 459.132812 C 566.371094 460.867188 566.585938 462.609375 566.757812 464.355469 C 566.929688 466.101562 567.058594 467.851562 567.144531 469.601562 C 567.230469 471.355469 567.273438 473.109375 567.273438 474.863281 C 567.273438 476.621094 567.230469 478.375 567.144531 480.125 C 567.058594 481.878906 566.929688 483.628906 566.757812 485.375 C 566.585938 487.121094 566.371094 488.863281 566.113281 490.597656 C 565.855469 492.335938 565.554688 494.0625 565.210938 495.785156 C 564.871094 497.503906 564.484375 499.214844 564.058594 500.917969 C 563.632812 502.621094 563.164062 504.3125 562.65625 505.992188 C 562.148438 507.671875 561.597656 509.335938 561.003906 510.988281 C 560.414062 512.640625 559.78125 514.277344 559.109375 515.898438 C 558.4375 517.519531 557.726562 519.125 556.976562 520.710938 C 556.226562 522.296875 555.4375 523.863281 554.613281 525.410156 C 553.785156 526.960938 552.921875 528.484375 552.019531 529.992188 C 551.117188 531.496094 550.175781 532.976562 549.203125 534.4375 C 548.226562 535.894531 547.21875 537.332031 546.171875 538.738281 C 545.125 540.148438 544.046875 541.53125 542.933594 542.890625 C 541.820312 544.246094 540.675781 545.574219 539.496094 546.875 C 538.316406 548.175781 537.109375 549.445312 535.867188 550.6875 C 534.625 551.925781 533.355469 553.136719 532.054688 554.316406 C 530.753906 555.492188 529.425781 556.640625 528.070312 557.753906 C 526.714844 558.867188 525.332031 559.945312 523.921875 560.992188 C 522.511719 562.035156 521.078125 563.046875 519.617188 564.019531 C 518.160156 564.996094 516.675781 565.933594 515.171875 566.835938 C 513.667969 567.738281 512.140625 568.605469 510.59375 569.429688 C 509.042969 570.257812 507.476562 571.046875 505.890625 571.796875 C 504.304688 572.546875 502.699219 573.257812 501.078125 573.929688 C 499.457031 574.601562 497.820312 575.234375 496.167969 575.824219 C 494.515625 576.414062 492.851562 576.964844 491.171875 577.476562 C 489.492188 577.984375 487.800781 578.453125 486.101562 578.878906 C 484.398438 579.304688 482.6875 579.6875 480.964844 580.03125 C 479.242188 580.375 477.515625 580.675781 475.777344 580.929688 C 474.042969 581.1875 472.300781 581.402344 470.554688 581.574219 C 468.808594 581.746094 467.058594 581.875 465.308594 581.964844 C 463.554688 582.050781 461.800781 582.09375 460.046875 582.09375 Z M 460.046875 398.273438 C 458.792969 398.273438 457.539062 398.304688 456.289062 398.367188 C 455.035156 398.425781 453.785156 398.519531 452.539062 398.640625 C 451.292969 398.765625 450.046875 398.917969 448.808594 399.101562 C 447.566406 399.285156 446.332031 399.5 445.101562 399.746094 C 443.875 399.988281 442.652344 400.265625 441.433594 400.570312 C 440.21875 400.875 439.011719 401.207031 437.8125 401.570312 C 436.613281 401.933594 435.421875 402.328125 434.242188 402.75 C 433.0625 403.171875 431.894531 403.625 430.734375 404.105469 C 429.578125 404.582031 428.433594 405.089844 427.296875 405.628906 C 426.164062 406.164062 425.046875 406.726562 423.941406 407.316406 C 422.835938 407.910156 421.746094 408.527344 420.671875 409.171875 C 419.59375 409.816406 418.535156 410.484375 417.492188 411.179688 C 416.453125 411.878906 415.425781 412.597656 414.421875 413.347656 C 413.414062 414.09375 412.425781 414.863281 411.457031 415.660156 C 410.488281 416.453125 409.539062 417.273438 408.609375 418.113281 C 407.679688 418.957031 406.773438 419.820312 405.886719 420.707031 C 405 421.59375 404.136719 422.5 403.296875 423.429688 C 402.453125 424.359375 401.636719 425.308594 400.839844 426.277344 C 400.042969 427.246094 399.273438 428.234375 398.527344 429.238281 C 397.78125 430.246094 397.058594 431.269531 396.363281 432.3125 C 395.667969 433.355469 394.996094 434.414062 394.351562 435.488281 C 393.707031 436.5625 393.089844 437.65625 392.5 438.761719 C 391.90625 439.867188 391.34375 440.984375 390.808594 442.117188 C 390.273438 443.25 389.765625 444.394531 389.285156 445.554688 C 388.804688 446.710938 388.355469 447.882812 387.933594 449.0625 C 387.507812 450.242188 387.117188 451.433594 386.753906 452.632812 C 386.390625 453.832031 386.054688 455.039062 385.75 456.253906 C 385.445312 457.46875 385.171875 458.691406 384.925781 459.921875 C 384.683594 461.152344 384.46875 462.386719 384.285156 463.625 C 384.101562 464.867188 383.945312 466.109375 383.824219 467.359375 C 383.699219 468.605469 383.609375 469.855469 383.546875 471.105469 C 383.484375 472.359375 383.453125 473.609375 383.453125 474.863281 C 383.453125 476.117188 383.484375 477.371094 383.546875 478.621094 C 383.609375 479.875 383.699219 481.125 383.824219 482.371094 C 383.945312 483.621094 384.101562 484.863281 384.285156 486.101562 C 384.46875 487.34375 384.683594 488.578125 384.925781 489.808594 C 385.171875 491.035156 385.445312 492.257812 385.75 493.476562 C 386.054688 494.691406 386.390625 495.898438 386.753906 497.097656 C 387.117188 498.296875 387.507812 499.488281 387.933594 500.667969 C 388.355469 501.847656 388.804688 503.015625 389.285156 504.175781 C 389.765625 505.332031 390.273438 506.476562 390.808594 507.613281 C 391.34375 508.746094 391.90625 509.863281 392.5 510.96875 C 393.089844 512.074219 393.707031 513.164062 394.351562 514.242188 C 394.996094 515.316406 395.667969 516.375 396.363281 517.417969 C 397.058594 518.457031 397.78125 519.484375 398.527344 520.488281 C 399.273438 521.496094 400.042969 522.484375 400.839844 523.453125 C 401.636719 524.421875 402.453125 525.371094 403.296875 526.300781 C 404.136719 527.230469 405 528.136719 405.886719 529.023438 C 406.773438 529.910156 407.679688 530.773438 408.609375 531.613281 C 409.539062 532.457031 410.488281 533.273438 411.457031 534.070312 C 412.425781 534.867188 413.414062 535.636719 414.421875 536.382812 C 415.425781 537.128906 416.453125 537.851562 417.492188 538.546875 C 418.535156 539.246094 419.59375 539.914062 420.671875 540.558594 C 421.746094 541.203125 422.835938 541.820312 423.941406 542.410156 C 425.046875 543.003906 426.164062 543.566406 427.296875 544.101562 C 428.433594 544.636719 429.578125 545.144531 430.734375 545.625 C 431.894531 546.105469 433.0625 546.554688 434.242188 546.976562 C 435.421875 547.402344 436.613281 547.792969 437.8125 548.15625 C 439.011719 548.523438 440.21875 548.855469 441.433594 549.160156 C 442.652344 549.464844 443.875 549.738281 445.101562 549.984375 C 446.332031 550.230469 447.566406 550.441406 448.808594 550.625 C 450.046875 550.8125 451.292969 550.964844 452.539062 551.085938 C 453.785156 551.210938 455.035156 551.300781 456.289062 551.363281 C 457.539062 551.425781 458.792969 551.457031 460.046875 551.457031 C 461.300781 551.457031 462.550781 551.425781 463.804688 551.363281 C 465.054688 551.300781 466.304688 551.210938 467.554688 551.085938 C 468.800781 550.964844 470.042969 550.8125 471.285156 550.625 C 472.523438 550.441406 473.757812 550.230469 474.988281 549.984375 C 476.21875 549.738281 477.441406 549.464844 478.65625 549.160156 C 479.871094 548.855469 481.078125 548.523438 482.277344 548.15625 C 483.476562 547.792969 484.667969 547.402344 485.847656 546.976562 C 487.027344 546.554688 488.199219 546.105469 489.355469 545.625 C 490.515625 545.144531 491.660156 544.636719 492.792969 544.101562 C 493.925781 543.566406 495.046875 543.003906 496.152344 542.410156 C 497.257812 541.820312 498.347656 541.203125 499.421875 540.558594 C 500.496094 539.914062 501.554688 539.246094 502.597656 538.546875 C 503.640625 537.851562 504.664062 537.128906 505.671875 536.382812 C 506.675781 535.636719 507.664062 534.867188 508.632812 534.070312 C 509.601562 533.273438 510.550781 532.457031 511.480469 531.613281 C 512.410156 530.773438 513.316406 529.910156 514.203125 529.023438 C 515.089844 528.136719 515.953125 527.230469 516.796875 526.300781 C 517.636719 525.371094 518.457031 524.421875 519.25 523.453125 C 520.046875 522.484375 520.816406 521.496094 521.5625 520.488281 C 522.3125 519.484375 523.03125 518.457031 523.730469 517.417969 C 524.425781 516.375 525.09375 515.316406 525.738281 514.242188 C 526.382812 513.164062 527.003906 512.074219 527.59375 510.96875 C 528.183594 509.863281 528.746094 508.746094 529.28125 507.613281 C 529.820312 506.476562 530.328125 505.332031 530.804688 504.175781 C 531.285156 503.015625 531.738281 501.847656 532.160156 500.667969 C 532.582031 499.488281 532.976562 498.296875 533.339844 497.097656 C 533.703125 495.898438 534.035156 494.691406 534.339844 493.476562 C 534.644531 492.257812 534.921875 491.035156 535.164062 489.808594 C 535.410156 488.578125 535.625 487.34375 535.808594 486.101562 C 535.992188 484.863281 536.144531 483.621094 536.269531 482.371094 C 536.390625 481.125 536.484375 479.875 536.542969 478.621094 C 536.605469 477.371094 536.636719 476.117188 536.636719 474.863281 C 536.636719 473.609375 536.605469 472.359375 536.542969 471.105469 C 536.484375 469.855469 536.390625 468.605469 536.269531 467.359375 C 536.144531 466.109375 535.992188 464.867188 535.808594 463.625 C 535.625 462.386719 535.410156 461.152344 535.164062 459.921875 C 534.921875 458.691406 534.644531 457.46875 534.339844 456.253906 C 534.035156 455.039062 533.703125 453.832031 533.339844 452.632812 C 532.976562 451.433594 532.582031 450.242188 532.160156 449.0625 C 531.738281 447.882812 531.285156 446.710938 530.804688 445.554688 C 530.328125 444.394531 529.820312 443.25 529.285156 442.117188 C 528.746094 440.984375 528.183594 439.867188 527.59375 438.761719 C 527.003906 437.65625 526.382812 436.5625 525.738281 435.488281 C 525.09375 434.414062 524.425781 433.355469 523.730469 432.3125 C 523.03125 431.269531 522.3125 430.246094 521.5625 429.238281 C 520.816406 428.234375 520.046875 427.246094 519.25 426.277344 C 518.457031 425.308594 517.636719 424.359375 516.796875 423.429688 C 515.953125 422.5 515.089844 421.59375 514.203125 420.707031 C 513.316406 419.820312 512.410156 418.957031 511.480469 418.113281 C 510.550781 417.273438 509.601562 416.453125 508.632812 415.660156 C 507.664062 414.863281 506.675781 414.09375 505.671875 413.347656 C 504.664062 412.597656 503.640625 411.878906 502.597656 411.179688 C 501.554688 410.484375 500.496094 409.816406 499.421875 409.171875 C 498.347656 408.527344 497.257812 407.910156 496.152344 407.316406 C 495.046875 406.726562 493.925781 406.164062 492.792969 405.628906 C 491.660156 405.089844 490.515625 404.582031 489.355469 404.105469 C 488.199219 403.625 487.027344 403.171875 485.847656 402.75 C 484.667969 402.328125 483.476562 401.933594 482.277344 401.570312 C 481.078125 401.207031 479.871094 400.875 478.65625 400.570312 C 477.441406 400.265625 476.21875 399.988281 474.988281 399.746094 C 473.757812 399.5 472.523438 399.285156 471.285156 399.101562 C 470.042969 398.917969 468.800781 398.765625 467.554688 398.640625 C 466.304688 398.519531 465.054688 398.425781 463.804688 398.367188 C 462.550781 398.304688 461.300781 398.273438 460.046875 398.273438 Z M 460.046875 398.273438 " fill-opacity="1" fill-rule="nonzero"/><path fill="#231f20" d="M 460.046875 528.476562 C 458.539062 528.476562 457.039062 528.40625 455.542969 528.257812 C 454.042969 528.109375 452.554688 527.890625 451.082031 527.59375 C 449.605469 527.300781 448.144531 526.9375 446.707031 526.5 C 445.265625 526.0625 443.851562 525.554688 442.460938 524.980469 C 441.070312 524.40625 439.710938 523.761719 438.382812 523.050781 C 437.054688 522.34375 435.765625 521.570312 434.515625 520.734375 C 433.261719 519.898438 432.054688 519.003906 430.890625 518.046875 C 429.730469 517.09375 428.613281 516.082031 427.550781 515.019531 C 426.488281 513.953125 425.476562 512.839844 424.523438 511.675781 C 423.566406 510.511719 422.671875 509.304688 421.835938 508.054688 C 421 506.804688 420.226562 505.515625 419.515625 504.1875 C 418.808594 502.859375 418.164062 501.5 417.589844 500.109375 C 417.011719 498.71875 416.507812 497.304688 416.070312 495.863281 C 415.632812 494.421875 415.269531 492.964844 414.972656 491.488281 C 414.679688 490.011719 414.460938 488.527344 414.3125 487.027344 C 414.164062 485.53125 414.089844 484.027344 414.089844 482.523438 C 414.089844 481.519531 414.1875 480.523438 414.386719 479.535156 C 414.582031 478.546875 414.871094 477.589844 415.257812 476.660156 C 415.640625 475.734375 416.113281 474.851562 416.671875 474.011719 C 417.230469 473.175781 417.867188 472.402344 418.578125 471.691406 C 419.289062 470.980469 420.0625 470.347656 420.898438 469.785156 C 421.734375 469.226562 422.617188 468.757812 423.546875 468.371094 C 424.476562 467.988281 425.433594 467.695312 426.421875 467.5 C 427.40625 467.304688 428.402344 467.207031 429.410156 467.207031 C 430.414062 467.207031 431.410156 467.304688 432.398438 467.5 C 433.382812 467.695312 434.34375 467.988281 435.269531 468.371094 C 436.199219 468.757812 437.082031 469.226562 437.917969 469.785156 C 438.757812 470.347656 439.53125 470.980469 440.242188 471.691406 C 440.953125 472.402344 441.585938 473.175781 442.144531 474.011719 C 442.703125 474.851562 443.175781 475.734375 443.5625 476.660156 C 443.945312 477.589844 444.238281 478.546875 444.433594 479.535156 C 444.628906 480.523438 444.726562 481.519531 444.726562 482.523438 C 444.726562 483.53125 444.824219 484.527344 445.023438 485.511719 C 445.21875 486.5 445.507812 487.457031 445.894531 488.386719 C 446.277344 489.316406 446.75 490.199219 447.308594 491.035156 C 447.867188 491.871094 448.503906 492.644531 449.214844 493.355469 C 449.925781 494.066406 450.699219 494.703125 451.535156 495.261719 C 452.371094 495.820312 453.253906 496.289062 454.183594 496.675781 C 455.113281 497.0625 456.070312 497.351562 457.058594 497.546875 C 458.042969 497.742188 459.039062 497.84375 460.046875 497.84375 C 461.050781 497.84375 462.046875 497.742188 463.035156 497.546875 C 464.019531 497.351562 464.976562 497.0625 465.90625 496.675781 C 466.835938 496.289062 467.71875 495.820312 468.554688 495.261719 C 469.390625 494.703125 470.167969 494.066406 470.878906 493.355469 C 471.589844 492.644531 472.222656 491.871094 472.78125 491.035156 C 473.339844 490.199219 473.8125 489.316406 474.199219 488.386719 C 474.582031 487.457031 474.875 486.5 475.070312 485.511719 C 475.265625 484.527344 475.363281 483.53125 475.363281 482.523438 C 475.363281 481.519531 475.460938 480.523438 475.660156 479.535156 C 475.855469 478.546875 476.144531 477.589844 476.53125 476.660156 C 476.914062 475.734375 477.386719 474.851562 477.945312 474.011719 C 478.503906 473.175781 479.140625 472.402344 479.851562 471.691406 C 480.5625 470.980469 481.335938 470.347656 482.171875 469.785156 C 483.007812 469.226562 483.890625 468.757812 484.820312 468.371094 C 485.75 467.988281 486.707031 467.695312 487.695312 467.5 C 488.679688 467.304688 489.675781 467.207031 490.683594 467.207031 C 491.6875 467.207031 492.683594 467.304688 493.671875 467.5 C 494.65625 467.695312 495.613281 467.988281 496.542969 468.371094 C 497.472656 468.757812 498.355469 469.226562 499.191406 469.785156 C 500.027344 470.347656 500.800781 470.980469 501.515625 471.691406 C 502.226562 472.402344 502.859375 473.175781 503.417969 474.011719 C 503.976562 474.851562 504.449219 475.734375 504.835938 476.660156 C 505.21875 477.589844 505.507812 478.546875 505.707031 479.535156 C 505.902344 480.523438 506 481.519531 506 482.523438 C 506 484.027344 505.925781 485.53125 505.777344 487.027344 C 505.632812 488.527344 505.410156 490.011719 505.117188 491.488281 C 504.824219 492.964844 504.457031 494.421875 504.019531 495.863281 C 503.585938 497.304688 503.078125 498.71875 502.503906 500.109375 C 501.925781 501.5 501.285156 502.859375 500.574219 504.1875 C 499.863281 505.515625 499.089844 506.804688 498.253906 508.054688 C 497.417969 509.304688 496.523438 510.511719 495.570312 511.675781 C 494.613281 512.839844 493.605469 513.953125 492.539062 515.019531 C 491.476562 516.082031 490.363281 517.09375 489.199219 518.046875 C 488.035156 519.003906 486.828125 519.898438 485.578125 520.734375 C 484.324219 521.570312 483.035156 522.34375 481.707031 523.050781 C 480.382812 523.761719 479.023438 524.40625 477.632812 524.980469 C 476.242188 525.554688 474.824219 526.0625 473.386719 526.5 C 471.945312 526.9375 470.488281 527.300781 469.011719 527.59375 C 467.535156 527.890625 466.046875 528.109375 464.550781 528.257812 C 463.050781 528.40625 461.550781 528.476562 460.046875 528.476562 Z M 460.046875 528.476562 " fill-opacity="1" fill-rule="nonzero"/></svg>