<svg version="1.0" preserveAspectRatio="xMidYMid meet" viewBox="2.7 0 674.1 371.699986784" zoomAndPan="magnify" xmlns:xlink="http://www.w3.org/1999/xlink" xmlns="http://www.w3.org/2000/svg" style="max-height: 500px" width="674.1" height="371.699986784"><path fill-rule="nonzero" fill-opacity="1" d="M 566.882812 267.558594 C 561.894531 283.441406 548.875 291.546875 537.644531 286.1875 C 399.933594 220.992188 246.875 208.421875 100.464844 250.921875 C 88.484375 254.332031 76.195312 249.1875 72.949219 238.90625 C 61.859375 202.964844 50.773438 167.023438 39.683594 131.09375 C 36.4375 120.820312 45.121094 106.730469 59.246094 100.265625 C 230.609375 22.308594 419.917969 9.75 599.980469 65 C 614.867188 69.515625 622.816406 86.570312 617.839844 102.4375 C 600.851562 157.480469 583.867188 212.515625 566.882812 267.558594" fill="#6d6e71"/><path fill-rule="nonzero" fill-opacity="1" d="M 342.253906 365.808594 C 342.253906 365.808594 306.679688 262.347656 293.820312 262.347656 C 238.71875 262.347656 183.527344 270.261719 129.773438 285.859375 C 124.414062 287.386719 119.0625 288.136719 113.699219 288.136719 C 90.554688 288.136719 70.597656 274.167969 64.054688 253.386719 L 30.722656 145.398438 C 22.78125 120.230469 38.6875 90.207031 67.015625 77.242188 C 172.070312 29.453125 282.796875 5.238281 396.183594 5.238281 C 474.847656 5.238281 553.429688 17.109375 629.742188 40.523438 C 644.359375 44.957031 656.507812 55.070312 663.855469 68.984375 C 671.53125 83.511719 673.078125 100.976562 668.082031 116.882812 L 617.171875 281.863281 C 609.253906 307.128906 588.488281 324.011719 565.476562 324.011719 C 558.351562 324.011719 551.453125 322.433594 544.957031 319.332031 C 492.179688 294.351562 437.351562 277.496094 381.183594 268.9375 C 380.988281 268.910156 380.789062 268.902344 380.585938 268.902344 C 364.421875 268.902344 342.253906 365.808594 342.253906 365.808594 M 549.371094 287.199219 C 552.363281 288.558594 555.34375 289.945312 558.316406 291.351562 C 560.65625 292.476562 563.078125 293.011719 565.476562 293.011719 C 574.625 293.011719 583.605469 285.304688 587.550781 272.726562 C 604.539062 217.683594 621.523438 162.648438 638.5 107.601562 C 643.484375 91.734375 635.527344 74.683594 620.652344 70.164062 C 604.011719 65.066406 587.308594 60.535156 570.527344 56.589844 C 506.101562 39.539062 440.691406 31.074219 375.511719 31.074219 C 267.570312 31.074219 160.289062 54.304688 59.246094 100.265625 C 45.121094 106.730469 36.4375 120.820312 39.683594 131.09375 C 50.773438 167.023438 61.859375 202.964844 72.949219 238.90625 C 75.519531 247.050781 83.757812 251.972656 93.03125 251.972656 C 94.753906 251.972656 96.515625 251.804688 98.289062 251.445312 C 102.167969 255.09375 107.71875 257.136719 113.699219 257.136719 C 116.136719 257.136719 118.640625 256.800781 121.132812 256.085938 C 178.125 239.542969 236.113281 231.347656 293.820312 231.347656 C 340.117188 231.347656 386.238281 236.625 431.484375 247.105469 C 467.601562 256.800781 503.109375 269.839844 537.644531 286.1875 C 539.988281 287.3125 542.398438 287.835938 544.804688 287.835938 C 546.335938 287.835938 547.871094 287.621094 549.371094 287.199219" fill="#cccccc"/><path fill-rule="nonzero" fill-opacity="1" d="M 544.804688 287.835938 C 542.398438 287.835938 539.988281 287.3125 537.644531 286.1875 C 503.109375 269.839844 467.601562 256.800781 431.484375 247.105469 C 471.605469 256.394531 511.058594 269.78125 549.371094 287.199219 C 547.871094 287.621094 546.335938 287.835938 544.804688 287.835938 M 93.03125 251.972656 C 83.757812 251.972656 75.519531 247.050781 72.949219 238.90625 C 61.859375 202.964844 50.773438 167.023438 39.683594 131.09375 C 36.4375 120.820312 45.121094 106.730469 59.246094 100.265625 C 160.289062 54.304688 267.570312 31.074219 375.511719 31.074219 C 440.691406 31.074219 506.101562 39.539062 570.527344 56.589844 C 512.804688 43 454.394531 36.238281 396.183594 36.238281 C 288.242188 36.238281 180.957031 59.46875 79.914062 105.4375 C 65.789062 111.898438 57.109375 125.984375 60.351562 136.257812 C 71.441406 172.191406 82.53125 208.128906 93.621094 244.070312 C 94.527344 246.957031 96.152344 249.441406 98.289062 251.445312 C 96.515625 251.804688 94.753906 251.972656 93.03125 251.972656" fill="#585255"/><path fill-rule="nonzero" fill-opacity="1" d="M 617.839844 102.4375 C 600.851562 157.480469 583.867188 212.515625 566.882812 267.558594 C 561.894531 283.441406 548.875 291.546875 537.644531 286.1875 C 399.933594 220.992188 246.875 208.421875 100.464844 250.921875 C 88.484375 254.332031 76.195312 249.1875 72.949219 238.90625 C 61.859375 202.964844 50.773438 167.023438 39.683594 131.09375 C 36.4375 120.820312 45.121094 106.730469 59.246094 100.265625 C 230.609375 22.308594 419.917969 9.75 599.980469 65 C 614.867188 69.515625 622.816406 86.570312 617.839844 102.4375 Z M 643.1875 63.816406 C 635.835938 49.90625 623.699219 39.792969 609.074219 35.359375 C 532.761719 11.941406 454.179688 0.0664062 375.511719 0.0664062 C 262.125 0.0664062 151.402344 24.289062 46.347656 72.078125 C 18.027344 85.03125 2.113281 115.054688 10.0625 140.234375 L 43.386719 248.222656 C 49.9375 269.003906 69.886719 282.972656 93.03125 282.972656 C 98.390625 282.972656 103.753906 282.222656 109.105469 280.691406 C 162.855469 265.09375 218.050781 257.183594 273.148438 257.183594 C 286.011719 257.183594 321.585938 360.644531 321.585938 360.644531 C 321.585938 360.644531 344.308594 261.308594 360.515625 263.773438 C 416.683594 272.332031 471.511719 289.175781 524.285156 314.167969 C 530.78125 317.269531 537.683594 318.835938 544.804688 318.835938 C 567.820312 318.835938 588.582031 301.960938 596.503906 276.699219 L 647.414062 111.71875 C 652.410156 95.8125 650.863281 78.347656 643.1875 63.816406" fill="#ffeec0"/></svg>