<svg xmlns="http://www.w3.org/2000/svg" xmlns:xlink="http://www.w3.org/1999/xlink" width="900" zoomAndPan="magnify" viewBox="0 0 675 675.000002" height="900" preserveAspectRatio="xMidYMid meet" version="1.0"><defs><clipPath id="e831796536"><path d="M 11.871094 0 L 663.40625 0 L 663.40625 674 L 11.871094 674 Z M 11.871094 0 " clip-rule="nonzero"/></clipPath></defs><path fill="#ffffff" d="M 599.949219 672.625 L 75.332031 672.625 C 41.050781 672.625 13.351562 644.9375 13.351562 610.671875 L 13.351562 63.332031 C 13.351562 29.066406 41.050781 1.375 75.332031 1.375 L 599.949219 1.375 C 634.230469 1.375 661.929688 29.066406 661.929688 63.332031 L 661.929688 610.671875 C 661.929688 644.9375 634.230469 672.625 599.949219 672.625 Z M 599.949219 672.625 " fill-opacity="1" fill-rule="nonzero"/><g clip-path="url(#e831796536)"><path fill="#000000" d="M 599.949219 674 L 75.332031 674 C 40.4375 674 11.972656 645.546875 11.972656 610.671875 L 11.972656 63.332031 C 11.972656 28.453125 40.4375 0 75.332031 0 L 599.949219 0 C 634.84375 0 663.308594 28.453125 663.308594 63.332031 L 663.308594 610.671875 C 663.308594 645.546875 634.84375 674 599.949219 674 Z M 75.332031 2.753906 C 41.96875 2.753906 14.726562 29.984375 14.726562 63.332031 L 14.726562 610.671875 C 14.726562 644.019531 41.96875 671.246094 75.332031 671.246094 L 599.949219 671.246094 C 633.3125 671.246094 660.554688 644.019531 660.554688 610.671875 L 660.554688 63.332031 C 660.554688 29.984375 633.3125 2.753906 599.949219 2.753906 Z M 75.332031 2.753906 " fill-opacity="1" fill-rule="nonzero"/></g><path fill="#e1001d" d="M 106.550781 616.636719 L 88.339844 634.839844 L 70.128906 616.636719 C 56.507812 603.023438 74.566406 584.816406 88.339844 598.433594 C 102.878906 583.898438 120.9375 602.105469 106.550781 616.636719 Z M 106.550781 616.636719 " fill-opacity="1" fill-rule="nonzero"/><path fill="#000000" d="M 172.664062 633.617188 L 163.328125 629.945312 C 160.878906 630.558594 158.277344 630.863281 155.523438 630.863281 C 142.363281 630.863281 131.800781 622.753906 131.800781 612.8125 C 131.800781 602.867188 142.515625 594.761719 155.523438 594.761719 C 168.53125 594.761719 179.246094 602.867188 179.246094 612.8125 C 179.246094 617.707031 176.796875 622.296875 172.203125 625.660156 Z M 163.480469 627.34375 L 169.910156 629.792969 L 169.757812 624.898438 L 169.757812 624.742188 C 169.757812 624.4375 169.910156 624.285156 170.0625 624.285156 L 170.367188 623.980469 C 174.5 621.074219 176.796875 617.09375 176.796875 612.8125 C 176.796875 604.246094 167.308594 597.207031 155.523438 597.207031 C 143.738281 597.207031 134.25 604.246094 134.25 612.8125 C 134.25 621.378906 143.738281 628.414062 155.523438 628.414062 C 158.125 628.414062 160.574219 628.109375 163.023438 627.34375 Z M 208.628906 614.339844 C 208.320312 614.339844 208.015625 614.1875 207.863281 614.035156 L 194.394531 603.328125 C 193.9375 603.023438 193.785156 602.410156 193.9375 601.949219 C 194.089844 601.492188 194.546875 601.03125 195.007812 601.03125 L 238.011719 598.738281 C 238.625 598.738281 239.082031 599.042969 239.234375 599.65625 C 239.390625 600.269531 239.082031 600.878906 238.472656 601.03125 L 208.933594 614.035156 C 208.933594 614.339844 208.78125 614.339844 208.628906 614.339844 Z M 198.527344 603.480469 L 208.78125 611.589844 L 231.429688 601.644531 Z M 206.945312 632.085938 C 206.792969 632.085938 206.636719 632.085938 206.332031 631.933594 C 205.875 631.628906 205.566406 631.167969 205.566406 630.710938 L 207.402344 612.964844 C 207.402344 612.507812 207.710938 612.199219 208.167969 611.894531 L 235.105469 599.960938 L 237.550781 598.738281 C 238.164062 598.433594 238.777344 598.585938 239.082031 599.199219 C 239.390625 599.808594 239.390625 600.421875 238.929688 600.878906 L 207.863281 631.78125 C 207.558594 631.933594 207.25 632.085938 206.945312 632.085938 Z M 210.003906 614.035156 L 208.628906 627.496094 L 232.347656 604.09375 Z M 210.003906 614.035156 " fill-opacity="1" fill-rule="nonzero"/><path fill="#000000" d="M 615.253906 639.277344 C 614.796875 639.277344 614.183594 639.125 613.875 638.816406 L 600.867188 628.875 L 587.859375 638.816406 C 587.09375 639.429688 586.175781 639.429688 585.257812 639.125 C 584.492188 638.664062 584.035156 637.898438 584.035156 637.136719 L 584.035156 603.328125 C 584.035156 601.03125 586.023438 599.042969 588.472656 599.042969 L 613.417969 599.042969 C 615.867188 599.042969 617.855469 600.878906 617.855469 603.328125 L 617.855469 637.136719 C 617.855469 638.054688 617.398438 638.816406 616.632812 639.125 C 616.019531 639.125 615.558594 639.277344 615.253906 639.277344 Z M 588.320312 601.1875 C 587.09375 601.1875 586.175781 602.105469 586.175781 603.175781 L 586.175781 636.980469 L 600.714844 625.96875 L 615.101562 636.980469 C 615.101562 636.980469 615.253906 636.980469 615.253906 636.980469 L 615.253906 603.175781 C 615.253906 602.105469 614.335938 601.1875 613.113281 601.1875 Z M 588.320312 601.1875 " fill-opacity="1" fill-rule="nonzero"/></svg>