<svg version="1.0" preserveAspectRatio="xMidYMid meet" viewBox="0 37.800000112 677.7 599.400001776" zoomAndPan="magnify" xmlns:xlink="http://www.w3.org/1999/xlink" xmlns="http://www.w3.org/2000/svg" style="max-height: 500px" width="677.7" height="599.400001776"><defs><clipPath id="268d0aca8d"><path clip-rule="nonzero" d="M 0.5 40.972656 L 674 40.972656 L 674 633.027344 L 0.5 633.027344 Z M 0.5 40.972656"/></clipPath><clipPath id="3b8d210566"><path clip-rule="nonzero" d="M 28.207031 40.972656 L 646.792969 40.972656 C 662.09375 40.972656 674.5 53.378906 674.5 68.683594 L 674.5 605.320312 C 674.5 620.621094 662.09375 633.027344 646.792969 633.027344 L 28.207031 633.027344 C 12.90625 633.027344 0.5 620.621094 0.5 605.320312 L 0.5 68.683594 C 0.5 53.378906 12.90625 40.972656 28.207031 40.972656 Z M 28.207031 40.972656"/></clipPath><clipPath id="b4abd365ad"><path clip-rule="nonzero" d="M 19.222656 102.882812 L 655.777344 102.882812 L 655.777344 526.753906 L 19.222656 526.753906 Z M 19.222656 102.882812"/></clipPath><clipPath id="cfe8621b2e"><path clip-rule="nonzero" d="M 318.460938 53.386719 L 356.574219 53.386719 L 356.574219 91.535156 L 318.460938 91.535156 Z M 318.460938 53.386719"/></clipPath></defs><g clip-path="url(#268d0aca8d)"><g clip-path="url(#3b8d210566)"><path fill-rule="nonzero" fill-opacity="1" d="M 0.5 40.972656 L 673.5 40.972656 L 673.5 633.027344 L 0.5 633.027344 Z M 0.5 40.972656" fill="#000000"/></g></g><g clip-path="url(#b4abd365ad)"><path fill-rule="nonzero" fill-opacity="1" d="M 19.222656 102.882812 L 655.03125 102.882812 L 655.03125 526.753906 L 19.222656 526.753906 Z M 19.222656 102.882812" fill="#a7a9ac"/></g><path fill-rule="nonzero" fill-opacity="1" d="M 337.253906 60.996094 C 343.601562 60.847656 348.863281 65.875 349.015625 72.222656 C 349.160156 78.574219 344.132812 83.835938 337.785156 83.984375 C 331.4375 84.132812 326.171875 79.105469 326.027344 72.753906 C 325.976562 70.523438 326.574219 68.320312 327.753906 66.425781 C 328.566406 67.785156 330.332031 68.234375 331.695312 67.421875 C 333.0625 66.609375 333.507812 64.84375 332.695312 63.480469 C 332.464844 63.097656 332.148438 62.773438 331.773438 62.527344 C 333.445312 61.566406 335.328125 61.042969 337.253906 60.996094 Z M 337.132812 57.855469 C 329.207031 58.0625 322.894531 64.5625 322.921875 72.492188 C 322.894531 80.554688 329.410156 87.109375 337.472656 87.132812 C 345.535156 87.160156 352.089844 80.644531 352.117188 72.582031 C 352.117188 72.550781 352.117188 72.523438 352.117188 72.492188 C 352.140625 64.429688 345.625 57.875 337.5625 57.851562 C 337.421875 57.847656 337.277344 57.851562 337.132812 57.855469" fill="#ffffff"/><g clip-path="url(#cfe8621b2e)"><path fill-rule="nonzero" fill-opacity="1" d="M 337.085938 56.324219 C 345.988281 56.089844 353.398438 63.113281 353.632812 72.015625 C 353.636719 72.175781 353.640625 72.332031 353.640625 72.492188 C 353.710938 81.398438 346.550781 88.675781 337.644531 88.75 C 328.738281 88.824219 321.457031 81.660156 321.386719 72.753906 C 321.386719 72.667969 321.386719 72.578125 321.386719 72.492188 C 321.363281 63.734375 328.332031 56.558594 337.085938 56.324219 Z M 337.007812 53.390625 C 326.664062 53.667969 318.433594 62.144531 318.460938 72.492188 C 318.46875 83.015625 327 91.542969 337.527344 91.535156 C 348.046875 91.535156 356.570312 83.007812 356.574219 72.492188 C 356.601562 61.964844 348.09375 53.414062 337.566406 53.386719 C 337.378906 53.386719 337.195312 53.386719 337.007812 53.390625" fill="#ffffff"/></g><path fill-rule="nonzero" fill-opacity="1" d="M 337.375 68.847656 C 338.355469 68.808594 339.316406 69.171875 340.03125 69.847656 C 339.351562 69.582031 338.585938 69.914062 338.320312 70.585938 C 338.050781 71.265625 338.382812 72.03125 339.058594 72.296875 C 339.734375 72.566406 340.5 72.238281 340.769531 71.558594 C 340.835938 71.398438 340.867188 71.222656 340.863281 71.046875 C 341.660156 72.890625 340.808594 75.039062 338.960938 75.835938 C 337.117188 76.632812 334.96875 75.785156 334.167969 73.9375 C 333.371094 72.089844 334.21875 69.945312 336.070312 69.144531 C 336.484375 68.964844 336.921875 68.867188 337.375 68.847656 Z M 337.390625 67.433594 C 334.652344 67.5 332.46875 69.75 332.480469 72.492188 C 332.449219 75.273438 334.675781 77.550781 337.457031 77.585938 C 340.238281 77.621094 342.519531 75.390625 342.554688 72.609375 C 342.554688 72.570312 342.554688 72.53125 342.554688 72.492188 C 342.566406 69.710938 340.320312 67.445312 337.539062 67.433594 C 337.488281 67.429688 337.441406 67.433594 337.390625 67.433594" fill="#ffffff"/></svg>