<svg version="1.0" preserveAspectRatio="xMidYMid meet" viewBox="0 0 675 104.17647058823529" zoomAndPan="magnify" xmlns:xlink="http://www.w3.org/1999/xlink" xmlns="http://www.w3.org/2000/svg" style="max-height: 500px" width="675" height="104.17647058823529"><defs><clipPath id="bbbf174617"><path clip-rule="nonzero" d="M 26.539062 0 L 673.375 0 L 673.375 101.296875 L 26.539062 101.296875 Z M 26.539062 0"/></clipPath><clipPath id="ec1c620b62"><path clip-rule="nonzero" d="M 77.1875 0 L 622.730469 0 C 636.160156 0 649.042969 5.335938 658.542969 14.835938 C 668.042969 24.332031 673.378906 37.214844 673.378906 50.648438 C 673.378906 64.082031 668.042969 76.964844 658.542969 86.460938 C 649.042969 95.960938 636.160156 101.296875 622.730469 101.296875 L 77.1875 101.296875 C 63.753906 101.296875 50.871094 95.960938 41.371094 86.460938 C 31.875 76.964844 26.539062 64.082031 26.539062 50.648438 C 26.539062 37.214844 31.875 24.332031 41.371094 14.835938 C 50.871094 5.335938 63.753906 0 77.1875 0 Z M 77.1875 0"/></clipPath><clipPath id="9c4b7912bb"><path clip-rule="nonzero" d="M 1.621094 5.371094 L 92.621094 5.371094 L 92.621094 96.367188 L 1.621094 96.367188 Z M 1.621094 5.371094"/></clipPath><clipPath id="b73ab83583"><path clip-rule="nonzero" d="M 1.621094 76 L 25 76 L 25 95 L 1.621094 95 Z M 1.621094 76"/></clipPath></defs><g clip-path="url(#bbbf174617)"><g clip-path="url(#ec1c620b62)"><path fill-rule="nonzero" fill-opacity="1" d="M 26.539062 0 L 673.492188 0 L 673.492188 101.296875 L 26.539062 101.296875 Z M 26.539062 0" fill="#ffffff"/></g></g><path fill-rule="evenodd" fill-opacity="1" d="M 52.253906 75.621094 L 52.253906 76.917969 C 52.253906 79.675781 50.015625 81.910156 47.261719 81.910156 L 47.082031 81.910156 C 44.324219 81.910156 42.089844 79.675781 42.089844 76.917969 L 42.089844 75.539062 L 52.253906 75.539062 Z M 52.253906 75.621094" fill="#879aa6"/><path fill-rule="evenodd" fill-opacity="1" d="M 55.644531 68.300781 L 55.644531 73.136719 C 55.644531 74.460938 54.566406 75.539062 53.242188 75.539062 L 41.101562 75.539062 C 39.777344 75.539062 38.703125 74.460938 38.703125 73.136719 L 38.703125 68.300781 Z M 55.644531 68.300781" fill="#94abb8"/><path fill-rule="evenodd" fill-opacity="1" d="M 47.1875 6.84375 C 71.507812 6.84375 91.21875 26.558594 91.21875 50.878906 C 91.21875 75.199219 71.507812 94.914062 47.1875 94.914062 C 38.445312 94.914062 30.300781 92.367188 23.449219 87.976562 L 3.152344 93.359375 L 12.175781 77.59375 C 6.515625 70.183594 3.152344 60.925781 3.152344 50.878906 C 3.152344 26.558594 22.867188 6.84375 47.1875 6.84375 Z M 60.617188 61.433594 C 63.570312 58.148438 65.339844 53.769531 65.242188 48.976562 C 65.035156 39.070312 56.796875 31.136719 46.890625 31.289062 C 37.039062 31.4375 29.101562 39.472656 29.101562 49.359375 C 29.101562 54 30.851562 58.234375 33.730469 61.433594 C 34.894531 62.734375 35.714844 64.289062 36.113281 65.964844 C 36.441406 67.339844 37.691406 68.300781 39.105469 68.300781 L 38.703125 68.300781 L 38.703125 73.136719 C 38.703125 74.460938 39.777344 75.539062 41.101562 75.539062 L 42.089844 75.539062 L 42.089844 76.917969 C 42.089844 79.675781 44.328125 81.910156 47.082031 81.910156 L 47.261719 81.910156 C 50.019531 81.910156 52.253906 79.675781 52.253906 76.917969 L 52.253906 75.539062 L 53.242188 75.539062 C 54.566406 75.539062 55.644531 74.460938 55.644531 73.136719 L 55.644531 68.300781 L 55.238281 68.300781 C 56.65625 68.300781 57.90625 67.339844 58.230469 65.964844 C 58.628906 64.289062 59.449219 62.734375 60.617188 61.433594 Z M 60.617188 61.433594" fill="#eeebfb"/><path fill-rule="evenodd" fill-opacity="1" d="M 47.171875 68.300781 L 39.105469 68.300781 C 37.691406 68.300781 36.441406 67.339844 36.113281 65.964844 C 35.714844 64.292969 34.894531 62.734375 33.730469 61.433594 C 30.851562 58.234375 29.101562 54 29.101562 49.359375 C 29.101562 39.472656 37.039062 31.4375 46.890625 31.289062 C 56.796875 31.136719 65.035156 39.070312 65.242188 48.976562 C 65.339844 53.769531 63.570312 58.148438 60.617188 61.433594 C 59.449219 62.734375 58.628906 64.289062 58.230469 65.964844 C 57.90625 67.339844 56.65625 68.300781 55.238281 68.300781 Z M 47.171875 68.300781" fill="#fee37a"/><g clip-path="url(#9c4b7912bb)"><path fill-rule="evenodd" fill-opacity="1" d="M 47.1875 96.332031 C 38.464844 96.332031 29.992188 93.855469 22.683594 89.171875 C 22.023438 88.75 21.832031 87.871094 22.253906 87.210938 C 22.679688 86.546875 23.558594 86.355469 24.21875 86.78125 C 31.066406 91.171875 39.011719 93.492188 47.1875 93.492188 C 70.683594 93.492188 89.800781 74.375 89.800781 50.878906 C 89.800781 27.382812 70.683594 8.265625 47.1875 8.265625 C 23.6875 8.265625 4.570312 27.382812 4.570312 50.878906 C 4.570312 60.316406 7.589844 69.253906 13.304688 76.730469 C 13.496094 76.976562 13.597656 77.28125 13.597656 77.59375 C 13.597656 78.375 12.960938 79.011719 12.175781 79.011719 C 11.703125 79.011719 11.285156 78.78125 11.023438 78.425781 C 8.074219 74.554688 5.777344 70.269531 4.199219 65.6875 C 2.5625 60.933594 1.730469 55.953125 1.730469 50.878906 C 1.730469 44.742188 2.933594 38.789062 5.304688 33.1875 C 7.59375 27.773438 10.871094 22.910156 15.042969 18.738281 C 19.21875 14.5625 24.078125 11.285156 29.492188 8.996094 C 35.097656 6.625 41.050781 5.425781 47.1875 5.425781 C 53.320312 5.425781 59.273438 6.625 64.878906 8.996094 C 70.292969 11.285156 75.152344 14.5625 79.328125 18.738281 C 83.5 22.910156 86.777344 27.773438 89.066406 33.183594 C 91.4375 38.789062 92.640625 44.742188 92.640625 50.878906 C 92.640625 57.015625 91.4375 62.96875 89.066406 68.574219 C 86.777344 73.984375 83.5 78.847656 79.328125 83.019531 C 75.152344 87.195312 70.292969 90.472656 64.878906 92.761719 C 59.273438 95.132812 53.320312 96.332031 47.1875 96.332031 Z M 47.1875 96.332031" fill="#333333"/></g><g clip-path="url(#b73ab83583)"><path fill-rule="evenodd" fill-opacity="1" d="M 3.152344 94.78125 C 2.71875 94.78125 2.296875 94.582031 2.023438 94.226562 C 1.675781 93.773438 1.632812 93.152344 1.917969 92.65625 L 10.929688 76.914062 C 11.171875 76.472656 11.636719 76.171875 12.175781 76.171875 C 12.960938 76.171875 13.597656 76.808594 13.597656 77.59375 C 13.597656 77.839844 13.53125 78.082031 13.410156 78.296875 L 6.074219 91.117188 L 23.085938 86.601562 C 23.84375 86.402344 24.625 86.851562 24.824219 87.613281 C 25.023438 88.371094 24.574219 89.148438 23.816406 89.347656 L 3.515625 94.734375 C 3.394531 94.765625 3.273438 94.78125 3.152344 94.78125 Z M 3.152344 94.78125" fill="#333333"/></g><path fill-rule="evenodd" fill-opacity="1" d="M 53.242188 76.957031 L 41.101562 76.957031 C 38.996094 76.957031 37.28125 75.242188 37.28125 73.136719 L 37.28125 68.300781 C 37.28125 67.515625 37.917969 66.878906 38.699219 66.878906 L 55.644531 66.878906 C 56.425781 66.878906 57.0625 67.515625 57.0625 68.300781 L 57.0625 73.136719 C 57.0625 75.242188 55.347656 76.957031 53.242188 76.957031 Z M 40.121094 69.71875 L 40.121094 73.136719 C 40.121094 73.675781 40.5625 74.117188 41.101562 74.117188 L 53.242188 74.117188 C 53.78125 74.117188 54.222656 73.675781 54.222656 73.136719 L 54.222656 69.71875 Z M 40.121094 69.71875" fill="#333333"/><path fill-rule="evenodd" fill-opacity="1" d="M 47.261719 83.332031 L 47.082031 83.332031 C 43.546875 83.332031 40.671875 80.453125 40.671875 76.917969 L 40.671875 75.621094 C 40.671875 74.835938 41.304688 74.203125 42.089844 74.203125 C 42.875 74.203125 43.511719 74.835938 43.511719 75.621094 L 43.511719 76.917969 C 43.511719 78.886719 45.113281 80.488281 47.082031 80.488281 L 47.261719 80.488281 C 49.230469 80.488281 50.832031 78.886719 50.832031 76.917969 L 50.832031 75.621094 C 50.832031 74.835938 51.46875 74.203125 52.253906 74.203125 C 53.039062 74.203125 53.671875 74.835938 53.671875 75.621094 L 53.671875 76.917969 C 53.671875 80.453125 50.796875 83.332031 47.261719 83.332031 Z M 47.261719 83.332031" fill="#333333"/><path fill-rule="evenodd" fill-opacity="1" d="M 55.238281 69.71875 L 39.105469 69.71875 C 37.007812 69.71875 35.210938 68.308594 34.730469 66.292969 C 34.386719 64.851562 33.675781 63.5 32.671875 62.382812 C 29.453125 58.804688 27.679688 54.175781 27.679688 49.359375 C 27.679688 44.203125 29.671875 39.34375 33.289062 35.675781 C 36.902344 32.007812 41.726562 29.945312 46.867188 29.867188 C 57.5625 29.703125 66.441406 38.261719 66.660156 48.949219 C 66.761719 53.921875 64.992188 58.691406 61.671875 62.382812 C 60.667969 63.5 59.957031 64.851562 59.613281 66.292969 C 59.132812 68.308594 57.335938 69.71875 55.238281 69.71875 Z M 47.167969 32.707031 C 47.082031 32.707031 46.996094 32.707031 46.910156 32.707031 C 37.875 32.847656 30.519531 40.316406 30.519531 49.359375 C 30.519531 53.476562 32.035156 57.425781 34.785156 60.484375 C 36.105469 61.953125 37.042969 63.734375 37.492188 65.632812 C 37.664062 66.355469 38.34375 66.878906 39.105469 66.878906 L 55.238281 66.878906 C 56 66.878906 56.679688 66.355469 56.851562 65.632812 C 57.300781 63.734375 58.238281 61.953125 59.558594 60.484375 C 62.394531 57.332031 63.90625 53.253906 63.820312 49.007812 C 63.632812 39.964844 56.1875 32.707031 47.167969 32.707031 Z M 47.167969 32.707031" fill="#333333"/><path fill-rule="evenodd" fill-opacity="1" d="M 47.1875 27.046875 C 46.402344 27.046875 45.765625 26.410156 45.765625 25.628906 L 45.765625 19.847656 C 45.765625 19.0625 46.402344 18.425781 47.1875 18.425781 C 47.96875 18.425781 48.605469 19.0625 48.605469 19.847656 L 48.605469 25.628906 C 48.605469 26.410156 47.96875 27.046875 47.1875 27.046875 Z M 47.1875 27.046875" fill="#333333"/><path fill-rule="evenodd" fill-opacity="1" d="M 34.984375 30.316406 C 34.496094 30.316406 34.015625 30.0625 33.753906 29.605469 L 30.863281 24.601562 C 30.472656 23.921875 30.703125 23.054688 31.382812 22.660156 C 32.0625 22.269531 32.933594 22.5 33.324219 23.179688 L 36.214844 28.1875 C 36.605469 28.867188 36.375 29.734375 35.695312 30.125 C 35.46875 30.257812 35.226562 30.316406 34.984375 30.316406 Z M 34.984375 30.316406" fill="#333333"/><path fill-rule="evenodd" fill-opacity="1" d="M 26.050781 39.25 C 25.808594 39.25 25.566406 39.1875 25.339844 39.058594 L 20.335938 36.167969 C 19.65625 35.777344 19.425781 34.910156 19.816406 34.230469 C 20.207031 33.550781 21.078125 33.316406 21.757812 33.710938 L 26.761719 36.597656 C 27.441406 36.992188 27.675781 37.859375 27.28125 38.539062 C 27.019531 38.996094 26.542969 39.25 26.050781 39.25 Z M 26.050781 39.25" fill="#333333"/><path fill-rule="evenodd" fill-opacity="1" d="M 22.78125 51.453125 L 17.003906 51.453125 C 16.21875 51.453125 15.582031 50.816406 15.582031 50.03125 C 15.582031 49.246094 16.21875 48.609375 17.003906 48.609375 L 22.78125 48.609375 C 23.566406 48.609375 24.203125 49.246094 24.203125 50.03125 C 24.203125 50.816406 23.566406 51.453125 22.78125 51.453125 Z M 22.78125 51.453125" fill="#333333"/><path fill-rule="evenodd" fill-opacity="1" d="M 21.046875 66.542969 C 20.558594 66.542969 20.078125 66.289062 19.816406 65.832031 C 19.425781 65.152344 19.65625 64.285156 20.335938 63.894531 L 25.339844 61.003906 C 26.019531 60.609375 26.890625 60.84375 27.28125 61.523438 C 27.675781 62.203125 27.441406 63.070312 26.761719 63.464844 L 21.757812 66.351562 C 21.53125 66.480469 21.289062 66.542969 21.046875 66.542969 Z M 21.046875 66.542969" fill="#333333"/><path fill-rule="evenodd" fill-opacity="1" d="M 73.324219 66.542969 C 73.082031 66.542969 72.839844 66.480469 72.617188 66.351562 L 67.609375 63.464844 C 66.929688 63.070312 66.699219 62.203125 67.089844 61.523438 C 67.484375 60.84375 68.351562 60.609375 69.03125 61.003906 L 74.035156 63.894531 C 74.714844 64.285156 74.949219 65.152344 74.554688 65.832031 C 74.292969 66.289062 73.816406 66.542969 73.324219 66.542969 Z M 73.324219 66.542969" fill="#333333"/><path fill-rule="evenodd" fill-opacity="1" d="M 77.371094 51.453125 L 71.589844 51.453125 C 70.804688 51.453125 70.167969 50.816406 70.167969 50.03125 C 70.167969 49.246094 70.804688 48.609375 71.589844 48.609375 L 77.371094 48.609375 C 78.152344 48.609375 78.789062 49.246094 78.789062 50.03125 C 78.789062 50.816406 78.152344 51.453125 77.371094 51.453125 Z M 77.371094 51.453125" fill="#333333"/><path fill-rule="evenodd" fill-opacity="1" d="M 68.320312 39.25 C 67.832031 39.25 67.355469 38.996094 67.089844 38.539062 C 66.699219 37.859375 66.929688 36.992188 67.609375 36.597656 L 72.617188 33.710938 C 73.292969 33.316406 74.164062 33.550781 74.554688 34.230469 C 74.949219 34.910156 74.714844 35.777344 74.035156 36.167969 L 69.03125 39.058594 C 68.808594 39.1875 68.5625 39.25 68.320312 39.25 Z M 68.320312 39.25" fill="#333333"/><path fill-rule="evenodd" fill-opacity="1" d="M 59.386719 30.316406 C 59.144531 30.316406 58.902344 30.257812 58.679688 30.125 C 58 29.734375 57.765625 28.867188 58.15625 28.1875 L 61.046875 23.179688 C 61.441406 22.5 62.308594 22.269531 62.988281 22.660156 C 63.667969 23.054688 63.898438 23.921875 63.507812 24.601562 L 60.617188 29.605469 C 60.355469 30.0625 59.878906 30.316406 59.386719 30.316406 Z M 59.386719 30.316406" fill="#333333"/><path fill-rule="evenodd" fill-opacity="1" d="M 47.171875 69.71875 C 46.386719 69.71875 45.75 69.085938 45.75 68.300781 L 45.75 52.101562 C 45.75 51.316406 46.386719 50.679688 47.171875 50.679688 C 47.957031 50.679688 48.59375 51.316406 48.59375 52.101562 L 48.59375 68.300781 C 48.59375 69.085938 47.957031 69.71875 47.171875 69.71875 Z M 47.171875 69.71875" fill="#333333"/><path fill-rule="evenodd" fill-opacity="1" d="M 47.171875 53.523438 C 46.785156 53.523438 46.417969 53.367188 46.148438 53.085938 C 45.585938 52.503906 44.953125 51.957031 44.273438 51.460938 C 43.433594 50.855469 42.511719 50.320312 41.53125 49.882812 C 40.816406 49.558594 40.496094 48.71875 40.820312 48.003906 C 41.140625 47.289062 41.980469 46.96875 42.695312 47.289062 C 43.851562 47.808594 44.945312 48.441406 45.941406 49.160156 C 46.367188 49.472656 46.777344 49.800781 47.171875 50.140625 C 47.566406 49.800781 47.976562 49.472656 48.40625 49.160156 C 49.402344 48.441406 50.492188 47.808594 51.648438 47.289062 C 52.363281 46.96875 53.203125 47.289062 53.527344 48.003906 C 53.847656 48.71875 53.527344 49.558594 52.8125 49.882812 C 51.832031 50.320312 50.910156 50.855469 50.070312 51.460938 C 49.390625 51.957031 48.757812 52.503906 48.195312 53.085938 C 47.925781 53.367188 47.558594 53.523438 47.171875 53.523438 Z M 47.171875 53.523438" fill="#333333"/></svg>