<svg xmlns="http://www.w3.org/2000/svg" xmlns:xlink="http://www.w3.org/1999/xlink" width="900" zoomAndPan="magnify" viewBox="0 0 675 675.000002" height="900" preserveAspectRatio="xMidYMid meet" version="1.0"><defs><clipPath id="0ed051f6bd"><path d="M 8.449219 7.949219 L 666.722656 7.949219 L 666.722656 666 L 8.449219 666 Z M 8.449219 7.949219 " clip-rule="nonzero"/></clipPath></defs><g clip-path="url(#0ed051f6bd)"><path fill="#ff909d" d="M 666.4375 336.945312 C 666.4375 342.328125 666.304688 347.710938 666.042969 353.085938 C 665.777344 358.464844 665.382812 363.832031 664.855469 369.191406 C 664.328125 374.550781 663.667969 379.890625 662.878906 385.21875 C 662.085938 390.542969 661.167969 395.847656 660.117188 401.128906 C 659.066406 406.410156 657.886719 411.660156 656.578125 416.882812 C 655.269531 422.105469 653.835938 427.292969 652.273438 432.445312 C 650.707031 437.597656 649.019531 442.710938 647.207031 447.777344 C 645.390625 452.847656 643.457031 457.871094 641.394531 462.84375 C 639.335938 467.820312 637.152344 472.738281 634.851562 477.609375 C 632.550781 482.476562 630.128906 487.28125 627.589844 492.03125 C 625.050781 496.78125 622.398438 501.464844 619.632812 506.082031 C 616.863281 510.699219 613.984375 515.246094 610.992188 519.722656 C 608 524.199219 604.902344 528.601562 601.695312 532.925781 C 598.488281 537.25 595.175781 541.492188 591.757812 545.65625 C 588.34375 549.816406 584.828125 553.894531 581.210938 557.882812 C 577.597656 561.871094 573.886719 565.769531 570.078125 569.578125 C 566.269531 573.386719 562.371094 577.097656 558.382812 580.714844 C 554.394531 584.328125 550.316406 587.84375 546.15625 591.261719 C 541.992188 594.675781 537.75 597.988281 533.425781 601.195312 C 529.101562 604.402344 524.699219 607.5 520.222656 610.492188 C 515.746094 613.484375 511.199219 616.363281 506.582031 619.132812 C 501.960938 621.902344 497.277344 624.554688 492.53125 627.089844 C 487.78125 629.628906 482.972656 632.050781 478.105469 634.351562 C 473.238281 636.652344 468.320312 638.835938 463.34375 640.894531 C 458.371094 642.957031 453.347656 644.894531 448.277344 646.707031 C 443.207031 648.519531 438.097656 650.210938 432.945312 651.773438 C 427.792969 653.335938 422.605469 654.769531 417.382812 656.078125 C 412.160156 657.386719 406.90625 658.566406 401.625 659.617188 C 396.347656 660.667969 391.042969 661.589844 385.714844 662.378906 C 380.390625 663.167969 375.046875 663.828125 369.691406 664.355469 C 364.332031 664.882812 358.964844 665.277344 353.585938 665.542969 C 348.207031 665.808594 342.828125 665.9375 337.441406 665.9375 C 332.058594 665.9375 326.679688 665.808594 321.300781 665.542969 C 315.921875 665.277344 310.554688 664.882812 305.195312 664.355469 C 299.835938 663.828125 294.496094 663.167969 289.167969 662.378906 C 283.84375 661.589844 278.539062 660.667969 273.257812 659.617188 C 267.980469 658.566406 262.726562 657.386719 257.503906 656.078125 C 252.28125 654.769531 247.09375 653.335938 241.941406 651.773438 C 236.789062 650.210938 231.675781 648.519531 226.609375 646.707031 C 221.539062 644.894531 216.515625 642.957031 211.542969 640.894531 C 206.566406 638.835938 201.648438 636.652344 196.78125 634.351562 C 191.914062 632.050781 187.105469 629.628906 182.355469 627.089844 C 177.605469 624.554688 172.925781 621.902344 168.304688 619.132812 C 163.6875 616.363281 159.140625 613.484375 154.664062 610.492188 C 150.1875 607.5 145.785156 604.402344 141.460938 601.195312 C 137.136719 597.988281 132.894531 594.675781 128.730469 591.261719 C 124.570312 587.84375 120.492188 584.328125 116.503906 580.714844 C 112.515625 577.097656 108.617188 573.386719 104.808594 569.578125 C 101 565.769531 97.289062 561.871094 93.671875 557.882812 C 90.058594 553.894531 86.542969 549.816406 83.125 545.65625 C 79.710938 541.492188 76.398438 537.25 73.191406 532.925781 C 69.984375 528.601562 66.886719 524.199219 63.894531 519.722656 C 60.902344 515.246094 58.023438 510.699219 55.253906 506.082031 C 52.488281 501.464844 49.832031 496.78125 47.296875 492.03125 C 44.757812 487.28125 42.335938 482.476562 40.035156 477.609375 C 37.734375 472.738281 35.550781 467.820312 33.492188 462.84375 C 31.429688 457.871094 29.492188 452.847656 27.679688 447.777344 C 25.867188 442.710938 24.175781 437.597656 22.613281 432.445312 C 21.050781 427.292969 19.617188 422.105469 18.308594 416.882812 C 17 411.660156 15.820312 406.410156 14.769531 401.128906 C 13.71875 395.847656 12.800781 390.542969 12.007812 385.21875 C 11.21875 379.890625 10.558594 374.550781 10.03125 369.191406 C 9.503906 363.832031 9.109375 358.464844 8.84375 353.085938 C 8.578125 347.710938 8.449219 342.328125 8.449219 336.945312 C 8.449219 331.558594 8.578125 326.179688 8.84375 320.800781 C 9.109375 315.421875 9.503906 310.054688 10.03125 304.695312 C 10.558594 299.339844 11.21875 293.996094 12.007812 288.671875 C 12.800781 283.34375 13.71875 278.039062 14.769531 272.761719 C 15.820312 267.480469 17 262.226562 18.308594 257.003906 C 19.617188 251.78125 21.050781 246.59375 22.613281 241.441406 C 24.175781 236.289062 25.867188 231.179688 27.679688 226.109375 C 29.492188 221.039062 31.429688 216.015625 33.492188 211.042969 C 35.550781 206.070312 37.734375 201.148438 40.035156 196.28125 C 42.335938 191.414062 44.757812 186.605469 47.296875 181.855469 C 49.832031 177.109375 52.488281 172.425781 55.253906 167.804688 C 58.023438 163.1875 60.902344 158.640625 63.894531 154.164062 C 66.886719 149.6875 69.984375 145.285156 73.191406 140.960938 C 76.398438 136.636719 79.710938 132.394531 83.125 128.230469 C 86.542969 124.070312 90.058594 119.992188 93.671875 116.003906 C 97.289062 112.015625 101 108.117188 104.808594 104.308594 C 108.617188 100.503906 112.515625 96.789062 116.503906 93.175781 C 120.492188 89.558594 124.570312 86.042969 128.730469 82.628906 C 132.894531 79.210938 137.136719 75.898438 141.460938 72.691406 C 145.785156 69.484375 150.1875 66.386719 154.664062 63.394531 C 159.140625 60.402344 163.6875 57.523438 168.304688 54.753906 C 172.925781 51.988281 177.605469 49.335938 182.355469 46.796875 C 187.105469 44.257812 191.914062 41.839844 196.78125 39.535156 C 201.648438 37.234375 206.566406 35.050781 211.542969 32.992188 C 216.515625 30.929688 221.539062 28.996094 226.609375 27.179688 C 231.675781 25.367188 236.789062 23.679688 241.941406 22.113281 C 247.09375 20.550781 252.28125 19.117188 257.503906 17.808594 C 262.726562 16.5 267.980469 15.320312 273.257812 14.269531 C 278.539062 13.21875 283.84375 12.300781 289.167969 11.507812 C 294.496094 10.71875 299.835938 10.0625 305.195312 9.53125 C 310.554688 9.003906 315.921875 8.609375 321.300781 8.34375 C 326.679688 8.082031 332.058594 7.949219 337.441406 7.949219 C 342.828125 7.949219 348.207031 8.082031 353.585938 8.34375 C 358.964844 8.609375 364.332031 9.003906 369.691406 9.53125 C 375.046875 10.0625 380.390625 10.71875 385.714844 11.507812 C 391.042969 12.300781 396.347656 13.21875 401.625 14.269531 C 406.90625 15.320312 412.160156 16.5 417.382812 17.808594 C 422.605469 19.117188 427.792969 20.550781 432.945312 22.113281 C 438.097656 23.679688 443.207031 25.367188 448.277344 27.179688 C 453.347656 28.996094 458.371094 30.929688 463.34375 32.992188 C 468.320312 35.050781 473.238281 37.234375 478.105469 39.535156 C 482.972656 41.839844 487.78125 44.257812 492.53125 46.796875 C 497.277344 49.335938 501.960938 51.988281 506.582031 54.753906 C 511.199219 57.523438 515.746094 60.402344 520.222656 63.394531 C 524.699219 66.386719 529.101562 69.484375 533.425781 72.691406 C 537.75 75.898438 541.992188 79.210938 546.15625 82.628906 C 550.316406 86.042969 554.394531 89.558594 558.382812 93.175781 C 562.371094 96.789062 566.269531 100.503906 570.078125 104.308594 C 573.886719 108.117188 577.597656 112.015625 581.210938 116.003906 C 584.828125 119.992188 588.34375 124.070312 591.757812 128.230469 C 595.175781 132.394531 598.488281 136.636719 601.695312 140.960938 C 604.902344 145.285156 608 149.6875 610.992188 154.164062 C 613.984375 158.640625 616.863281 163.1875 619.632812 167.804688 C 622.398438 172.425781 625.050781 177.109375 627.589844 181.855469 C 630.128906 186.605469 632.550781 191.414062 634.851562 196.28125 C 637.152344 201.148438 639.335938 206.070312 641.394531 211.042969 C 643.457031 216.015625 645.390625 221.039062 647.207031 226.109375 C 649.019531 231.179688 650.707031 236.289062 652.273438 241.441406 C 653.835938 246.59375 655.269531 251.78125 656.578125 257.003906 C 657.886719 262.226562 659.066406 267.480469 660.117188 272.761719 C 661.167969 278.039062 662.085938 283.34375 662.878906 288.671875 C 663.667969 293.996094 664.328125 299.339844 664.855469 304.695312 C 665.382812 310.054688 665.777344 315.421875 666.042969 320.800781 C 666.304688 326.179688 666.4375 331.558594 666.4375 336.945312 Z M 666.4375 336.945312 " fill-opacity="1" fill-rule="nonzero"/></g><path fill="#ffffff" d="M 294.316406 547.59375 C 285.242188 547.59375 276.140625 544.378906 268.851562 537.847656 C 253.160156 523.773438 251.839844 499.648438 265.914062 483.949219 L 399.070312 335.429688 L 268.445312 214.847656 C 252.953125 200.554688 251.988281 176.40625 266.285156 160.914062 C 280.582031 145.429688 304.722656 144.460938 320.21875 158.753906 L 478.484375 304.847656 C 493.816406 318.996094 494.941406 342.832031 481.015625 358.367188 L 322.75 534.898438 C 315.214844 543.304688 304.789062 547.585938 294.320312 547.585938 Z M 294.316406 547.59375 " fill-opacity="1" fill-rule="nonzero"/></svg>