<svg version="1.0" preserveAspectRatio="xMidYMid meet" viewBox="0 0 675 102.82352941176471" zoomAndPan="magnify" xmlns:xlink="http://www.w3.org/1999/xlink" xmlns="http://www.w3.org/2000/svg" style="max-height: 500px" width="675" height="102.82352941176471"><defs><clipPath id="df0ee5315c"><path clip-rule="nonzero" d="M 1.621094 1.539062 L 673.375 1.539062 L 673.375 100.988281 L 1.621094 100.988281 Z M 1.621094 1.539062"/></clipPath><clipPath id="288bae7415"><path clip-rule="nonzero" d="M 133.53125 51.5 L 404.910156 51.5 L 404.910156 92.464844 L 133.53125 92.464844 Z M 133.53125 51.5"/></clipPath><clipPath id="694bbf160e"><path clip-rule="nonzero" d="M 154.011719 51.5 L 384.277344 51.5 C 395.589844 51.5 404.761719 60.671875 404.761719 71.984375 C 404.761719 83.292969 395.589844 92.464844 384.277344 92.464844 L 154.011719 92.464844 C 142.703125 92.464844 133.53125 83.292969 133.53125 71.984375 C 133.53125 60.671875 142.703125 51.5 154.011719 51.5 Z M 154.011719 51.5"/></clipPath></defs><path fill-rule="nonzero" fill-opacity="1" d="M 51.453125 3.355469 L 623.574219 3.355469 C 650.25 3.355469 671.726562 24.828125 671.726562 51.503906 C 671.726562 78.179688 650.25 99.65625 623.574219 99.65625 L 51.453125 99.65625 C 24.78125 99.65625 3.304688 78.179688 3.304688 51.503906 C 3.304688 24.828125 24.78125 3.355469 51.453125 3.355469 Z M 51.453125 3.355469" fill="#ffffff"/><g clip-path="url(#df0ee5315c)"><path fill-rule="nonzero" fill-opacity="1" d="M 51.457031 1.671875 C 23.878906 1.671875 1.621094 23.925781 1.621094 51.503906 C 1.621094 79.082031 23.878906 101.339844 51.457031 101.339844 L 623.578125 101.339844 C 651.15625 101.339844 673.410156 79.082031 673.410156 51.503906 C 673.410156 23.925781 651.15625 1.671875 623.578125 1.671875 Z M 51.457031 5.039062 L 623.578125 5.039062 C 649.347656 5.039062 670.042969 25.734375 670.042969 51.503906 C 670.042969 77.277344 649.347656 97.972656 623.578125 97.972656 L 51.457031 97.972656 C 25.683594 97.972656 4.988281 77.277344 4.988281 51.503906 C 4.988281 25.734375 25.683594 5.039062 51.457031 5.039062 Z M 51.457031 5.039062" fill="#ff909d"/></g><path fill-rule="nonzero" fill-opacity="1" d="M 128.214844 99.65625 L 50.179688 99.65625 C 49.765625 99.65625 49.347656 99.65625 48.933594 99.640625 C 48.519531 99.625 48.105469 99.613281 47.695312 99.589844 C 47.285156 99.570312 46.875 99.546875 46.464844 99.515625 C 46.058594 99.484375 45.648438 99.449219 45.246094 99.40625 C 44.839844 99.367188 44.433594 99.320312 44.03125 99.269531 C 43.628906 99.21875 43.226562 99.164062 42.828125 99.101562 C 42.429688 99.039062 42.03125 98.976562 41.636719 98.90625 C 41.242188 98.835938 40.84375 98.757812 40.453125 98.679688 C 40.058594 98.601562 39.671875 98.515625 39.28125 98.425781 C 38.890625 98.335938 38.503906 98.242188 38.121094 98.144531 C 37.734375 98.046875 37.351562 97.941406 36.96875 97.835938 C 36.589844 97.726562 36.210938 97.613281 35.832031 97.496094 C 35.453125 97.378906 35.078125 97.257812 34.707031 97.132812 C 34.332031 97.007812 33.960938 96.878906 33.59375 96.742188 C 33.222656 96.609375 32.855469 96.46875 32.492188 96.324219 C 32.125 96.179688 31.765625 96.035156 31.402344 95.882812 C 31.042969 95.730469 30.683594 95.574219 30.328125 95.414062 C 29.972656 95.253906 29.621094 95.089844 29.269531 94.921875 C 28.917969 94.75 28.570312 94.578125 28.222656 94.402344 C 27.878906 94.226562 27.535156 94.042969 27.191406 93.859375 C 26.851562 93.675781 26.511719 93.484375 26.175781 93.292969 C 25.839844 93.101562 25.507812 92.902344 25.175781 92.703125 C 24.84375 92.503906 24.515625 92.296875 24.191406 92.089844 C 23.867188 91.882812 23.542969 91.667969 23.222656 91.453125 C 22.902344 91.238281 22.585938 91.015625 22.269531 90.792969 C 21.957031 90.570312 21.644531 90.34375 21.335938 90.113281 C 21.027344 89.882812 20.722656 89.648438 20.417969 89.410156 C 20.117188 89.171875 19.816406 88.929688 19.519531 88.6875 C 19.222656 88.441406 18.925781 88.191406 18.636719 87.941406 C 18.34375 87.6875 18.058594 87.433594 17.773438 87.175781 C 17.488281 86.917969 17.207031 86.65625 16.925781 86.390625 C 16.648438 86.125 16.375 85.855469 16.101562 85.582031 C 15.832031 85.3125 15.5625 85.035156 15.296875 84.757812 C 15.03125 84.480469 14.769531 84.195312 14.511719 83.914062 C 14.25 83.628906 13.996094 83.339844 13.742188 83.050781 C 13.492188 82.757812 13.246094 82.464844 13 82.167969 C 12.753906 81.871094 12.511719 81.570312 12.273438 81.265625 C 12.035156 80.964844 11.800781 80.65625 11.570312 80.347656 C 11.339844 80.039062 11.113281 79.730469 10.890625 79.414062 C 10.667969 79.101562 10.449219 78.78125 10.234375 78.460938 C 10.015625 78.140625 9.804688 77.820312 9.597656 77.492188 C 9.386719 77.167969 9.183594 76.839844 8.980469 76.507812 C 8.78125 76.179688 8.585938 75.84375 8.390625 75.507812 C 8.199219 75.171875 8.011719 74.832031 7.824219 74.492188 C 7.640625 74.152344 7.460938 73.808594 7.28125 73.460938 C 7.105469 73.113281 6.933594 72.765625 6.765625 72.417969 C 6.597656 72.066406 6.433594 71.710938 6.269531 71.355469 C 6.109375 71 5.953125 70.640625 5.804688 70.28125 C 5.652344 69.921875 5.503906 69.558594 5.359375 69.195312 C 5.21875 68.828125 5.078125 68.460938 4.945312 68.09375 C 4.808594 67.722656 4.679688 67.351562 4.550781 66.980469 C 4.425781 66.605469 4.304688 66.230469 4.1875 65.855469 C 4.070312 65.476562 3.960938 65.097656 3.851562 64.714844 C 3.742188 64.335938 3.640625 63.949219 3.542969 63.566406 C 3.445312 63.179688 3.347656 62.792969 3.261719 62.402344 C 3.171875 62.015625 3.085938 61.625 3.007812 61.230469 C 2.925781 60.839844 2.851562 60.445312 2.78125 60.050781 C 2.710938 59.652344 2.644531 59.253906 2.582031 58.855469 C 2.523438 58.457031 2.46875 58.054688 2.417969 57.652344 C 2.367188 57.25 2.320312 56.847656 2.277344 56.441406 C 2.238281 56.035156 2.203125 55.628906 2.171875 55.21875 C 2.140625 54.8125 2.113281 54.402344 2.09375 53.988281 C 2.074219 53.578125 2.058594 53.164062 2.046875 52.75 C 2.035156 52.335938 2.03125 51.921875 2.03125 51.503906 C 2.03125 51.085938 2.03125 50.671875 2.046875 50.257812 C 2.0625 49.84375 2.074219 49.429688 2.09375 49.019531 C 2.113281 48.609375 2.140625 48.199219 2.171875 47.789062 C 2.203125 47.378906 2.238281 46.972656 2.277344 46.566406 C 2.320312 46.164062 2.363281 45.757812 2.417969 45.355469 C 2.46875 44.953125 2.523438 44.550781 2.582031 44.152344 C 2.644531 43.753906 2.710938 43.355469 2.78125 42.960938 C 2.851562 42.5625 2.925781 42.167969 3.007812 41.777344 C 3.085938 41.382812 3.171875 40.992188 3.261719 40.605469 C 3.347656 40.214844 3.441406 39.828125 3.542969 39.441406 C 3.640625 39.058594 3.742188 38.675781 3.851562 38.292969 C 3.960938 37.910156 4.070312 37.53125 4.1875 37.15625 C 4.304688 36.777344 4.425781 36.402344 4.550781 36.027344 C 4.679688 35.65625 4.808594 35.285156 4.945312 34.914062 C 5.078125 34.546875 5.21875 34.179688 5.359375 33.8125 C 5.503906 33.449219 5.652344 33.085938 5.804688 32.726562 C 5.953125 32.367188 6.109375 32.007812 6.269531 31.652344 C 6.433594 31.296875 6.597656 30.945312 6.765625 30.59375 C 6.933594 30.242188 7.105469 29.894531 7.28125 29.546875 C 7.460938 29.203125 7.640625 28.855469 7.824219 28.515625 C 8.011719 28.175781 8.199219 27.835938 8.390625 27.5 C 8.585938 27.164062 8.78125 26.832031 8.980469 26.5 C 9.183594 26.167969 9.386719 25.839844 9.597656 25.515625 C 9.804688 25.191406 10.015625 24.867188 10.234375 24.546875 C 10.449219 24.226562 10.667969 23.910156 10.890625 23.59375 C 11.113281 23.28125 11.339844 22.96875 11.570312 22.660156 C 11.800781 22.351562 12.039062 22.042969 12.273438 21.742188 C 12.511719 21.4375 12.753906 21.140625 13 20.839844 C 13.246094 20.542969 13.492188 20.25 13.742188 19.960938 C 13.996094 19.667969 14.25 19.378906 14.511719 19.097656 C 14.769531 18.8125 15.03125 18.53125 15.296875 18.25 C 15.5625 17.972656 15.832031 17.699219 16.101562 17.425781 C 16.375 17.152344 16.648438 16.886719 16.925781 16.621094 C 17.207031 16.355469 17.488281 16.089844 17.773438 15.832031 C 18.058594 15.574219 18.34375 15.320312 18.636719 15.066406 C 18.925781 14.816406 19.222656 14.566406 19.519531 14.324219 C 19.816406 14.078125 20.117188 13.835938 20.417969 13.597656 C 20.722656 13.359375 21.027344 13.125 21.335938 12.894531 C 21.644531 12.664062 21.957031 12.4375 22.269531 12.214844 C 22.585938 11.992188 22.902344 11.769531 23.222656 11.554688 C 23.542969 11.339844 23.867188 11.128906 24.191406 10.917969 C 24.515625 10.710938 24.84375 10.507812 25.175781 10.304688 C 25.507812 10.105469 25.839844 9.90625 26.175781 9.714844 C 26.511719 9.523438 26.851562 9.332031 27.191406 9.148438 C 27.535156 8.964844 27.878906 8.78125 28.222656 8.605469 C 28.570312 8.429688 28.917969 8.257812 29.269531 8.089844 C 29.621094 7.917969 29.972656 7.753906 30.328125 7.59375 C 30.683594 7.433594 31.042969 7.277344 31.402344 7.125 C 31.765625 6.976562 32.125 6.828125 32.492188 6.683594 C 32.855469 6.539062 33.222656 6.402344 33.59375 6.265625 C 33.960938 6.132812 34.332031 6 34.707031 5.875 C 35.078125 5.75 35.453125 5.628906 35.832031 5.511719 C 36.210938 5.394531 36.589844 5.28125 36.96875 5.175781 C 37.351562 5.066406 37.734375 4.964844 38.121094 4.863281 C 38.503906 4.765625 38.890625 4.671875 39.28125 4.582031 C 39.667969 4.492188 40.058594 4.410156 40.453125 4.328125 C 40.84375 4.25 41.242188 4.171875 41.636719 4.101562 C 42.03125 4.035156 42.429688 3.96875 42.828125 3.90625 C 43.226562 3.847656 43.628906 3.789062 44.03125 3.738281 C 44.433594 3.6875 44.839844 3.640625 45.246094 3.601562 C 45.648438 3.5625 46.058594 3.523438 46.464844 3.492188 C 46.875 3.464844 47.285156 3.4375 47.695312 3.417969 C 48.105469 3.398438 48.519531 3.378906 48.933594 3.371094 C 49.347656 3.355469 49.765625 3.355469 50.179688 3.355469 L 128.214844 3.355469 Z M 128.214844 99.65625" fill="#ff909d"/><path fill-rule="nonzero" fill-opacity="1" d="M 67.796875 31.316406 C 58.300781 31.316406 50.558594 39.0625 50.558594 48.558594 C 50.558594 58.054688 58.300781 65.796875 67.796875 65.796875 C 71.511719 65.796875 74.957031 64.613281 77.777344 62.601562 L 91.75 76.308594 C 91.949219 76.507812 92.183594 76.660156 92.445312 76.765625 C 92.707031 76.871094 92.976562 76.921875 93.261719 76.921875 C 93.542969 76.917969 93.8125 76.863281 94.074219 76.75 C 94.332031 76.640625 94.5625 76.484375 94.757812 76.285156 C 94.957031 76.082031 95.109375 75.851562 95.214844 75.589844 C 95.320312 75.328125 95.371094 75.054688 95.367188 74.773438 C 95.367188 74.492188 95.308594 74.21875 95.199219 73.960938 C 95.089844 73.699219 94.933594 73.472656 94.730469 73.273438 L 80.917969 59.722656 C 83.484375 56.710938 85.039062 52.8125 85.039062 48.558594 C 85.039062 39.0625 77.292969 31.316406 67.796875 31.316406 Z M 67.796875 35.570312 C 74.992188 35.570312 80.78125 41.363281 80.78125 48.558594 C 80.78125 55.753906 74.996094 61.539062 67.796875 61.539062 C 60.601562 61.539062 54.816406 55.753906 54.816406 48.558594 C 54.816406 41.363281 60.601562 35.570312 67.796875 35.570312 Z M 67.796875 35.570312" fill="#ffffff"/><path fill-rule="nonzero" fill-opacity="1" d="M 146.042969 82.683594 L 201.738281 82.683594 L 201.738281 87.632812 L 146.042969 87.632812 Z M 146.042969 82.683594" fill="#f1f1f1"/><g clip-path="url(#288bae7415)"><g clip-path="url(#694bbf160e)"><path fill-rule="nonzero" fill-opacity="1" d="M 133.53125 51.5 L 404.75 51.5 L 404.75 92.464844 L 133.53125 92.464844 Z M 133.53125 51.5" fill="#ffffff"/></g></g></svg>