<svg xmlns="http://www.w3.org/2000/svg" xmlns:xlink="http://www.w3.org/1999/xlink" width="900" zoomAndPan="magnify" viewBox="0 0 675 675.000002" height="900" preserveAspectRatio="xMidYMid meet" version="1.0"><path fill="#ff83a8" d="M 398.242188 638.503906 C 359.773438 618.078125 313.472656 618.078125 275.003906 638.164062 C 177.640625 689.230469 64.277344 606.503906 83 498.246094 C 90.492188 455.351562 76.191406 411.4375 45.214844 380.796875 C -33.425781 303.859375 10.148438 170.410156 119.085938 154.75 C 162.324219 148.621094 199.769531 121.386719 219.175781 82.238281 C 267.855469 -16.144531 408.453125 -16.144531 456.796875 82.578125 C 476.199219 121.730469 513.308594 148.964844 556.542969 155.089844 C 665.140625 171.089844 708.375 304.882812 629.734375 381.476562 C 598.414062 411.777344 584.117188 455.691406 591.265625 498.925781 C 609.308594 607.523438 495.605469 689.910156 398.242188 638.503906 Z M 398.242188 638.503906 " fill-opacity="1" fill-rule="nonzero"/><path fill="#ffffff" d="M 387.804688 587 C 355.90625 570.0625 317.511719 570.0625 285.613281 586.71875 C 204.875 629.0625 110.867188 560.464844 126.394531 470.691406 C 132.605469 435.125 120.75 398.707031 95.058594 373.300781 C 29.847656 309.5 65.980469 198.835938 156.316406 185.851562 C 192.171875 180.769531 223.222656 158.1875 239.316406 125.722656 C 279.683594 44.136719 396.273438 44.136719 436.359375 126.003906 C 452.453125 158.46875 483.222656 181.050781 519.074219 186.132812 C 609.128906 199.402344 644.980469 310.347656 579.769531 373.863281 C 553.796875 398.988281 541.941406 435.40625 547.871094 471.257812 C 562.832031 561.3125 468.542969 629.628906 387.804688 587 Z M 387.804688 587 " fill-opacity="1" fill-rule="nonzero"/><path fill="#ff83a8" d="M 372.476562 510.902344 C 350.296875 499.125 323.601562 499.125 301.421875 510.707031 C 245.285156 540.148438 179.925781 492.453125 190.71875 430.035156 C 195.039062 405.304688 186.792969 379.984375 168.933594 362.316406 C 123.589844 317.957031 148.714844 241.015625 211.523438 231.988281 C 236.453125 228.453125 258.042969 212.753906 269.230469 190.179688 C 297.300781 133.453125 378.363281 133.453125 406.234375 190.375 C 417.425781 212.949219 438.820312 228.652344 463.746094 232.183594 C 526.359375 241.410156 551.289062 318.546875 505.945312 362.710938 C 487.890625 380.179688 479.644531 405.5 483.765625 430.425781 C 494.167969 493.042969 428.613281 540.542969 372.476562 510.902344 Z M 372.476562 510.902344 " fill-opacity="1" fill-rule="nonzero"/></svg>