<svg xmlns="http://www.w3.org/2000/svg" xmlns:xlink="http://www.w3.org/1999/xlink" width="900" zoomAndPan="magnify" viewBox="0 0 675 675.000002" height="900" preserveAspectRatio="xMidYMid meet" version="1.0"><path fill="#baddf1" d="M 569.949219 104.660156 C 573.75 108.464844 577.457031 112.359375 581.070312 116.34375 C 584.683594 120.332031 588.195312 124.402344 591.609375 128.558594 C 595.019531 132.71875 598.328125 136.957031 601.53125 141.277344 C 604.738281 145.597656 607.832031 149.992188 610.820312 154.464844 C 613.808594 158.9375 616.6875 163.480469 619.453125 168.09375 C 622.214844 172.707031 624.867188 177.386719 627.402344 182.128906 C 629.9375 186.871094 632.355469 191.675781 634.65625 196.539062 C 636.957031 201.398438 639.132812 206.316406 641.191406 211.285156 C 643.25 216.253906 645.1875 221.269531 647 226.335938 C 648.8125 231.398438 650.496094 236.503906 652.058594 241.652344 C 653.621094 246.800781 655.054688 251.980469 656.363281 257.199219 C 657.667969 262.417969 658.847656 267.664062 659.898438 272.9375 C 660.945312 278.214844 661.867188 283.511719 662.65625 288.832031 C 663.445312 294.152344 664.101562 299.488281 664.628906 304.839844 C 665.15625 310.195312 665.550781 315.558594 665.816406 320.929688 C 666.082031 326.300781 666.210938 331.675781 666.210938 337.054688 C 666.210938 342.433594 666.082031 347.808594 665.816406 353.183594 C 665.554688 358.554688 665.15625 363.917969 664.628906 369.269531 C 664.105469 374.621094 663.445312 379.957031 662.65625 385.28125 C 661.867188 390.601562 660.949219 395.898438 659.898438 401.171875 C 658.847656 406.449219 657.671875 411.695312 656.363281 416.914062 C 655.058594 422.128906 653.625 427.3125 652.0625 432.460938 C 650.5 437.605469 648.816406 442.710938 647.003906 447.777344 C 645.191406 452.839844 643.253906 457.859375 641.199219 462.828125 C 639.140625 467.796875 636.960938 472.710938 634.660156 477.574219 C 632.359375 482.4375 629.945312 487.238281 627.40625 491.984375 C 624.871094 496.726562 622.222656 501.40625 619.457031 506.019531 C 616.691406 510.632812 613.816406 515.175781 610.828125 519.648438 C 607.839844 524.121094 604.742188 528.515625 601.539062 532.835938 C 598.335938 537.15625 595.027344 541.394531 591.613281 545.554688 C 588.203125 549.710938 584.691406 553.785156 581.078125 557.769531 C 577.464844 561.753906 573.757812 565.648438 569.957031 569.453125 C 566.152344 573.253906 562.257812 576.964844 558.273438 580.574219 C 554.289062 584.1875 550.214844 587.699219 546.058594 591.113281 C 541.902344 594.523438 537.660156 597.832031 533.339844 601.039062 C 529.019531 604.242188 524.625 607.335938 520.152344 610.324219 C 515.679688 613.3125 511.136719 616.191406 506.523438 618.957031 C 501.910156 621.722656 497.234375 624.371094 492.488281 626.90625 C 487.746094 629.441406 482.941406 631.859375 478.082031 634.160156 C 473.21875 636.460938 468.300781 638.640625 463.332031 640.699219 C 458.363281 642.757812 453.347656 644.691406 448.28125 646.503906 C 443.21875 648.316406 438.113281 650.003906 432.964844 651.5625 C 427.820312 653.125 422.636719 654.558594 417.417969 655.867188 C 412.203125 657.175781 406.953125 658.351562 401.679688 659.402344 C 396.402344 660.449219 391.105469 661.371094 385.785156 662.160156 C 380.464844 662.949219 375.128906 663.605469 369.777344 664.132812 C 364.421875 664.660156 359.0625 665.058594 353.6875 665.320312 C 348.316406 665.585938 342.941406 665.71875 337.5625 665.71875 C 332.183594 665.71875 326.808594 665.585938 321.4375 665.320312 C 316.0625 665.058594 310.699219 664.664062 305.347656 664.136719 C 299.996094 663.609375 294.660156 662.949219 289.339844 662.160156 C 284.015625 661.371094 278.71875 660.453125 273.445312 659.402344 C 268.167969 658.355469 262.921875 657.175781 257.703125 655.871094 C 252.488281 654.5625 247.304688 653.128906 242.15625 651.566406 C 237.011719 650.007812 231.90625 648.320312 226.839844 646.507812 C 221.777344 644.695312 216.757812 642.761719 211.789062 640.703125 C 206.820312 638.644531 201.90625 636.464844 197.042969 634.164062 C 192.179688 631.867188 187.378906 629.449219 182.632812 626.914062 C 177.890625 624.378906 173.210938 621.726562 168.597656 618.960938 C 163.984375 616.195312 159.441406 613.320312 154.96875 610.332031 C 150.496094 607.34375 146.101562 604.246094 141.78125 601.042969 C 137.460938 597.839844 133.222656 594.53125 129.0625 591.121094 C 124.90625 587.707031 120.832031 584.195312 116.847656 580.582031 C 112.863281 576.972656 108.96875 573.265625 105.164062 569.460938 C 101.363281 565.65625 97.652344 561.761719 94.042969 557.777344 C 90.429688 553.792969 86.917969 549.722656 83.503906 545.5625 C 80.09375 541.40625 76.785156 537.167969 73.582031 532.847656 C 70.375 528.527344 67.28125 524.128906 64.292969 519.65625 C 61.304688 515.1875 58.425781 510.644531 55.660156 506.03125 C 52.894531 501.414062 50.246094 496.738281 47.710938 491.992188 C 45.175781 487.25 42.757812 482.449219 40.457031 477.585938 C 38.15625 472.722656 35.976562 467.808594 33.917969 462.839844 C 31.859375 457.867188 29.925781 452.851562 28.113281 447.789062 C 26.300781 442.722656 24.613281 437.617188 23.054688 432.46875 C 21.492188 427.324219 20.058594 422.140625 18.75 416.925781 C 17.445312 411.707031 16.265625 406.460938 15.214844 401.183594 C 14.167969 395.910156 13.246094 390.613281 12.457031 385.289062 C 11.667969 379.96875 11.011719 374.632812 10.484375 369.28125 C 9.957031 363.929688 9.558594 358.566406 9.296875 353.195312 C 9.03125 347.820312 8.898438 342.445312 8.898438 337.066406 C 8.898438 331.6875 9.03125 326.3125 9.296875 320.941406 C 9.558594 315.566406 9.953125 310.207031 10.480469 304.851562 C 11.007812 299.5 11.667969 294.164062 12.457031 288.84375 C 13.246094 283.523438 14.164062 278.222656 15.214844 272.949219 C 16.261719 267.671875 17.441406 262.425781 18.746094 257.210938 C 20.054688 251.992188 21.488281 246.808594 23.050781 241.664062 C 24.609375 236.515625 26.296875 231.410156 28.109375 226.34375 C 29.921875 221.28125 31.855469 216.265625 33.914062 211.296875 C 35.972656 206.324219 38.152344 201.410156 40.453125 196.546875 C 42.75 191.683594 45.167969 186.882812 47.703125 182.140625 C 50.238281 177.394531 52.890625 172.714844 55.65625 168.101562 C 58.421875 163.488281 61.296875 158.945312 64.285156 154.472656 C 67.273438 150.003906 70.371094 145.605469 73.574219 141.285156 C 76.777344 136.964844 80.085938 132.726562 83.496094 128.566406 C 86.910156 124.410156 90.421875 120.339844 94.035156 116.351562 C 97.644531 112.367188 101.355469 108.472656 105.15625 104.671875 C 108.960938 100.867188 112.855469 97.160156 116.839844 93.546875 C 120.824219 89.933594 124.898438 86.421875 129.054688 83.011719 C 133.210938 79.597656 137.449219 76.289062 141.769531 73.085938 C 146.089844 69.882812 150.488281 66.785156 154.960938 63.796875 C 159.433594 60.808594 163.976562 57.929688 168.589844 55.167969 C 173.203125 52.402344 177.878906 49.75 182.625 47.214844 C 187.367188 44.679688 192.171875 42.261719 197.03125 39.960938 C 201.894531 37.660156 206.808594 35.484375 211.78125 33.425781 C 216.75 31.367188 221.765625 29.429688 226.828125 27.617188 C 231.894531 25.804688 237 24.121094 242.148438 22.558594 C 247.292969 20.996094 252.476562 19.5625 257.695312 18.253906 C 262.910156 16.949219 268.15625 15.769531 273.433594 14.722656 C 278.707031 13.671875 284.007812 12.753906 289.328125 11.960938 C 294.648438 11.171875 299.984375 10.515625 305.335938 9.988281 C 310.6875 9.460938 316.050781 9.066406 321.425781 8.800781 C 326.796875 8.535156 332.171875 8.40625 337.550781 8.40625 C 342.929688 8.40625 348.304688 8.535156 353.675781 8.800781 C 359.050781 9.0625 364.410156 9.460938 369.765625 9.988281 C 375.117188 10.515625 380.453125 11.171875 385.773438 11.960938 C 391.09375 12.75 396.394531 13.667969 401.667969 14.71875 C 406.945312 15.769531 412.191406 16.945312 417.40625 18.253906 C 422.625 19.558594 427.808594 20.992188 432.953125 22.554688 C 438.101562 24.117188 443.207031 25.804688 448.273438 27.613281 C 453.335938 29.425781 458.351562 31.363281 463.324219 33.421875 C 468.292969 35.476562 473.207031 37.65625 478.070312 39.957031 C 482.933594 42.257812 487.734375 44.675781 492.480469 47.210938 C 497.222656 49.746094 501.902344 52.394531 506.515625 55.160156 C 511.128906 57.925781 515.671875 60.800781 520.144531 63.789062 C 524.617188 66.777344 529.011719 69.875 533.332031 73.078125 C 537.652344 76.28125 541.890625 79.589844 546.050781 83.003906 C 550.207031 86.414062 554.277344 89.925781 558.265625 93.539062 C 562.25 97.152344 566.144531 100.859375 569.949219 104.660156 Z M 569.949219 104.660156 " fill-opacity="1" fill-rule="nonzero"/></svg>