<svg xmlns="http://www.w3.org/2000/svg" xmlns:xlink="http://www.w3.org/1999/xlink" width="900" zoomAndPan="magnify" viewBox="0 0 675 675.000002" height="900" preserveAspectRatio="xMidYMid meet" version="1.0"><defs><clipPath id="b1fb8175b9"><path d="M 8.449219 7.949219 L 666.546875 7.949219 L 666.546875 666 L 8.449219 666 Z M 8.449219 7.949219 " clip-rule="nonzero"/></clipPath></defs><g clip-path="url(#b1fb8175b9)"><path fill="#ff909d" d="M 8.558594 336.945312 C 8.558594 342.328125 8.6875 347.710938 8.953125 353.085938 C 9.21875 358.464844 9.613281 363.832031 10.140625 369.191406 C 10.667969 374.550781 11.328125 379.890625 12.117188 385.21875 C 12.90625 390.542969 13.828125 395.847656 14.878906 401.128906 C 15.929688 406.410156 17.109375 411.660156 18.417969 416.882812 C 19.726562 422.105469 21.160156 427.292969 22.722656 432.445312 C 24.285156 437.597656 25.976562 442.710938 27.789062 447.777344 C 29.601562 452.847656 31.539062 457.871094 33.601562 462.84375 C 35.660156 467.820312 37.84375 472.738281 40.144531 477.609375 C 42.445312 482.476562 44.867188 487.28125 47.40625 492.03125 C 49.941406 496.78125 52.59375 501.464844 55.363281 506.082031 C 58.132812 510.699219 61.011719 515.246094 64.003906 519.722656 C 66.992188 524.199219 70.09375 528.601562 73.300781 532.925781 C 76.507812 537.25 79.820312 541.492188 83.234375 545.65625 C 86.652344 549.816406 90.167969 553.894531 93.78125 557.882812 C 97.398438 561.871094 101.109375 565.769531 104.917969 569.578125 C 108.726562 573.386719 112.625 577.097656 116.613281 580.714844 C 120.601562 584.328125 124.675781 587.84375 128.839844 591.261719 C 133 594.675781 137.246094 597.988281 141.570312 601.195312 C 145.894531 604.402344 150.296875 607.5 154.773438 610.492188 C 159.25 613.484375 163.796875 616.363281 168.414062 619.132812 C 173.03125 621.902344 177.714844 624.554688 182.464844 627.089844 C 187.214844 629.628906 192.019531 632.050781 196.886719 634.351562 C 201.757812 636.652344 206.675781 638.835938 211.652344 640.894531 C 216.625 642.957031 221.648438 644.894531 226.71875 646.707031 C 231.785156 648.519531 236.898438 650.210938 242.050781 651.773438 C 247.203125 653.335938 252.390625 654.769531 257.613281 656.078125 C 262.835938 657.386719 268.085938 658.566406 273.367188 659.617188 C 278.648438 660.667969 283.953125 661.589844 289.277344 662.378906 C 294.605469 663.167969 299.945312 663.828125 305.304688 664.355469 C 310.664062 664.882812 316.03125 665.277344 321.410156 665.542969 C 326.785156 665.808594 332.167969 665.9375 337.550781 665.9375 C 342.9375 665.9375 348.316406 665.808594 353.695312 665.542969 C 359.074219 665.277344 364.441406 664.882812 369.800781 664.355469 C 375.15625 663.828125 380.5 663.167969 385.824219 662.378906 C 391.152344 661.589844 396.453125 660.667969 401.734375 659.617188 C 407.015625 658.566406 412.269531 657.386719 417.492188 656.078125 C 422.714844 654.769531 427.902344 653.335938 433.054688 651.773438 C 438.207031 650.210938 443.316406 648.519531 448.386719 646.707031 C 453.457031 644.894531 458.480469 642.957031 463.453125 640.894531 C 468.425781 638.835938 473.347656 636.652344 478.214844 634.351562 C 483.082031 632.050781 487.890625 629.628906 492.640625 627.089844 C 497.386719 624.554688 502.070312 621.902344 506.6875 619.132812 C 511.308594 616.363281 515.855469 613.484375 520.332031 610.492188 C 524.808594 607.5 529.210938 604.402344 533.535156 601.195312 C 537.859375 597.988281 542.101562 594.675781 546.265625 591.261719 C 550.425781 587.84375 554.503906 584.328125 558.492188 580.714844 C 562.480469 577.097656 566.378906 573.386719 570.1875 569.578125 C 573.992188 565.769531 577.707031 561.871094 581.320312 557.882812 C 584.9375 553.894531 588.453125 549.816406 591.867188 545.65625 C 595.285156 541.492188 598.597656 537.25 601.804688 532.925781 C 605.011719 528.601562 608.109375 524.199219 611.101562 519.722656 C 614.09375 515.246094 616.972656 510.699219 619.742188 506.082031 C 622.507812 501.464844 625.160156 496.78125 627.699219 492.03125 C 630.238281 487.28125 632.65625 482.476562 634.960938 477.609375 C 637.261719 472.738281 639.445312 467.820312 641.503906 462.84375 C 643.5625 457.871094 645.5 452.847656 647.316406 447.777344 C 649.128906 442.710938 650.816406 437.597656 652.378906 432.445312 C 653.945312 427.292969 655.378906 422.105469 656.6875 416.882812 C 657.996094 411.660156 659.175781 406.410156 660.226562 401.128906 C 661.277344 395.847656 662.195312 390.542969 662.988281 385.21875 C 663.777344 379.890625 664.433594 374.550781 664.964844 369.191406 C 665.492188 363.832031 665.886719 358.464844 666.152344 353.085938 C 666.414062 347.710938 666.546875 342.328125 666.546875 336.945312 C 666.546875 331.558594 666.414062 326.179688 666.152344 320.800781 C 665.886719 315.421875 665.492188 310.054688 664.964844 304.695312 C 664.433594 299.339844 663.777344 293.996094 662.988281 288.671875 C 662.195312 283.34375 661.277344 278.039062 660.226562 272.761719 C 659.175781 267.480469 657.996094 262.226562 656.6875 257.003906 C 655.378906 251.78125 653.945312 246.59375 652.378906 241.441406 C 650.816406 236.289062 649.128906 231.179688 647.316406 226.109375 C 645.5 221.039062 643.5625 216.015625 641.503906 211.042969 C 639.445312 206.070312 637.261719 201.148438 634.960938 196.28125 C 632.65625 191.414062 630.238281 186.605469 627.699219 181.855469 C 625.160156 177.109375 622.507812 172.425781 619.742188 167.804688 C 616.972656 163.1875 614.09375 158.640625 611.101562 154.164062 C 608.109375 149.6875 605.011719 145.285156 601.804688 140.960938 C 598.597656 136.636719 595.285156 132.394531 591.867188 128.230469 C 588.453125 124.070312 584.9375 119.992188 581.320312 116.003906 C 577.707031 112.015625 573.992188 108.117188 570.1875 104.308594 C 566.378906 100.503906 562.480469 96.789062 558.492188 93.175781 C 554.503906 89.558594 550.425781 86.042969 546.265625 82.628906 C 542.101562 79.210938 537.859375 75.898438 533.535156 72.691406 C 529.210938 69.484375 524.808594 66.386719 520.332031 63.394531 C 515.855469 60.402344 511.308594 57.523438 506.6875 54.753906 C 502.070312 51.988281 497.386719 49.335938 492.640625 46.796875 C 487.890625 44.257812 483.082031 41.839844 478.214844 39.535156 C 473.347656 37.234375 468.425781 35.050781 463.453125 32.992188 C 458.480469 30.929688 453.457031 28.996094 448.386719 27.179688 C 443.316406 25.367188 438.207031 23.679688 433.054688 22.113281 C 427.902344 20.550781 422.714844 19.117188 417.492188 17.808594 C 412.269531 16.5 407.015625 15.320312 401.734375 14.269531 C 396.457031 13.21875 391.152344 12.300781 385.824219 11.507812 C 380.5 10.71875 375.15625 10.0625 369.800781 9.53125 C 364.441406 9.003906 359.074219 8.609375 353.695312 8.34375 C 348.316406 8.082031 342.9375 7.949219 337.550781 7.949219 C 332.167969 7.949219 326.785156 8.082031 321.410156 8.34375 C 316.03125 8.609375 310.664062 9.003906 305.304688 9.53125 C 299.945312 10.0625 294.605469 10.71875 289.277344 11.507812 C 283.953125 12.300781 278.648438 13.21875 273.367188 14.269531 C 268.085938 15.320312 262.835938 16.5 257.613281 17.808594 C 252.390625 19.117188 247.203125 20.550781 242.050781 22.113281 C 236.898438 23.679688 231.785156 25.367188 226.71875 27.179688 C 221.648438 28.996094 216.625 30.929688 211.652344 32.992188 C 206.675781 35.050781 201.757812 37.234375 196.886719 39.535156 C 192.019531 41.839844 187.214844 44.257812 182.464844 46.796875 C 177.714844 49.335938 173.03125 51.988281 168.414062 54.753906 C 163.796875 57.523438 159.25 60.402344 154.773438 63.394531 C 150.296875 66.386719 145.894531 69.484375 141.570312 72.691406 C 137.246094 75.898438 133.003906 79.210938 128.839844 82.628906 C 124.679688 86.042969 120.601562 89.558594 116.613281 93.175781 C 112.625 96.789062 108.726562 100.503906 104.917969 104.308594 C 101.109375 108.117188 97.398438 112.015625 93.78125 116.003906 C 90.167969 119.992188 86.652344 124.070312 83.234375 128.230469 C 79.820312 132.394531 76.507812 136.636719 73.300781 140.960938 C 70.09375 145.285156 66.992188 149.6875 64.003906 154.164062 C 61.011719 158.640625 58.132812 163.1875 55.363281 167.804688 C 52.59375 172.425781 49.941406 177.109375 47.40625 181.855469 C 44.867188 186.605469 42.445312 191.414062 40.144531 196.28125 C 37.84375 201.148438 35.660156 206.070312 33.601562 211.042969 C 31.539062 216.015625 29.601562 221.039062 27.789062 226.109375 C 25.976562 231.179688 24.285156 236.289062 22.722656 241.441406 C 21.160156 246.59375 19.726562 251.78125 18.417969 257.003906 C 17.109375 262.226562 15.929688 267.480469 14.878906 272.761719 C 13.828125 278.039062 12.90625 283.34375 12.117188 288.671875 C 11.328125 293.996094 10.667969 299.339844 10.140625 304.695312 C 9.613281 310.054688 9.21875 315.421875 8.953125 320.800781 C 8.6875 326.179688 8.558594 331.558594 8.558594 336.945312 Z M 8.558594 336.945312 " fill-opacity="1" fill-rule="nonzero"/></g><path fill="#ffffff" d="M 380.679688 547.59375 C 389.753906 547.59375 398.851562 544.378906 406.144531 537.847656 C 421.835938 523.773438 423.152344 499.648438 409.082031 483.949219 L 275.925781 335.429688 L 406.550781 214.847656 C 422.042969 200.554688 423.007812 176.40625 408.710938 160.914062 C 394.414062 145.429688 370.273438 144.460938 354.777344 158.753906 L 196.511719 304.847656 C 181.179688 318.996094 180.054688 342.832031 193.980469 358.367188 L 352.246094 534.898438 C 359.78125 543.304688 370.207031 547.585938 380.675781 547.585938 Z M 380.679688 547.59375 " fill-opacity="1" fill-rule="nonzero"/></svg>