<svg xmlns="http://www.w3.org/2000/svg" xmlns:xlink="http://www.w3.org/1999/xlink" width="900" zoomAndPan="magnify" viewBox="0 0 675 675.000002" height="900" preserveAspectRatio="xMidYMid meet" version="1.0"><defs><clipPath id="27610ba1ed"><path d="M 0.5 39.214844 L 674.5 39.214844 L 674.5 634.582031 L 0.5 634.582031 Z M 0.5 39.214844 " clip-rule="nonzero"/></clipPath></defs><g clip-path="url(#27610ba1ed)"><path fill="#f99192" d="M 674.171875 129.554688 L 674.171875 419.210938 C 674.171875 469.023438 635.351562 509.550781 587.632812 509.550781 L 459.273438 509.550781 L 342.640625 631.300781 C 340.546875 633.484375 337.707031 634.714844 334.746094 634.714844 C 331.789062 634.714844 328.949219 633.484375 326.855469 631.300781 L 210.207031 509.550781 L 87.339844 509.550781 C 39.621094 509.550781 0.800781 469.023438 0.800781 419.210938 L 0.800781 129.554688 C 0.800781 79.742188 39.621094 39.214844 87.339844 39.214844 L 587.632812 39.214844 C 635.351562 39.214844 674.171875 79.742188 674.171875 129.554688 Z M 674.171875 129.554688 " fill-opacity="1" fill-rule="nonzero"/><path fill="#f99192" d="M 587.632812 39.214844 L 87.339844 39.214844 C 39.621094 39.214844 0.800781 79.742188 0.800781 129.554688 L 0.800781 419.210938 C 0.800781 469.023438 39.621094 509.550781 87.339844 509.550781 L 210.207031 509.550781 L 326.855469 631.300781 C 328.949219 633.484375 331.789062 634.714844 334.746094 634.714844 C 337.707031 634.714844 340.546875 633.484375 342.640625 631.300781 L 459.273438 509.550781 L 587.632812 509.550781 C 635.351562 509.550781 674.171875 469.023438 674.171875 419.210938 L 674.171875 129.554688 C 674.171875 79.742188 635.351562 39.214844 587.632812 39.214844 Z M 433 287.21875 L 340.390625 379.832031 C 340.15625 380.042969 339.089844 380.972656 337.449219 380.964844 C 335.847656 380.953125 334.804688 380.046875 334.566406 379.832031 L 241.957031 287.21875 C 219.914062 267.273438 212.335938 236.871094 222.609375 211.628906 C 234.578125 182.214844 264.804688 174.539062 266.839844 174.0625 C 292.808594 168 320.5625 179.292969 337.480469 202.328125 C 354.398438 179.292969 382.15625 168.003906 408.117188 174.0625 C 409.425781 174.367188 440.238281 181.863281 452.351562 211.628906 C 462.703125 237.070312 454.925781 267.433594 433 287.21875 Z M 433 287.21875 " fill-opacity="1" fill-rule="nonzero"/></g><path fill="#feffff" d="M 452.351562 211.628906 C 462.703125 237.070312 454.925781 267.433594 433 287.21875 L 340.390625 379.832031 C 340.15625 380.042969 339.089844 380.972656 337.449219 380.964844 C 335.847656 380.953125 334.804688 380.046875 334.566406 379.832031 L 241.957031 287.21875 C 219.914062 267.273438 212.335938 236.871094 222.609375 211.628906 C 234.578125 182.214844 264.804688 174.539062 266.839844 174.0625 C 292.808594 168 320.5625 179.292969 337.480469 202.328125 C 354.398438 179.292969 382.15625 168.003906 408.117188 174.0625 C 409.425781 174.367188 440.238281 181.863281 452.351562 211.628906 Z M 452.351562 211.628906 " fill-opacity="1" fill-rule="nonzero"/></svg>