<svg xmlns="http://www.w3.org/2000/svg" xmlns:xlink="http://www.w3.org/1999/xlink" width="900" zoomAndPan="magnify" viewBox="0 0 675 449.999984" height="600" preserveAspectRatio="xMidYMid meet" version="1.0"><defs><clipPath id="c0639a2205"><path d="M 0 34.59375 L 674 34.59375 L 674 405 L 0 405 Z M 0 34.59375 " clip-rule="nonzero"/></clipPath></defs><g clip-path="url(#c0639a2205)"><path fill="#ccefa2" d="M 548.445312 34.59375 L 42 34.59375 C 18.808594 34.59375 0 53.402344 0 76.59375 L 0 363 C 0 386.191406 18.808594 405 42 405 L 548.445312 405 C 563.445312 405 577.316406 396.992188 584.816406 384 L 667.5 240.808594 C 675 227.816406 675 211.800781 667.5 198.808594 L 584.816406 55.617188 C 577.316406 42.601562 563.445312 34.59375 548.445312 34.59375 Z M 548.445312 34.59375 " fill-opacity="1" fill-rule="nonzero"/></g><path fill="#ffffff" d="M 323.054688 378.921875 L 89.492188 378.921875 C 71.054688 378.921875 56.078125 363.96875 56.078125 345.507812 L 56.078125 111.949219 C 56.078125 93.507812 71.03125 78.53125 89.492188 78.53125 L 323.054688 78.53125 C 341.492188 78.53125 356.46875 93.484375 356.46875 111.949219 L 356.46875 345.507812 C 356.445312 363.945312 341.492188 378.921875 323.054688 378.921875 Z M 323.054688 378.921875 " fill-opacity="1" fill-rule="nonzero"/><path fill="#000000" d="M 108.785156 179.953125 L 108.785156 145.664062 C 108.785156 137.699219 115.246094 131.238281 123.207031 131.238281 L 157.5 131.238281 L 157.5 120.648438 L 123.207031 120.648438 C 109.410156 120.648438 98.171875 131.886719 98.171875 145.6875 L 98.171875 179.976562 L 108.785156 179.976562 Z M 108.785156 179.953125 " fill-opacity="1" fill-rule="nonzero"/><path fill="#000000" d="M 255.046875 131.238281 L 289.316406 131.238281 C 297.277344 131.238281 303.738281 137.699219 303.738281 145.664062 L 303.738281 179.953125 L 314.332031 179.953125 L 314.332031 145.664062 C 314.332031 131.863281 303.09375 120.625 289.292969 120.625 L 255 120.625 L 255 131.238281 Z M 255.046875 131.238281 " fill-opacity="1" fill-rule="nonzero"/><path fill="#000000" d="M 157.5 326.214844 L 123.207031 326.214844 C 115.246094 326.214844 108.785156 319.753906 108.785156 311.792969 L 108.785156 277.5 L 98.191406 277.5 L 98.191406 311.792969 C 98.191406 325.59375 109.433594 336.832031 123.230469 336.832031 L 157.523438 336.832031 L 157.523438 326.214844 Z M 157.5 326.214844 " fill-opacity="1" fill-rule="nonzero"/><path fill="#000000" d="M 299.054688 334.847656 C 308.03125 331.039062 314.355469 322.132812 314.355469 311.792969 L 314.355469 277.5 L 303.761719 277.5 L 303.761719 311.792969 C 303.761719 319.753906 297.300781 326.214844 289.339844 326.214844 L 255.046875 326.214844 L 255.046875 336.808594 L 289.316406 336.808594 C 292.777344 336.808594 296.054688 336.117188 299.054688 334.847656 " fill-opacity="1" fill-rule="nonzero"/><path fill="#000000" d="M 385.363281 191.285156 C 384.414062 190.617188 383.769531 189.417969 383.769531 188.101562 C 383.769531 185.910156 385.523438 184.199219 387.738281 184.199219 C 388.847656 184.199219 389.609375 184.59375 390.160156 184.960938 C 393.09375 187.109375 396.277344 188.425781 400.015625 188.425781 C 403.476562 188.425781 405.578125 187.039062 405.578125 184.777344 L 405.578125 184.664062 C 405.578125 182.515625 404.261719 181.410156 397.824219 179.769531 C 390.046875 177.785156 385.039062 175.640625 385.039062 167.976562 L 385.039062 167.863281 C 385.039062 160.871094 390.644531 156.230469 398.539062 156.230469 C 403.222656 156.230469 407.308594 157.453125 410.769531 159.648438 C 411.714844 160.199219 412.636719 161.355469 412.636719 163.015625 C 412.636719 165.207031 410.882812 166.917969 408.667969 166.917969 C 407.839844 166.917969 407.191406 166.6875 406.523438 166.316406 C 403.707031 164.65625 401.078125 163.730469 398.421875 163.730469 C 395.167969 163.730469 393.460938 165.207031 393.460938 167.101562 L 393.460938 167.214844 C 393.460938 169.753906 395.121094 170.585938 401.769531 172.292969 C 409.59375 174.324219 414 177.140625 414 183.855469 L 414 183.96875 C 414 191.632812 408.160156 195.925781 399.855469 195.925781 C 394.777344 195.902344 389.652344 194.378906 385.363281 191.285156 Z M 385.363281 191.285156 " fill-opacity="1" fill-rule="nonzero"/><path fill="#000000" d="M 419.675781 176.191406 L 419.675781 176.078125 C 419.675781 165.117188 427.9375 156.140625 439.777344 156.140625 C 445.570312 156.140625 449.46875 157.6875 452.675781 160.039062 C 453.554688 160.707031 454.339844 161.910156 454.339844 163.410156 C 454.339844 165.714844 452.46875 167.539062 450.160156 167.539062 C 449.007812 167.539062 448.246094 167.101562 447.621094 166.707031 C 445.246094 164.953125 442.777344 163.960938 439.753906 163.960938 C 433.246094 163.960938 428.5625 169.363281 428.5625 175.960938 L 428.5625 176.078125 C 428.5625 182.679688 433.128906 188.191406 439.753906 188.191406 C 443.332031 188.191406 445.707031 187.085938 448.128906 185.171875 C 448.800781 184.617188 449.675781 184.222656 450.667969 184.222656 C 452.816406 184.222656 454.636719 185.976562 454.636719 188.125 C 454.636719 189.4375 453.96875 190.5 453.207031 191.148438 C 449.746094 194.171875 445.660156 195.992188 439.5 195.992188 C 428.101562 196.015625 419.675781 187.269531 419.675781 176.191406 Z M 419.675781 176.191406 " fill-opacity="1" fill-rule="nonzero"/><path fill="#000000" d="M 459.898438 189.902344 L 473.332031 159.554688 C 474.277344 157.453125 475.984375 156.1875 478.292969 156.1875 L 478.777344 156.1875 C 481.085938 156.1875 482.746094 157.453125 483.667969 159.554688 L 497.097656 189.902344 C 497.375 190.5 497.539062 191.054688 497.539062 191.609375 C 497.539062 193.871094 495.785156 195.691406 493.523438 195.691406 C 491.539062 195.691406 490.222656 194.539062 489.4375 192.761719 L 486.851562 186.714844 L 469.890625 186.714844 L 467.191406 193.039062 C 466.476562 194.699219 465.046875 195.691406 463.292969 195.691406 C 461.097656 195.691406 459.390625 193.9375 459.390625 191.722656 C 459.414062 191.125 459.621094 190.523438 459.898438 189.902344 Z M 483.761719 179.214844 L 478.40625 166.5 L 473.054688 179.214844 Z M 483.761719 179.214844 " fill-opacity="1" fill-rule="nonzero"/><path fill="#000000" d="M 504.253906 160.824219 C 504.253906 158.445312 506.121094 156.578125 508.5 156.578125 L 509.375 156.578125 C 511.40625 156.578125 512.628906 157.570312 513.785156 159.046875 L 530.144531 180.53125 L 530.144531 160.640625 C 530.144531 158.332031 532.015625 156.460938 534.324219 156.460938 C 536.628906 156.460938 538.5 158.332031 538.5 160.640625 L 538.5 191.332031 C 538.5 193.707031 536.628906 195.578125 534.253906 195.578125 L 533.976562 195.578125 C 531.945312 195.578125 530.722656 194.585938 529.570312 193.109375 L 512.605469 170.863281 L 512.605469 191.515625 C 512.605469 193.824219 510.738281 195.691406 508.429688 195.691406 C 506.121094 195.691406 504.253906 193.824219 504.253906 191.515625 Z M 504.253906 160.824219 " fill-opacity="1" fill-rule="nonzero"/><path fill="#000000" d="M 386.121094 214.894531 C 386.121094 210.230469 389.816406 206.5625 394.453125 206.5625 L 396.300781 206.5625 C 399.875 206.5625 402.367188 208.410156 403.867188 210.902344 L 424.015625 243.714844 L 444.253906 210.808594 C 445.984375 207.992188 448.359375 206.585938 451.730469 206.585938 L 453.578125 206.585938 C 458.238281 206.585938 461.90625 210.277344 461.90625 214.917969 L 461.90625 275.125 C 461.90625 279.785156 458.214844 283.453125 453.578125 283.453125 C 449.03125 283.453125 445.339844 279.667969 445.339844 275.125 L 445.339844 237.324219 L 430.730469 259.847656 C 429 262.453125 426.832031 264.070312 423.808594 264.070312 C 420.785156 264.070312 418.613281 262.453125 416.882812 259.847656 L 402.484375 237.648438 L 402.484375 275.308594 C 402.484375 279.855469 398.792969 283.429688 394.246094 283.429688 C 389.699219 283.429688 386.121094 279.855469 386.121094 275.308594 Z M 386.121094 214.894531 " fill-opacity="1" fill-rule="nonzero"/><path fill="#000000" d="M 480.136719 274.453125 L 480.136719 215.332031 C 480.136719 210.671875 483.832031 207 488.46875 207 L 530.492188 207 C 534.597656 207 537.96875 210.371094 537.96875 214.476562 C 537.96875 218.585938 534.621094 221.839844 530.492188 221.839844 L 496.707031 221.839844 L 496.707031 237.207031 L 525.621094 237.207031 C 529.730469 237.207031 533.097656 240.554688 533.097656 244.683594 C 533.097656 248.792969 529.753906 252.046875 525.621094 252.046875 L 496.707031 252.046875 L 496.707031 267.96875 L 531.023438 267.96875 C 535.128906 267.96875 538.5 271.316406 538.5 275.445312 C 538.5 279.578125 535.152344 282.808594 531.023438 282.808594 L 488.46875 282.808594 C 483.832031 282.785156 480.136719 279.117188 480.136719 274.453125 Z M 480.136719 274.453125 " fill-opacity="1" fill-rule="nonzero"/><path fill="#000000" d="M 558.738281 166.292969 C 558.230469 161.402344 560.929688 157.664062 565.5 157.664062 L 582.066406 157.664062 C 586.636719 157.664062 589.335938 161.378906 588.851562 166.292969 L 581.5625 229.871094 C 581.074219 234.4375 578.03125 237.300781 573.785156 237.300781 C 569.5625 237.300781 566.492188 234.417969 566.007812 229.871094 Z M 573.785156 248.46875 C 582.230469 248.46875 588.484375 254.722656 588.484375 262.847656 L 588.484375 263.191406 C 588.484375 271.316406 582.230469 277.570312 573.785156 277.570312 C 565.335938 277.570312 559.0625 271.316406 559.0625 263.191406 L 559.0625 262.847656 C 559.0625 254.722656 565.316406 248.46875 573.785156 248.46875 Z M 573.785156 248.46875 " fill-opacity="1" fill-rule="nonzero"/></svg>