<svg xmlns="http://www.w3.org/2000/svg" xmlns:xlink="http://www.w3.org/1999/xlink" width="900" zoomAndPan="magnify" viewBox="0 0 675 675.000002" height="900" preserveAspectRatio="xMidYMid meet" version="1.0"><defs><clipPath id="b7fc45c56a"><path d="M 5 5 L 670 5 L 670 669 L 5 669 Z M 5 5 " clip-rule="nonzero"/></clipPath><clipPath id="c82974454a"><path d="M -131.96875 337 L 337.738281 -132.707031 L 807.445312 337 L 337.738281 806.707031 Z M -131.96875 337 " clip-rule="nonzero"/></clipPath><clipPath id="8ec4ec0f46"><path d="M -131.96875 337 L 337.738281 -132.707031 L 807.445312 337 L 337.738281 806.707031 Z M -131.96875 337 " clip-rule="nonzero"/></clipPath><clipPath id="844ff316f4"><path d="M 231 230 L 325 230 L 325 324 L 231 324 Z M 231 230 " clip-rule="nonzero"/></clipPath><clipPath id="a1ae8572bb"><path d="M -131.96875 337 L 337.738281 -132.707031 L 807.445312 337 L 337.738281 806.707031 Z M -131.96875 337 " clip-rule="nonzero"/></clipPath><clipPath id="dd8e711719"><path d="M -131.96875 337 L 337.738281 -132.707031 L 807.445312 337 L 337.738281 806.707031 Z M -131.96875 337 " clip-rule="nonzero"/></clipPath><clipPath id="2128a3e235"><path d="M 132 131 L 480 131 L 480 479 L 132 479 Z M 132 131 " clip-rule="nonzero"/></clipPath><clipPath id="926c2a9953"><path d="M -131.96875 337 L 337.738281 -132.707031 L 807.445312 337 L 337.738281 806.707031 Z M -131.96875 337 " clip-rule="nonzero"/></clipPath><clipPath id="c3cc058dcd"><path d="M -131.96875 337 L 337.738281 -132.707031 L 807.445312 337 L 337.738281 806.707031 Z M -131.96875 337 " clip-rule="nonzero"/></clipPath></defs><g clip-path="url(#b7fc45c56a)"><g clip-path="url(#c82974454a)"><g clip-path="url(#8ec4ec0f46)"><path fill="#ffdf8e" d="M 572.230469 571.730469 C 701.519531 442.445312 701.519531 231.550781 572.230469 102.265625 C 442.945312 -27.023438 232.050781 -27.023438 102.765625 102.265625 C -26.523438 231.550781 -26.523438 442.445312 102.765625 571.730469 C 232.050781 701.019531 442.945312 701.019531 572.230469 571.730469 " fill-opacity="1" fill-rule="evenodd"/></g></g></g><g clip-path="url(#844ff316f4)"><g clip-path="url(#a1ae8572bb)"><g clip-path="url(#dd8e711719)"><path fill="#fefefe" d="M 231.074219 301.707031 L 302.207031 230.574219 L 324.113281 252.480469 L 252.980469 323.613281 L 231.074219 301.707031 " fill-opacity="1" fill-rule="evenodd"/></g></g></g><g clip-path="url(#2128a3e235)"><g clip-path="url(#926c2a9953)"><g clip-path="url(#c3cc058dcd)"><path fill="#fefefe" d="M 390.808594 368.402344 L 479.09375 456.6875 L 457.183594 478.597656 L 368.898438 390.3125 C 343.140625 411.125 311.082031 422.535156 277.589844 422.535156 C 238.894531 422.535156 202.113281 407.300781 174.75 379.933594 C 147.386719 352.570312 132.152344 315.789062 132.152344 277.09375 C 132.152344 238.398438 147.386719 201.613281 174.75 174.25 C 202.113281 146.886719 238.894531 131.652344 277.589844 131.652344 C 316.289062 131.652344 353.070312 146.886719 380.433594 174.25 C 407.796875 201.613281 423.03125 238.398438 423.03125 277.09375 C 423.035156 310.582031 411.621094 342.640625 390.808594 368.402344 Z M 277.59375 162.632812 C 247.128906 162.636719 218.203125 174.613281 196.65625 196.15625 C 175.113281 217.703125 163.132812 246.632812 163.132812 277.09375 C 163.136719 307.554688 175.117188 336.484375 196.65625 358.027344 C 218.203125 379.570312 247.132812 391.550781 277.589844 391.554688 C 308.050781 391.550781 336.984375 379.570312 358.527344 358.027344 C 380.066406 336.484375 392.050781 307.550781 392.054688 277.09375 C 392.050781 246.632812 380.070312 217.703125 358.527344 196.15625 C 336.984375 174.617188 308.054688 162.636719 277.59375 162.632812 " fill-opacity="1" fill-rule="evenodd"/></g></g></g></svg>